solid OpenSCAD_Model
  facet normal 0.996194 0.0871619 0
    outer loop
      vertex 0.45 0 0.2
      vertex 0.443163 0.0781417 0
      vertex 0.443163 0.0781417 0.2
    endloop
  endfacet
  facet normal 0.996194 0.0871619 0
    outer loop
      vertex 0.443163 0.0781417 0
      vertex 0.45 0 0.2
      vertex 0.45 0 0
    endloop
  endfacet
  facet normal 0.965928 0.25881 0
    outer loop
      vertex 0.443163 0.0781417 0.2
      vertex 0.422862 0.153909 0
      vertex 0.422862 0.153909 0.2
    endloop
  endfacet
  facet normal 0.965928 0.25881 0
    outer loop
      vertex 0.422862 0.153909 0
      vertex 0.443163 0.0781417 0.2
      vertex 0.443163 0.0781417 0
    endloop
  endfacet
  facet normal 0.906304 0.422626 0
    outer loop
      vertex 0.422862 0.153909 0.2
      vertex 0.389711 0.225 0
      vertex 0.389711 0.225 0.2
    endloop
  endfacet
  facet normal 0.906304 0.422626 0
    outer loop
      vertex 0.389711 0.225 0
      vertex 0.422862 0.153909 0.2
      vertex 0.422862 0.153909 0
    endloop
  endfacet
  facet normal 0.819153 0.573575 0
    outer loop
      vertex 0.389711 0.225 0.2
      vertex 0.34472 0.289254 0
      vertex 0.34472 0.289254 0.2
    endloop
  endfacet
  facet normal 0.819153 0.573575 0
    outer loop
      vertex 0.34472 0.289254 0
      vertex 0.389711 0.225 0.2
      vertex 0.389711 0.225 0
    endloop
  endfacet
  facet normal 0.707107 0.707107 0
    outer loop
      vertex 0.34472 0.289254 0.2
      vertex 0.289254 0.34472 0
      vertex 0.289254 0.34472 0.2
    endloop
  endfacet
  facet normal 0.707107 0.707107 0
    outer loop
      vertex 0.289254 0.34472 0
      vertex 0.34472 0.289254 0.2
      vertex 0.34472 0.289254 0
    endloop
  endfacet
  facet normal 0.573575 0.819153 -0
    outer loop
      vertex 0.289254 0.34472 0
      vertex 0.225 0.389711 0.2
      vertex 0.289254 0.34472 0.2
    endloop
  endfacet
  facet normal 0.573575 0.819153 0
    outer loop
      vertex 0.225 0.389711 0.2
      vertex 0.289254 0.34472 0
      vertex 0.225 0.389711 0
    endloop
  endfacet
  facet normal 0.422626 0.906304 -0
    outer loop
      vertex 0.225 0.389711 0
      vertex 0.153909 0.422862 0.2
      vertex 0.225 0.389711 0.2
    endloop
  endfacet
  facet normal 0.422626 0.906304 0
    outer loop
      vertex 0.153909 0.422862 0.2
      vertex 0.225 0.389711 0
      vertex 0.153909 0.422862 0
    endloop
  endfacet
  facet normal 0.25881 0.965928 -0
    outer loop
      vertex 0.153909 0.422862 0
      vertex 0.0781417 0.443163 0.2
      vertex 0.153909 0.422862 0.2
    endloop
  endfacet
  facet normal 0.25881 0.965928 0
    outer loop
      vertex 0.0781417 0.443163 0.2
      vertex 0.153909 0.422862 0
      vertex 0.0781417 0.443163 0
    endloop
  endfacet
  facet normal 0.0871619 0.996194 -0
    outer loop
      vertex 0.0781417 0.443163 0
      vertex 0 0.45 0.2
      vertex 0.0781417 0.443163 0.2
    endloop
  endfacet
  facet normal 0.0871619 0.996194 0
    outer loop
      vertex 0 0.45 0.2
      vertex 0.0781417 0.443163 0
      vertex 0 0.45 0
    endloop
  endfacet
  facet normal -0.0871619 0.996194 0
    outer loop
      vertex 0 0.45 0
      vertex -0.0781417 0.443163 0.2
      vertex 0 0.45 0.2
    endloop
  endfacet
  facet normal -0.0871619 0.996194 0
    outer loop
      vertex -0.0781417 0.443163 0.2
      vertex 0 0.45 0
      vertex -0.0781417 0.443163 0
    endloop
  endfacet
  facet normal -0.25881 0.965928 0
    outer loop
      vertex -0.0781417 0.443163 0
      vertex -0.153909 0.422862 0.2
      vertex -0.0781417 0.443163 0.2
    endloop
  endfacet
  facet normal -0.25881 0.965928 0
    outer loop
      vertex -0.153909 0.422862 0.2
      vertex -0.0781417 0.443163 0
      vertex -0.153909 0.422862 0
    endloop
  endfacet
  facet normal -0.422626 0.906304 0
    outer loop
      vertex -0.153909 0.422862 0
      vertex -0.225 0.389711 0.2
      vertex -0.153909 0.422862 0.2
    endloop
  endfacet
  facet normal -0.422626 0.906304 0
    outer loop
      vertex -0.225 0.389711 0.2
      vertex -0.153909 0.422862 0
      vertex -0.225 0.389711 0
    endloop
  endfacet
  facet normal -0.573575 0.819153 0
    outer loop
      vertex -0.225 0.389711 0
      vertex -0.289254 0.34472 0.2
      vertex -0.225 0.389711 0.2
    endloop
  endfacet
  facet normal -0.573575 0.819153 0
    outer loop
      vertex -0.289254 0.34472 0.2
      vertex -0.225 0.389711 0
      vertex -0.289254 0.34472 0
    endloop
  endfacet
  facet normal -0.707107 0.707107 0
    outer loop
      vertex -0.34472 0.289254 0
      vertex -0.289254 0.34472 0.2
      vertex -0.289254 0.34472 0
    endloop
  endfacet
  facet normal -0.707107 0.707107 0
    outer loop
      vertex -0.289254 0.34472 0.2
      vertex -0.34472 0.289254 0
      vertex -0.34472 0.289254 0.2
    endloop
  endfacet
  facet normal -0.819153 0.573575 0
    outer loop
      vertex -0.389711 0.225 0
      vertex -0.34472 0.289254 0.2
      vertex -0.34472 0.289254 0
    endloop
  endfacet
  facet normal -0.819153 0.573575 0
    outer loop
      vertex -0.34472 0.289254 0.2
      vertex -0.389711 0.225 0
      vertex -0.389711 0.225 0.2
    endloop
  endfacet
  facet normal -0.906304 0.422626 0
    outer loop
      vertex -0.422862 0.153909 0
      vertex -0.389711 0.225 0.2
      vertex -0.389711 0.225 0
    endloop
  endfacet
  facet normal -0.906304 0.422626 0
    outer loop
      vertex -0.389711 0.225 0.2
      vertex -0.422862 0.153909 0
      vertex -0.422862 0.153909 0.2
    endloop
  endfacet
  facet normal -0.965928 0.25881 0
    outer loop
      vertex -0.443163 0.0781417 0
      vertex -0.422862 0.153909 0.2
      vertex -0.422862 0.153909 0
    endloop
  endfacet
  facet normal -0.965928 0.25881 0
    outer loop
      vertex -0.422862 0.153909 0.2
      vertex -0.443163 0.0781417 0
      vertex -0.443163 0.0781417 0.2
    endloop
  endfacet
  facet normal -0.996194 0.0871619 0
    outer loop
      vertex -0.45 0 0
      vertex -0.443163 0.0781417 0.2
      vertex -0.443163 0.0781417 0
    endloop
  endfacet
  facet normal -0.996194 0.0871619 0
    outer loop
      vertex -0.443163 0.0781417 0.2
      vertex -0.45 0 0
      vertex -0.45 0 0.2
    endloop
  endfacet
  facet normal -0.996194 -0.0871619 0
    outer loop
      vertex -0.443163 -0.0781417 0
      vertex -0.45 0 0.2
      vertex -0.45 0 0
    endloop
  endfacet
  facet normal -0.996194 -0.0871619 0
    outer loop
      vertex -0.45 0 0.2
      vertex -0.443163 -0.0781417 0
      vertex -0.443163 -0.0781417 0.2
    endloop
  endfacet
  facet normal -0.965928 -0.25881 0
    outer loop
      vertex -0.422862 -0.153909 0
      vertex -0.443163 -0.0781417 0.2
      vertex -0.443163 -0.0781417 0
    endloop
  endfacet
  facet normal -0.965928 -0.25881 0
    outer loop
      vertex -0.443163 -0.0781417 0.2
      vertex -0.422862 -0.153909 0
      vertex -0.422862 -0.153909 0.2
    endloop
  endfacet
  facet normal -0.906304 -0.422626 0
    outer loop
      vertex -0.389711 -0.225 0
      vertex -0.422862 -0.153909 0.2
      vertex -0.422862 -0.153909 0
    endloop
  endfacet
  facet normal -0.906304 -0.422626 0
    outer loop
      vertex -0.422862 -0.153909 0.2
      vertex -0.389711 -0.225 0
      vertex -0.389711 -0.225 0.2
    endloop
  endfacet
  facet normal -0.819153 -0.573575 0
    outer loop
      vertex -0.34472 -0.289254 0
      vertex -0.389711 -0.225 0.2
      vertex -0.389711 -0.225 0
    endloop
  endfacet
  facet normal -0.819153 -0.573575 0
    outer loop
      vertex -0.389711 -0.225 0.2
      vertex -0.34472 -0.289254 0
      vertex -0.34472 -0.289254 0.2
    endloop
  endfacet
  facet normal -0.707107 -0.707107 0
    outer loop
      vertex -0.289254 -0.34472 0
      vertex -0.34472 -0.289254 0.2
      vertex -0.34472 -0.289254 0
    endloop
  endfacet
  facet normal -0.707107 -0.707107 0
    outer loop
      vertex -0.34472 -0.289254 0.2
      vertex -0.289254 -0.34472 0
      vertex -0.289254 -0.34472 0.2
    endloop
  endfacet
  facet normal -0.573575 -0.819153 0
    outer loop
      vertex -0.289254 -0.34472 0
      vertex -0.225 -0.389711 0.2
      vertex -0.289254 -0.34472 0.2
    endloop
  endfacet
  facet normal -0.573575 -0.819153 -0
    outer loop
      vertex -0.225 -0.389711 0.2
      vertex -0.289254 -0.34472 0
      vertex -0.225 -0.389711 0
    endloop
  endfacet
  facet normal -0.422626 -0.906304 0
    outer loop
      vertex -0.225 -0.389711 0
      vertex -0.153909 -0.422862 0.2
      vertex -0.225 -0.389711 0.2
    endloop
  endfacet
  facet normal -0.422626 -0.906304 -0
    outer loop
      vertex -0.153909 -0.422862 0.2
      vertex -0.225 -0.389711 0
      vertex -0.153909 -0.422862 0
    endloop
  endfacet
  facet normal -0.25881 -0.965928 0
    outer loop
      vertex -0.153909 -0.422862 0
      vertex -0.0781417 -0.443163 0.2
      vertex -0.153909 -0.422862 0.2
    endloop
  endfacet
  facet normal -0.25881 -0.965928 -0
    outer loop
      vertex -0.0781417 -0.443163 0.2
      vertex -0.153909 -0.422862 0
      vertex -0.0781417 -0.443163 0
    endloop
  endfacet
  facet normal -0.0871619 -0.996194 0
    outer loop
      vertex -0.0781417 -0.443163 0
      vertex 0 -0.45 0.2
      vertex -0.0781417 -0.443163 0.2
    endloop
  endfacet
  facet normal -0.0871619 -0.996194 -0
    outer loop
      vertex 0 -0.45 0.2
      vertex -0.0781417 -0.443163 0
      vertex 0 -0.45 0
    endloop
  endfacet
  facet normal 0.0871619 -0.996194 0
    outer loop
      vertex 0 -0.45 0
      vertex 0.0781417 -0.443163 0.2
      vertex 0 -0.45 0.2
    endloop
  endfacet
  facet normal 0.0871619 -0.996194 0
    outer loop
      vertex 0.0781417 -0.443163 0.2
      vertex 0 -0.45 0
      vertex 0.0781417 -0.443163 0
    endloop
  endfacet
  facet normal 0.25881 -0.965928 0
    outer loop
      vertex 0.0781417 -0.443163 0
      vertex 0.153909 -0.422862 0.2
      vertex 0.0781417 -0.443163 0.2
    endloop
  endfacet
  facet normal 0.25881 -0.965928 0
    outer loop
      vertex 0.153909 -0.422862 0.2
      vertex 0.0781417 -0.443163 0
      vertex 0.153909 -0.422862 0
    endloop
  endfacet
  facet normal 0.422626 -0.906304 0
    outer loop
      vertex 0.153909 -0.422862 0
      vertex 0.225 -0.389711 0.2
      vertex 0.153909 -0.422862 0.2
    endloop
  endfacet
  facet normal 0.422626 -0.906304 0
    outer loop
      vertex 0.225 -0.389711 0.2
      vertex 0.153909 -0.422862 0
      vertex 0.225 -0.389711 0
    endloop
  endfacet
  facet normal 0.573575 -0.819153 0
    outer loop
      vertex 0.225 -0.389711 0
      vertex 0.289254 -0.34472 0.2
      vertex 0.225 -0.389711 0.2
    endloop
  endfacet
  facet normal 0.573575 -0.819153 0
    outer loop
      vertex 0.289254 -0.34472 0.2
      vertex 0.225 -0.389711 0
      vertex 0.289254 -0.34472 0
    endloop
  endfacet
  facet normal 0.707107 -0.707107 0
    outer loop
      vertex 0.289254 -0.34472 0.2
      vertex 0.34472 -0.289254 0
      vertex 0.34472 -0.289254 0.2
    endloop
  endfacet
  facet normal 0.707107 -0.707107 0
    outer loop
      vertex 0.34472 -0.289254 0
      vertex 0.289254 -0.34472 0.2
      vertex 0.289254 -0.34472 0
    endloop
  endfacet
  facet normal 0.819153 -0.573575 0
    outer loop
      vertex 0.34472 -0.289254 0.2
      vertex 0.389711 -0.225 0
      vertex 0.389711 -0.225 0.2
    endloop
  endfacet
  facet normal 0.819153 -0.573575 0
    outer loop
      vertex 0.389711 -0.225 0
      vertex 0.34472 -0.289254 0.2
      vertex 0.34472 -0.289254 0
    endloop
  endfacet
  facet normal 0.906304 -0.422626 0
    outer loop
      vertex 0.389711 -0.225 0.2
      vertex 0.422862 -0.153909 0
      vertex 0.422862 -0.153909 0.2
    endloop
  endfacet
  facet normal 0.906304 -0.422626 0
    outer loop
      vertex 0.422862 -0.153909 0
      vertex 0.389711 -0.225 0.2
      vertex 0.389711 -0.225 0
    endloop
  endfacet
  facet normal 0.965928 -0.25881 0
    outer loop
      vertex 0.422862 -0.153909 0.2
      vertex 0.443163 -0.0781417 0
      vertex 0.443163 -0.0781417 0.2
    endloop
  endfacet
  facet normal 0.965928 -0.25881 0
    outer loop
      vertex 0.443163 -0.0781417 0
      vertex 0.422862 -0.153909 0.2
      vertex 0.422862 -0.153909 0
    endloop
  endfacet
  facet normal 0.996194 -0.0871619 0
    outer loop
      vertex 0.443163 -0.0781417 0.2
      vertex 0.45 0 0
      vertex 0.45 0 0.2
    endloop
  endfacet
  facet normal 0.996194 -0.0871619 0
    outer loop
      vertex 0.45 0 0
      vertex 0.443163 -0.0781417 0.2
      vertex 0.443163 -0.0781417 0
    endloop
  endfacet
  facet normal 0 0 -1
    outer loop
      vertex 0.443163 -0.0781417 0
      vertex 0.443163 0.0781417 0
      vertex 0.45 0 0
    endloop
  endfacet
  facet normal 0 0 -1
    outer loop
      vertex 0.422862 -0.153909 0
      vertex 0.443163 0.0781417 0
      vertex 0.443163 -0.0781417 0
    endloop
  endfacet
  facet normal 0 0 -1
    outer loop
      vertex 0.422862 -0.153909 0
      vertex 0.422862 0.153909 0
      vertex 0.443163 0.0781417 0
    endloop
  endfacet
  facet normal 0 0 -1
    outer loop
      vertex 0.389711 -0.225 0
      vertex 0.422862 0.153909 0
      vertex 0.422862 -0.153909 0
    endloop
  endfacet
  facet normal 0 0 -1
    outer loop
      vertex 0.389711 -0.225 0
      vertex 0.389711 0.225 0
      vertex 0.422862 0.153909 0
    endloop
  endfacet
  facet normal 0 0 -1
    outer loop
      vertex 0.34472 -0.289254 0
      vertex 0.389711 0.225 0
      vertex 0.389711 -0.225 0
    endloop
  endfacet
  facet normal 0 0 -1
    outer loop
      vertex 0.34472 -0.289254 0
      vertex 0.34472 0.289254 0
      vertex 0.389711 0.225 0
    endloop
  endfacet
  facet normal 0 0 -1
    outer loop
      vertex 0.289254 -0.34472 0
      vertex 0.34472 0.289254 0
      vertex 0.34472 -0.289254 0
    endloop
  endfacet
  facet normal 0 0 -1
    outer loop
      vertex 0.289254 -0.34472 0
      vertex 0.289254 0.34472 0
      vertex 0.34472 0.289254 0
    endloop
  endfacet
  facet normal 0 0 -1
    outer loop
      vertex 0.225 -0.389711 0
      vertex 0.289254 0.34472 0
      vertex 0.289254 -0.34472 0
    endloop
  endfacet
  facet normal 0 0 -1
    outer loop
      vertex 0.225 -0.389711 0
      vertex 0.225 0.389711 0
      vertex 0.289254 0.34472 0
    endloop
  endfacet
  facet normal 0 0 -1
    outer loop
      vertex 0.153909 -0.422862 0
      vertex 0.225 0.389711 0
      vertex 0.225 -0.389711 0
    endloop
  endfacet
  facet normal 0 0 -1
    outer loop
      vertex 0.153909 -0.422862 0
      vertex 0.153909 0.422862 0
      vertex 0.225 0.389711 0
    endloop
  endfacet
  facet normal 0 0 -1
    outer loop
      vertex 0.0781417 -0.443163 0
      vertex 0.153909 0.422862 0
      vertex 0.153909 -0.422862 0
    endloop
  endfacet
  facet normal 0 0 -1
    outer loop
      vertex 0.0781417 -0.443163 0
      vertex 0.0781417 0.443163 0
      vertex 0.153909 0.422862 0
    endloop
  endfacet
  facet normal 0 0 -1
    outer loop
      vertex 0 -0.45 0
      vertex 0.0781417 0.443163 0
      vertex 0.0781417 -0.443163 0
    endloop
  endfacet
  facet normal 0 0 -1
    outer loop
      vertex 0 -0.45 0
      vertex 0 0.45 0
      vertex 0.0781417 0.443163 0
    endloop
  endfacet
  facet normal 0 0 -1
    outer loop
      vertex -0.0781417 -0.443163 0
      vertex 0 0.45 0
      vertex 0 -0.45 0
    endloop
  endfacet
  facet normal 0 0 -1
    outer loop
      vertex -0.0781417 -0.443163 0
      vertex -0.0781417 0.443163 0
      vertex 0 0.45 0
    endloop
  endfacet
  facet normal 0 0 -1
    outer loop
      vertex -0.153909 -0.422862 0
      vertex -0.0781417 0.443163 0
      vertex -0.0781417 -0.443163 0
    endloop
  endfacet
  facet normal 0 0 -1
    outer loop
      vertex -0.153909 -0.422862 0
      vertex -0.153909 0.422862 0
      vertex -0.0781417 0.443163 0
    endloop
  endfacet
  facet normal 0 0 -1
    outer loop
      vertex -0.225 -0.389711 0
      vertex -0.153909 0.422862 0
      vertex -0.153909 -0.422862 0
    endloop
  endfacet
  facet normal 0 0 -1
    outer loop
      vertex -0.225 -0.389711 0
      vertex -0.225 0.389711 0
      vertex -0.153909 0.422862 0
    endloop
  endfacet
  facet normal 0 0 -1
    outer loop
      vertex -0.289254 -0.34472 0
      vertex -0.225 0.389711 0
      vertex -0.225 -0.389711 0
    endloop
  endfacet
  facet normal 0 0 -1
    outer loop
      vertex -0.289254 -0.34472 0
      vertex -0.289254 0.34472 0
      vertex -0.225 0.389711 0
    endloop
  endfacet
  facet normal 0 0 -1
    outer loop
      vertex -0.34472 -0.289254 0
      vertex -0.289254 0.34472 0
      vertex -0.289254 -0.34472 0
    endloop
  endfacet
  facet normal 0 0 -1
    outer loop
      vertex -0.34472 -0.289254 0
      vertex -0.34472 0.289254 0
      vertex -0.289254 0.34472 0
    endloop
  endfacet
  facet normal 0 0 -1
    outer loop
      vertex -0.389711 -0.225 0
      vertex -0.34472 0.289254 0
      vertex -0.34472 -0.289254 0
    endloop
  endfacet
  facet normal 0 0 -1
    outer loop
      vertex -0.389711 -0.225 0
      vertex -0.389711 0.225 0
      vertex -0.34472 0.289254 0
    endloop
  endfacet
  facet normal 0 0 -1
    outer loop
      vertex -0.422862 -0.153909 0
      vertex -0.389711 0.225 0
      vertex -0.389711 -0.225 0
    endloop
  endfacet
  facet normal 0 0 -1
    outer loop
      vertex -0.422862 -0.153909 0
      vertex -0.422862 0.153909 0
      vertex -0.389711 0.225 0
    endloop
  endfacet
  facet normal 0 0 -1
    outer loop
      vertex -0.443163 -0.0781417 0
      vertex -0.422862 0.153909 0
      vertex -0.422862 -0.153909 0
    endloop
  endfacet
  facet normal 0 0 -1
    outer loop
      vertex -0.443163 -0.0781417 0
      vertex -0.443163 0.0781417 0
      vertex -0.422862 0.153909 0
    endloop
  endfacet
  facet normal 0 -0 -1
    outer loop
      vertex -0.443163 0.0781417 0
      vertex -0.443163 -0.0781417 0
      vertex -0.45 0 0
    endloop
  endfacet
  facet normal 0 0 1
    outer loop
      vertex 0.443163 0.0781417 0.2
      vertex 0.443163 -0.0781417 0.2
      vertex 0.45 0 0.2
    endloop
  endfacet
  facet normal 0 0 1
    outer loop
      vertex 0.422862 0.153909 0.2
      vertex 0.443163 -0.0781417 0.2
      vertex 0.443163 0.0781417 0.2
    endloop
  endfacet
  facet normal 0 0 1
    outer loop
      vertex 0.422862 0.153909 0.2
      vertex 0.422862 -0.153909 0.2
      vertex 0.443163 -0.0781417 0.2
    endloop
  endfacet
  facet normal 0 0 1
    outer loop
      vertex 0.389711 0.225 0.2
      vertex 0.422862 -0.153909 0.2
      vertex 0.422862 0.153909 0.2
    endloop
  endfacet
  facet normal 0 0 1
    outer loop
      vertex 0.389711 0.225 0.2
      vertex 0.389711 -0.225 0.2
      vertex 0.422862 -0.153909 0.2
    endloop
  endfacet
  facet normal 0 0 1
    outer loop
      vertex 0.34472 0.289254 0.2
      vertex 0.389711 -0.225 0.2
      vertex 0.389711 0.225 0.2
    endloop
  endfacet
  facet normal 0 0 1
    outer loop
      vertex 0.34472 0.289254 0.2
      vertex 0.34472 -0.289254 0.2
      vertex 0.389711 -0.225 0.2
    endloop
  endfacet
  facet normal 0 0 1
    outer loop
      vertex 0.289254 0.34472 0.2
      vertex 0.34472 -0.289254 0.2
      vertex 0.34472 0.289254 0.2
    endloop
  endfacet
  facet normal 0 0 1
    outer loop
      vertex 0.289254 0.34472 0.2
      vertex 0.289254 -0.34472 0.2
      vertex 0.34472 -0.289254 0.2
    endloop
  endfacet
  facet normal 0 0 1
    outer loop
      vertex 0.225 0.389711 0.2
      vertex 0.289254 -0.34472 0.2
      vertex 0.289254 0.34472 0.2
    endloop
  endfacet
  facet normal 0 0 1
    outer loop
      vertex 0.225 0.389711 0.2
      vertex 0.225 -0.389711 0.2
      vertex 0.289254 -0.34472 0.2
    endloop
  endfacet
  facet normal 0 0 1
    outer loop
      vertex 0.153909 0.422862 0.2
      vertex 0.225 -0.389711 0.2
      vertex 0.225 0.389711 0.2
    endloop
  endfacet
  facet normal 0 0 1
    outer loop
      vertex 0.153909 0.422862 0.2
      vertex 0.153909 -0.422862 0.2
      vertex 0.225 -0.389711 0.2
    endloop
  endfacet
  facet normal 0 0 1
    outer loop
      vertex 0.0781417 0.443163 0.2
      vertex 0.153909 -0.422862 0.2
      vertex 0.153909 0.422862 0.2
    endloop
  endfacet
  facet normal 0 0 1
    outer loop
      vertex 0.0781417 0.443163 0.2
      vertex 0.0781417 -0.443163 0.2
      vertex 0.153909 -0.422862 0.2
    endloop
  endfacet
  facet normal 0 0 1
    outer loop
      vertex 0 0.45 0.2
      vertex 0.0781417 -0.443163 0.2
      vertex 0.0781417 0.443163 0.2
    endloop
  endfacet
  facet normal 0 0 1
    outer loop
      vertex 0 0.45 0.2
      vertex 0 -0.45 0.2
      vertex 0.0781417 -0.443163 0.2
    endloop
  endfacet
  facet normal -0 0 1
    outer loop
      vertex -0.0781417 0.443163 0.2
      vertex 0 -0.45 0.2
      vertex 0 0.45 0.2
    endloop
  endfacet
  facet normal 0 0 1
    outer loop
      vertex -0.0781417 0.443163 0.2
      vertex -0.0781417 -0.443163 0.2
      vertex 0 -0.45 0.2
    endloop
  endfacet
  facet normal -0 0 1
    outer loop
      vertex -0.153909 0.422862 0.2
      vertex -0.0781417 -0.443163 0.2
      vertex -0.0781417 0.443163 0.2
    endloop
  endfacet
  facet normal 0 0 1
    outer loop
      vertex -0.153909 0.422862 0.2
      vertex -0.153909 -0.422862 0.2
      vertex -0.0781417 -0.443163 0.2
    endloop
  endfacet
  facet normal -0 0 1
    outer loop
      vertex -0.225 0.389711 0.2
      vertex -0.153909 -0.422862 0.2
      vertex -0.153909 0.422862 0.2
    endloop
  endfacet
  facet normal 0 0 1
    outer loop
      vertex -0.225 0.389711 0.2
      vertex -0.225 -0.389711 0.2
      vertex -0.153909 -0.422862 0.2
    endloop
  endfacet
  facet normal -0 0 1
    outer loop
      vertex -0.289254 0.34472 0.2
      vertex -0.225 -0.389711 0.2
      vertex -0.225 0.389711 0.2
    endloop
  endfacet
  facet normal 0 0 1
    outer loop
      vertex -0.289254 0.34472 0.2
      vertex -0.289254 -0.34472 0.2
      vertex -0.225 -0.389711 0.2
    endloop
  endfacet
  facet normal -0 0 1
    outer loop
      vertex -0.34472 0.289254 0.2
      vertex -0.289254 -0.34472 0.2
      vertex -0.289254 0.34472 0.2
    endloop
  endfacet
  facet normal 0 0 1
    outer loop
      vertex -0.34472 0.289254 0.2
      vertex -0.34472 -0.289254 0.2
      vertex -0.289254 -0.34472 0.2
    endloop
  endfacet
  facet normal -0 0 1
    outer loop
      vertex -0.389711 0.225 0.2
      vertex -0.34472 -0.289254 0.2
      vertex -0.34472 0.289254 0.2
    endloop
  endfacet
  facet normal 0 0 1
    outer loop
      vertex -0.389711 0.225 0.2
      vertex -0.389711 -0.225 0.2
      vertex -0.34472 -0.289254 0.2
    endloop
  endfacet
  facet normal -0 0 1
    outer loop
      vertex -0.422862 0.153909 0.2
      vertex -0.389711 -0.225 0.2
      vertex -0.389711 0.225 0.2
    endloop
  endfacet
  facet normal 0 0 1
    outer loop
      vertex -0.422862 0.153909 0.2
      vertex -0.422862 -0.153909 0.2
      vertex -0.389711 -0.225 0.2
    endloop
  endfacet
  facet normal -0 0 1
    outer loop
      vertex -0.443163 0.0781417 0.2
      vertex -0.422862 -0.153909 0.2
      vertex -0.422862 0.153909 0.2
    endloop
  endfacet
  facet normal 0 0 1
    outer loop
      vertex -0.443163 0.0781417 0.2
      vertex -0.443163 -0.0781417 0.2
      vertex -0.422862 -0.153909 0.2
    endloop
  endfacet
  facet normal 0 -0 1
    outer loop
      vertex -0.443163 -0.0781417 0.2
      vertex -0.443163 0.0781417 0.2
      vertex -0.45 0 0.2
    endloop
  endfacet
endsolid OpenSCAD_Model
