solid OpenSCAD_Model
  facet normal 0.991445 0.130528 0
    outer loop
      vertex 0.75 0 0.25
      vertex 0.724444 0.194114 0
      vertex 0.724444 0.194114 0.25
    endloop
  endfacet
  facet normal 0.991445 0.130528 0
    outer loop
      vertex 0.724444 0.194114 0
      vertex 0.75 0 0.25
      vertex 0.75 0 0
    endloop
  endfacet
  facet normal 0.92388 0.382682 0
    outer loop
      vertex 0.724444 0.194114 0.25
      vertex 0.649519 0.375 0
      vertex 0.649519 0.375 0.25
    endloop
  endfacet
  facet normal 0.92388 0.382682 0
    outer loop
      vertex 0.649519 0.375 0
      vertex 0.724444 0.194114 0.25
      vertex 0.724444 0.194114 0
    endloop
  endfacet
  facet normal 0.793353 0.608762 0
    outer loop
      vertex 0.649519 0.375 0.25
      vertex 0.53033 0.53033 0
      vertex 0.53033 0.53033 0.25
    endloop
  endfacet
  facet normal 0.793353 0.608762 0
    outer loop
      vertex 0.53033 0.53033 0
      vertex 0.649519 0.375 0.25
      vertex 0.649519 0.375 0
    endloop
  endfacet
  facet normal 0.608762 0.793353 -0
    outer loop
      vertex 0.53033 0.53033 0
      vertex 0.375 0.649519 0.25
      vertex 0.53033 0.53033 0.25
    endloop
  endfacet
  facet normal 0.608762 0.793353 0
    outer loop
      vertex 0.375 0.649519 0.25
      vertex 0.53033 0.53033 0
      vertex 0.375 0.649519 0
    endloop
  endfacet
  facet normal 0.382682 0.92388 -0
    outer loop
      vertex 0.375 0.649519 0
      vertex 0.194114 0.724444 0.25
      vertex 0.375 0.649519 0.25
    endloop
  endfacet
  facet normal 0.382682 0.92388 0
    outer loop
      vertex 0.194114 0.724444 0.25
      vertex 0.375 0.649519 0
      vertex 0.194114 0.724444 0
    endloop
  endfacet
  facet normal 0.130528 0.991445 -0
    outer loop
      vertex 0.194114 0.724444 0
      vertex 0 0.75 0.25
      vertex 0.194114 0.724444 0.25
    endloop
  endfacet
  facet normal 0.130528 0.991445 0
    outer loop
      vertex 0 0.75 0.25
      vertex 0.194114 0.724444 0
      vertex 0 0.75 0
    endloop
  endfacet
  facet normal -0.130528 0.991445 0
    outer loop
      vertex 0 0.75 0
      vertex -0.194114 0.724444 0.25
      vertex 0 0.75 0.25
    endloop
  endfacet
  facet normal -0.130528 0.991445 0
    outer loop
      vertex -0.194114 0.724444 0.25
      vertex 0 0.75 0
      vertex -0.194114 0.724444 0
    endloop
  endfacet
  facet normal -0.382682 0.92388 0
    outer loop
      vertex -0.194114 0.724444 0
      vertex -0.375 0.649519 0.25
      vertex -0.194114 0.724444 0.25
    endloop
  endfacet
  facet normal -0.382682 0.92388 0
    outer loop
      vertex -0.375 0.649519 0.25
      vertex -0.194114 0.724444 0
      vertex -0.375 0.649519 0
    endloop
  endfacet
  facet normal -0.608762 0.793353 0
    outer loop
      vertex -0.375 0.649519 0
      vertex -0.53033 0.53033 0.25
      vertex -0.375 0.649519 0.25
    endloop
  endfacet
  facet normal -0.608762 0.793353 0
    outer loop
      vertex -0.53033 0.53033 0.25
      vertex -0.375 0.649519 0
      vertex -0.53033 0.53033 0
    endloop
  endfacet
  facet normal -0.793353 0.608762 0
    outer loop
      vertex -0.649519 0.375 0
      vertex -0.53033 0.53033 0.25
      vertex -0.53033 0.53033 0
    endloop
  endfacet
  facet normal -0.793353 0.608762 0
    outer loop
      vertex -0.53033 0.53033 0.25
      vertex -0.649519 0.375 0
      vertex -0.649519 0.375 0.25
    endloop
  endfacet
  facet normal -0.92388 0.382682 0
    outer loop
      vertex -0.724444 0.194114 0
      vertex -0.649519 0.375 0.25
      vertex -0.649519 0.375 0
    endloop
  endfacet
  facet normal -0.92388 0.382682 0
    outer loop
      vertex -0.649519 0.375 0.25
      vertex -0.724444 0.194114 0
      vertex -0.724444 0.194114 0.25
    endloop
  endfacet
  facet normal -0.991445 0.130528 0
    outer loop
      vertex -0.75 0 0
      vertex -0.724444 0.194114 0.25
      vertex -0.724444 0.194114 0
    endloop
  endfacet
  facet normal -0.991445 0.130528 0
    outer loop
      vertex -0.724444 0.194114 0.25
      vertex -0.75 0 0
      vertex -0.75 0 0.25
    endloop
  endfacet
  facet normal -0.991445 -0.130528 0
    outer loop
      vertex -0.724444 -0.194114 0
      vertex -0.75 0 0.25
      vertex -0.75 0 0
    endloop
  endfacet
  facet normal -0.991445 -0.130528 0
    outer loop
      vertex -0.75 0 0.25
      vertex -0.724444 -0.194114 0
      vertex -0.724444 -0.194114 0.25
    endloop
  endfacet
  facet normal -0.92388 -0.382682 0
    outer loop
      vertex -0.649519 -0.375 0
      vertex -0.724444 -0.194114 0.25
      vertex -0.724444 -0.194114 0
    endloop
  endfacet
  facet normal -0.92388 -0.382682 0
    outer loop
      vertex -0.724444 -0.194114 0.25
      vertex -0.649519 -0.375 0
      vertex -0.649519 -0.375 0.25
    endloop
  endfacet
  facet normal -0.793353 -0.608762 0
    outer loop
      vertex -0.53033 -0.53033 0
      vertex -0.649519 -0.375 0.25
      vertex -0.649519 -0.375 0
    endloop
  endfacet
  facet normal -0.793353 -0.608762 0
    outer loop
      vertex -0.649519 -0.375 0.25
      vertex -0.53033 -0.53033 0
      vertex -0.53033 -0.53033 0.25
    endloop
  endfacet
  facet normal -0.608762 -0.793353 0
    outer loop
      vertex -0.53033 -0.53033 0
      vertex -0.375 -0.649519 0.25
      vertex -0.53033 -0.53033 0.25
    endloop
  endfacet
  facet normal -0.608762 -0.793353 -0
    outer loop
      vertex -0.375 -0.649519 0.25
      vertex -0.53033 -0.53033 0
      vertex -0.375 -0.649519 0
    endloop
  endfacet
  facet normal -0.382682 -0.92388 0
    outer loop
      vertex -0.375 -0.649519 0
      vertex -0.194114 -0.724444 0.25
      vertex -0.375 -0.649519 0.25
    endloop
  endfacet
  facet normal -0.382682 -0.92388 -0
    outer loop
      vertex -0.194114 -0.724444 0.25
      vertex -0.375 -0.649519 0
      vertex -0.194114 -0.724444 0
    endloop
  endfacet
  facet normal -0.130528 -0.991445 0
    outer loop
      vertex -0.194114 -0.724444 0
      vertex 0 -0.75 0.25
      vertex -0.194114 -0.724444 0.25
    endloop
  endfacet
  facet normal -0.130528 -0.991445 -0
    outer loop
      vertex 0 -0.75 0.25
      vertex -0.194114 -0.724444 0
      vertex 0 -0.75 0
    endloop
  endfacet
  facet normal 0.130528 -0.991445 0
    outer loop
      vertex 0 -0.75 0
      vertex 0.194114 -0.724444 0.25
      vertex 0 -0.75 0.25
    endloop
  endfacet
  facet normal 0.130528 -0.991445 0
    outer loop
      vertex 0.194114 -0.724444 0.25
      vertex 0 -0.75 0
      vertex 0.194114 -0.724444 0
    endloop
  endfacet
  facet normal 0.382682 -0.92388 0
    outer loop
      vertex 0.194114 -0.724444 0
      vertex 0.375 -0.649519 0.25
      vertex 0.194114 -0.724444 0.25
    endloop
  endfacet
  facet normal 0.382682 -0.92388 0
    outer loop
      vertex 0.375 -0.649519 0.25
      vertex 0.194114 -0.724444 0
      vertex 0.375 -0.649519 0
    endloop
  endfacet
  facet normal 0.608762 -0.793353 0
    outer loop
      vertex 0.375 -0.649519 0
      vertex 0.53033 -0.53033 0.25
      vertex 0.375 -0.649519 0.25
    endloop
  endfacet
  facet normal 0.608762 -0.793353 0
    outer loop
      vertex 0.53033 -0.53033 0.25
      vertex 0.375 -0.649519 0
      vertex 0.53033 -0.53033 0
    endloop
  endfacet
  facet normal 0.793353 -0.608762 0
    outer loop
      vertex 0.53033 -0.53033 0.25
      vertex 0.649519 -0.375 0
      vertex 0.649519 -0.375 0.25
    endloop
  endfacet
  facet normal 0.793353 -0.608762 0
    outer loop
      vertex 0.649519 -0.375 0
      vertex 0.53033 -0.53033 0.25
      vertex 0.53033 -0.53033 0
    endloop
  endfacet
  facet normal 0.92388 -0.382682 0
    outer loop
      vertex 0.649519 -0.375 0.25
      vertex 0.724444 -0.194114 0
      vertex 0.724444 -0.194114 0.25
    endloop
  endfacet
  facet normal 0.92388 -0.382682 0
    outer loop
      vertex 0.724444 -0.194114 0
      vertex 0.649519 -0.375 0.25
      vertex 0.649519 -0.375 0
    endloop
  endfacet
  facet normal 0.991445 -0.130528 0
    outer loop
      vertex 0.724444 -0.194114 0.25
      vertex 0.75 0 0
      vertex 0.75 0 0.25
    endloop
  endfacet
  facet normal 0.991445 -0.130528 0
    outer loop
      vertex 0.75 0 0
      vertex 0.724444 -0.194114 0.25
      vertex 0.724444 -0.194114 0
    endloop
  endfacet
  facet normal 0 0 -1
    outer loop
      vertex 0.724444 -0.194114 0
      vertex 0.724444 0.194114 0
      vertex 0.75 0 0
    endloop
  endfacet
  facet normal 0 0 -1
    outer loop
      vertex 0.649519 -0.375 0
      vertex 0.724444 0.194114 0
      vertex 0.724444 -0.194114 0
    endloop
  endfacet
  facet normal 0 0 -1
    outer loop
      vertex 0.649519 -0.375 0
      vertex 0.649519 0.375 0
      vertex 0.724444 0.194114 0
    endloop
  endfacet
  facet normal 0 0 -1
    outer loop
      vertex 0.53033 -0.53033 0
      vertex 0.649519 0.375 0
      vertex 0.649519 -0.375 0
    endloop
  endfacet
  facet normal 0 0 -1
    outer loop
      vertex 0.53033 -0.53033 0
      vertex 0.53033 0.53033 0
      vertex 0.649519 0.375 0
    endloop
  endfacet
  facet normal 0 0 -1
    outer loop
      vertex 0.375 -0.649519 0
      vertex 0.53033 0.53033 0
      vertex 0.53033 -0.53033 0
    endloop
  endfacet
  facet normal 0 0 -1
    outer loop
      vertex 0.375 -0.649519 0
      vertex 0.375 0.649519 0
      vertex 0.53033 0.53033 0
    endloop
  endfacet
  facet normal 0 0 -1
    outer loop
      vertex 0.194114 -0.724444 0
      vertex 0.375 0.649519 0
      vertex 0.375 -0.649519 0
    endloop
  endfacet
  facet normal 0 0 -1
    outer loop
      vertex 0.194114 -0.724444 0
      vertex 0.194114 0.724444 0
      vertex 0.375 0.649519 0
    endloop
  endfacet
  facet normal 0 0 -1
    outer loop
      vertex 0 -0.75 0
      vertex 0.194114 0.724444 0
      vertex 0.194114 -0.724444 0
    endloop
  endfacet
  facet normal 0 0 -1
    outer loop
      vertex 0 -0.75 0
      vertex 0 0.75 0
      vertex 0.194114 0.724444 0
    endloop
  endfacet
  facet normal 0 0 -1
    outer loop
      vertex -0.194114 -0.724444 0
      vertex 0 0.75 0
      vertex 0 -0.75 0
    endloop
  endfacet
  facet normal 0 0 -1
    outer loop
      vertex -0.194114 -0.724444 0
      vertex -0.194114 0.724444 0
      vertex 0 0.75 0
    endloop
  endfacet
  facet normal 0 0 -1
    outer loop
      vertex -0.375 -0.649519 0
      vertex -0.194114 0.724444 0
      vertex -0.194114 -0.724444 0
    endloop
  endfacet
  facet normal 0 0 -1
    outer loop
      vertex -0.375 -0.649519 0
      vertex -0.375 0.649519 0
      vertex -0.194114 0.724444 0
    endloop
  endfacet
  facet normal 0 0 -1
    outer loop
      vertex -0.53033 -0.53033 0
      vertex -0.375 0.649519 0
      vertex -0.375 -0.649519 0
    endloop
  endfacet
  facet normal 0 0 -1
    outer loop
      vertex -0.53033 -0.53033 0
      vertex -0.53033 0.53033 0
      vertex -0.375 0.649519 0
    endloop
  endfacet
  facet normal 0 0 -1
    outer loop
      vertex -0.649519 -0.375 0
      vertex -0.53033 0.53033 0
      vertex -0.53033 -0.53033 0
    endloop
  endfacet
  facet normal 0 0 -1
    outer loop
      vertex -0.649519 -0.375 0
      vertex -0.649519 0.375 0
      vertex -0.53033 0.53033 0
    endloop
  endfacet
  facet normal 0 0 -1
    outer loop
      vertex -0.724444 -0.194114 0
      vertex -0.649519 0.375 0
      vertex -0.649519 -0.375 0
    endloop
  endfacet
  facet normal 0 0 -1
    outer loop
      vertex -0.724444 -0.194114 0
      vertex -0.724444 0.194114 0
      vertex -0.649519 0.375 0
    endloop
  endfacet
  facet normal 0 -0 -1
    outer loop
      vertex -0.724444 0.194114 0
      vertex -0.724444 -0.194114 0
      vertex -0.75 0 0
    endloop
  endfacet
  facet normal 0 0 1
    outer loop
      vertex 0.724444 0.194114 0.25
      vertex 0.724444 -0.194114 0.25
      vertex 0.75 0 0.25
    endloop
  endfacet
  facet normal 0 0 1
    outer loop
      vertex 0.649519 0.375 0.25
      vertex 0.724444 -0.194114 0.25
      vertex 0.724444 0.194114 0.25
    endloop
  endfacet
  facet normal 0 0 1
    outer loop
      vertex 0.649519 0.375 0.25
      vertex 0.649519 -0.375 0.25
      vertex 0.724444 -0.194114 0.25
    endloop
  endfacet
  facet normal 0 0 1
    outer loop
      vertex 0.53033 0.53033 0.25
      vertex 0.649519 -0.375 0.25
      vertex 0.649519 0.375 0.25
    endloop
  endfacet
  facet normal 0 0 1
    outer loop
      vertex 0.53033 0.53033 0.25
      vertex 0.53033 -0.53033 0.25
      vertex 0.649519 -0.375 0.25
    endloop
  endfacet
  facet normal 0 0 1
    outer loop
      vertex 0.375 0.649519 0.25
      vertex 0.53033 -0.53033 0.25
      vertex 0.53033 0.53033 0.25
    endloop
  endfacet
  facet normal 0 0 1
    outer loop
      vertex 0.375 0.649519 0.25
      vertex 0.375 -0.649519 0.25
      vertex 0.53033 -0.53033 0.25
    endloop
  endfacet
  facet normal 0 0 1
    outer loop
      vertex 0.194114 0.724444 0.25
      vertex 0.375 -0.649519 0.25
      vertex 0.375 0.649519 0.25
    endloop
  endfacet
  facet normal 0 0 1
    outer loop
      vertex 0.194114 0.724444 0.25
      vertex 0.194114 -0.724444 0.25
      vertex 0.375 -0.649519 0.25
    endloop
  endfacet
  facet normal 0 0 1
    outer loop
      vertex 0 0.75 0.25
      vertex 0.194114 -0.724444 0.25
      vertex 0.194114 0.724444 0.25
    endloop
  endfacet
  facet normal 0 0 1
    outer loop
      vertex 0 0.75 0.25
      vertex 0 -0.75 0.25
      vertex 0.194114 -0.724444 0.25
    endloop
  endfacet
  facet normal -0 0 1
    outer loop
      vertex -0.194114 0.724444 0.25
      vertex 0 -0.75 0.25
      vertex 0 0.75 0.25
    endloop
  endfacet
  facet normal 0 0 1
    outer loop
      vertex -0.194114 0.724444 0.25
      vertex -0.194114 -0.724444 0.25
      vertex 0 -0.75 0.25
    endloop
  endfacet
  facet normal -0 0 1
    outer loop
      vertex -0.375 0.649519 0.25
      vertex -0.194114 -0.724444 0.25
      vertex -0.194114 0.724444 0.25
    endloop
  endfacet
  facet normal 0 0 1
    outer loop
      vertex -0.375 0.649519 0.25
      vertex -0.375 -0.649519 0.25
      vertex -0.194114 -0.724444 0.25
    endloop
  endfacet
  facet normal -0 0 1
    outer loop
      vertex -0.53033 0.53033 0.25
      vertex -0.375 -0.649519 0.25
      vertex -0.375 0.649519 0.25
    endloop
  endfacet
  facet normal 0 0 1
    outer loop
      vertex -0.53033 0.53033 0.25
      vertex -0.53033 -0.53033 0.25
      vertex -0.375 -0.649519 0.25
    endloop
  endfacet
  facet normal -0 0 1
    outer loop
      vertex -0.649519 0.375 0.25
      vertex -0.53033 -0.53033 0.25
      vertex -0.53033 0.53033 0.25
    endloop
  endfacet
  facet normal 0 0 1
    outer loop
      vertex -0.649519 0.375 0.25
      vertex -0.649519 -0.375 0.25
      vertex -0.53033 -0.53033 0.25
    endloop
  endfacet
  facet normal -0 0 1
    outer loop
      vertex -0.724444 0.194114 0.25
      vertex -0.649519 -0.375 0.25
      vertex -0.649519 0.375 0.25
    endloop
  endfacet
  facet normal 0 0 1
    outer loop
      vertex -0.724444 0.194114 0.25
      vertex -0.724444 -0.194114 0.25
      vertex -0.649519 -0.375 0.25
    endloop
  endfacet
  facet normal 0 -0 1
    outer loop
      vertex -0.724444 -0.194114 0.25
      vertex -0.724444 0.194114 0.25
      vertex -0.75 0 0.25
    endloop
  endfacet
endsolid OpenSCAD_Model
