solid OpenSCAD_Model
  facet normal 0.991443 -0 0.130539
    outer loop
      vertex 0.193185 -0.875 2.45176
      vertex 0.2 -0.125 2.4
      vertex 0.193185 -0.125 2.45176
    endloop
  endfacet
  facet normal 0.991443 0 0.130539
    outer loop
      vertex 0.2 -0.125 2.4
      vertex 0.193185 -0.875 2.45176
      vertex 0.2 -0.875 2.4
    endloop
  endfacet
  facet normal 0.923891 -0 0.382656
    outer loop
      vertex 0.173205 -0.875 2.5
      vertex 0.193185 -0.125 2.45176
      vertex 0.173205 -0.125 2.5
    endloop
  endfacet
  facet normal 0.923891 0 0.382656
    outer loop
      vertex 0.193185 -0.125 2.45176
      vertex 0.173205 -0.875 2.5
      vertex 0.193185 -0.875 2.45176
    endloop
  endfacet
  facet normal 0.793341 -0 0.608777
    outer loop
      vertex 0.141421 -0.875 2.54142
      vertex 0.173205 -0.125 2.5
      vertex 0.141421 -0.125 2.54142
    endloop
  endfacet
  facet normal 0.793341 0 0.608777
    outer loop
      vertex 0.173205 -0.125 2.5
      vertex 0.141421 -0.875 2.54142
      vertex 0.173205 -0.875 2.5
    endloop
  endfacet
  facet normal 0.60872 0 0.793385
    outer loop
      vertex 0.1 -0.125 2.5732
      vertex 0.141421 -0.875 2.54142
      vertex 0.141421 -0.125 2.54142
    endloop
  endfacet
  facet normal 0.60872 0 0.793385
    outer loop
      vertex 0.141421 -0.875 2.54142
      vertex 0.1 -0.125 2.5732
      vertex 0.1 -0.875 2.5732
    endloop
  endfacet
  facet normal 0.382845 0 0.923812
    outer loop
      vertex 0.0517638 -0.125 2.59319
      vertex 0.1 -0.875 2.5732
      vertex 0.1 -0.125 2.5732
    endloop
  endfacet
  facet normal 0.382845 0 0.923812
    outer loop
      vertex 0.1 -0.875 2.5732
      vertex 0.0517638 -0.125 2.59319
      vertex 0.0517638 -0.875 2.59319
    endloop
  endfacet
  facet normal 0.130435 0 0.991457
    outer loop
      vertex 0 -0.125 2.6
      vertex 0.0517638 -0.875 2.59319
      vertex 0.0517638 -0.125 2.59319
    endloop
  endfacet
  facet normal 0.130435 0 0.991457
    outer loop
      vertex 0.0517638 -0.875 2.59319
      vertex 0 -0.125 2.6
      vertex 0 -0.875 2.6
    endloop
  endfacet
  facet normal -0.130435 0 0.991457
    outer loop
      vertex -0.0517638 -0.125 2.59319
      vertex 0 -0.875 2.6
      vertex 0 -0.125 2.6
    endloop
  endfacet
  facet normal -0.130435 0 0.991457
    outer loop
      vertex 0 -0.875 2.6
      vertex -0.0517638 -0.125 2.59319
      vertex -0.0517638 -0.875 2.59319
    endloop
  endfacet
  facet normal -0.382845 0 0.923812
    outer loop
      vertex -0.1 -0.125 2.5732
      vertex -0.0517638 -0.875 2.59319
      vertex -0.0517638 -0.125 2.59319
    endloop
  endfacet
  facet normal -0.382845 0 0.923812
    outer loop
      vertex -0.0517638 -0.875 2.59319
      vertex -0.1 -0.125 2.5732
      vertex -0.1 -0.875 2.5732
    endloop
  endfacet
  facet normal -0.60872 0 0.793385
    outer loop
      vertex -0.141421 -0.125 2.54142
      vertex -0.1 -0.875 2.5732
      vertex -0.1 -0.125 2.5732
    endloop
  endfacet
  facet normal -0.60872 0 0.793385
    outer loop
      vertex -0.1 -0.875 2.5732
      vertex -0.141421 -0.125 2.54142
      vertex -0.141421 -0.875 2.54142
    endloop
  endfacet
  facet normal -0.793341 0 0.608777
    outer loop
      vertex -0.173205 -0.875 2.5
      vertex -0.141421 -0.125 2.54142
      vertex -0.173205 -0.125 2.5
    endloop
  endfacet
  facet normal -0.793341 0 0.608777
    outer loop
      vertex -0.141421 -0.125 2.54142
      vertex -0.173205 -0.875 2.5
      vertex -0.141421 -0.875 2.54142
    endloop
  endfacet
  facet normal -0.923891 0 0.382656
    outer loop
      vertex -0.193185 -0.875 2.45176
      vertex -0.173205 -0.125 2.5
      vertex -0.193185 -0.125 2.45176
    endloop
  endfacet
  facet normal -0.923891 0 0.382656
    outer loop
      vertex -0.173205 -0.125 2.5
      vertex -0.193185 -0.875 2.45176
      vertex -0.173205 -0.875 2.5
    endloop
  endfacet
  facet normal -0.991443 0 0.130539
    outer loop
      vertex -0.2 -0.875 2.4
      vertex -0.193185 -0.125 2.45176
      vertex -0.2 -0.125 2.4
    endloop
  endfacet
  facet normal -0.991443 0 0.130539
    outer loop
      vertex -0.193185 -0.125 2.45176
      vertex -0.2 -0.875 2.4
      vertex -0.193185 -0.875 2.45176
    endloop
  endfacet
  facet normal -0.991443 0 -0.130539
    outer loop
      vertex -0.193185 -0.875 2.34824
      vertex -0.2 -0.125 2.4
      vertex -0.193185 -0.125 2.34824
    endloop
  endfacet
  facet normal -0.991443 -0 -0.130539
    outer loop
      vertex -0.2 -0.125 2.4
      vertex -0.193185 -0.875 2.34824
      vertex -0.2 -0.875 2.4
    endloop
  endfacet
  facet normal -0.923891 0 -0.382656
    outer loop
      vertex -0.173205 -0.875 2.3
      vertex -0.193185 -0.125 2.34824
      vertex -0.173205 -0.125 2.3
    endloop
  endfacet
  facet normal -0.923891 -0 -0.382656
    outer loop
      vertex -0.193185 -0.125 2.34824
      vertex -0.173205 -0.875 2.3
      vertex -0.193185 -0.875 2.34824
    endloop
  endfacet
  facet normal -0.793341 0 -0.608777
    outer loop
      vertex -0.141421 -0.875 2.25858
      vertex -0.173205 -0.125 2.3
      vertex -0.141421 -0.125 2.25858
    endloop
  endfacet
  facet normal -0.793341 -0 -0.608777
    outer loop
      vertex -0.173205 -0.125 2.3
      vertex -0.141421 -0.875 2.25858
      vertex -0.173205 -0.875 2.3
    endloop
  endfacet
  facet normal -0.60884 0 -0.793293
    outer loop
      vertex -0.141421 -0.875 2.25858
      vertex -0.1 -0.125 2.22679
      vertex -0.1 -0.875 2.22679
    endloop
  endfacet
  facet normal -0.60884 0 -0.793293
    outer loop
      vertex -0.1 -0.125 2.22679
      vertex -0.141421 -0.875 2.25858
      vertex -0.141421 -0.125 2.25858
    endloop
  endfacet
  facet normal -0.382682 0 -0.92388
    outer loop
      vertex -0.1 -0.875 2.22679
      vertex -0.0517638 -0.125 2.20681
      vertex -0.0517638 -0.875 2.20681
    endloop
  endfacet
  facet normal -0.382682 0 -0.92388
    outer loop
      vertex -0.0517638 -0.125 2.20681
      vertex -0.1 -0.875 2.22679
      vertex -0.1 -0.125 2.22679
    endloop
  endfacet
  facet normal -0.130435 0 -0.991457
    outer loop
      vertex -0.0517638 -0.875 2.20681
      vertex 0 -0.125 2.2
      vertex 0 -0.875 2.2
    endloop
  endfacet
  facet normal -0.130435 0 -0.991457
    outer loop
      vertex 0 -0.125 2.2
      vertex -0.0517638 -0.875 2.20681
      vertex -0.0517638 -0.125 2.20681
    endloop
  endfacet
  facet normal 0.130435 0 -0.991457
    outer loop
      vertex 0 -0.875 2.2
      vertex 0.0517638 -0.125 2.20681
      vertex 0.0517638 -0.875 2.20681
    endloop
  endfacet
  facet normal 0.130435 0 -0.991457
    outer loop
      vertex 0.0517638 -0.125 2.20681
      vertex 0 -0.875 2.2
      vertex 0 -0.125 2.2
    endloop
  endfacet
  facet normal 0.382682 0 -0.92388
    outer loop
      vertex 0.0517638 -0.875 2.20681
      vertex 0.1 -0.125 2.22679
      vertex 0.1 -0.875 2.22679
    endloop
  endfacet
  facet normal 0.382682 0 -0.92388
    outer loop
      vertex 0.1 -0.125 2.22679
      vertex 0.0517638 -0.875 2.20681
      vertex 0.0517638 -0.125 2.20681
    endloop
  endfacet
  facet normal 0.60884 0 -0.793293
    outer loop
      vertex 0.1 -0.875 2.22679
      vertex 0.141421 -0.125 2.25858
      vertex 0.141421 -0.875 2.25858
    endloop
  endfacet
  facet normal 0.60884 0 -0.793293
    outer loop
      vertex 0.141421 -0.125 2.25858
      vertex 0.1 -0.875 2.22679
      vertex 0.1 -0.125 2.22679
    endloop
  endfacet
  facet normal 0.793341 0 -0.608777
    outer loop
      vertex 0.173205 -0.875 2.3
      vertex 0.141421 -0.125 2.25858
      vertex 0.173205 -0.125 2.3
    endloop
  endfacet
  facet normal 0.793341 0 -0.608777
    outer loop
      vertex 0.141421 -0.125 2.25858
      vertex 0.173205 -0.875 2.3
      vertex 0.141421 -0.875 2.25858
    endloop
  endfacet
  facet normal 0.923891 0 -0.382656
    outer loop
      vertex 0.193185 -0.875 2.34824
      vertex 0.173205 -0.125 2.3
      vertex 0.193185 -0.125 2.34824
    endloop
  endfacet
  facet normal 0.923891 0 -0.382656
    outer loop
      vertex 0.173205 -0.125 2.3
      vertex 0.193185 -0.875 2.34824
      vertex 0.173205 -0.875 2.3
    endloop
  endfacet
  facet normal 0.991443 0 -0.130539
    outer loop
      vertex 0.2 -0.875 2.4
      vertex 0.193185 -0.125 2.34824
      vertex 0.2 -0.125 2.4
    endloop
  endfacet
  facet normal 0.991443 0 -0.130539
    outer loop
      vertex 0.193185 -0.125 2.34824
      vertex 0.2 -0.875 2.4
      vertex 0.193185 -0.875 2.34824
    endloop
  endfacet
  facet normal 0 1 0
    outer loop
      vertex 0.0517638 -0.125 2.59319
      vertex -0.0517638 -0.125 2.59319
      vertex 0 -0.125 2.6
    endloop
  endfacet
  facet normal 0 1 0
    outer loop
      vertex 0.1 -0.125 2.5732
      vertex -0.0517638 -0.125 2.59319
      vertex 0.0517638 -0.125 2.59319
    endloop
  endfacet
  facet normal 0 1 0
    outer loop
      vertex 0.1 -0.125 2.5732
      vertex -0.1 -0.125 2.5732
      vertex -0.0517638 -0.125 2.59319
    endloop
  endfacet
  facet normal 0 1 0
    outer loop
      vertex 0.141421 -0.125 2.54142
      vertex -0.1 -0.125 2.5732
      vertex 0.1 -0.125 2.5732
    endloop
  endfacet
  facet normal 0 1 0
    outer loop
      vertex 0.141421 -0.125 2.54142
      vertex -0.141421 -0.125 2.54142
      vertex -0.1 -0.125 2.5732
    endloop
  endfacet
  facet normal 0 1 0
    outer loop
      vertex 0.173205 -0.125 2.5
      vertex -0.141421 -0.125 2.54142
      vertex 0.141421 -0.125 2.54142
    endloop
  endfacet
  facet normal 0 1 0
    outer loop
      vertex 0.173205 -0.125 2.5
      vertex -0.173205 -0.125 2.5
      vertex -0.141421 -0.125 2.54142
    endloop
  endfacet
  facet normal 0 1 0
    outer loop
      vertex 0.193185 -0.125 2.45176
      vertex -0.173205 -0.125 2.5
      vertex 0.173205 -0.125 2.5
    endloop
  endfacet
  facet normal 0 1 0
    outer loop
      vertex 0.193185 -0.125 2.45176
      vertex -0.193185 -0.125 2.45176
      vertex -0.173205 -0.125 2.5
    endloop
  endfacet
  facet normal 0 1 0
    outer loop
      vertex 0.2 -0.125 2.4
      vertex -0.193185 -0.125 2.45176
      vertex 0.193185 -0.125 2.45176
    endloop
  endfacet
  facet normal 0 1 0
    outer loop
      vertex 0.2 -0.125 2.4
      vertex -0.2 -0.125 2.4
      vertex -0.193185 -0.125 2.45176
    endloop
  endfacet
  facet normal 0 1 -0
    outer loop
      vertex 0.193185 -0.125 2.34824
      vertex -0.2 -0.125 2.4
      vertex 0.2 -0.125 2.4
    endloop
  endfacet
  facet normal 0 1 0
    outer loop
      vertex 0.193185 -0.125 2.34824
      vertex -0.193185 -0.125 2.34824
      vertex -0.2 -0.125 2.4
    endloop
  endfacet
  facet normal 0 1 -0
    outer loop
      vertex 0.173205 -0.125 2.3
      vertex -0.193185 -0.125 2.34824
      vertex 0.193185 -0.125 2.34824
    endloop
  endfacet
  facet normal 0 1 0
    outer loop
      vertex 0.173205 -0.125 2.3
      vertex -0.173205 -0.125 2.3
      vertex -0.193185 -0.125 2.34824
    endloop
  endfacet
  facet normal 0 1 -0
    outer loop
      vertex 0.141421 -0.125 2.25858
      vertex -0.173205 -0.125 2.3
      vertex 0.173205 -0.125 2.3
    endloop
  endfacet
  facet normal 0 1 0
    outer loop
      vertex 0.141421 -0.125 2.25858
      vertex -0.141421 -0.125 2.25858
      vertex -0.173205 -0.125 2.3
    endloop
  endfacet
  facet normal 0 1 -0
    outer loop
      vertex 0.1 -0.125 2.22679
      vertex -0.141421 -0.125 2.25858
      vertex 0.141421 -0.125 2.25858
    endloop
  endfacet
  facet normal 0 1 0
    outer loop
      vertex 0.1 -0.125 2.22679
      vertex -0.1 -0.125 2.22679
      vertex -0.141421 -0.125 2.25858
    endloop
  endfacet
  facet normal 0 1 -0
    outer loop
      vertex 0.0517638 -0.125 2.20681
      vertex -0.1 -0.125 2.22679
      vertex 0.1 -0.125 2.22679
    endloop
  endfacet
  facet normal 0 1 0
    outer loop
      vertex 0.0517638 -0.125 2.20681
      vertex -0.0517638 -0.125 2.20681
      vertex -0.1 -0.125 2.22679
    endloop
  endfacet
  facet normal -0 1 0
    outer loop
      vertex -0.0517638 -0.125 2.20681
      vertex 0.0517638 -0.125 2.20681
      vertex 0 -0.125 2.2
    endloop
  endfacet
  facet normal 0 -1 0
    outer loop
      vertex -0.0517638 -0.875 2.59319
      vertex 0.0517638 -0.875 2.59319
      vertex 0 -0.875 2.6
    endloop
  endfacet
  facet normal 0 -1 0
    outer loop
      vertex -0.1 -0.875 2.5732
      vertex 0.0517638 -0.875 2.59319
      vertex -0.0517638 -0.875 2.59319
    endloop
  endfacet
  facet normal 0 -1 0
    outer loop
      vertex -0.1 -0.875 2.5732
      vertex 0.1 -0.875 2.5732
      vertex 0.0517638 -0.875 2.59319
    endloop
  endfacet
  facet normal 0 -1 0
    outer loop
      vertex -0.141421 -0.875 2.54142
      vertex 0.1 -0.875 2.5732
      vertex -0.1 -0.875 2.5732
    endloop
  endfacet
  facet normal 0 -1 0
    outer loop
      vertex -0.141421 -0.875 2.54142
      vertex 0.141421 -0.875 2.54142
      vertex 0.1 -0.875 2.5732
    endloop
  endfacet
  facet normal 0 -1 0
    outer loop
      vertex -0.173205 -0.875 2.5
      vertex 0.141421 -0.875 2.54142
      vertex -0.141421 -0.875 2.54142
    endloop
  endfacet
  facet normal 0 -1 0
    outer loop
      vertex -0.173205 -0.875 2.5
      vertex 0.173205 -0.875 2.5
      vertex 0.141421 -0.875 2.54142
    endloop
  endfacet
  facet normal 0 -1 0
    outer loop
      vertex -0.193185 -0.875 2.45176
      vertex 0.173205 -0.875 2.5
      vertex -0.173205 -0.875 2.5
    endloop
  endfacet
  facet normal 0 -1 0
    outer loop
      vertex -0.193185 -0.875 2.45176
      vertex 0.193185 -0.875 2.45176
      vertex 0.173205 -0.875 2.5
    endloop
  endfacet
  facet normal 0 -1 0
    outer loop
      vertex -0.2 -0.875 2.4
      vertex 0.193185 -0.875 2.45176
      vertex -0.193185 -0.875 2.45176
    endloop
  endfacet
  facet normal 0 -1 0
    outer loop
      vertex -0.2 -0.875 2.4
      vertex 0.2 -0.875 2.4
      vertex 0.193185 -0.875 2.45176
    endloop
  endfacet
  facet normal 0 -1 0
    outer loop
      vertex -0.193185 -0.875 2.34824
      vertex 0.2 -0.875 2.4
      vertex -0.2 -0.875 2.4
    endloop
  endfacet
  facet normal 0 -1 0
    outer loop
      vertex -0.193185 -0.875 2.34824
      vertex 0.193185 -0.875 2.34824
      vertex 0.2 -0.875 2.4
    endloop
  endfacet
  facet normal 0 -1 0
    outer loop
      vertex -0.173205 -0.875 2.3
      vertex 0.193185 -0.875 2.34824
      vertex -0.193185 -0.875 2.34824
    endloop
  endfacet
  facet normal 0 -1 0
    outer loop
      vertex -0.173205 -0.875 2.3
      vertex 0.173205 -0.875 2.3
      vertex 0.193185 -0.875 2.34824
    endloop
  endfacet
  facet normal 0 -1 0
    outer loop
      vertex -0.141421 -0.875 2.25858
      vertex 0.173205 -0.875 2.3
      vertex -0.173205 -0.875 2.3
    endloop
  endfacet
  facet normal 0 -1 0
    outer loop
      vertex -0.141421 -0.875 2.25858
      vertex 0.141421 -0.875 2.25858
      vertex 0.173205 -0.875 2.3
    endloop
  endfacet
  facet normal 0 -1 0
    outer loop
      vertex -0.1 -0.875 2.22679
      vertex 0.141421 -0.875 2.25858
      vertex -0.141421 -0.875 2.25858
    endloop
  endfacet
  facet normal 0 -1 0
    outer loop
      vertex -0.1 -0.875 2.22679
      vertex 0.1 -0.875 2.22679
      vertex 0.141421 -0.875 2.25858
    endloop
  endfacet
  facet normal 0 -1 0
    outer loop
      vertex -0.0517638 -0.875 2.20681
      vertex 0.1 -0.875 2.22679
      vertex -0.1 -0.875 2.22679
    endloop
  endfacet
  facet normal 0 -1 0
    outer loop
      vertex -0.0517638 -0.875 2.20681
      vertex 0.0517638 -0.875 2.20681
      vertex 0.1 -0.875 2.22679
    endloop
  endfacet
  facet normal -0 -1 0
    outer loop
      vertex 0.0517638 -0.875 2.20681
      vertex -0.0517638 -0.875 2.20681
      vertex 0 -0.875 2.2
    endloop
  endfacet
endsolid OpenSCAD_Model
