solid OpenSCAD_Model
  facet normal 0.996193 -0 0.0871783
    outer loop
      vertex 0.0984808 0.35 1.64236
      vertex 0.1 0.85 1.625
      vertex 0.0984808 0.85 1.64236
    endloop
  endfacet
  facet normal 0.996193 0 0.0871783
    outer loop
      vertex 0.1 0.85 1.625
      vertex 0.0984808 0.35 1.64236
      vertex 0.1 0.35 1.625
    endloop
  endfacet
  facet normal 0.965937 -0 0.258778
    outer loop
      vertex 0.0939693 0.35 1.6592
      vertex 0.0984808 0.85 1.64236
      vertex 0.0939693 0.85 1.6592
    endloop
  endfacet
  facet normal 0.965937 0 0.258778
    outer loop
      vertex 0.0984808 0.85 1.64236
      vertex 0.0939693 0.35 1.6592
      vertex 0.0984808 0.35 1.64236
    endloop
  endfacet
  facet normal 0.906327 -0 0.422578
    outer loop
      vertex 0.0866025 0.35 1.675
      vertex 0.0939693 0.85 1.6592
      vertex 0.0866025 0.85 1.675
    endloop
  endfacet
  facet normal 0.906327 0 0.422578
    outer loop
      vertex 0.0939693 0.85 1.6592
      vertex 0.0866025 0.35 1.675
      vertex 0.0939693 0.35 1.6592
    endloop
  endfacet
  facet normal 0.819175 -0 0.573543
    outer loop
      vertex 0.0766044 0.35 1.68928
      vertex 0.0866025 0.85 1.675
      vertex 0.0766044 0.85 1.68928
    endloop
  endfacet
  facet normal 0.819175 0 0.573543
    outer loop
      vertex 0.0866025 0.85 1.675
      vertex 0.0766044 0.35 1.68928
      vertex 0.0866025 0.35 1.675
    endloop
  endfacet
  facet normal 0.706946 -0 0.707267
    outer loop
      vertex 0.0642788 0.35 1.7016
      vertex 0.0766044 0.85 1.68928
      vertex 0.0642788 0.85 1.7016
    endloop
  endfacet
  facet normal 0.706946 0 0.707267
    outer loop
      vertex 0.0766044 0.85 1.68928
      vertex 0.0642788 0.35 1.7016
      vertex 0.0766044 0.35 1.68928
    endloop
  endfacet
  facet normal 0.573649 0 0.819101
    outer loop
      vertex 0.05 0.85 1.7116
      vertex 0.0642788 0.35 1.7016
      vertex 0.0642788 0.85 1.7016
    endloop
  endfacet
  facet normal 0.573649 0 0.819101
    outer loop
      vertex 0.0642788 0.35 1.7016
      vertex 0.05 0.85 1.7116
      vertex 0.05 0.35 1.7116
    endloop
  endfacet
  facet normal 0.422772 0 0.906236
    outer loop
      vertex 0.034202 0.85 1.71897
      vertex 0.05 0.35 1.7116
      vertex 0.05 0.85 1.7116
    endloop
  endfacet
  facet normal 0.422772 0 0.906236
    outer loop
      vertex 0.05 0.35 1.7116
      vertex 0.034202 0.85 1.71897
      vertex 0.034202 0.35 1.71897
    endloop
  endfacet
  facet normal 0.258738 0 0.965948
    outer loop
      vertex 0.0173648 0.85 1.72348
      vertex 0.034202 0.35 1.71897
      vertex 0.034202 0.85 1.71897
    endloop
  endfacet
  facet normal 0.258738 0 0.965948
    outer loop
      vertex 0.034202 0.35 1.71897
      vertex 0.0173648 0.85 1.72348
      vertex 0.0173648 0.35 1.72348
    endloop
  endfacet
  facet normal 0.0872 0 0.996191
    outer loop
      vertex 0 0.85 1.725
      vertex 0.0173648 0.35 1.72348
      vertex 0.0173648 0.85 1.72348
    endloop
  endfacet
  facet normal 0.0872 0 0.996191
    outer loop
      vertex 0.0173648 0.35 1.72348
      vertex 0 0.85 1.725
      vertex 0 0.35 1.725
    endloop
  endfacet
  facet normal -0.0872 0 0.996191
    outer loop
      vertex -0.0173648 0.85 1.72348
      vertex 0 0.35 1.725
      vertex 0 0.85 1.725
    endloop
  endfacet
  facet normal -0.0872 0 0.996191
    outer loop
      vertex 0 0.35 1.725
      vertex -0.0173648 0.85 1.72348
      vertex -0.0173648 0.35 1.72348
    endloop
  endfacet
  facet normal -0.258738 0 0.965948
    outer loop
      vertex -0.034202 0.85 1.71897
      vertex -0.0173648 0.35 1.72348
      vertex -0.0173648 0.85 1.72348
    endloop
  endfacet
  facet normal -0.258738 0 0.965948
    outer loop
      vertex -0.0173648 0.35 1.72348
      vertex -0.034202 0.85 1.71897
      vertex -0.034202 0.35 1.71897
    endloop
  endfacet
  facet normal -0.422772 0 0.906236
    outer loop
      vertex -0.05 0.85 1.7116
      vertex -0.034202 0.35 1.71897
      vertex -0.034202 0.85 1.71897
    endloop
  endfacet
  facet normal -0.422772 0 0.906236
    outer loop
      vertex -0.034202 0.35 1.71897
      vertex -0.05 0.85 1.7116
      vertex -0.05 0.35 1.7116
    endloop
  endfacet
  facet normal -0.573649 0 0.819101
    outer loop
      vertex -0.0642788 0.85 1.7016
      vertex -0.05 0.35 1.7116
      vertex -0.05 0.85 1.7116
    endloop
  endfacet
  facet normal -0.573649 0 0.819101
    outer loop
      vertex -0.05 0.35 1.7116
      vertex -0.0642788 0.85 1.7016
      vertex -0.0642788 0.35 1.7016
    endloop
  endfacet
  facet normal -0.706946 0 0.707267
    outer loop
      vertex -0.0766044 0.35 1.68928
      vertex -0.0642788 0.85 1.7016
      vertex -0.0766044 0.85 1.68928
    endloop
  endfacet
  facet normal -0.706946 0 0.707267
    outer loop
      vertex -0.0642788 0.85 1.7016
      vertex -0.0766044 0.35 1.68928
      vertex -0.0642788 0.35 1.7016
    endloop
  endfacet
  facet normal -0.819175 0 0.573543
    outer loop
      vertex -0.0866025 0.35 1.675
      vertex -0.0766044 0.85 1.68928
      vertex -0.0866025 0.85 1.675
    endloop
  endfacet
  facet normal -0.819175 0 0.573543
    outer loop
      vertex -0.0766044 0.85 1.68928
      vertex -0.0866025 0.35 1.675
      vertex -0.0766044 0.35 1.68928
    endloop
  endfacet
  facet normal -0.906327 0 0.422578
    outer loop
      vertex -0.0939693 0.35 1.6592
      vertex -0.0866025 0.85 1.675
      vertex -0.0939693 0.85 1.6592
    endloop
  endfacet
  facet normal -0.906327 0 0.422578
    outer loop
      vertex -0.0866025 0.85 1.675
      vertex -0.0939693 0.35 1.6592
      vertex -0.0866025 0.35 1.675
    endloop
  endfacet
  facet normal -0.965937 0 0.258778
    outer loop
      vertex -0.0984808 0.35 1.64236
      vertex -0.0939693 0.85 1.6592
      vertex -0.0984808 0.85 1.64236
    endloop
  endfacet
  facet normal -0.965937 0 0.258778
    outer loop
      vertex -0.0939693 0.85 1.6592
      vertex -0.0984808 0.35 1.64236
      vertex -0.0939693 0.35 1.6592
    endloop
  endfacet
  facet normal -0.996193 0 0.0871783
    outer loop
      vertex -0.1 0.35 1.625
      vertex -0.0984808 0.85 1.64236
      vertex -0.1 0.85 1.625
    endloop
  endfacet
  facet normal -0.996193 0 0.0871783
    outer loop
      vertex -0.0984808 0.85 1.64236
      vertex -0.1 0.35 1.625
      vertex -0.0984808 0.35 1.64236
    endloop
  endfacet
  facet normal -0.996193 0 -0.0871783
    outer loop
      vertex -0.0984808 0.35 1.60764
      vertex -0.1 0.85 1.625
      vertex -0.0984808 0.85 1.60764
    endloop
  endfacet
  facet normal -0.996193 -0 -0.0871783
    outer loop
      vertex -0.1 0.85 1.625
      vertex -0.0984808 0.35 1.60764
      vertex -0.1 0.35 1.625
    endloop
  endfacet
  facet normal -0.965937 0 -0.258778
    outer loop
      vertex -0.0939693 0.35 1.5908
      vertex -0.0984808 0.85 1.60764
      vertex -0.0939693 0.85 1.5908
    endloop
  endfacet
  facet normal -0.965937 -0 -0.258778
    outer loop
      vertex -0.0984808 0.85 1.60764
      vertex -0.0939693 0.35 1.5908
      vertex -0.0984808 0.35 1.60764
    endloop
  endfacet
  facet normal -0.906327 0 -0.422578
    outer loop
      vertex -0.0866025 0.35 1.575
      vertex -0.0939693 0.85 1.5908
      vertex -0.0866025 0.85 1.575
    endloop
  endfacet
  facet normal -0.906327 -0 -0.422578
    outer loop
      vertex -0.0939693 0.85 1.5908
      vertex -0.0866025 0.35 1.575
      vertex -0.0939693 0.35 1.5908
    endloop
  endfacet
  facet normal -0.819175 0 -0.573543
    outer loop
      vertex -0.0766044 0.35 1.56072
      vertex -0.0866025 0.85 1.575
      vertex -0.0766044 0.85 1.56072
    endloop
  endfacet
  facet normal -0.819175 -0 -0.573543
    outer loop
      vertex -0.0866025 0.85 1.575
      vertex -0.0766044 0.35 1.56072
      vertex -0.0866025 0.35 1.575
    endloop
  endfacet
  facet normal -0.706946 0 -0.707267
    outer loop
      vertex -0.0642788 0.35 1.5484
      vertex -0.0766044 0.85 1.56072
      vertex -0.0642788 0.85 1.5484
    endloop
  endfacet
  facet normal -0.706946 -0 -0.707267
    outer loop
      vertex -0.0766044 0.85 1.56072
      vertex -0.0642788 0.35 1.5484
      vertex -0.0766044 0.35 1.56072
    endloop
  endfacet
  facet normal -0.573649 0 -0.819101
    outer loop
      vertex -0.0642788 0.35 1.5484
      vertex -0.05 0.85 1.5384
      vertex -0.05 0.35 1.5384
    endloop
  endfacet
  facet normal -0.573649 0 -0.819101
    outer loop
      vertex -0.05 0.85 1.5384
      vertex -0.0642788 0.35 1.5484
      vertex -0.0642788 0.85 1.5484
    endloop
  endfacet
  facet normal -0.422772 0 -0.906236
    outer loop
      vertex -0.05 0.35 1.5384
      vertex -0.034202 0.85 1.53103
      vertex -0.034202 0.35 1.53103
    endloop
  endfacet
  facet normal -0.422772 0 -0.906236
    outer loop
      vertex -0.034202 0.85 1.53103
      vertex -0.05 0.35 1.5384
      vertex -0.05 0.85 1.5384
    endloop
  endfacet
  facet normal -0.258738 0 -0.965948
    outer loop
      vertex -0.034202 0.35 1.53103
      vertex -0.0173648 0.85 1.52652
      vertex -0.0173648 0.35 1.52652
    endloop
  endfacet
  facet normal -0.258738 0 -0.965948
    outer loop
      vertex -0.0173648 0.85 1.52652
      vertex -0.034202 0.35 1.53103
      vertex -0.034202 0.85 1.53103
    endloop
  endfacet
  facet normal -0.0872 0 -0.996191
    outer loop
      vertex -0.0173648 0.35 1.52652
      vertex 0 0.85 1.525
      vertex 0 0.35 1.525
    endloop
  endfacet
  facet normal -0.0872 0 -0.996191
    outer loop
      vertex 0 0.85 1.525
      vertex -0.0173648 0.35 1.52652
      vertex -0.0173648 0.85 1.52652
    endloop
  endfacet
  facet normal 0.0872 0 -0.996191
    outer loop
      vertex 0 0.35 1.525
      vertex 0.0173648 0.85 1.52652
      vertex 0.0173648 0.35 1.52652
    endloop
  endfacet
  facet normal 0.0872 0 -0.996191
    outer loop
      vertex 0.0173648 0.85 1.52652
      vertex 0 0.35 1.525
      vertex 0 0.85 1.525
    endloop
  endfacet
  facet normal 0.258738 0 -0.965948
    outer loop
      vertex 0.0173648 0.35 1.52652
      vertex 0.034202 0.85 1.53103
      vertex 0.034202 0.35 1.53103
    endloop
  endfacet
  facet normal 0.258738 0 -0.965948
    outer loop
      vertex 0.034202 0.85 1.53103
      vertex 0.0173648 0.35 1.52652
      vertex 0.0173648 0.85 1.52652
    endloop
  endfacet
  facet normal 0.422772 0 -0.906236
    outer loop
      vertex 0.034202 0.35 1.53103
      vertex 0.05 0.85 1.5384
      vertex 0.05 0.35 1.5384
    endloop
  endfacet
  facet normal 0.422772 0 -0.906236
    outer loop
      vertex 0.05 0.85 1.5384
      vertex 0.034202 0.35 1.53103
      vertex 0.034202 0.85 1.53103
    endloop
  endfacet
  facet normal 0.573649 0 -0.819101
    outer loop
      vertex 0.05 0.35 1.5384
      vertex 0.0642788 0.85 1.5484
      vertex 0.0642788 0.35 1.5484
    endloop
  endfacet
  facet normal 0.573649 0 -0.819101
    outer loop
      vertex 0.0642788 0.85 1.5484
      vertex 0.05 0.35 1.5384
      vertex 0.05 0.85 1.5384
    endloop
  endfacet
  facet normal 0.706946 0 -0.707267
    outer loop
      vertex 0.0766044 0.35 1.56072
      vertex 0.0642788 0.85 1.5484
      vertex 0.0766044 0.85 1.56072
    endloop
  endfacet
  facet normal 0.706946 0 -0.707267
    outer loop
      vertex 0.0642788 0.85 1.5484
      vertex 0.0766044 0.35 1.56072
      vertex 0.0642788 0.35 1.5484
    endloop
  endfacet
  facet normal 0.819175 0 -0.573543
    outer loop
      vertex 0.0866025 0.35 1.575
      vertex 0.0766044 0.85 1.56072
      vertex 0.0866025 0.85 1.575
    endloop
  endfacet
  facet normal 0.819175 0 -0.573543
    outer loop
      vertex 0.0766044 0.85 1.56072
      vertex 0.0866025 0.35 1.575
      vertex 0.0766044 0.35 1.56072
    endloop
  endfacet
  facet normal 0.906327 0 -0.422578
    outer loop
      vertex 0.0939693 0.35 1.5908
      vertex 0.0866025 0.85 1.575
      vertex 0.0939693 0.85 1.5908
    endloop
  endfacet
  facet normal 0.906327 0 -0.422578
    outer loop
      vertex 0.0866025 0.85 1.575
      vertex 0.0939693 0.35 1.5908
      vertex 0.0866025 0.35 1.575
    endloop
  endfacet
  facet normal 0.965937 0 -0.258778
    outer loop
      vertex 0.0984808 0.35 1.60764
      vertex 0.0939693 0.85 1.5908
      vertex 0.0984808 0.85 1.60764
    endloop
  endfacet
  facet normal 0.965937 0 -0.258778
    outer loop
      vertex 0.0939693 0.85 1.5908
      vertex 0.0984808 0.35 1.60764
      vertex 0.0939693 0.35 1.5908
    endloop
  endfacet
  facet normal 0.996193 0 -0.0871783
    outer loop
      vertex 0.1 0.35 1.625
      vertex 0.0984808 0.85 1.60764
      vertex 0.1 0.85 1.625
    endloop
  endfacet
  facet normal 0.996193 0 -0.0871783
    outer loop
      vertex 0.0984808 0.85 1.60764
      vertex 0.1 0.35 1.625
      vertex 0.0984808 0.35 1.60764
    endloop
  endfacet
  facet normal 0 1 0
    outer loop
      vertex 0.0173648 0.85 1.72348
      vertex -0.0173648 0.85 1.72348
      vertex 0 0.85 1.725
    endloop
  endfacet
  facet normal 0 1 0
    outer loop
      vertex 0.034202 0.85 1.71897
      vertex -0.0173648 0.85 1.72348
      vertex 0.0173648 0.85 1.72348
    endloop
  endfacet
  facet normal 0 1 0
    outer loop
      vertex 0.034202 0.85 1.71897
      vertex -0.034202 0.85 1.71897
      vertex -0.0173648 0.85 1.72348
    endloop
  endfacet
  facet normal 0 1 0
    outer loop
      vertex 0.05 0.85 1.7116
      vertex -0.034202 0.85 1.71897
      vertex 0.034202 0.85 1.71897
    endloop
  endfacet
  facet normal 0 1 0
    outer loop
      vertex 0.05 0.85 1.7116
      vertex -0.05 0.85 1.7116
      vertex -0.034202 0.85 1.71897
    endloop
  endfacet
  facet normal 0 1 0
    outer loop
      vertex 0.0642788 0.85 1.7016
      vertex -0.05 0.85 1.7116
      vertex 0.05 0.85 1.7116
    endloop
  endfacet
  facet normal 0 1 0
    outer loop
      vertex 0.0642788 0.85 1.7016
      vertex -0.0642788 0.85 1.7016
      vertex -0.05 0.85 1.7116
    endloop
  endfacet
  facet normal 0 1 0
    outer loop
      vertex 0.0766044 0.85 1.68928
      vertex -0.0642788 0.85 1.7016
      vertex 0.0642788 0.85 1.7016
    endloop
  endfacet
  facet normal 0 1 0
    outer loop
      vertex 0.0766044 0.85 1.68928
      vertex -0.0766044 0.85 1.68928
      vertex -0.0642788 0.85 1.7016
    endloop
  endfacet
  facet normal 0 1 0
    outer loop
      vertex 0.0866025 0.85 1.675
      vertex -0.0766044 0.85 1.68928
      vertex 0.0766044 0.85 1.68928
    endloop
  endfacet
  facet normal 0 1 0
    outer loop
      vertex 0.0866025 0.85 1.675
      vertex -0.0866025 0.85 1.675
      vertex -0.0766044 0.85 1.68928
    endloop
  endfacet
  facet normal 0 1 0
    outer loop
      vertex 0.0939693 0.85 1.6592
      vertex -0.0866025 0.85 1.675
      vertex 0.0866025 0.85 1.675
    endloop
  endfacet
  facet normal 0 1 0
    outer loop
      vertex 0.0939693 0.85 1.6592
      vertex -0.0939693 0.85 1.6592
      vertex -0.0866025 0.85 1.675
    endloop
  endfacet
  facet normal 0 1 0
    outer loop
      vertex 0.0984808 0.85 1.64236
      vertex -0.0939693 0.85 1.6592
      vertex 0.0939693 0.85 1.6592
    endloop
  endfacet
  facet normal 0 1 0
    outer loop
      vertex 0.0984808 0.85 1.64236
      vertex -0.0984808 0.85 1.64236
      vertex -0.0939693 0.85 1.6592
    endloop
  endfacet
  facet normal 0 1 0
    outer loop
      vertex 0.1 0.85 1.625
      vertex -0.0984808 0.85 1.64236
      vertex 0.0984808 0.85 1.64236
    endloop
  endfacet
  facet normal 0 1 0
    outer loop
      vertex 0.1 0.85 1.625
      vertex -0.1 0.85 1.625
      vertex -0.0984808 0.85 1.64236
    endloop
  endfacet
  facet normal 0 1 -0
    outer loop
      vertex 0.0984808 0.85 1.60764
      vertex -0.1 0.85 1.625
      vertex 0.1 0.85 1.625
    endloop
  endfacet
  facet normal 0 1 0
    outer loop
      vertex 0.0984808 0.85 1.60764
      vertex -0.0984808 0.85 1.60764
      vertex -0.1 0.85 1.625
    endloop
  endfacet
  facet normal 0 1 -0
    outer loop
      vertex 0.0939693 0.85 1.5908
      vertex -0.0984808 0.85 1.60764
      vertex 0.0984808 0.85 1.60764
    endloop
  endfacet
  facet normal 0 1 0
    outer loop
      vertex 0.0939693 0.85 1.5908
      vertex -0.0939693 0.85 1.5908
      vertex -0.0984808 0.85 1.60764
    endloop
  endfacet
  facet normal 0 1 -0
    outer loop
      vertex 0.0866025 0.85 1.575
      vertex -0.0939693 0.85 1.5908
      vertex 0.0939693 0.85 1.5908
    endloop
  endfacet
  facet normal 0 1 0
    outer loop
      vertex 0.0866025 0.85 1.575
      vertex -0.0866025 0.85 1.575
      vertex -0.0939693 0.85 1.5908
    endloop
  endfacet
  facet normal 0 1 -0
    outer loop
      vertex 0.0766044 0.85 1.56072
      vertex -0.0866025 0.85 1.575
      vertex 0.0866025 0.85 1.575
    endloop
  endfacet
  facet normal 0 1 0
    outer loop
      vertex 0.0766044 0.85 1.56072
      vertex -0.0766044 0.85 1.56072
      vertex -0.0866025 0.85 1.575
    endloop
  endfacet
  facet normal 0 1 -0
    outer loop
      vertex 0.0642788 0.85 1.5484
      vertex -0.0766044 0.85 1.56072
      vertex 0.0766044 0.85 1.56072
    endloop
  endfacet
  facet normal 0 1 0
    outer loop
      vertex 0.0642788 0.85 1.5484
      vertex -0.0642788 0.85 1.5484
      vertex -0.0766044 0.85 1.56072
    endloop
  endfacet
  facet normal 0 1 -0
    outer loop
      vertex 0.05 0.85 1.5384
      vertex -0.0642788 0.85 1.5484
      vertex 0.0642788 0.85 1.5484
    endloop
  endfacet
  facet normal 0 1 0
    outer loop
      vertex 0.05 0.85 1.5384
      vertex -0.05 0.85 1.5384
      vertex -0.0642788 0.85 1.5484
    endloop
  endfacet
  facet normal 0 1 -0
    outer loop
      vertex 0.034202 0.85 1.53103
      vertex -0.05 0.85 1.5384
      vertex 0.05 0.85 1.5384
    endloop
  endfacet
  facet normal 0 1 0
    outer loop
      vertex 0.034202 0.85 1.53103
      vertex -0.034202 0.85 1.53103
      vertex -0.05 0.85 1.5384
    endloop
  endfacet
  facet normal 0 1 -0
    outer loop
      vertex 0.0173648 0.85 1.52652
      vertex -0.034202 0.85 1.53103
      vertex 0.034202 0.85 1.53103
    endloop
  endfacet
  facet normal 0 1 0
    outer loop
      vertex 0.0173648 0.85 1.52652
      vertex -0.0173648 0.85 1.52652
      vertex -0.034202 0.85 1.53103
    endloop
  endfacet
  facet normal -0 1 0
    outer loop
      vertex -0.0173648 0.85 1.52652
      vertex 0.0173648 0.85 1.52652
      vertex 0 0.85 1.525
    endloop
  endfacet
  facet normal 0 -1 0
    outer loop
      vertex -0.0173648 0.35 1.72348
      vertex 0.0173648 0.35 1.72348
      vertex 0 0.35 1.725
    endloop
  endfacet
  facet normal 0 -1 0
    outer loop
      vertex -0.034202 0.35 1.71897
      vertex 0.0173648 0.35 1.72348
      vertex -0.0173648 0.35 1.72348
    endloop
  endfacet
  facet normal 0 -1 0
    outer loop
      vertex -0.034202 0.35 1.71897
      vertex 0.034202 0.35 1.71897
      vertex 0.0173648 0.35 1.72348
    endloop
  endfacet
  facet normal 0 -1 0
    outer loop
      vertex -0.05 0.35 1.7116
      vertex 0.034202 0.35 1.71897
      vertex -0.034202 0.35 1.71897
    endloop
  endfacet
  facet normal 0 -1 0
    outer loop
      vertex -0.05 0.35 1.7116
      vertex 0.05 0.35 1.7116
      vertex 0.034202 0.35 1.71897
    endloop
  endfacet
  facet normal 0 -1 0
    outer loop
      vertex -0.0642788 0.35 1.7016
      vertex 0.05 0.35 1.7116
      vertex -0.05 0.35 1.7116
    endloop
  endfacet
  facet normal 0 -1 0
    outer loop
      vertex -0.0642788 0.35 1.7016
      vertex 0.0642788 0.35 1.7016
      vertex 0.05 0.35 1.7116
    endloop
  endfacet
  facet normal 0 -1 0
    outer loop
      vertex -0.0766044 0.35 1.68928
      vertex 0.0642788 0.35 1.7016
      vertex -0.0642788 0.35 1.7016
    endloop
  endfacet
  facet normal 0 -1 0
    outer loop
      vertex -0.0766044 0.35 1.68928
      vertex 0.0766044 0.35 1.68928
      vertex 0.0642788 0.35 1.7016
    endloop
  endfacet
  facet normal 0 -1 0
    outer loop
      vertex -0.0866025 0.35 1.675
      vertex 0.0766044 0.35 1.68928
      vertex -0.0766044 0.35 1.68928
    endloop
  endfacet
  facet normal 0 -1 0
    outer loop
      vertex -0.0866025 0.35 1.675
      vertex 0.0866025 0.35 1.675
      vertex 0.0766044 0.35 1.68928
    endloop
  endfacet
  facet normal 0 -1 0
    outer loop
      vertex -0.0939693 0.35 1.6592
      vertex 0.0866025 0.35 1.675
      vertex -0.0866025 0.35 1.675
    endloop
  endfacet
  facet normal 0 -1 0
    outer loop
      vertex -0.0939693 0.35 1.6592
      vertex 0.0939693 0.35 1.6592
      vertex 0.0866025 0.35 1.675
    endloop
  endfacet
  facet normal 0 -1 0
    outer loop
      vertex -0.0984808 0.35 1.64236
      vertex 0.0939693 0.35 1.6592
      vertex -0.0939693 0.35 1.6592
    endloop
  endfacet
  facet normal 0 -1 0
    outer loop
      vertex -0.0984808 0.35 1.64236
      vertex 0.0984808 0.35 1.64236
      vertex 0.0939693 0.35 1.6592
    endloop
  endfacet
  facet normal 0 -1 0
    outer loop
      vertex -0.1 0.35 1.625
      vertex 0.0984808 0.35 1.64236
      vertex -0.0984808 0.35 1.64236
    endloop
  endfacet
  facet normal 0 -1 0
    outer loop
      vertex -0.1 0.35 1.625
      vertex 0.1 0.35 1.625
      vertex 0.0984808 0.35 1.64236
    endloop
  endfacet
  facet normal 0 -1 0
    outer loop
      vertex -0.0984808 0.35 1.60764
      vertex 0.1 0.35 1.625
      vertex -0.1 0.35 1.625
    endloop
  endfacet
  facet normal 0 -1 0
    outer loop
      vertex -0.0984808 0.35 1.60764
      vertex 0.0984808 0.35 1.60764
      vertex 0.1 0.35 1.625
    endloop
  endfacet
  facet normal 0 -1 0
    outer loop
      vertex -0.0939693 0.35 1.5908
      vertex 0.0984808 0.35 1.60764
      vertex -0.0984808 0.35 1.60764
    endloop
  endfacet
  facet normal 0 -1 0
    outer loop
      vertex -0.0939693 0.35 1.5908
      vertex 0.0939693 0.35 1.5908
      vertex 0.0984808 0.35 1.60764
    endloop
  endfacet
  facet normal 0 -1 0
    outer loop
      vertex -0.0866025 0.35 1.575
      vertex 0.0939693 0.35 1.5908
      vertex -0.0939693 0.35 1.5908
    endloop
  endfacet
  facet normal 0 -1 0
    outer loop
      vertex -0.0866025 0.35 1.575
      vertex 0.0866025 0.35 1.575
      vertex 0.0939693 0.35 1.5908
    endloop
  endfacet
  facet normal 0 -1 0
    outer loop
      vertex -0.0766044 0.35 1.56072
      vertex 0.0866025 0.35 1.575
      vertex -0.0866025 0.35 1.575
    endloop
  endfacet
  facet normal 0 -1 0
    outer loop
      vertex -0.0766044 0.35 1.56072
      vertex 0.0766044 0.35 1.56072
      vertex 0.0866025 0.35 1.575
    endloop
  endfacet
  facet normal 0 -1 0
    outer loop
      vertex -0.0642788 0.35 1.5484
      vertex 0.0766044 0.35 1.56072
      vertex -0.0766044 0.35 1.56072
    endloop
  endfacet
  facet normal 0 -1 0
    outer loop
      vertex -0.0642788 0.35 1.5484
      vertex 0.0642788 0.35 1.5484
      vertex 0.0766044 0.35 1.56072
    endloop
  endfacet
  facet normal 0 -1 0
    outer loop
      vertex -0.05 0.35 1.5384
      vertex 0.0642788 0.35 1.5484
      vertex -0.0642788 0.35 1.5484
    endloop
  endfacet
  facet normal 0 -1 0
    outer loop
      vertex -0.05 0.35 1.5384
      vertex 0.05 0.35 1.5384
      vertex 0.0642788 0.35 1.5484
    endloop
  endfacet
  facet normal 0 -1 0
    outer loop
      vertex -0.034202 0.35 1.53103
      vertex 0.05 0.35 1.5384
      vertex -0.05 0.35 1.5384
    endloop
  endfacet
  facet normal 0 -1 0
    outer loop
      vertex -0.034202 0.35 1.53103
      vertex 0.034202 0.35 1.53103
      vertex 0.05 0.35 1.5384
    endloop
  endfacet
  facet normal 0 -1 0
    outer loop
      vertex -0.0173648 0.35 1.52652
      vertex 0.034202 0.35 1.53103
      vertex -0.034202 0.35 1.53103
    endloop
  endfacet
  facet normal 0 -1 0
    outer loop
      vertex -0.0173648 0.35 1.52652
      vertex 0.0173648 0.35 1.52652
      vertex 0.034202 0.35 1.53103
    endloop
  endfacet
  facet normal -0 -1 0
    outer loop
      vertex 0.0173648 0.35 1.52652
      vertex -0.0173648 0.35 1.52652
      vertex 0 0.35 1.525
    endloop
  endfacet
endsolid OpenSCAD_Model
