solid OpenSCAD_Model
  facet normal 0.22318 0.265976 0.937789
    outer loop
      vertex 0.15383 -0.206786 1.79866
      vertex 0.1525 -0.20567 1.79866
      vertex 0.15133 -0.208884 1.79985
    endloop
  endfacet
  facet normal -0.638365 -0.112567 0.761458
    outer loop
      vertex -0.157198 -0.39262 1.79643
      vertex -0.155 -0.39 1.79866
      vertex -0.15766 -0.39 1.79643
    endloop
  endfacet
  facet normal 0.118761 -0.326304 0.937775
    outer loop
      vertex 0.150868 -0.391504 1.79985
      vertex 0.150302 -0.39171 1.79985
      vertex 0.1525 -0.39433 1.79866
    endloop
  endfacet
  facet normal 0.33698 0.925845 -0.171042
    outer loop
      vertex 0.155 -0.20134 0.01
      vertex 0.151632 -0.200746 0.0065798
      vertex 0.151736 -0.200152 0.01
    endloop
  endfacet
  facet normal -0.970275 0.171172 0.171075
    outer loop
      vertex -0.159397 -0.21 1.79342
      vertex -0.15883 -0.206786 1.79342
      vertex -0.16 -0.21 1.79
    endloop
  endfacet
  facet normal 0.638254 -0.112721 0.761529
    outer loop
      vertex 0.155 -0.39 1.79866
      vertex 0.154698 -0.39171 1.79866
      vertex 0.157198 -0.39262 1.79643
    endloop
  endfacet
  facet normal 0.558893 0.666096 0.493917
    outer loop
      vertex 0.155868 -0.205076 1.79643
      vertex 0.157198 -0.20396 1.79342
      vertex 0.15383 -0.203366 1.79643
    endloop
  endfacet
  facet normal 0.8562 0.150979 0.494093
    outer loop
      vertex 0.159397 -0.21 1.79342
      vertex 0.157198 -0.20738 1.79643
      vertex 0.15766 -0.21 1.79643
    endloop
  endfacet
  facet normal 0.853197 0.492717 0.171129
    outer loop
      vertex 0.159397 -0.20658 1.79
      vertex 0.157198 -0.20396 1.79342
      vertex 0.15883 -0.206786 1.79342
    endloop
  endfacet
  facet normal 0.752907 0.434621 -0.494202
    outer loop
      vertex 0.157198 -0.20396 0.0065798
      vertex 0.157198 -0.20738 0.00357212
      vertex 0.155868 -0.205076 0.00357212
    endloop
  endfacet
  facet normal -0 0 1
    outer loop
      vertex -0.150868 -0.208496 1.79985
      vertex -0.15133 -0.208884 1.79985
      vertex -0.150302 -0.20829 1.79985
    endloop
  endfacet
  facet normal 0 1 0
    outer loop
      vertex 0.151736 -0.200152 1.79
      vertex -0.151736 -0.200152 0.01
      vertex -0.151736 -0.200152 1.79
    endloop
  endfacet
  facet normal 0.970275 0.171172 0.171075
    outer loop
      vertex 0.15883 -0.206786 1.79342
      vertex 0.159397 -0.21 1.79342
      vertex 0.16 -0.21 1.79
    endloop
  endfacet
  facet normal 0.29739 -0.817022 0.493998
    outer loop
      vertex 0.154698 -0.398138 1.79342
      vertex 0.15383 -0.396634 1.79643
      vertex 0.151632 -0.399254 1.79342
    endloop
  endfacet
  facet normal 0.856038 0.15095 -0.494381
    outer loop
      vertex 0.15766 -0.21 0.00357212
      vertex 0.157198 -0.20738 0.00357212
      vertex 0.159397 -0.21 0.0065798
    endloop
  endfacet
  facet normal 0.970277 0.171172 -0.171065
    outer loop
      vertex 0.159397 -0.21 0.0065798
      vertex 0.15883 -0.206786 0.0065798
      vertex 0.16 -0.21 0.01
    endloop
  endfacet
  facet normal 0.638758 0.112636 -0.761118
    outer loop
      vertex 0.155 -0.21 0.00133975
      vertex 0.157198 -0.20738 0.00357212
      vertex 0.15766 -0.21 0.00357212
    endloop
  endfacet
  facet normal -0.341438 -0.0603007 -0.937968
    outer loop
      vertex -0.155 -0.39 0.00133975
      vertex -0.151632 -0.390594 0.000151922
      vertex -0.154698 -0.39171 0.00133975
    endloop
  endfacet
  facet normal 0 0 1
    outer loop
      vertex 0.150302 -0.20829 1.79985
      vertex -0.15133 -0.208884 1.79985
      vertex 0.150868 -0.208496 1.79985
    endloop
  endfacet
  facet normal 0 -0.648154 0.761509
    outer loop
      vertex 0.150868 -0.394924 1.79866
      vertex -0.15133 -0.397544 1.79643
      vertex 0.15133 -0.397544 1.79643
    endloop
  endfacet
  facet normal 0.98481 0.173637 -0
    outer loop
      vertex 0.16 -0.21 0.01
      vertex 0.159397 -0.20658 0.01
      vertex 0.16 -0.21 1.79
    endloop
  endfacet
  facet normal -0.300498 -0.173852 0.937804
    outer loop
      vertex -0.15383 -0.393214 1.79866
      vertex -0.15133 -0.391116 1.79985
      vertex -0.151632 -0.390594 1.79985
    endloop
  endfacet
  facet normal 0.416637 0.496529 0.761494
    outer loop
      vertex 0.15383 -0.203366 1.79643
      vertex 0.1525 -0.20567 1.79866
      vertex 0.15383 -0.206786 1.79866
    endloop
  endfacet
  facet normal 0 -0.346662 -0.93799
    outer loop
      vertex -0.150868 -0.394924 0.00133975
      vertex 0.150302 -0.39171 0.000151922
      vertex 0.150868 -0.394924 0.00133975
    endloop
  endfacet
  facet normal -0.866128 0 0.499822
    outer loop
      vertex -0.159397 -0.39 1.79342
      vertex -0.15766 -0.21 1.79643
      vertex -0.159397 -0.21 1.79342
    endloop
  endfacet
  facet normal 0.118764 0.326301 0.937775
    outer loop
      vertex 0.150868 -0.205076 1.79866
      vertex 0.150302 -0.20829 1.79985
      vertex 0.1525 -0.20567 1.79866
    endloop
  endfacet
  facet normal 0.34202 0.939693 0
    outer loop
      vertex 0.151736 -0.200152 1.79
      vertex 0.155 -0.20134 1.79
      vertex 0.151736 -0.200152 0.01
    endloop
  endfacet
  facet normal 0.336997 0.925836 -0.17106
    outer loop
      vertex 0.155 -0.20134 0.01
      vertex 0.154698 -0.201862 0.0065798
      vertex 0.151632 -0.200746 0.0065798
    endloop
  endfacet
  facet normal 0.865984 -0.500071 0
    outer loop
      vertex 0.15766 -0.396428 1.79
      vertex 0.159397 -0.39342 0.01
      vertex 0.159397 -0.39342 1.79
    endloop
  endfacet
  facet normal 0.297396 0.817022 0.493994
    outer loop
      vertex 0.151632 -0.200746 1.79342
      vertex 0.15133 -0.202456 1.79643
      vertex 0.15383 -0.203366 1.79643
    endloop
  endfacet
  facet normal -0.98481 0.173637 0
    outer loop
      vertex -0.159397 -0.20658 1.79
      vertex -0.159397 -0.20658 0.01
      vertex -0.16 -0.21 1.79
    endloop
  endfacet
  facet normal -0.856038 -0.15095 -0.494381
    outer loop
      vertex -0.15766 -0.39 0.00357212
      vertex -0.157198 -0.39262 0.00357212
      vertex -0.159397 -0.39 0.0065798
    endloop
  endfacet
  facet normal 0.300498 0.173852 0.937804
    outer loop
      vertex 0.151632 -0.209406 1.79985
      vertex 0.15383 -0.206786 1.79866
      vertex 0.15133 -0.208884 1.79985
    endloop
  endfacet
  facet normal 0.56135 0.324043 0.7615
    outer loop
      vertex 0.15383 -0.206786 1.79866
      vertex 0.157198 -0.20738 1.79643
      vertex 0.155868 -0.205076 1.79643
    endloop
  endfacet
  facet normal 0.853206 0.492692 0.171154
    outer loop
      vertex 0.159397 -0.20658 1.79
      vertex 0.15766 -0.203572 1.79
      vertex 0.157198 -0.20396 1.79342
    endloop
  endfacet
  facet normal 0 -1 0
    outer loop
      vertex -0.151736 -0.399848 1.79
      vertex 0.151736 -0.399848 0.01
      vertex 0.151736 -0.399848 1.79
    endloop
  endfacet
  facet normal 0 -0.347219 0.937784
    outer loop
      vertex 0.150868 -0.394924 1.79866
      vertex 0.150302 -0.39171 1.79985
      vertex -0.150868 -0.394924 1.79866
    endloop
  endfacet
  facet normal -0.2217 0.609067 0.761503
    outer loop
      vertex -0.15383 -0.203366 1.79643
      vertex -0.1525 -0.20567 1.79866
      vertex -0.15133 -0.202456 1.79643
    endloop
  endfacet
  facet normal -0 0 1
    outer loop
      vertex -0.150302 -0.20829 1.79985
      vertex -0.15133 -0.208884 1.79985
      vertex 0.150302 -0.20829 1.79985
    endloop
  endfacet
  facet normal 0 -1 0
    outer loop
      vertex -0.151736 -0.399848 0.01
      vertex 0.151736 -0.399848 0.01
      vertex -0.151736 -0.399848 1.79
    endloop
  endfacet
  facet normal 1 -0 0
    outer loop
      vertex 0.16 -0.39 1.79
      vertex 0.16 -0.39 0.01
      vertex 0.16 -0.21 1.79
    endloop
  endfacet
  facet normal -0.633352 0.754709 -0.17111
    outer loop
      vertex -0.154698 -0.201862 0.0065798
      vertex -0.157198 -0.20396 0.0065798
      vertex -0.155 -0.20134 0.01
    endloop
  endfacet
  facet normal 0.642449 0 0.766329
    outer loop
      vertex 0.155 -0.21 1.79866
      vertex 0.15766 -0.39 1.79643
      vertex 0.15766 -0.21 1.79643
    endloop
  endfacet
  facet normal -0.561696 -0.324243 -0.76116
    outer loop
      vertex -0.157198 -0.39262 0.00357212
      vertex -0.15383 -0.393214 0.00133975
      vertex -0.155868 -0.394924 0.00357212
    endloop
  endfacet
  facet normal -0.33698 -0.925843 0.171052
    outer loop
      vertex -0.155 -0.39866 1.79
      vertex -0.151736 -0.399848 1.79
      vertex -0.151632 -0.399254 1.79342
    endloop
  endfacet
  facet normal -0.98481 -0.173637 0
    outer loop
      vertex -0.16 -0.39 1.79
      vertex -0.159397 -0.39342 0.01
      vertex -0.159397 -0.39342 1.79
    endloop
  endfacet
  facet normal 0.633351 -0.754708 0.17112
    outer loop
      vertex 0.157198 -0.39604 1.79342
      vertex 0.154698 -0.398138 1.79342
      vertex 0.155 -0.39866 1.79
    endloop
  endfacet
  facet normal 0.865961 0 -0.500111
    outer loop
      vertex 0.15766 -0.21 0.00357212
      vertex 0.159397 -0.39 0.0065798
      vertex 0.15766 -0.39 0.00357212
    endloop
  endfacet
  facet normal -0.98481 0.173637 0
    outer loop
      vertex -0.16 -0.21 1.79
      vertex -0.159397 -0.20658 0.01
      vertex -0.16 -0.21 0.01
    endloop
  endfacet
  facet normal 0 0.869485 0.49396
    outer loop
      vertex 0.151632 -0.200746 1.79342
      vertex -0.15133 -0.202456 1.79643
      vertex 0.15133 -0.202456 1.79643
    endloop
  endfacet
  facet normal -0.865984 0.500071 0
    outer loop
      vertex -0.15766 -0.203572 0.01
      vertex -0.159397 -0.20658 0.01
      vertex -0.15766 -0.203572 1.79
    endloop
  endfacet
  facet normal -0 0.98525 0.171122
    outer loop
      vertex -0.151736 -0.200152 1.79
      vertex -0.151632 -0.200746 1.79342
      vertex 0.151736 -0.200152 1.79
    endloop
  endfacet
  facet normal 0.642787 0.766045 0
    outer loop
      vertex 0.155 -0.20134 1.79
      vertex 0.15766 -0.203572 1.79
      vertex 0.155 -0.20134 0.01
    endloop
  endfacet
  facet normal 0.970276 0.171075 0.171166
    outer loop
      vertex 0.16 -0.21 1.79
      vertex 0.159397 -0.20658 1.79
      vertex 0.15883 -0.206786 1.79342
    endloop
  endfacet
  facet normal 0.41662 0.496534 0.7615
    outer loop
      vertex 0.15383 -0.206786 1.79866
      vertex 0.155868 -0.205076 1.79643
      vertex 0.15383 -0.203366 1.79643
    endloop
  endfacet
  facet normal 0.856216 0.15105 0.494043
    outer loop
      vertex 0.15883 -0.206786 1.79342
      vertex 0.157198 -0.20738 1.79643
      vertex 0.159397 -0.21 1.79342
    endloop
  endfacet
  facet normal -0.221682 0.609065 0.76151
    outer loop
      vertex -0.15133 -0.202456 1.79643
      vertex -0.1525 -0.20567 1.79866
      vertex -0.150868 -0.205076 1.79866
    endloop
  endfacet
  facet normal -0.633351 -0.754708 0.17112
    outer loop
      vertex -0.154698 -0.398138 1.79342
      vertex -0.157198 -0.39604 1.79342
      vertex -0.155 -0.39866 1.79
    endloop
  endfacet
  facet normal 0.752914 0.434804 0.49403
    outer loop
      vertex 0.15883 -0.206786 1.79342
      vertex 0.157198 -0.20396 1.79342
      vertex 0.157198 -0.20738 1.79643
    endloop
  endfacet
  facet normal 0.753049 0.434703 0.493915
    outer loop
      vertex 0.157198 -0.20738 1.79643
      vertex 0.157198 -0.20396 1.79342
      vertex 0.155868 -0.205076 1.79643
    endloop
  endfacet
  facet normal -0.416877 0.496839 -0.76116
    outer loop
      vertex -0.155868 -0.205076 0.00357212
      vertex -0.15383 -0.203366 0.00357212
      vertex -0.15383 -0.206786 0.00133975
    endloop
  endfacet
  facet normal 0 1 -0
    outer loop
      vertex 0.151736 -0.200152 0.01
      vertex -0.151736 -0.200152 0.01
      vertex 0.151736 -0.200152 1.79
    endloop
  endfacet
  facet normal 0 0.98525 0.171122
    outer loop
      vertex 0.151736 -0.200152 1.79
      vertex -0.151632 -0.200746 1.79342
      vertex 0.151632 -0.200746 1.79342
    endloop
  endfacet
  facet normal 0.416877 0.496839 -0.76116
    outer loop
      vertex 0.15383 -0.206786 0.00133975
      vertex 0.15383 -0.203366 0.00357212
      vertex 0.155868 -0.205076 0.00357212
    endloop
  endfacet
  facet normal 0.34202 -0.939693 0
    outer loop
      vertex 0.151736 -0.399848 1.79
      vertex 0.155 -0.39866 0.01
      vertex 0.155 -0.39866 1.79
    endloop
  endfacet
  facet normal 0.222822 0.265549 -0.937995
    outer loop
      vertex 0.15383 -0.206786 0.00133975
      vertex 0.15133 -0.208884 0.000151922
      vertex 0.1525 -0.20567 0.00133975
    endloop
  endfacet
  facet normal 1 0 0
    outer loop
      vertex 0.16 -0.21 1.79
      vertex 0.16 -0.39 0.01
      vertex 0.16 -0.21 0.01
    endloop
  endfacet
  facet normal 0.856055 0.151021 -0.494331
    outer loop
      vertex 0.159397 -0.21 0.0065798
      vertex 0.157198 -0.20738 0.00357212
      vertex 0.15883 -0.206786 0.0065798
    endloop
  endfacet
  facet normal 0.752773 0.434722 -0.494318
    outer loop
      vertex 0.15883 -0.206786 0.0065798
      vertex 0.157198 -0.20738 0.00357212
      vertex 0.157198 -0.20396 0.0065798
    endloop
  endfacet
  facet normal 0.865984 0.500071 -0
    outer loop
      vertex 0.159397 -0.20658 0.01
      vertex 0.15766 -0.203572 1.79
      vertex 0.159397 -0.20658 1.79
    endloop
  endfacet
  facet normal 0.638254 0.112721 0.761529
    outer loop
      vertex 0.157198 -0.20738 1.79643
      vertex 0.154698 -0.20829 1.79866
      vertex 0.155 -0.21 1.79866
    endloop
  endfacet
  facet normal 0.341914 0.0598638 0.937822
    outer loop
      vertex 0.151736 -0.21 1.79985
      vertex 0.155 -0.21 1.79866
      vertex 0.151632 -0.209406 1.79985
    endloop
  endfacet
  facet normal -1 0 0
    outer loop
      vertex -0.16 -0.21 0.01
      vertex -0.16 -0.39 1.79
      vertex -0.16 -0.21 1.79
    endloop
  endfacet
  facet normal 0.98481 -0.173637 0
    outer loop
      vertex 0.159397 -0.39342 1.79
      vertex 0.159397 -0.39342 0.01
      vertex 0.16 -0.39 1.79
    endloop
  endfacet
  facet normal -0.223324 -0.265917 0.937771
    outer loop
      vertex -0.1525 -0.39433 1.79866
      vertex -0.150868 -0.391504 1.79985
      vertex -0.15133 -0.391116 1.79985
    endloop
  endfacet
  facet normal -0.633299 -0.754739 0.171176
    outer loop
      vertex -0.155 -0.39866 1.79
      vertex -0.157198 -0.39604 1.79342
      vertex -0.15766 -0.396428 1.79
    endloop
  endfacet
  facet normal -0.642449 0 0.766329
    outer loop
      vertex -0.15766 -0.39 1.79643
      vertex -0.155 -0.21 1.79866
      vertex -0.15766 -0.21 1.79643
    endloop
  endfacet
  facet normal -0.558929 0.666026 0.493971
    outer loop
      vertex -0.154698 -0.201862 1.79342
      vertex -0.157198 -0.20396 1.79342
      vertex -0.15383 -0.203366 1.79643
    endloop
  endfacet
  facet normal 0 0.347219 0.937784
    outer loop
      vertex 0.150868 -0.205076 1.79866
      vertex -0.150302 -0.20829 1.79985
      vertex 0.150302 -0.20829 1.79985
    endloop
  endfacet
  facet normal 0.98481 0 0.173637
    outer loop
      vertex 0.16 -0.21 1.79
      vertex 0.159397 -0.39 1.79342
      vertex 0.16 -0.39 1.79
    endloop
  endfacet
  facet normal 0.752914 -0.434804 0.49403
    outer loop
      vertex 0.157198 -0.39604 1.79342
      vertex 0.15883 -0.393214 1.79342
      vertex 0.157198 -0.39262 1.79643
    endloop
  endfacet
  facet normal 0.638365 -0.112567 0.761458
    outer loop
      vertex 0.157198 -0.39262 1.79643
      vertex 0.15766 -0.39 1.79643
      vertex 0.155 -0.39 1.79866
    endloop
  endfacet
  facet normal 0 0.985251 -0.171113
    outer loop
      vertex 0.151632 -0.200746 0.0065798
      vertex -0.151632 -0.200746 0.0065798
      vertex 0.151736 -0.200152 0.01
    endloop
  endfacet
  facet normal -0.300016 0.173572 -0.93801
    outer loop
      vertex -0.15383 -0.206786 0.00133975
      vertex -0.15133 -0.208884 0.000151922
      vertex -0.151632 -0.209406 0.000151922
    endloop
  endfacet
  facet normal 0.33698 0.925843 0.171052
    outer loop
      vertex 0.151632 -0.200746 1.79342
      vertex 0.155 -0.20134 1.79
      vertex 0.151736 -0.200152 1.79
    endloop
  endfacet
  facet normal 0.98481 0.173637 0
    outer loop
      vertex 0.16 -0.21 1.79
      vertex 0.159397 -0.20658 0.01
      vertex 0.159397 -0.20658 1.79
    endloop
  endfacet
  facet normal 0.341987 0.0603977 0.937762
    outer loop
      vertex 0.155 -0.21 1.79866
      vertex 0.154698 -0.20829 1.79866
      vertex 0.151632 -0.209406 1.79985
    endloop
  endfacet
  facet normal 0.638365 0.112567 0.761458
    outer loop
      vertex 0.15766 -0.21 1.79643
      vertex 0.157198 -0.20738 1.79643
      vertex 0.155 -0.21 1.79866
    endloop
  endfacet
  facet normal 0 0.648154 0.761509
    outer loop
      vertex 0.15133 -0.202456 1.79643
      vertex -0.15133 -0.202456 1.79643
      vertex 0.150868 -0.205076 1.79866
    endloop
  endfacet
  facet normal -0.642449 0 0.766329
    outer loop
      vertex -0.155 -0.39 1.79866
      vertex -0.155 -0.21 1.79866
      vertex -0.15766 -0.39 1.79643
    endloop
  endfacet
  facet normal 0 -0.347219 0.937784
    outer loop
      vertex -0.150868 -0.394924 1.79866
      vertex 0.150302 -0.39171 1.79985
      vertex -0.150302 -0.39171 1.79985
    endloop
  endfacet
  facet normal 0.118764 -0.326301 0.937775
    outer loop
      vertex 0.1525 -0.39433 1.79866
      vertex 0.150302 -0.39171 1.79985
      vertex 0.150868 -0.394924 1.79866
    endloop
  endfacet
  facet normal -0.29739 0.817022 0.493998
    outer loop
      vertex -0.151632 -0.200746 1.79342
      vertex -0.154698 -0.201862 1.79342
      vertex -0.15383 -0.203366 1.79643
    endloop
  endfacet
  facet normal 0.297334 0.816868 -0.494286
    outer loop
      vertex 0.154698 -0.201862 0.0065798
      vertex 0.15383 -0.203366 0.00357212
      vertex 0.151632 -0.200746 0.0065798
    endloop
  endfacet
  facet normal 0.297396 -0.817022 0.493994
    outer loop
      vertex 0.151632 -0.399254 1.79342
      vertex 0.15383 -0.396634 1.79643
      vertex 0.15133 -0.397544 1.79643
    endloop
  endfacet
  facet normal 0.642849 0 -0.765993
    outer loop
      vertex 0.15766 -0.21 0.00357212
      vertex 0.155 -0.39 0.00133975
      vertex 0.155 -0.21 0.00133975
    endloop
  endfacet
  facet normal 0.633299 0.754739 0.171176
    outer loop
      vertex 0.157198 -0.20396 1.79342
      vertex 0.15766 -0.203572 1.79
      vertex 0.155 -0.20134 1.79
    endloop
  endfacet
  facet normal 0.34202 0.939693 0
    outer loop
      vertex 0.151736 -0.200152 0.01
      vertex 0.155 -0.20134 1.79
      vertex 0.155 -0.20134 0.01
    endloop
  endfacet
  facet normal -0.34202 -0.939693 0
    outer loop
      vertex -0.155 -0.39866 0.01
      vertex -0.151736 -0.399848 1.79
      vertex -0.155 -0.39866 1.79
    endloop
  endfacet
  facet normal 0 0.346662 -0.93799
    outer loop
      vertex 0.150868 -0.205076 0.00133975
      vertex -0.150302 -0.20829 0.000151922
      vertex -0.150868 -0.205076 0.00133975
    endloop
  endfacet
  facet normal 0 -0.869485 0.49396
    outer loop
      vertex 0.151632 -0.399254 1.79342
      vertex -0.15133 -0.397544 1.79643
      vertex -0.151632 -0.399254 1.79342
    endloop
  endfacet
  facet normal -0.642787 -0.766045 -0
    outer loop
      vertex -0.155 -0.39866 1.79
      vertex -0.15766 -0.396428 0.01
      vertex -0.155 -0.39866 0.01
    endloop
  endfacet
  facet normal 0.11857 0.32578 -0.937981
    outer loop
      vertex 0.1525 -0.20567 0.00133975
      vertex 0.150868 -0.208496 0.000151922
      vertex 0.150302 -0.20829 0.000151922
    endloop
  endfacet
  facet normal -0.865984 -0.500071 0
    outer loop
      vertex -0.159397 -0.39342 0.01
      vertex -0.15766 -0.396428 0.01
      vertex -0.159397 -0.39342 1.79
    endloop
  endfacet
  facet normal 0.856038 -0.15095 -0.494381
    outer loop
      vertex 0.159397 -0.39 0.0065798
      vertex 0.157198 -0.39262 0.00357212
      vertex 0.15766 -0.39 0.00357212
    endloop
  endfacet
  facet normal 0.970275 -0.171172 0.171075
    outer loop
      vertex 0.159397 -0.39 1.79342
      vertex 0.15883 -0.393214 1.79342
      vertex 0.16 -0.39 1.79
    endloop
  endfacet
  facet normal 0.98481 0 0.173637
    outer loop
      vertex 0.159397 -0.21 1.79342
      vertex 0.159397 -0.39 1.79342
      vertex 0.16 -0.21 1.79
    endloop
  endfacet
  facet normal -0 0.347219 0.937784
    outer loop
      vertex -0.150868 -0.205076 1.79866
      vertex -0.150302 -0.20829 1.79985
      vertex 0.150868 -0.205076 1.79866
    endloop
  endfacet
  facet normal -1 0 0
    outer loop
      vertex -0.16 -0.39 0.01
      vertex -0.16 -0.39 1.79
      vertex -0.16 -0.21 0.01
    endloop
  endfacet
  facet normal -0.853207 -0.492693 -0.171144
    outer loop
      vertex -0.157198 -0.39604 0.0065798
      vertex -0.15766 -0.396428 0.01
      vertex -0.159397 -0.39342 0.01
    endloop
  endfacet
  facet normal 0.642449 -0 0.766329
    outer loop
      vertex 0.155 -0.39 1.79866
      vertex 0.15766 -0.39 1.79643
      vertex 0.155 -0.21 1.79866
    endloop
  endfacet
  facet normal 0 0 1
    outer loop
      vertex 0.150868 -0.391504 1.79985
      vertex -0.15133 -0.208884 1.79985
      vertex 0.150302 -0.39171 1.79985
    endloop
  endfacet
  facet normal -0.223324 0.265917 0.937771
    outer loop
      vertex -0.1525 -0.20567 1.79866
      vertex -0.15133 -0.208884 1.79985
      vertex -0.150868 -0.208496 1.79985
    endloop
  endfacet
  facet normal 0.561355 -0.323973 0.761526
    outer loop
      vertex 0.154698 -0.39171 1.79866
      vertex 0.15383 -0.393214 1.79866
      vertex 0.157198 -0.39262 1.79643
    endloop
  endfacet
  facet normal 0.753049 -0.434703 0.493915
    outer loop
      vertex 0.157198 -0.39262 1.79643
      vertex 0.155868 -0.394924 1.79643
      vertex 0.157198 -0.39604 1.79342
    endloop
  endfacet
  facet normal -0.221682 -0.609065 0.76151
    outer loop
      vertex -0.150868 -0.394924 1.79866
      vertex -0.1525 -0.39433 1.79866
      vertex -0.15133 -0.397544 1.79643
    endloop
  endfacet
  facet normal 0.866128 0 0.499822
    outer loop
      vertex 0.15766 -0.21 1.79643
      vertex 0.159397 -0.39 1.79342
      vertex 0.159397 -0.21 1.79342
    endloop
  endfacet
  facet normal 0.866128 -0 0.499822
    outer loop
      vertex 0.15766 -0.39 1.79643
      vertex 0.159397 -0.39 1.79342
      vertex 0.15766 -0.21 1.79643
    endloop
  endfacet
  facet normal 0.561696 0.324243 -0.76116
    outer loop
      vertex 0.157198 -0.20738 0.00357212
      vertex 0.15383 -0.206786 0.00133975
      vertex 0.155868 -0.205076 0.00357212
    endloop
  endfacet
  facet normal -0.416893 0.496835 -0.761154
    outer loop
      vertex -0.15383 -0.203366 0.00357212
      vertex -0.1525 -0.20567 0.00133975
      vertex -0.15383 -0.206786 0.00133975
    endloop
  endfacet
  facet normal -0.856055 0.151021 -0.494331
    outer loop
      vertex -0.15883 -0.206786 0.0065798
      vertex -0.157198 -0.20738 0.00357212
      vertex -0.159397 -0.21 0.0065798
    endloop
  endfacet
  facet normal -0.865984 0.500071 0
    outer loop
      vertex -0.15766 -0.203572 1.79
      vertex -0.159397 -0.20658 0.01
      vertex -0.159397 -0.20658 1.79
    endloop
  endfacet
  facet normal 0.853198 0.492718 -0.17112
    outer loop
      vertex 0.159397 -0.20658 0.01
      vertex 0.15883 -0.206786 0.0065798
      vertex 0.157198 -0.20396 0.0065798
    endloop
  endfacet
  facet normal 0.970278 0.171075 -0.171156
    outer loop
      vertex 0.16 -0.21 0.01
      vertex 0.15883 -0.206786 0.0065798
      vertex 0.159397 -0.20658 0.01
    endloop
  endfacet
  facet normal 0.853207 0.492693 -0.171144
    outer loop
      vertex 0.157198 -0.20396 0.0065798
      vertex 0.15766 -0.203572 0.01
      vertex 0.159397 -0.20658 0.01
    endloop
  endfacet
  facet normal 0.633301 0.75474 -0.171167
    outer loop
      vertex 0.155 -0.20134 0.01
      vertex 0.15766 -0.203572 0.01
      vertex 0.157198 -0.20396 0.0065798
    endloop
  endfacet
  facet normal 0.561355 0.323973 0.761526
    outer loop
      vertex 0.15383 -0.206786 1.79866
      vertex 0.154698 -0.20829 1.79866
      vertex 0.157198 -0.20738 1.79643
    endloop
  endfacet
  facet normal 0.300785 0.173591 0.93776
    outer loop
      vertex 0.151632 -0.209406 1.79985
      vertex 0.154698 -0.20829 1.79866
      vertex 0.15383 -0.206786 1.79866
    endloop
  endfacet
  facet normal 0 0.648154 0.761509
    outer loop
      vertex 0.150868 -0.205076 1.79866
      vertex -0.15133 -0.202456 1.79643
      vertex -0.150868 -0.205076 1.79866
    endloop
  endfacet
  facet normal -0.56135 -0.324043 0.7615
    outer loop
      vertex -0.15383 -0.393214 1.79866
      vertex -0.157198 -0.39262 1.79643
      vertex -0.155868 -0.394924 1.79643
    endloop
  endfacet
  facet normal 0.221682 0.609065 0.76151
    outer loop
      vertex 0.1525 -0.20567 1.79866
      vertex 0.15133 -0.202456 1.79643
      vertex 0.150868 -0.205076 1.79866
    endloop
  endfacet
  facet normal 0.2217 0.609067 0.761503
    outer loop
      vertex 0.15383 -0.203366 1.79643
      vertex 0.15133 -0.202456 1.79643
      vertex 0.1525 -0.20567 1.79866
    endloop
  endfacet
  facet normal 0 0 1
    outer loop
      vertex 0.151632 -0.209406 1.79985
      vertex -0.15133 -0.208884 1.79985
      vertex 0.151736 -0.21 1.79985
    endloop
  endfacet
  facet normal -0.118764 -0.326301 0.937775
    outer loop
      vertex -0.150302 -0.39171 1.79985
      vertex -0.1525 -0.39433 1.79866
      vertex -0.150868 -0.394924 1.79866
    endloop
  endfacet
  facet normal -0.856216 -0.15105 0.494043
    outer loop
      vertex -0.157198 -0.39262 1.79643
      vertex -0.159397 -0.39 1.79342
      vertex -0.15883 -0.393214 1.79342
    endloop
  endfacet
  facet normal -0.342529 0 0.939507
    outer loop
      vertex -0.151736 -0.21 1.79985
      vertex -0.155 -0.21 1.79866
      vertex -0.151736 -0.39 1.79985
    endloop
  endfacet
  facet normal -0.118761 0.326304 0.937775
    outer loop
      vertex -0.150302 -0.20829 1.79985
      vertex -0.1525 -0.20567 1.79866
      vertex -0.150868 -0.208496 1.79985
    endloop
  endfacet
  facet normal -0.752914 0.434804 0.49403
    outer loop
      vertex -0.15883 -0.206786 1.79342
      vertex -0.157198 -0.20738 1.79643
      vertex -0.157198 -0.20396 1.79342
    endloop
  endfacet
  facet normal 0.221837 0.609442 -0.761163
    outer loop
      vertex 0.1525 -0.20567 0.00133975
      vertex 0.15133 -0.202456 0.00357212
      vertex 0.15383 -0.203366 0.00357212
    endloop
  endfacet
  facet normal 0.416893 0.496835 -0.761154
    outer loop
      vertex 0.1525 -0.20567 0.00133975
      vertex 0.15383 -0.203366 0.00357212
      vertex 0.15383 -0.206786 0.00133975
    endloop
  endfacet
  facet normal -0 0.869485 0.49396
    outer loop
      vertex -0.151632 -0.200746 1.79342
      vertex -0.15133 -0.202456 1.79643
      vertex 0.151632 -0.200746 1.79342
    endloop
  endfacet
  facet normal -0.297396 0.817022 0.493994
    outer loop
      vertex -0.15383 -0.203366 1.79643
      vertex -0.15133 -0.202456 1.79643
      vertex -0.151632 -0.200746 1.79342
    endloop
  endfacet
  facet normal -0.853206 0.492692 0.171154
    outer loop
      vertex -0.159397 -0.20658 1.79
      vertex -0.157198 -0.20396 1.79342
      vertex -0.15766 -0.203572 1.79
    endloop
  endfacet
  facet normal -0.33698 0.925845 -0.171042
    outer loop
      vertex -0.151632 -0.200746 0.0065798
      vertex -0.155 -0.20134 0.01
      vertex -0.151736 -0.200152 0.01
    endloop
  endfacet
  facet normal -0.336996 0.925834 0.17107
    outer loop
      vertex -0.151632 -0.200746 1.79342
      vertex -0.155 -0.20134 1.79
      vertex -0.154698 -0.201862 1.79342
    endloop
  endfacet
  facet normal -0.642787 0.766045 0
    outer loop
      vertex -0.15766 -0.203572 1.79
      vertex -0.155 -0.20134 1.79
      vertex -0.15766 -0.203572 0.01
    endloop
  endfacet
  facet normal 0.336996 0.925834 0.17107
    outer loop
      vertex 0.151632 -0.200746 1.79342
      vertex 0.154698 -0.201862 1.79342
      vertex 0.155 -0.20134 1.79
    endloop
  endfacet
  facet normal 0.29739 0.817022 0.493998
    outer loop
      vertex 0.15383 -0.203366 1.79643
      vertex 0.154698 -0.201862 1.79342
      vertex 0.151632 -0.200746 1.79342
    endloop
  endfacet
  facet normal -0.633352 -0.754709 -0.17111
    outer loop
      vertex -0.157198 -0.39604 0.0065798
      vertex -0.154698 -0.398138 0.0065798
      vertex -0.155 -0.39866 0.01
    endloop
  endfacet
  facet normal 0.33698 -0.925843 0.171052
    outer loop
      vertex 0.155 -0.39866 1.79
      vertex 0.151632 -0.399254 1.79342
      vertex 0.151736 -0.399848 1.79
    endloop
  endfacet
  facet normal 0.984811 0 -0.173628
    outer loop
      vertex 0.16 -0.39 0.01
      vertex 0.159397 -0.39 0.0065798
      vertex 0.16 -0.21 0.01
    endloop
  endfacet
  facet normal -0.34202 -0.939693 0
    outer loop
      vertex -0.151736 -0.399848 0.01
      vertex -0.151736 -0.399848 1.79
      vertex -0.155 -0.39866 0.01
    endloop
  endfacet
  facet normal 0 -0.869485 0.49396
    outer loop
      vertex 0.15133 -0.397544 1.79643
      vertex -0.15133 -0.397544 1.79643
      vertex 0.151632 -0.399254 1.79342
    endloop
  endfacet
  facet normal -0.853206 -0.492692 0.171154
    outer loop
      vertex -0.15766 -0.396428 1.79
      vertex -0.157198 -0.39604 1.79342
      vertex -0.159397 -0.39342 1.79
    endloop
  endfacet
  facet normal -0.558929 -0.666026 0.493971
    outer loop
      vertex -0.15383 -0.396634 1.79643
      vertex -0.157198 -0.39604 1.79342
      vertex -0.154698 -0.398138 1.79342
    endloop
  endfacet
  facet normal -0.336996 -0.925834 0.17107
    outer loop
      vertex -0.151632 -0.399254 1.79342
      vertex -0.154698 -0.398138 1.79342
      vertex -0.155 -0.39866 1.79
    endloop
  endfacet
  facet normal -0.633301 -0.75474 -0.171167
    outer loop
      vertex -0.155 -0.39866 0.01
      vertex -0.15766 -0.396428 0.01
      vertex -0.157198 -0.39604 0.0065798
    endloop
  endfacet
  facet normal 0.341977 0 -0.939708
    outer loop
      vertex 0.155 -0.39 0.00133975
      vertex 0.151736 -0.39 0.000151922
      vertex 0.155 -0.21 0.00133975
    endloop
  endfacet
  facet normal 0.561701 0.324173 -0.761186
    outer loop
      vertex 0.154698 -0.20829 0.00133975
      vertex 0.15383 -0.206786 0.00133975
      vertex 0.157198 -0.20738 0.00357212
    endloop
  endfacet
  facet normal 0.642849 0 -0.765993
    outer loop
      vertex 0.15766 -0.39 0.00357212
      vertex 0.155 -0.39 0.00133975
      vertex 0.15766 -0.21 0.00357212
    endloop
  endfacet
  facet normal -0.41662 -0.496534 0.7615
    outer loop
      vertex -0.155868 -0.394924 1.79643
      vertex -0.15383 -0.396634 1.79643
      vertex -0.15383 -0.393214 1.79866
    endloop
  endfacet
  facet normal 0 -0 1
    outer loop
      vertex -0.151632 -0.390594 1.79985
      vertex -0.15133 -0.208884 1.79985
      vertex -0.151736 -0.39 1.79985
    endloop
  endfacet
  facet normal -0.297396 -0.817022 0.493994
    outer loop
      vertex -0.151632 -0.399254 1.79342
      vertex -0.15133 -0.397544 1.79643
      vertex -0.15383 -0.396634 1.79643
    endloop
  endfacet
  facet normal -0.2217 -0.609067 0.761503
    outer loop
      vertex -0.15133 -0.397544 1.79643
      vertex -0.1525 -0.39433 1.79866
      vertex -0.15383 -0.396634 1.79643
    endloop
  endfacet
  facet normal 0 -0.648154 0.761509
    outer loop
      vertex -0.150868 -0.394924 1.79866
      vertex -0.15133 -0.397544 1.79643
      vertex 0.150868 -0.394924 1.79866
    endloop
  endfacet
  facet normal -0.22318 0.265976 0.937789
    outer loop
      vertex -0.15383 -0.206786 1.79866
      vertex -0.15133 -0.208884 1.79985
      vertex -0.1525 -0.20567 1.79866
    endloop
  endfacet
  facet normal 0.342529 0 0.939507
    outer loop
      vertex 0.155 -0.21 1.79866
      vertex 0.151736 -0.39 1.79985
      vertex 0.155 -0.39 1.79866
    endloop
  endfacet
  facet normal 0.342529 0 0.939507
    outer loop
      vertex 0.151736 -0.21 1.79985
      vertex 0.151736 -0.39 1.79985
      vertex 0.155 -0.21 1.79866
    endloop
  endfacet
  facet normal 0.8562 -0.150979 0.494093
    outer loop
      vertex 0.157198 -0.39262 1.79643
      vertex 0.159397 -0.39 1.79342
      vertex 0.15766 -0.39 1.79643
    endloop
  endfacet
  facet normal 0.853207 -0.492693 -0.171144
    outer loop
      vertex 0.15766 -0.396428 0.01
      vertex 0.157198 -0.39604 0.0065798
      vertex 0.159397 -0.39342 0.01
    endloop
  endfacet
  facet normal 0.221682 -0.609065 0.76151
    outer loop
      vertex 0.1525 -0.39433 1.79866
      vertex 0.150868 -0.394924 1.79866
      vertex 0.15133 -0.397544 1.79643
    endloop
  endfacet
  facet normal 0 0 1
    outer loop
      vertex 0.15133 -0.208884 1.79985
      vertex -0.15133 -0.208884 1.79985
      vertex 0.151632 -0.209406 1.79985
    endloop
  endfacet
  facet normal -0.118761 -0.326304 0.937775
    outer loop
      vertex -0.150302 -0.39171 1.79985
      vertex -0.150868 -0.391504 1.79985
      vertex -0.1525 -0.39433 1.79866
    endloop
  endfacet
  facet normal 0.118761 0.326304 0.937775
    outer loop
      vertex 0.150302 -0.20829 1.79985
      vertex 0.150868 -0.208496 1.79985
      vertex 0.1525 -0.20567 1.79866
    endloop
  endfacet
  facet normal 0.856216 -0.15105 0.494043
    outer loop
      vertex 0.157198 -0.39262 1.79643
      vertex 0.15883 -0.393214 1.79342
      vertex 0.159397 -0.39 1.79342
    endloop
  endfacet
  facet normal 0.970278 -0.171075 -0.171156
    outer loop
      vertex 0.159397 -0.39342 0.01
      vertex 0.15883 -0.393214 0.0065798
      vertex 0.16 -0.39 0.01
    endloop
  endfacet
  facet normal 0 0 1
    outer loop
      vertex 0.15133 -0.391116 1.79985
      vertex -0.15133 -0.208884 1.79985
      vertex 0.150868 -0.391504 1.79985
    endloop
  endfacet
  facet normal 0.558893 -0.666096 0.493917
    outer loop
      vertex 0.155868 -0.394924 1.79643
      vertex 0.15383 -0.396634 1.79643
      vertex 0.157198 -0.39604 1.79342
    endloop
  endfacet
  facet normal -0.221818 0.60944 -0.76117
    outer loop
      vertex -0.150868 -0.205076 0.00133975
      vertex -0.1525 -0.20567 0.00133975
      vertex -0.15133 -0.202456 0.00357212
    endloop
  endfacet
  facet normal 0 0.346662 -0.93799
    outer loop
      vertex 0.150302 -0.20829 0.000151922
      vertex -0.150302 -0.20829 0.000151922
      vertex 0.150868 -0.205076 0.00133975
    endloop
  endfacet
  facet normal -0.984811 -0 -0.173628
    outer loop
      vertex -0.159397 -0.21 0.0065798
      vertex -0.159397 -0.39 0.0065798
      vertex -0.16 -0.21 0.01
    endloop
  endfacet
  facet normal 0.118573 -0.325777 -0.937982
    outer loop
      vertex 0.150868 -0.394924 0.00133975
      vertex 0.150302 -0.39171 0.000151922
      vertex 0.1525 -0.39433 0.00133975
    endloop
  endfacet
  facet normal 0.118573 0.325777 -0.937982
    outer loop
      vertex 0.150868 -0.205076 0.00133975
      vertex 0.1525 -0.20567 0.00133975
      vertex 0.150302 -0.20829 0.000151922
    endloop
  endfacet
  facet normal 0.29734 0.816869 -0.494282
    outer loop
      vertex 0.15383 -0.203366 0.00357212
      vertex 0.15133 -0.202456 0.00357212
      vertex 0.151632 -0.200746 0.0065798
    endloop
  endfacet
  facet normal -0.633301 0.75474 -0.171167
    outer loop
      vertex -0.155 -0.20134 0.01
      vertex -0.157198 -0.20396 0.0065798
      vertex -0.15766 -0.203572 0.01
    endloop
  endfacet
  facet normal -0.970278 0.171075 -0.171156
    outer loop
      vertex -0.159397 -0.20658 0.01
      vertex -0.15883 -0.206786 0.0065798
      vertex -0.16 -0.21 0.01
    endloop
  endfacet
  facet normal -0.341987 -0.0603977 0.937762
    outer loop
      vertex -0.155 -0.39 1.79866
      vertex -0.154698 -0.39171 1.79866
      vertex -0.151632 -0.390594 1.79985
    endloop
  endfacet
  facet normal -0.638758 -0.112636 -0.761118
    outer loop
      vertex -0.155 -0.39 0.00133975
      vertex -0.157198 -0.39262 0.00357212
      vertex -0.15766 -0.39 0.00357212
    endloop
  endfacet
  facet normal 0.638647 0.11279 -0.761189
    outer loop
      vertex 0.154698 -0.20829 0.00133975
      vertex 0.157198 -0.20738 0.00357212
      vertex 0.155 -0.21 0.00133975
    endloop
  endfacet
  facet normal 0.300302 0.173313 -0.937967
    outer loop
      vertex 0.151632 -0.209406 0.000151922
      vertex 0.15383 -0.206786 0.00133975
      vertex 0.154698 -0.20829 0.00133975
    endloop
  endfacet
  facet normal 0.223324 -0.265917 0.937771
    outer loop
      vertex 0.1525 -0.39433 1.79866
      vertex 0.15133 -0.391116 1.79985
      vertex 0.150868 -0.391504 1.79985
    endloop
  endfacet
  facet normal 0.22318 -0.265976 0.937789
    outer loop
      vertex 0.1525 -0.39433 1.79866
      vertex 0.15383 -0.393214 1.79866
      vertex 0.15133 -0.391116 1.79985
    endloop
  endfacet
  facet normal -0.98481 0 0.173637
    outer loop
      vertex -0.16 -0.39 1.79
      vertex -0.159397 -0.39 1.79342
      vertex -0.16 -0.21 1.79
    endloop
  endfacet
  facet normal -0.558893 -0.666096 0.493917
    outer loop
      vertex -0.155868 -0.394924 1.79643
      vertex -0.157198 -0.39604 1.79342
      vertex -0.15383 -0.396634 1.79643
    endloop
  endfacet
  facet normal -0.8562 -0.150979 0.494093
    outer loop
      vertex -0.15766 -0.39 1.79643
      vertex -0.159397 -0.39 1.79342
      vertex -0.157198 -0.39262 1.79643
    endloop
  endfacet
  facet normal -0.633351 0.754708 0.17112
    outer loop
      vertex -0.155 -0.20134 1.79
      vertex -0.157198 -0.20396 1.79342
      vertex -0.154698 -0.201862 1.79342
    endloop
  endfacet
  facet normal -0.970275 -0.171172 0.171075
    outer loop
      vertex -0.15883 -0.393214 1.79342
      vertex -0.159397 -0.39 1.79342
      vertex -0.16 -0.39 1.79
    endloop
  endfacet
  facet normal -0.970276 0.171075 0.171166
    outer loop
      vertex -0.16 -0.21 1.79
      vertex -0.15883 -0.206786 1.79342
      vertex -0.159397 -0.20658 1.79
    endloop
  endfacet
  facet normal -0.34202 0.939693 0
    outer loop
      vertex -0.155 -0.20134 0.01
      vertex -0.155 -0.20134 1.79
      vertex -0.151736 -0.200152 0.01
    endloop
  endfacet
  facet normal 0 0.985251 -0.171113
    outer loop
      vertex 0.151736 -0.200152 0.01
      vertex -0.151632 -0.200746 0.0065798
      vertex -0.151736 -0.200152 0.01
    endloop
  endfacet
  facet normal -0.98481 -0.173637 0
    outer loop
      vertex -0.16 -0.39 0.01
      vertex -0.159397 -0.39342 0.01
      vertex -0.16 -0.39 1.79
    endloop
  endfacet
  facet normal -0.341365 0.0597677 -0.938029
    outer loop
      vertex -0.151736 -0.21 0.000151922
      vertex -0.155 -0.21 0.00133975
      vertex -0.151632 -0.209406 0.000151922
    endloop
  endfacet
  facet normal 0.633351 0.754708 0.17112
    outer loop
      vertex 0.154698 -0.201862 1.79342
      vertex 0.157198 -0.20396 1.79342
      vertex 0.155 -0.20134 1.79
    endloop
  endfacet
  facet normal 0.558929 0.666026 0.493971
    outer loop
      vertex 0.15383 -0.203366 1.79643
      vertex 0.157198 -0.20396 1.79342
      vertex 0.154698 -0.201862 1.79342
    endloop
  endfacet
  facet normal 0.558929 -0.666026 0.493971
    outer loop
      vertex 0.157198 -0.39604 1.79342
      vertex 0.15383 -0.396634 1.79643
      vertex 0.154698 -0.398138 1.79342
    endloop
  endfacet
  facet normal 0.336996 -0.925834 0.17107
    outer loop
      vertex 0.155 -0.39866 1.79
      vertex 0.154698 -0.398138 1.79342
      vertex 0.151632 -0.399254 1.79342
    endloop
  endfacet
  facet normal 0 -0.98525 0.171122
    outer loop
      vertex 0.151632 -0.399254 1.79342
      vertex -0.151736 -0.399848 1.79
      vertex 0.151736 -0.399848 1.79
    endloop
  endfacet
  facet normal 0 -0.98525 0.171122
    outer loop
      vertex -0.151632 -0.399254 1.79342
      vertex -0.151736 -0.399848 1.79
      vertex 0.151632 -0.399254 1.79342
    endloop
  endfacet
  facet normal -0.866128 0 0.499822
    outer loop
      vertex -0.15766 -0.39 1.79643
      vertex -0.15766 -0.21 1.79643
      vertex -0.159397 -0.39 1.79342
    endloop
  endfacet
  facet normal -0.970276 -0.171075 0.171166
    outer loop
      vertex -0.159397 -0.39342 1.79
      vertex -0.15883 -0.393214 1.79342
      vertex -0.16 -0.39 1.79
    endloop
  endfacet
  facet normal -0.753049 -0.434703 0.493915
    outer loop
      vertex -0.157198 -0.39262 1.79643
      vertex -0.157198 -0.39604 1.79342
      vertex -0.155868 -0.394924 1.79643
    endloop
  endfacet
  facet normal -0.29739 -0.817022 0.493998
    outer loop
      vertex -0.151632 -0.399254 1.79342
      vertex -0.15383 -0.396634 1.79643
      vertex -0.154698 -0.398138 1.79342
    endloop
  endfacet
  facet normal -0.297334 -0.816868 -0.494286
    outer loop
      vertex -0.15383 -0.396634 0.00357212
      vertex -0.151632 -0.399254 0.0065798
      vertex -0.154698 -0.398138 0.0065798
    endloop
  endfacet
  facet normal -0.341438 0.0603007 -0.937968
    outer loop
      vertex -0.155 -0.21 0.00133975
      vertex -0.154698 -0.20829 0.00133975
      vertex -0.151632 -0.209406 0.000151922
    endloop
  endfacet
  facet normal -0.752773 0.434722 -0.494318
    outer loop
      vertex -0.157198 -0.20396 0.0065798
      vertex -0.157198 -0.20738 0.00357212
      vertex -0.15883 -0.206786 0.0065798
    endloop
  endfacet
  facet normal -0.638254 -0.112721 0.761529
    outer loop
      vertex -0.157198 -0.39262 1.79643
      vertex -0.154698 -0.39171 1.79866
      vertex -0.155 -0.39 1.79866
    endloop
  endfacet
  facet normal 0.300785 -0.173591 0.93776
    outer loop
      vertex 0.154698 -0.39171 1.79866
      vertex 0.151632 -0.390594 1.79985
      vertex 0.15383 -0.393214 1.79866
    endloop
  endfacet
  facet normal 0.341987 -0.0603977 0.937762
    outer loop
      vertex 0.155 -0.39 1.79866
      vertex 0.151632 -0.390594 1.79985
      vertex 0.154698 -0.39171 1.79866
    endloop
  endfacet
  facet normal 0 0 1
    outer loop
      vertex -0.151736 -0.39 1.79985
      vertex -0.15133 -0.208884 1.79985
      vertex -0.151736 -0.21 1.79985
    endloop
  endfacet
  facet normal 0.223324 0.265917 0.937771
    outer loop
      vertex 0.1525 -0.20567 1.79866
      vertex 0.150868 -0.208496 1.79985
      vertex 0.15133 -0.208884 1.79985
    endloop
  endfacet
  facet normal 0 0 1
    outer loop
      vertex 0.150302 -0.39171 1.79985
      vertex -0.15133 -0.208884 1.79985
      vertex -0.150302 -0.39171 1.79985
    endloop
  endfacet
  facet normal -0.118764 0.326301 0.937775
    outer loop
      vertex -0.150868 -0.205076 1.79866
      vertex -0.1525 -0.20567 1.79866
      vertex -0.150302 -0.20829 1.79985
    endloop
  endfacet
  facet normal 0 0 -1
    outer loop
      vertex -0.150302 -0.20829 0.000151922
      vertex -0.150868 -0.391504 0.000151922
      vertex -0.150868 -0.208496 0.000151922
    endloop
  endfacet
  facet normal 0.34202 -0.939693 0
    outer loop
      vertex 0.151736 -0.399848 0.01
      vertex 0.155 -0.39866 0.01
      vertex 0.151736 -0.399848 1.79
    endloop
  endfacet
  facet normal 0.865984 -0.500071 0
    outer loop
      vertex 0.15766 -0.396428 0.01
      vertex 0.159397 -0.39342 0.01
      vertex 0.15766 -0.396428 1.79
    endloop
  endfacet
  facet normal 0.853198 -0.492718 -0.17112
    outer loop
      vertex 0.159397 -0.39342 0.01
      vertex 0.157198 -0.39604 0.0065798
      vertex 0.15883 -0.393214 0.0065798
    endloop
  endfacet
  facet normal 0.41662 -0.496534 0.7615
    outer loop
      vertex 0.15383 -0.393214 1.79866
      vertex 0.15383 -0.396634 1.79643
      vertex 0.155868 -0.394924 1.79643
    endloop
  endfacet
  facet normal 0.56135 -0.324043 0.7615
    outer loop
      vertex 0.157198 -0.39262 1.79643
      vertex 0.15383 -0.393214 1.79866
      vertex 0.155868 -0.394924 1.79643
    endloop
  endfacet
  facet normal 0.341438 0.0603007 -0.937968
    outer loop
      vertex 0.155 -0.21 0.00133975
      vertex 0.151632 -0.209406 0.000151922
      vertex 0.154698 -0.20829 0.00133975
    endloop
  endfacet
  facet normal 0.341365 0.0597677 -0.938029
    outer loop
      vertex 0.151736 -0.21 0.000151922
      vertex 0.151632 -0.209406 0.000151922
      vertex 0.155 -0.21 0.00133975
    endloop
  endfacet
  facet normal 0.221818 0.60944 -0.76117
    outer loop
      vertex 0.150868 -0.205076 0.00133975
      vertex 0.15133 -0.202456 0.00357212
      vertex 0.1525 -0.20567 0.00133975
    endloop
  endfacet
  facet normal -0.221837 0.609442 -0.761163
    outer loop
      vertex -0.15133 -0.202456 0.00357212
      vertex -0.1525 -0.20567 0.00133975
      vertex -0.15383 -0.203366 0.00357212
    endloop
  endfacet
  facet normal -0 0 -1
    outer loop
      vertex 0.151736 -0.39 0.000151922
      vertex -0.150868 -0.391504 0.000151922
      vertex 0.151736 -0.21 0.000151922
    endloop
  endfacet
  facet normal -0 0 -1
    outer loop
      vertex 0.15133 -0.208884 0.000151922
      vertex -0.150868 -0.391504 0.000151922
      vertex 0.150868 -0.208496 0.000151922
    endloop
  endfacet
  facet normal -0.642849 -0 -0.765993
    outer loop
      vertex -0.15766 -0.21 0.00357212
      vertex -0.155 -0.21 0.00133975
      vertex -0.15766 -0.39 0.00357212
    endloop
  endfacet
  facet normal 0 0.869321 -0.494248
    outer loop
      vertex 0.151632 -0.200746 0.0065798
      vertex 0.15133 -0.202456 0.00357212
      vertex -0.151632 -0.200746 0.0065798
    endloop
  endfacet
  facet normal -0.561696 0.324243 -0.76116
    outer loop
      vertex -0.15383 -0.206786 0.00133975
      vertex -0.157198 -0.20738 0.00357212
      vertex -0.155868 -0.205076 0.00357212
    endloop
  endfacet
  facet normal -0.558788 0.665971 -0.494205
    outer loop
      vertex -0.155868 -0.205076 0.00357212
      vertex -0.157198 -0.20396 0.0065798
      vertex -0.15383 -0.203366 0.00357212
    endloop
  endfacet
  facet normal -0.642787 0.766045 0
    outer loop
      vertex -0.15766 -0.203572 0.01
      vertex -0.155 -0.20134 1.79
      vertex -0.155 -0.20134 0.01
    endloop
  endfacet
  facet normal -0.853197 0.492717 0.171129
    outer loop
      vertex -0.15883 -0.206786 1.79342
      vertex -0.157198 -0.20396 1.79342
      vertex -0.159397 -0.20658 1.79
    endloop
  endfacet
  facet normal -0.341914 -0.0598638 0.937822
    outer loop
      vertex -0.151632 -0.390594 1.79985
      vertex -0.151736 -0.39 1.79985
      vertex -0.155 -0.39 1.79866
    endloop
  endfacet
  facet normal 0.300498 -0.173852 0.937804
    outer loop
      vertex 0.15383 -0.393214 1.79866
      vertex 0.151632 -0.390594 1.79985
      vertex 0.15133 -0.391116 1.79985
    endloop
  endfacet
  facet normal -0.416637 0.496529 0.761494
    outer loop
      vertex -0.15383 -0.206786 1.79866
      vertex -0.1525 -0.20567 1.79866
      vertex -0.15383 -0.203366 1.79643
    endloop
  endfacet
  facet normal 0 0 1
    outer loop
      vertex 0.150868 -0.208496 1.79985
      vertex -0.15133 -0.208884 1.79985
      vertex 0.15133 -0.208884 1.79985
    endloop
  endfacet
  facet normal 0.633352 0.754709 -0.17111
    outer loop
      vertex 0.157198 -0.20396 0.0065798
      vertex 0.154698 -0.201862 0.0065798
      vertex 0.155 -0.20134 0.01
    endloop
  endfacet
  facet normal 0 0.869321 -0.494248
    outer loop
      vertex -0.151632 -0.200746 0.0065798
      vertex 0.15133 -0.202456 0.00357212
      vertex -0.15133 -0.202456 0.00357212
    endloop
  endfacet
  facet normal 0 0.648554 -0.761169
    outer loop
      vertex -0.150868 -0.205076 0.00133975
      vertex 0.15133 -0.202456 0.00357212
      vertex 0.150868 -0.205076 0.00133975
    endloop
  endfacet
  facet normal 0 0.648554 -0.761169
    outer loop
      vertex -0.15133 -0.202456 0.00357212
      vertex 0.15133 -0.202456 0.00357212
      vertex -0.150868 -0.205076 0.00133975
    endloop
  endfacet
  facet normal 0.341977 0 -0.939708
    outer loop
      vertex 0.155 -0.21 0.00133975
      vertex 0.151736 -0.39 0.000151922
      vertex 0.151736 -0.21 0.000151922
    endloop
  endfacet
  facet normal -0.752907 -0.434621 -0.494202
    outer loop
      vertex -0.157198 -0.39262 0.00357212
      vertex -0.155868 -0.394924 0.00357212
      vertex -0.157198 -0.39604 0.0065798
    endloop
  endfacet
  facet normal 0.865961 0 -0.500111
    outer loop
      vertex 0.159397 -0.21 0.0065798
      vertex 0.159397 -0.39 0.0065798
      vertex 0.15766 -0.21 0.00357212
    endloop
  endfacet
  facet normal 0.984811 0 -0.173628
    outer loop
      vertex 0.16 -0.21 0.01
      vertex 0.159397 -0.39 0.0065798
      vertex 0.159397 -0.21 0.0065798
    endloop
  endfacet
  facet normal 0.865984 0.500071 -0
    outer loop
      vertex 0.15766 -0.203572 0.01
      vertex 0.15766 -0.203572 1.79
      vertex 0.159397 -0.20658 0.01
    endloop
  endfacet
  facet normal 0.642787 0.766045 0
    outer loop
      vertex 0.155 -0.20134 0.01
      vertex 0.15766 -0.203572 1.79
      vertex 0.15766 -0.203572 0.01
    endloop
  endfacet
  facet normal 0.416637 -0.496529 0.761494
    outer loop
      vertex 0.1525 -0.39433 1.79866
      vertex 0.15383 -0.396634 1.79643
      vertex 0.15383 -0.393214 1.79866
    endloop
  endfacet
  facet normal 0.2217 -0.609067 0.761503
    outer loop
      vertex 0.15133 -0.397544 1.79643
      vertex 0.15383 -0.396634 1.79643
      vertex 0.1525 -0.39433 1.79866
    endloop
  endfacet
  facet normal -0.752914 -0.434804 0.49403
    outer loop
      vertex -0.15883 -0.393214 1.79342
      vertex -0.157198 -0.39604 1.79342
      vertex -0.157198 -0.39262 1.79643
    endloop
  endfacet
  facet normal -0.853197 -0.492717 0.171129
    outer loop
      vertex -0.159397 -0.39342 1.79
      vertex -0.157198 -0.39604 1.79342
      vertex -0.15883 -0.393214 1.79342
    endloop
  endfacet
  facet normal -0.638254 0.112721 0.761529
    outer loop
      vertex -0.155 -0.21 1.79866
      vertex -0.154698 -0.20829 1.79866
      vertex -0.157198 -0.20738 1.79643
    endloop
  endfacet
  facet normal -0.98481 0 0.173637
    outer loop
      vertex -0.16 -0.21 1.79
      vertex -0.159397 -0.39 1.79342
      vertex -0.159397 -0.21 1.79342
    endloop
  endfacet
  facet normal -0.22318 -0.265976 0.937789
    outer loop
      vertex -0.15383 -0.393214 1.79866
      vertex -0.1525 -0.39433 1.79866
      vertex -0.15133 -0.391116 1.79985
    endloop
  endfacet
  facet normal -0.416637 -0.496529 0.761494
    outer loop
      vertex -0.15383 -0.396634 1.79643
      vertex -0.1525 -0.39433 1.79866
      vertex -0.15383 -0.393214 1.79866
    endloop
  endfacet
  facet normal -0.561355 -0.323973 0.761526
    outer loop
      vertex -0.15383 -0.393214 1.79866
      vertex -0.154698 -0.39171 1.79866
      vertex -0.157198 -0.39262 1.79643
    endloop
  endfacet
  facet normal -0.300785 -0.173591 0.93776
    outer loop
      vertex -0.151632 -0.390594 1.79985
      vertex -0.154698 -0.39171 1.79866
      vertex -0.15383 -0.393214 1.79866
    endloop
  endfacet
  facet normal 0.341914 -0.0598638 0.937822
    outer loop
      vertex 0.151736 -0.39 1.79985
      vertex 0.151632 -0.390594 1.79985
      vertex 0.155 -0.39 1.79866
    endloop
  endfacet
  facet normal 0 0 1
    outer loop
      vertex -0.150302 -0.39171 1.79985
      vertex -0.15133 -0.208884 1.79985
      vertex -0.150868 -0.391504 1.79985
    endloop
  endfacet
  facet normal -0.29734 -0.816869 -0.494282
    outer loop
      vertex -0.15133 -0.397544 0.00357212
      vertex -0.151632 -0.399254 0.0065798
      vertex -0.15383 -0.396634 0.00357212
    endloop
  endfacet
  facet normal -0.752773 -0.434722 -0.494318
    outer loop
      vertex -0.15883 -0.393214 0.0065798
      vertex -0.157198 -0.39262 0.00357212
      vertex -0.157198 -0.39604 0.0065798
    endloop
  endfacet
  facet normal 0.853197 -0.492717 0.171129
    outer loop
      vertex 0.159397 -0.39342 1.79
      vertex 0.15883 -0.393214 1.79342
      vertex 0.157198 -0.39604 1.79342
    endloop
  endfacet
  facet normal 0.970276 -0.171075 0.171166
    outer loop
      vertex 0.16 -0.39 1.79
      vertex 0.15883 -0.393214 1.79342
      vertex 0.159397 -0.39342 1.79
    endloop
  endfacet
  facet normal 0.853206 -0.492692 0.171154
    outer loop
      vertex 0.157198 -0.39604 1.79342
      vertex 0.15766 -0.396428 1.79
      vertex 0.159397 -0.39342 1.79
    endloop
  endfacet
  facet normal 0.633299 -0.754739 0.171176
    outer loop
      vertex 0.155 -0.39866 1.79
      vertex 0.15766 -0.396428 1.79
      vertex 0.157198 -0.39604 1.79342
    endloop
  endfacet
  facet normal 0.222966 0.26549 -0.937977
    outer loop
      vertex 0.15133 -0.208884 0.000151922
      vertex 0.150868 -0.208496 0.000151922
      vertex 0.1525 -0.20567 0.00133975
    endloop
  endfacet
  facet normal 0 -0.346662 -0.93799
    outer loop
      vertex -0.150302 -0.39171 0.000151922
      vertex 0.150302 -0.39171 0.000151922
      vertex -0.150868 -0.394924 0.00133975
    endloop
  endfacet
  facet normal 0.300016 0.173572 -0.93801
    outer loop
      vertex 0.151632 -0.209406 0.000151922
      vertex 0.15133 -0.208884 0.000151922
      vertex 0.15383 -0.206786 0.00133975
    endloop
  endfacet
  facet normal 0.341438 -0.0603007 -0.937968
    outer loop
      vertex 0.154698 -0.39171 0.00133975
      vertex 0.151632 -0.390594 0.000151922
      vertex 0.155 -0.39 0.00133975
    endloop
  endfacet
  facet normal -0.752907 0.434621 -0.494202
    outer loop
      vertex -0.155868 -0.205076 0.00357212
      vertex -0.157198 -0.20738 0.00357212
      vertex -0.157198 -0.20396 0.0065798
    endloop
  endfacet
  facet normal -0.970277 0.171172 -0.171065
    outer loop
      vertex -0.16 -0.21 0.01
      vertex -0.15883 -0.206786 0.0065798
      vertex -0.159397 -0.21 0.0065798
    endloop
  endfacet
  facet normal -0.336997 0.925836 -0.17106
    outer loop
      vertex -0.151632 -0.200746 0.0065798
      vertex -0.154698 -0.201862 0.0065798
      vertex -0.155 -0.20134 0.01
    endloop
  endfacet
  facet normal -0.558824 0.665901 -0.494259
    outer loop
      vertex -0.15383 -0.203366 0.00357212
      vertex -0.157198 -0.20396 0.0065798
      vertex -0.154698 -0.201862 0.0065798
    endloop
  endfacet
  facet normal -0.33698 0.925843 0.171052
    outer loop
      vertex -0.151736 -0.200152 1.79
      vertex -0.155 -0.20134 1.79
      vertex -0.151632 -0.200746 1.79342
    endloop
  endfacet
  facet normal -0.34202 0.939693 0
    outer loop
      vertex -0.151736 -0.200152 0.01
      vertex -0.155 -0.20134 1.79
      vertex -0.151736 -0.200152 1.79
    endloop
  endfacet
  facet normal -0.558893 0.666096 0.493917
    outer loop
      vertex -0.157198 -0.20396 1.79342
      vertex -0.155868 -0.205076 1.79643
      vertex -0.15383 -0.203366 1.79643
    endloop
  endfacet
  facet normal -0.633299 0.754739 0.171176
    outer loop
      vertex -0.15766 -0.203572 1.79
      vertex -0.157198 -0.20396 1.79342
      vertex -0.155 -0.20134 1.79
    endloop
  endfacet
  facet normal 0.558824 0.665901 -0.494259
    outer loop
      vertex 0.157198 -0.20396 0.0065798
      vertex 0.15383 -0.203366 0.00357212
      vertex 0.154698 -0.201862 0.0065798
    endloop
  endfacet
  facet normal 0.558788 0.665971 -0.494205
    outer loop
      vertex 0.155868 -0.205076 0.00357212
      vertex 0.15383 -0.203366 0.00357212
      vertex 0.157198 -0.20396 0.0065798
    endloop
  endfacet
  facet normal -0.297334 0.816868 -0.494286
    outer loop
      vertex -0.151632 -0.200746 0.0065798
      vertex -0.15383 -0.203366 0.00357212
      vertex -0.154698 -0.201862 0.0065798
    endloop
  endfacet
  facet normal -0.29734 0.816869 -0.494282
    outer loop
      vertex -0.15133 -0.202456 0.00357212
      vertex -0.15383 -0.203366 0.00357212
      vertex -0.151632 -0.200746 0.0065798
    endloop
  endfacet
  facet normal 0.638647 -0.11279 -0.761189
    outer loop
      vertex 0.157198 -0.39262 0.00357212
      vertex 0.154698 -0.39171 0.00133975
      vertex 0.155 -0.39 0.00133975
    endloop
  endfacet
  facet normal 0.416877 -0.496839 -0.76116
    outer loop
      vertex 0.15383 -0.393214 0.00133975
      vertex 0.155868 -0.394924 0.00357212
      vertex 0.15383 -0.396634 0.00357212
    endloop
  endfacet
  facet normal 0.752773 -0.434722 -0.494318
    outer loop
      vertex 0.15883 -0.393214 0.0065798
      vertex 0.157198 -0.39604 0.0065798
      vertex 0.157198 -0.39262 0.00357212
    endloop
  endfacet
  facet normal 0.98481 -0.173637 0
    outer loop
      vertex 0.16 -0.39 1.79
      vertex 0.159397 -0.39342 0.01
      vertex 0.16 -0.39 0.01
    endloop
  endfacet
  facet normal 0 0 1
    outer loop
      vertex -0.150868 -0.391504 1.79985
      vertex -0.15133 -0.208884 1.79985
      vertex -0.15133 -0.391116 1.79985
    endloop
  endfacet
  facet normal 0 -0 1
    outer loop
      vertex -0.15133 -0.391116 1.79985
      vertex -0.15133 -0.208884 1.79985
      vertex -0.151632 -0.390594 1.79985
    endloop
  endfacet
  facet normal 0 -0.648554 -0.761169
    outer loop
      vertex 0.15133 -0.397544 0.00357212
      vertex -0.150868 -0.394924 0.00133975
      vertex 0.150868 -0.394924 0.00133975
    endloop
  endfacet
  facet normal -0.853198 -0.492718 -0.17112
    outer loop
      vertex -0.159397 -0.39342 0.01
      vertex -0.15883 -0.393214 0.0065798
      vertex -0.157198 -0.39604 0.0065798
    endloop
  endfacet
  facet normal 0 0 1
    outer loop
      vertex 0.151632 -0.390594 1.79985
      vertex -0.15133 -0.208884 1.79985
      vertex 0.15133 -0.391116 1.79985
    endloop
  endfacet
  facet normal -0.342529 0 0.939507
    outer loop
      vertex -0.151736 -0.39 1.79985
      vertex -0.155 -0.21 1.79866
      vertex -0.155 -0.39 1.79866
    endloop
  endfacet
  facet normal -0.336997 -0.925836 -0.17106
    outer loop
      vertex -0.154698 -0.398138 0.0065798
      vertex -0.151632 -0.399254 0.0065798
      vertex -0.155 -0.39866 0.01
    endloop
  endfacet
  facet normal 0.29734 -0.816869 -0.494282
    outer loop
      vertex 0.15383 -0.396634 0.00357212
      vertex 0.151632 -0.399254 0.0065798
      vertex 0.15133 -0.397544 0.00357212
    endloop
  endfacet
  facet normal 0 -0.985251 -0.171113
    outer loop
      vertex -0.151736 -0.399848 0.01
      vertex 0.151632 -0.399254 0.0065798
      vertex 0.151736 -0.399848 0.01
    endloop
  endfacet
  facet normal 0 -0.985251 -0.171113
    outer loop
      vertex -0.151632 -0.399254 0.0065798
      vertex 0.151632 -0.399254 0.0065798
      vertex -0.151736 -0.399848 0.01
    endloop
  endfacet
  facet normal -0.416877 -0.496839 -0.76116
    outer loop
      vertex -0.155868 -0.394924 0.00357212
      vertex -0.15383 -0.393214 0.00133975
      vertex -0.15383 -0.396634 0.00357212
    endloop
  endfacet
  facet normal 0.222822 -0.265549 -0.937995
    outer loop
      vertex 0.1525 -0.39433 0.00133975
      vertex 0.15133 -0.391116 0.000151922
      vertex 0.15383 -0.393214 0.00133975
    endloop
  endfacet
  facet normal -0.222822 0.265549 -0.937995
    outer loop
      vertex -0.1525 -0.20567 0.00133975
      vertex -0.15133 -0.208884 0.000151922
      vertex -0.15383 -0.206786 0.00133975
    endloop
  endfacet
  facet normal 0.300302 -0.173313 -0.937967
    outer loop
      vertex 0.15383 -0.393214 0.00133975
      vertex 0.151632 -0.390594 0.000151922
      vertex 0.154698 -0.39171 0.00133975
    endloop
  endfacet
  facet normal -0.853198 0.492718 -0.17112
    outer loop
      vertex -0.159397 -0.20658 0.01
      vertex -0.157198 -0.20396 0.0065798
      vertex -0.15883 -0.206786 0.0065798
    endloop
  endfacet
  facet normal -0.853207 0.492693 -0.171144
    outer loop
      vertex -0.15766 -0.203572 0.01
      vertex -0.157198 -0.20396 0.0065798
      vertex -0.159397 -0.20658 0.01
    endloop
  endfacet
  facet normal -0.856216 0.15105 0.494043
    outer loop
      vertex -0.159397 -0.21 1.79342
      vertex -0.157198 -0.20738 1.79643
      vertex -0.15883 -0.206786 1.79342
    endloop
  endfacet
  facet normal -0.8562 0.150979 0.494093
    outer loop
      vertex -0.15766 -0.21 1.79643
      vertex -0.157198 -0.20738 1.79643
      vertex -0.159397 -0.21 1.79342
    endloop
  endfacet
  facet normal -0.341914 0.0598638 0.937822
    outer loop
      vertex -0.151632 -0.209406 1.79985
      vertex -0.155 -0.21 1.79866
      vertex -0.151736 -0.21 1.79985
    endloop
  endfacet
  facet normal -0.753049 0.434703 0.493915
    outer loop
      vertex -0.157198 -0.20738 1.79643
      vertex -0.155868 -0.205076 1.79643
      vertex -0.157198 -0.20396 1.79342
    endloop
  endfacet
  facet normal -0.118573 0.325777 -0.937982
    outer loop
      vertex -0.150302 -0.20829 0.000151922
      vertex -0.1525 -0.20567 0.00133975
      vertex -0.150868 -0.205076 0.00133975
    endloop
  endfacet
  facet normal -0.11857 0.32578 -0.937981
    outer loop
      vertex -0.150868 -0.208496 0.000151922
      vertex -0.1525 -0.20567 0.00133975
      vertex -0.150302 -0.20829 0.000151922
    endloop
  endfacet
  facet normal 0.561696 -0.324243 -0.76116
    outer loop
      vertex 0.157198 -0.39262 0.00357212
      vertex 0.155868 -0.394924 0.00357212
      vertex 0.15383 -0.393214 0.00133975
    endloop
  endfacet
  facet normal 0.638758 -0.112636 -0.761118
    outer loop
      vertex 0.15766 -0.39 0.00357212
      vertex 0.157198 -0.39262 0.00357212
      vertex 0.155 -0.39 0.00133975
    endloop
  endfacet
  facet normal 0.642787 -0.766045 0
    outer loop
      vertex 0.15766 -0.396428 1.79
      vertex 0.155 -0.39866 0.01
      vertex 0.15766 -0.396428 0.01
    endloop
  endfacet
  facet normal 0.642787 -0.766045 0
    outer loop
      vertex 0.155 -0.39866 1.79
      vertex 0.155 -0.39866 0.01
      vertex 0.15766 -0.396428 1.79
    endloop
  endfacet
  facet normal -0.561701 -0.324173 -0.761186
    outer loop
      vertex -0.154698 -0.39171 0.00133975
      vertex -0.15383 -0.393214 0.00133975
      vertex -0.157198 -0.39262 0.00357212
    endloop
  endfacet
  facet normal -0.222966 0.26549 -0.937977
    outer loop
      vertex -0.150868 -0.208496 0.000151922
      vertex -0.15133 -0.208884 0.000151922
      vertex -0.1525 -0.20567 0.00133975
    endloop
  endfacet
  facet normal -0.642787 -0.766045 -0
    outer loop
      vertex -0.15766 -0.396428 1.79
      vertex -0.15766 -0.396428 0.01
      vertex -0.155 -0.39866 1.79
    endloop
  endfacet
  facet normal -0.865984 -0.500071 0
    outer loop
      vertex -0.159397 -0.39342 1.79
      vertex -0.15766 -0.396428 0.01
      vertex -0.15766 -0.396428 1.79
    endloop
  endfacet
  facet normal -0.300302 0.173313 -0.937967
    outer loop
      vertex -0.151632 -0.209406 0.000151922
      vertex -0.154698 -0.20829 0.00133975
      vertex -0.15383 -0.206786 0.00133975
    endloop
  endfacet
  facet normal -0.865961 0 -0.500111
    outer loop
      vertex -0.15766 -0.39 0.00357212
      vertex -0.159397 -0.39 0.0065798
      vertex -0.15766 -0.21 0.00357212
    endloop
  endfacet
  facet normal -0.221837 -0.609442 -0.761163
    outer loop
      vertex -0.15383 -0.396634 0.00357212
      vertex -0.1525 -0.39433 0.00133975
      vertex -0.15133 -0.397544 0.00357212
    endloop
  endfacet
  facet normal -0.856055 -0.151021 -0.494331
    outer loop
      vertex -0.159397 -0.39 0.0065798
      vertex -0.157198 -0.39262 0.00357212
      vertex -0.15883 -0.393214 0.0065798
    endloop
  endfacet
  facet normal -0.970278 -0.171075 -0.171156
    outer loop
      vertex -0.16 -0.39 0.01
      vertex -0.15883 -0.393214 0.0065798
      vertex -0.159397 -0.39342 0.01
    endloop
  endfacet
  facet normal -0.865961 0 -0.500111
    outer loop
      vertex -0.15766 -0.21 0.00357212
      vertex -0.159397 -0.39 0.0065798
      vertex -0.159397 -0.21 0.0065798
    endloop
  endfacet
  facet normal 0 0 1
    outer loop
      vertex -0.151736 -0.21 1.79985
      vertex -0.15133 -0.208884 1.79985
      vertex -0.151632 -0.209406 1.79985
    endloop
  endfacet
  facet normal -0.300498 0.173852 0.937804
    outer loop
      vertex -0.151632 -0.209406 1.79985
      vertex -0.15133 -0.208884 1.79985
      vertex -0.15383 -0.206786 1.79866
    endloop
  endfacet
  facet normal -0.341987 0.0603977 0.937762
    outer loop
      vertex -0.151632 -0.209406 1.79985
      vertex -0.154698 -0.20829 1.79866
      vertex -0.155 -0.21 1.79866
    endloop
  endfacet
  facet normal -0.638365 0.112567 0.761458
    outer loop
      vertex -0.15766 -0.21 1.79643
      vertex -0.155 -0.21 1.79866
      vertex -0.157198 -0.20738 1.79643
    endloop
  endfacet
  facet normal -0 -0.869321 -0.494248
    outer loop
      vertex 0.15133 -0.397544 0.00357212
      vertex 0.151632 -0.399254 0.0065798
      vertex -0.15133 -0.397544 0.00357212
    endloop
  endfacet
  facet normal -0.558824 -0.665901 -0.494259
    outer loop
      vertex -0.157198 -0.39604 0.0065798
      vertex -0.15383 -0.396634 0.00357212
      vertex -0.154698 -0.398138 0.0065798
    endloop
  endfacet
  facet normal 0.33698 -0.925845 -0.171042
    outer loop
      vertex 0.151736 -0.399848 0.01
      vertex 0.151632 -0.399254 0.0065798
      vertex 0.155 -0.39866 0.01
    endloop
  endfacet
  facet normal -0.33698 -0.925845 -0.171042
    outer loop
      vertex -0.155 -0.39866 0.01
      vertex -0.151632 -0.399254 0.0065798
      vertex -0.151736 -0.399848 0.01
    endloop
  endfacet
  facet normal 0.633301 -0.75474 -0.171167
    outer loop
      vertex 0.155 -0.39866 0.01
      vertex 0.157198 -0.39604 0.0065798
      vertex 0.15766 -0.396428 0.01
    endloop
  endfacet
  facet normal 0 -0.869321 -0.494248
    outer loop
      vertex -0.15133 -0.397544 0.00357212
      vertex 0.151632 -0.399254 0.0065798
      vertex -0.151632 -0.399254 0.0065798
    endloop
  endfacet
  facet normal -0.638758 0.112636 -0.761118
    outer loop
      vertex -0.157198 -0.20738 0.00357212
      vertex -0.155 -0.21 0.00133975
      vertex -0.15766 -0.21 0.00357212
    endloop
  endfacet
  facet normal 0.222966 -0.26549 -0.937977
    outer loop
      vertex 0.150868 -0.391504 0.000151922
      vertex 0.15133 -0.391116 0.000151922
      vertex 0.1525 -0.39433 0.00133975
    endloop
  endfacet
  facet normal -0.56135 0.324043 0.7615
    outer loop
      vertex -0.15383 -0.206786 1.79866
      vertex -0.155868 -0.205076 1.79643
      vertex -0.157198 -0.20738 1.79643
    endloop
  endfacet
  facet normal -0.41662 0.496534 0.7615
    outer loop
      vertex -0.15383 -0.203366 1.79643
      vertex -0.155868 -0.205076 1.79643
      vertex -0.15383 -0.206786 1.79866
    endloop
  endfacet
  facet normal 0.856055 -0.151021 -0.494331
    outer loop
      vertex 0.159397 -0.39 0.0065798
      vertex 0.15883 -0.393214 0.0065798
      vertex 0.157198 -0.39262 0.00357212
    endloop
  endfacet
  facet normal 0.970277 -0.171172 -0.171065
    outer loop
      vertex 0.16 -0.39 0.01
      vertex 0.15883 -0.393214 0.0065798
      vertex 0.159397 -0.39 0.0065798
    endloop
  endfacet
  facet normal 0 -0.648554 -0.761169
    outer loop
      vertex -0.15133 -0.397544 0.00357212
      vertex -0.150868 -0.394924 0.00133975
      vertex 0.15133 -0.397544 0.00357212
    endloop
  endfacet
  facet normal 0.11857 -0.32578 -0.937981
    outer loop
      vertex 0.1525 -0.39433 0.00133975
      vertex 0.150302 -0.39171 0.000151922
      vertex 0.150868 -0.391504 0.000151922
    endloop
  endfacet
  facet normal 0.221837 -0.609442 -0.761163
    outer loop
      vertex 0.15133 -0.397544 0.00357212
      vertex 0.1525 -0.39433 0.00133975
      vertex 0.15383 -0.396634 0.00357212
    endloop
  endfacet
  facet normal 0.221818 -0.60944 -0.76117
    outer loop
      vertex 0.150868 -0.394924 0.00133975
      vertex 0.1525 -0.39433 0.00133975
      vertex 0.15133 -0.397544 0.00357212
    endloop
  endfacet
  facet normal -0.11857 -0.32578 -0.937981
    outer loop
      vertex -0.1525 -0.39433 0.00133975
      vertex -0.150868 -0.391504 0.000151922
      vertex -0.150302 -0.39171 0.000151922
    endloop
  endfacet
  facet normal 0 0 -1
    outer loop
      vertex -0.150302 -0.39171 0.000151922
      vertex -0.150868 -0.391504 0.000151922
      vertex 0.150302 -0.39171 0.000151922
    endloop
  endfacet
  facet normal -0.341977 0 -0.939708
    outer loop
      vertex -0.155 -0.39 0.00133975
      vertex -0.155 -0.21 0.00133975
      vertex -0.151736 -0.39 0.000151922
    endloop
  endfacet
  facet normal -0.856038 0.15095 -0.494381
    outer loop
      vertex -0.159397 -0.21 0.0065798
      vertex -0.157198 -0.20738 0.00357212
      vertex -0.15766 -0.21 0.00357212
    endloop
  endfacet
  facet normal -0.642849 0 -0.765993
    outer loop
      vertex -0.15766 -0.39 0.00357212
      vertex -0.155 -0.21 0.00133975
      vertex -0.155 -0.39 0.00133975
    endloop
  endfacet
  facet normal -0.341977 0 -0.939708
    outer loop
      vertex -0.151736 -0.39 0.000151922
      vertex -0.155 -0.21 0.00133975
      vertex -0.151736 -0.21 0.000151922
    endloop
  endfacet
  facet normal -0.341365 -0.0597677 -0.938029
    outer loop
      vertex -0.151736 -0.39 0.000151922
      vertex -0.151632 -0.390594 0.000151922
      vertex -0.155 -0.39 0.00133975
    endloop
  endfacet
  facet normal 0 -0 -1
    outer loop
      vertex -0.150868 -0.208496 0.000151922
      vertex -0.150868 -0.391504 0.000151922
      vertex -0.15133 -0.208884 0.000151922
    endloop
  endfacet
  facet normal -0.970277 -0.171172 -0.171065
    outer loop
      vertex -0.16 -0.39 0.01
      vertex -0.159397 -0.39 0.0065798
      vertex -0.15883 -0.393214 0.0065798
    endloop
  endfacet
  facet normal -0.984811 -0 -0.173628
    outer loop
      vertex -0.16 -0.21 0.01
      vertex -0.159397 -0.39 0.0065798
      vertex -0.16 -0.39 0.01
    endloop
  endfacet
  facet normal 0 0 1
    outer loop
      vertex 0.151736 -0.39 1.79985
      vertex -0.15133 -0.208884 1.79985
      vertex 0.151632 -0.390594 1.79985
    endloop
  endfacet
  facet normal 0 0 1
    outer loop
      vertex 0.151736 -0.21 1.79985
      vertex -0.15133 -0.208884 1.79985
      vertex 0.151736 -0.39 1.79985
    endloop
  endfacet
  facet normal -0.300785 0.173591 0.93776
    outer loop
      vertex -0.15383 -0.206786 1.79866
      vertex -0.154698 -0.20829 1.79866
      vertex -0.151632 -0.209406 1.79985
    endloop
  endfacet
  facet normal -0.561355 0.323973 0.761526
    outer loop
      vertex -0.157198 -0.20738 1.79643
      vertex -0.154698 -0.20829 1.79866
      vertex -0.15383 -0.206786 1.79866
    endloop
  endfacet
  facet normal -0 0 -1
    outer loop
      vertex 0.15133 -0.391116 0.000151922
      vertex -0.150868 -0.391504 0.000151922
      vertex 0.151632 -0.390594 0.000151922
    endloop
  endfacet
  facet normal 0 0 -1
    outer loop
      vertex -0.151736 -0.39 0.000151922
      vertex -0.150868 -0.391504 0.000151922
      vertex -0.151632 -0.390594 0.000151922
    endloop
  endfacet
  facet normal -0.221818 -0.60944 -0.76117
    outer loop
      vertex -0.1525 -0.39433 0.00133975
      vertex -0.150868 -0.394924 0.00133975
      vertex -0.15133 -0.397544 0.00357212
    endloop
  endfacet
  facet normal -0.118573 -0.325777 -0.937982
    outer loop
      vertex -0.150302 -0.39171 0.000151922
      vertex -0.150868 -0.394924 0.00133975
      vertex -0.1525 -0.39433 0.00133975
    endloop
  endfacet
  facet normal 0.558824 -0.665901 -0.494259
    outer loop
      vertex 0.157198 -0.39604 0.0065798
      vertex 0.154698 -0.398138 0.0065798
      vertex 0.15383 -0.396634 0.00357212
    endloop
  endfacet
  facet normal 0.633352 -0.754709 -0.17111
    outer loop
      vertex 0.155 -0.39866 0.01
      vertex 0.154698 -0.398138 0.0065798
      vertex 0.157198 -0.39604 0.0065798
    endloop
  endfacet
  facet normal 0.561701 -0.324173 -0.761186
    outer loop
      vertex 0.15383 -0.393214 0.00133975
      vertex 0.154698 -0.39171 0.00133975
      vertex 0.157198 -0.39262 0.00357212
    endloop
  endfacet
  facet normal 0.300016 -0.173572 -0.93801
    outer loop
      vertex 0.15383 -0.393214 0.00133975
      vertex 0.15133 -0.391116 0.000151922
      vertex 0.151632 -0.390594 0.000151922
    endloop
  endfacet
  facet normal 0.341365 -0.0597677 -0.938029
    outer loop
      vertex 0.155 -0.39 0.00133975
      vertex 0.151632 -0.390594 0.000151922
      vertex 0.151736 -0.39 0.000151922
    endloop
  endfacet
  facet normal 0.416893 -0.496835 -0.761154
    outer loop
      vertex 0.15383 -0.396634 0.00357212
      vertex 0.1525 -0.39433 0.00133975
      vertex 0.15383 -0.393214 0.00133975
    endloop
  endfacet
  facet normal -0 0 -1
    outer loop
      vertex 0.151632 -0.390594 0.000151922
      vertex -0.150868 -0.391504 0.000151922
      vertex 0.151736 -0.39 0.000151922
    endloop
  endfacet
  facet normal 0 0 -1
    outer loop
      vertex -0.151736 -0.21 0.000151922
      vertex -0.150868 -0.391504 0.000151922
      vertex -0.151736 -0.39 0.000151922
    endloop
  endfacet
  facet normal -0.300016 -0.173572 -0.93801
    outer loop
      vertex -0.15133 -0.391116 0.000151922
      vertex -0.15383 -0.393214 0.00133975
      vertex -0.151632 -0.390594 0.000151922
    endloop
  endfacet
  facet normal -0.558788 -0.665971 -0.494205
    outer loop
      vertex -0.157198 -0.39604 0.0065798
      vertex -0.155868 -0.394924 0.00357212
      vertex -0.15383 -0.396634 0.00357212
    endloop
  endfacet
  facet normal -0.300302 -0.173313 -0.937967
    outer loop
      vertex -0.151632 -0.390594 0.000151922
      vertex -0.15383 -0.393214 0.00133975
      vertex -0.154698 -0.39171 0.00133975
    endloop
  endfacet
  facet normal -0.638647 -0.11279 -0.761189
    outer loop
      vertex -0.155 -0.39 0.00133975
      vertex -0.154698 -0.39171 0.00133975
      vertex -0.157198 -0.39262 0.00357212
    endloop
  endfacet
  facet normal 0.752907 -0.434621 -0.494202
    outer loop
      vertex 0.157198 -0.39604 0.0065798
      vertex 0.155868 -0.394924 0.00357212
      vertex 0.157198 -0.39262 0.00357212
    endloop
  endfacet
  facet normal 0.558788 -0.665971 -0.494205
    outer loop
      vertex 0.15383 -0.396634 0.00357212
      vertex 0.155868 -0.394924 0.00357212
      vertex 0.157198 -0.39604 0.0065798
    endloop
  endfacet
  facet normal 0.336997 -0.925836 -0.17106
    outer loop
      vertex 0.151632 -0.399254 0.0065798
      vertex 0.154698 -0.398138 0.0065798
      vertex 0.155 -0.39866 0.01
    endloop
  endfacet
  facet normal 0.297334 -0.816868 -0.494286
    outer loop
      vertex 0.15383 -0.396634 0.00357212
      vertex 0.154698 -0.398138 0.0065798
      vertex 0.151632 -0.399254 0.0065798
    endloop
  endfacet
  facet normal -0 0 -1
    outer loop
      vertex 0.150302 -0.20829 0.000151922
      vertex -0.150868 -0.391504 0.000151922
      vertex -0.150302 -0.20829 0.000151922
    endloop
  endfacet
  facet normal -0 0 -1
    outer loop
      vertex 0.150868 -0.208496 0.000151922
      vertex -0.150868 -0.391504 0.000151922
      vertex 0.150302 -0.20829 0.000151922
    endloop
  endfacet
  facet normal -0.638647 0.11279 -0.761189
    outer loop
      vertex -0.157198 -0.20738 0.00357212
      vertex -0.154698 -0.20829 0.00133975
      vertex -0.155 -0.21 0.00133975
    endloop
  endfacet
  facet normal -0.561701 0.324173 -0.761186
    outer loop
      vertex -0.15383 -0.206786 0.00133975
      vertex -0.154698 -0.20829 0.00133975
      vertex -0.157198 -0.20738 0.00357212
    endloop
  endfacet
  facet normal 0 0 -1
    outer loop
      vertex 0.150868 -0.391504 0.000151922
      vertex -0.150868 -0.391504 0.000151922
      vertex 0.15133 -0.391116 0.000151922
    endloop
  endfacet
  facet normal 0 0 -1
    outer loop
      vertex 0.150302 -0.39171 0.000151922
      vertex -0.150868 -0.391504 0.000151922
      vertex 0.150868 -0.391504 0.000151922
    endloop
  endfacet
  facet normal 0 -0 -1
    outer loop
      vertex -0.15133 -0.208884 0.000151922
      vertex -0.150868 -0.391504 0.000151922
      vertex -0.151632 -0.209406 0.000151922
    endloop
  endfacet
  facet normal 0 -0 -1
    outer loop
      vertex -0.151632 -0.209406 0.000151922
      vertex -0.150868 -0.391504 0.000151922
      vertex -0.151736 -0.21 0.000151922
    endloop
  endfacet
  facet normal 0 0 -1
    outer loop
      vertex -0.151632 -0.390594 0.000151922
      vertex -0.150868 -0.391504 0.000151922
      vertex -0.15133 -0.391116 0.000151922
    endloop
  endfacet
  facet normal -0.222966 -0.26549 -0.937977
    outer loop
      vertex -0.15133 -0.391116 0.000151922
      vertex -0.150868 -0.391504 0.000151922
      vertex -0.1525 -0.39433 0.00133975
    endloop
  endfacet
  facet normal -0 0 -1
    outer loop
      vertex 0.151632 -0.209406 0.000151922
      vertex -0.150868 -0.391504 0.000151922
      vertex 0.15133 -0.208884 0.000151922
    endloop
  endfacet
  facet normal -0 0 -1
    outer loop
      vertex 0.151736 -0.21 0.000151922
      vertex -0.150868 -0.391504 0.000151922
      vertex 0.151632 -0.209406 0.000151922
    endloop
  endfacet
  facet normal -0.222822 -0.265549 -0.937995
    outer loop
      vertex -0.1525 -0.39433 0.00133975
      vertex -0.15383 -0.393214 0.00133975
      vertex -0.15133 -0.391116 0.000151922
    endloop
  endfacet
  facet normal -0.416893 -0.496835 -0.761154
    outer loop
      vertex -0.15383 -0.396634 0.00357212
      vertex -0.15383 -0.393214 0.00133975
      vertex -0.1525 -0.39433 0.00133975
    endloop
  endfacet
endsolid OpenSCAD_Model
