solid OpenSCAD_Model
  facet normal 0.965925 0.258821 0
    outer loop
      vertex 0.45 0 0.7
      vertex 0.389711 0.225 0
      vertex 0.389711 0.225 0.7
    endloop
  endfacet
  facet normal 0.965925 0.258821 0
    outer loop
      vertex 0.389711 0.225 0
      vertex 0.45 0 0.7
      vertex 0.45 0 0
    endloop
  endfacet
  facet normal 0.707107 0.707107 0
    outer loop
      vertex 0.389711 0.225 0.7
      vertex 0.225 0.389711 0
      vertex 0.225 0.389711 0.7
    endloop
  endfacet
  facet normal 0.707107 0.707107 0
    outer loop
      vertex 0.225 0.389711 0
      vertex 0.389711 0.225 0.7
      vertex 0.389711 0.225 0
    endloop
  endfacet
  facet normal 0.258821 0.965925 -0
    outer loop
      vertex 0.225 0.389711 0
      vertex 0 0.45 0.7
      vertex 0.225 0.389711 0.7
    endloop
  endfacet
  facet normal 0.258821 0.965925 0
    outer loop
      vertex 0 0.45 0.7
      vertex 0.225 0.389711 0
      vertex 0 0.45 0
    endloop
  endfacet
  facet normal -0.258821 0.965925 0
    outer loop
      vertex 0 0.45 0
      vertex -0.225 0.389711 0.7
      vertex 0 0.45 0.7
    endloop
  endfacet
  facet normal -0.258821 0.965925 0
    outer loop
      vertex -0.225 0.389711 0.7
      vertex 0 0.45 0
      vertex -0.225 0.389711 0
    endloop
  endfacet
  facet normal -0.707107 0.707107 0
    outer loop
      vertex -0.389711 0.225 0
      vertex -0.225 0.389711 0.7
      vertex -0.225 0.389711 0
    endloop
  endfacet
  facet normal -0.707107 0.707107 0
    outer loop
      vertex -0.225 0.389711 0.7
      vertex -0.389711 0.225 0
      vertex -0.389711 0.225 0.7
    endloop
  endfacet
  facet normal -0.965925 0.258821 0
    outer loop
      vertex -0.45 0 0
      vertex -0.389711 0.225 0.7
      vertex -0.389711 0.225 0
    endloop
  endfacet
  facet normal -0.965925 0.258821 0
    outer loop
      vertex -0.389711 0.225 0.7
      vertex -0.45 0 0
      vertex -0.45 0 0.7
    endloop
  endfacet
  facet normal -0.965925 -0.258821 0
    outer loop
      vertex -0.389711 -0.225 0
      vertex -0.45 0 0.7
      vertex -0.45 0 0
    endloop
  endfacet
  facet normal -0.965925 -0.258821 0
    outer loop
      vertex -0.45 0 0.7
      vertex -0.389711 -0.225 0
      vertex -0.389711 -0.225 0.7
    endloop
  endfacet
  facet normal -0.707107 -0.707107 0
    outer loop
      vertex -0.225 -0.389711 0
      vertex -0.389711 -0.225 0.7
      vertex -0.389711 -0.225 0
    endloop
  endfacet
  facet normal -0.707107 -0.707107 0
    outer loop
      vertex -0.389711 -0.225 0.7
      vertex -0.225 -0.389711 0
      vertex -0.225 -0.389711 0.7
    endloop
  endfacet
  facet normal -0.258821 -0.965925 0
    outer loop
      vertex -0.225 -0.389711 0
      vertex 0 -0.45 0.7
      vertex -0.225 -0.389711 0.7
    endloop
  endfacet
  facet normal -0.258821 -0.965925 -0
    outer loop
      vertex 0 -0.45 0.7
      vertex -0.225 -0.389711 0
      vertex 0 -0.45 0
    endloop
  endfacet
  facet normal 0.258821 -0.965925 0
    outer loop
      vertex 0 -0.45 0
      vertex 0.225 -0.389711 0.7
      vertex 0 -0.45 0.7
    endloop
  endfacet
  facet normal 0.258821 -0.965925 0
    outer loop
      vertex 0.225 -0.389711 0.7
      vertex 0 -0.45 0
      vertex 0.225 -0.389711 0
    endloop
  endfacet
  facet normal 0.707107 -0.707107 0
    outer loop
      vertex 0.225 -0.389711 0.7
      vertex 0.389711 -0.225 0
      vertex 0.389711 -0.225 0.7
    endloop
  endfacet
  facet normal 0.707107 -0.707107 0
    outer loop
      vertex 0.389711 -0.225 0
      vertex 0.225 -0.389711 0.7
      vertex 0.225 -0.389711 0
    endloop
  endfacet
  facet normal 0.965925 -0.258821 0
    outer loop
      vertex 0.389711 -0.225 0.7
      vertex 0.45 0 0
      vertex 0.45 0 0.7
    endloop
  endfacet
  facet normal 0.965925 -0.258821 0
    outer loop
      vertex 0.45 0 0
      vertex 0.389711 -0.225 0.7
      vertex 0.389711 -0.225 0
    endloop
  endfacet
  facet normal 0 0 -1
    outer loop
      vertex 0.389711 -0.225 0
      vertex 0.389711 0.225 0
      vertex 0.45 0 0
    endloop
  endfacet
  facet normal 0 0 -1
    outer loop
      vertex 0.225 -0.389711 0
      vertex 0.389711 0.225 0
      vertex 0.389711 -0.225 0
    endloop
  endfacet
  facet normal 0 0 -1
    outer loop
      vertex 0.225 -0.389711 0
      vertex 0.225 0.389711 0
      vertex 0.389711 0.225 0
    endloop
  endfacet
  facet normal 0 0 -1
    outer loop
      vertex 0 -0.45 0
      vertex 0.225 0.389711 0
      vertex 0.225 -0.389711 0
    endloop
  endfacet
  facet normal 0 0 -1
    outer loop
      vertex 0 -0.45 0
      vertex 0 0.45 0
      vertex 0.225 0.389711 0
    endloop
  endfacet
  facet normal 0 0 -1
    outer loop
      vertex -0.225 -0.389711 0
      vertex 0 0.45 0
      vertex 0 -0.45 0
    endloop
  endfacet
  facet normal 0 0 -1
    outer loop
      vertex -0.225 -0.389711 0
      vertex -0.225 0.389711 0
      vertex 0 0.45 0
    endloop
  endfacet
  facet normal 0 0 -1
    outer loop
      vertex -0.389711 -0.225 0
      vertex -0.225 0.389711 0
      vertex -0.225 -0.389711 0
    endloop
  endfacet
  facet normal 0 0 -1
    outer loop
      vertex -0.389711 -0.225 0
      vertex -0.389711 0.225 0
      vertex -0.225 0.389711 0
    endloop
  endfacet
  facet normal 0 -0 -1
    outer loop
      vertex -0.389711 0.225 0
      vertex -0.389711 -0.225 0
      vertex -0.45 0 0
    endloop
  endfacet
  facet normal 0 0 1
    outer loop
      vertex 0.389711 0.225 0.7
      vertex 0.389711 -0.225 0.7
      vertex 0.45 0 0.7
    endloop
  endfacet
  facet normal 0 0 1
    outer loop
      vertex 0.225 0.389711 0.7
      vertex 0.389711 -0.225 0.7
      vertex 0.389711 0.225 0.7
    endloop
  endfacet
  facet normal 0 0 1
    outer loop
      vertex 0.225 0.389711 0.7
      vertex 0.225 -0.389711 0.7
      vertex 0.389711 -0.225 0.7
    endloop
  endfacet
  facet normal 0 0 1
    outer loop
      vertex 0 0.45 0.7
      vertex 0.225 -0.389711 0.7
      vertex 0.225 0.389711 0.7
    endloop
  endfacet
  facet normal 0 0 1
    outer loop
      vertex 0 0.45 0.7
      vertex 0 -0.45 0.7
      vertex 0.225 -0.389711 0.7
    endloop
  endfacet
  facet normal -0 0 1
    outer loop
      vertex -0.225 0.389711 0.7
      vertex 0 -0.45 0.7
      vertex 0 0.45 0.7
    endloop
  endfacet
  facet normal 0 0 1
    outer loop
      vertex -0.225 0.389711 0.7
      vertex -0.225 -0.389711 0.7
      vertex 0 -0.45 0.7
    endloop
  endfacet
  facet normal -0 0 1
    outer loop
      vertex -0.389711 0.225 0.7
      vertex -0.225 -0.389711 0.7
      vertex -0.225 0.389711 0.7
    endloop
  endfacet
  facet normal 0 0 1
    outer loop
      vertex -0.389711 0.225 0.7
      vertex -0.389711 -0.225 0.7
      vertex -0.225 -0.389711 0.7
    endloop
  endfacet
  facet normal 0 -0 1
    outer loop
      vertex -0.389711 -0.225 0.7
      vertex -0.389711 0.225 0.7
      vertex -0.45 0 0.7
    endloop
  endfacet
endsolid OpenSCAD_Model
