solid OpenSCAD_Model
  facet normal 0.923897 -0 0.382641
    outer loop
      vertex 0.0353553 -0.25 1.66036
      vertex 0.05 0.25 1.625
      vertex 0.0353553 0.25 1.66036
    endloop
  endfacet
  facet normal 0.923897 0 0.382641
    outer loop
      vertex 0.05 0.25 1.625
      vertex 0.0353553 -0.25 1.66036
      vertex 0.05 -0.25 1.625
    endloop
  endfacet
  facet normal 0.38258 0 0.923922
    outer loop
      vertex 0 0.25 1.675
      vertex 0.0353553 -0.25 1.66036
      vertex 0.0353553 0.25 1.66036
    endloop
  endfacet
  facet normal 0.38258 0 0.923922
    outer loop
      vertex 0.0353553 -0.25 1.66036
      vertex 0 0.25 1.675
      vertex 0 -0.25 1.675
    endloop
  endfacet
  facet normal -0.38258 0 0.923922
    outer loop
      vertex -0.0353553 0.25 1.66036
      vertex 0 -0.25 1.675
      vertex 0 0.25 1.675
    endloop
  endfacet
  facet normal -0.38258 0 0.923922
    outer loop
      vertex 0 -0.25 1.675
      vertex -0.0353553 0.25 1.66036
      vertex -0.0353553 -0.25 1.66036
    endloop
  endfacet
  facet normal -0.923897 0 0.382641
    outer loop
      vertex -0.05 -0.25 1.625
      vertex -0.0353553 0.25 1.66036
      vertex -0.05 0.25 1.625
    endloop
  endfacet
  facet normal -0.923897 0 0.382641
    outer loop
      vertex -0.0353553 0.25 1.66036
      vertex -0.05 -0.25 1.625
      vertex -0.0353553 -0.25 1.66036
    endloop
  endfacet
  facet normal -0.923897 0 -0.382641
    outer loop
      vertex -0.0353553 -0.25 1.58964
      vertex -0.05 0.25 1.625
      vertex -0.0353553 0.25 1.58964
    endloop
  endfacet
  facet normal -0.923897 -0 -0.382641
    outer loop
      vertex -0.05 0.25 1.625
      vertex -0.0353553 -0.25 1.58964
      vertex -0.05 -0.25 1.625
    endloop
  endfacet
  facet normal -0.38258 0 -0.923922
    outer loop
      vertex -0.0353553 -0.25 1.58964
      vertex 0 0.25 1.575
      vertex 0 -0.25 1.575
    endloop
  endfacet
  facet normal -0.38258 0 -0.923922
    outer loop
      vertex 0 0.25 1.575
      vertex -0.0353553 -0.25 1.58964
      vertex -0.0353553 0.25 1.58964
    endloop
  endfacet
  facet normal 0.38258 0 -0.923922
    outer loop
      vertex 0 -0.25 1.575
      vertex 0.0353553 0.25 1.58964
      vertex 0.0353553 -0.25 1.58964
    endloop
  endfacet
  facet normal 0.38258 0 -0.923922
    outer loop
      vertex 0.0353553 0.25 1.58964
      vertex 0 -0.25 1.575
      vertex 0 0.25 1.575
    endloop
  endfacet
  facet normal 0.923897 0 -0.382641
    outer loop
      vertex 0.05 -0.25 1.625
      vertex 0.0353553 0.25 1.58964
      vertex 0.05 0.25 1.625
    endloop
  endfacet
  facet normal 0.923897 0 -0.382641
    outer loop
      vertex 0.0353553 0.25 1.58964
      vertex 0.05 -0.25 1.625
      vertex 0.0353553 -0.25 1.58964
    endloop
  endfacet
  facet normal 0 1 0
    outer loop
      vertex 0.0353553 0.25 1.66036
      vertex -0.0353553 0.25 1.66036
      vertex 0 0.25 1.675
    endloop
  endfacet
  facet normal 0 1 0
    outer loop
      vertex 0.05 0.25 1.625
      vertex -0.0353553 0.25 1.66036
      vertex 0.0353553 0.25 1.66036
    endloop
  endfacet
  facet normal 0 1 0
    outer loop
      vertex 0.05 0.25 1.625
      vertex -0.05 0.25 1.625
      vertex -0.0353553 0.25 1.66036
    endloop
  endfacet
  facet normal 0 1 -0
    outer loop
      vertex 0.0353553 0.25 1.58964
      vertex -0.05 0.25 1.625
      vertex 0.05 0.25 1.625
    endloop
  endfacet
  facet normal 0 1 0
    outer loop
      vertex 0.0353553 0.25 1.58964
      vertex -0.0353553 0.25 1.58964
      vertex -0.05 0.25 1.625
    endloop
  endfacet
  facet normal -0 1 0
    outer loop
      vertex -0.0353553 0.25 1.58964
      vertex 0.0353553 0.25 1.58964
      vertex 0 0.25 1.575
    endloop
  endfacet
  facet normal 0 -1 0
    outer loop
      vertex -0.0353553 -0.25 1.66036
      vertex 0.0353553 -0.25 1.66036
      vertex 0 -0.25 1.675
    endloop
  endfacet
  facet normal 0 -1 0
    outer loop
      vertex -0.05 -0.25 1.625
      vertex 0.0353553 -0.25 1.66036
      vertex -0.0353553 -0.25 1.66036
    endloop
  endfacet
  facet normal 0 -1 0
    outer loop
      vertex -0.05 -0.25 1.625
      vertex 0.05 -0.25 1.625
      vertex 0.0353553 -0.25 1.66036
    endloop
  endfacet
  facet normal 0 -1 0
    outer loop
      vertex -0.0353553 -0.25 1.58964
      vertex 0.05 -0.25 1.625
      vertex -0.05 -0.25 1.625
    endloop
  endfacet
  facet normal 0 -1 0
    outer loop
      vertex -0.0353553 -0.25 1.58964
      vertex 0.0353553 -0.25 1.58964
      vertex 0.05 -0.25 1.625
    endloop
  endfacet
  facet normal -0 -1 0
    outer loop
      vertex 0.0353553 -0.25 1.58964
      vertex -0.0353553 -0.25 1.58964
      vertex 0 -0.25 1.575
    endloop
  endfacet
endsolid OpenSCAD_Model
