solid OpenSCAD_Model
  facet normal 0.996195 -0 0.0871527
    outer loop
      vertex 0.147721 -0.45 1.65105
      vertex 0.15 0.05 1.625
      vertex 0.147721 0.05 1.65105
    endloop
  endfacet
  facet normal 0.996195 0 0.0871527
    outer loop
      vertex 0.15 0.05 1.625
      vertex 0.147721 -0.45 1.65105
      vertex 0.15 -0.45 1.625
    endloop
  endfacet
  facet normal 0.965914 -0 0.258865
    outer loop
      vertex 0.140954 -0.45 1.6763
      vertex 0.147721 0.05 1.65105
      vertex 0.140954 0.05 1.6763
    endloop
  endfacet
  facet normal 0.965914 0 0.258865
    outer loop
      vertex 0.147721 0.05 1.65105
      vertex 0.140954 -0.45 1.6763
      vertex 0.147721 -0.45 1.65105
    endloop
  endfacet
  facet normal 0.90633 -0 0.422571
    outer loop
      vertex 0.129904 -0.45 1.7
      vertex 0.140954 0.05 1.6763
      vertex 0.129904 0.05 1.7
    endloop
  endfacet
  facet normal 0.90633 0 0.422571
    outer loop
      vertex 0.140954 0.05 1.6763
      vertex 0.129904 -0.45 1.7
      vertex 0.140954 -0.45 1.6763
    endloop
  endfacet
  facet normal 0.819178 -0 0.573539
    outer loop
      vertex 0.114907 -0.45 1.72142
      vertex 0.129904 0.05 1.7
      vertex 0.114907 0.05 1.72142
    endloop
  endfacet
  facet normal 0.819178 0 0.573539
    outer loop
      vertex 0.129904 0.05 1.7
      vertex 0.114907 -0.45 1.72142
      vertex 0.129904 -0.45 1.7
    endloop
  endfacet
  facet normal 0.707128 -0 0.707086
    outer loop
      vertex 0.0964181 -0.45 1.73991
      vertex 0.114907 0.05 1.72142
      vertex 0.0964181 0.05 1.73991
    endloop
  endfacet
  facet normal 0.707128 0 0.707086
    outer loop
      vertex 0.114907 0.05 1.72142
      vertex 0.0964181 -0.45 1.73991
      vertex 0.114907 -0.45 1.72142
    endloop
  endfacet
  facet normal 0.573394 0 0.81928
    outer loop
      vertex 0.075 0.05 1.7549
      vertex 0.0964181 -0.45 1.73991
      vertex 0.0964181 0.05 1.73991
    endloop
  endfacet
  facet normal 0.573394 0 0.81928
    outer loop
      vertex 0.0964181 -0.45 1.73991
      vertex 0.075 0.05 1.7549
      vertex 0.075 -0.45 1.7549
    endloop
  endfacet
  facet normal 0.422615 0 0.906309
    outer loop
      vertex 0.051303 0.05 1.76595
      vertex 0.075 -0.45 1.7549
      vertex 0.075 0.05 1.7549
    endloop
  endfacet
  facet normal 0.422615 0 0.906309
    outer loop
      vertex 0.075 -0.45 1.7549
      vertex 0.051303 0.05 1.76595
      vertex 0.051303 -0.45 1.76595
    endloop
  endfacet
  facet normal 0.258916 0 0.9659
    outer loop
      vertex 0.0260472 0.05 1.77272
      vertex 0.051303 -0.45 1.76595
      vertex 0.051303 0.05 1.76595
    endloop
  endfacet
  facet normal 0.258916 0 0.9659
    outer loop
      vertex 0.051303 -0.45 1.76595
      vertex 0.0260472 0.05 1.77272
      vertex 0.0260472 -0.45 1.77272
    endloop
  endfacet
  facet normal 0.0872 0 0.996191
    outer loop
      vertex 0 0.05 1.775
      vertex 0.0260472 -0.45 1.77272
      vertex 0.0260472 0.05 1.77272
    endloop
  endfacet
  facet normal 0.0872 0 0.996191
    outer loop
      vertex 0.0260472 -0.45 1.77272
      vertex 0 0.05 1.775
      vertex 0 -0.45 1.775
    endloop
  endfacet
  facet normal -0.0872 0 0.996191
    outer loop
      vertex -0.0260472 0.05 1.77272
      vertex 0 -0.45 1.775
      vertex 0 0.05 1.775
    endloop
  endfacet
  facet normal -0.0872 0 0.996191
    outer loop
      vertex 0 -0.45 1.775
      vertex -0.0260472 0.05 1.77272
      vertex -0.0260472 -0.45 1.77272
    endloop
  endfacet
  facet normal -0.258916 0 0.9659
    outer loop
      vertex -0.051303 0.05 1.76595
      vertex -0.0260472 -0.45 1.77272
      vertex -0.0260472 0.05 1.77272
    endloop
  endfacet
  facet normal -0.258916 0 0.9659
    outer loop
      vertex -0.0260472 -0.45 1.77272
      vertex -0.051303 0.05 1.76595
      vertex -0.051303 -0.45 1.76595
    endloop
  endfacet
  facet normal -0.422615 0 0.906309
    outer loop
      vertex -0.075 0.05 1.7549
      vertex -0.051303 -0.45 1.76595
      vertex -0.051303 0.05 1.76595
    endloop
  endfacet
  facet normal -0.422615 0 0.906309
    outer loop
      vertex -0.051303 -0.45 1.76595
      vertex -0.075 0.05 1.7549
      vertex -0.075 -0.45 1.7549
    endloop
  endfacet
  facet normal -0.573394 0 0.81928
    outer loop
      vertex -0.0964181 0.05 1.73991
      vertex -0.075 -0.45 1.7549
      vertex -0.075 0.05 1.7549
    endloop
  endfacet
  facet normal -0.573394 0 0.81928
    outer loop
      vertex -0.075 -0.45 1.7549
      vertex -0.0964181 0.05 1.73991
      vertex -0.0964181 -0.45 1.73991
    endloop
  endfacet
  facet normal -0.707128 0 0.707086
    outer loop
      vertex -0.114907 -0.45 1.72142
      vertex -0.0964181 0.05 1.73991
      vertex -0.114907 0.05 1.72142
    endloop
  endfacet
  facet normal -0.707128 0 0.707086
    outer loop
      vertex -0.0964181 0.05 1.73991
      vertex -0.114907 -0.45 1.72142
      vertex -0.0964181 -0.45 1.73991
    endloop
  endfacet
  facet normal -0.819178 0 0.573539
    outer loop
      vertex -0.129904 -0.45 1.7
      vertex -0.114907 0.05 1.72142
      vertex -0.129904 0.05 1.7
    endloop
  endfacet
  facet normal -0.819178 0 0.573539
    outer loop
      vertex -0.114907 0.05 1.72142
      vertex -0.129904 -0.45 1.7
      vertex -0.114907 -0.45 1.72142
    endloop
  endfacet
  facet normal -0.90633 0 0.422571
    outer loop
      vertex -0.140954 -0.45 1.6763
      vertex -0.129904 0.05 1.7
      vertex -0.140954 0.05 1.6763
    endloop
  endfacet
  facet normal -0.90633 0 0.422571
    outer loop
      vertex -0.129904 0.05 1.7
      vertex -0.140954 -0.45 1.6763
      vertex -0.129904 -0.45 1.7
    endloop
  endfacet
  facet normal -0.965914 0 0.258865
    outer loop
      vertex -0.147721 -0.45 1.65105
      vertex -0.140954 0.05 1.6763
      vertex -0.147721 0.05 1.65105
    endloop
  endfacet
  facet normal -0.965914 0 0.258865
    outer loop
      vertex -0.140954 0.05 1.6763
      vertex -0.147721 -0.45 1.65105
      vertex -0.140954 -0.45 1.6763
    endloop
  endfacet
  facet normal -0.996195 0 0.0871527
    outer loop
      vertex -0.15 -0.45 1.625
      vertex -0.147721 0.05 1.65105
      vertex -0.15 0.05 1.625
    endloop
  endfacet
  facet normal -0.996195 0 0.0871527
    outer loop
      vertex -0.147721 0.05 1.65105
      vertex -0.15 -0.45 1.625
      vertex -0.147721 -0.45 1.65105
    endloop
  endfacet
  facet normal -0.996195 0 -0.0871527
    outer loop
      vertex -0.147721 -0.45 1.59895
      vertex -0.15 0.05 1.625
      vertex -0.147721 0.05 1.59895
    endloop
  endfacet
  facet normal -0.996195 -0 -0.0871527
    outer loop
      vertex -0.15 0.05 1.625
      vertex -0.147721 -0.45 1.59895
      vertex -0.15 -0.45 1.625
    endloop
  endfacet
  facet normal -0.965914 0 -0.258865
    outer loop
      vertex -0.140954 -0.45 1.5737
      vertex -0.147721 0.05 1.59895
      vertex -0.140954 0.05 1.5737
    endloop
  endfacet
  facet normal -0.965914 -0 -0.258865
    outer loop
      vertex -0.147721 0.05 1.59895
      vertex -0.140954 -0.45 1.5737
      vertex -0.147721 -0.45 1.59895
    endloop
  endfacet
  facet normal -0.90633 0 -0.422571
    outer loop
      vertex -0.129904 -0.45 1.55
      vertex -0.140954 0.05 1.5737
      vertex -0.129904 0.05 1.55
    endloop
  endfacet
  facet normal -0.90633 -0 -0.422571
    outer loop
      vertex -0.140954 0.05 1.5737
      vertex -0.129904 -0.45 1.55
      vertex -0.140954 -0.45 1.5737
    endloop
  endfacet
  facet normal -0.819178 0 -0.573539
    outer loop
      vertex -0.114907 -0.45 1.52858
      vertex -0.129904 0.05 1.55
      vertex -0.114907 0.05 1.52858
    endloop
  endfacet
  facet normal -0.819178 -0 -0.573539
    outer loop
      vertex -0.129904 0.05 1.55
      vertex -0.114907 -0.45 1.52858
      vertex -0.129904 -0.45 1.55
    endloop
  endfacet
  facet normal -0.707128 0 -0.707086
    outer loop
      vertex -0.0964181 -0.45 1.51009
      vertex -0.114907 0.05 1.52858
      vertex -0.0964181 0.05 1.51009
    endloop
  endfacet
  facet normal -0.707128 -0 -0.707086
    outer loop
      vertex -0.114907 0.05 1.52858
      vertex -0.0964181 -0.45 1.51009
      vertex -0.114907 -0.45 1.52858
    endloop
  endfacet
  facet normal -0.573394 0 -0.81928
    outer loop
      vertex -0.0964181 -0.45 1.51009
      vertex -0.075 0.05 1.4951
      vertex -0.075 -0.45 1.4951
    endloop
  endfacet
  facet normal -0.573394 0 -0.81928
    outer loop
      vertex -0.075 0.05 1.4951
      vertex -0.0964181 -0.45 1.51009
      vertex -0.0964181 0.05 1.51009
    endloop
  endfacet
  facet normal -0.422615 0 -0.906309
    outer loop
      vertex -0.075 -0.45 1.4951
      vertex -0.051303 0.05 1.48405
      vertex -0.051303 -0.45 1.48405
    endloop
  endfacet
  facet normal -0.422615 0 -0.906309
    outer loop
      vertex -0.051303 0.05 1.48405
      vertex -0.075 -0.45 1.4951
      vertex -0.075 0.05 1.4951
    endloop
  endfacet
  facet normal -0.258916 0 -0.9659
    outer loop
      vertex -0.051303 -0.45 1.48405
      vertex -0.0260472 0.05 1.47728
      vertex -0.0260472 -0.45 1.47728
    endloop
  endfacet
  facet normal -0.258916 0 -0.9659
    outer loop
      vertex -0.0260472 0.05 1.47728
      vertex -0.051303 -0.45 1.48405
      vertex -0.051303 0.05 1.48405
    endloop
  endfacet
  facet normal -0.0872 0 -0.996191
    outer loop
      vertex -0.0260472 -0.45 1.47728
      vertex 0 0.05 1.475
      vertex 0 -0.45 1.475
    endloop
  endfacet
  facet normal -0.0872 0 -0.996191
    outer loop
      vertex 0 0.05 1.475
      vertex -0.0260472 -0.45 1.47728
      vertex -0.0260472 0.05 1.47728
    endloop
  endfacet
  facet normal 0.0872 0 -0.996191
    outer loop
      vertex 0 -0.45 1.475
      vertex 0.0260472 0.05 1.47728
      vertex 0.0260472 -0.45 1.47728
    endloop
  endfacet
  facet normal 0.0872 0 -0.996191
    outer loop
      vertex 0.0260472 0.05 1.47728
      vertex 0 -0.45 1.475
      vertex 0 0.05 1.475
    endloop
  endfacet
  facet normal 0.258916 0 -0.9659
    outer loop
      vertex 0.0260472 -0.45 1.47728
      vertex 0.051303 0.05 1.48405
      vertex 0.051303 -0.45 1.48405
    endloop
  endfacet
  facet normal 0.258916 0 -0.9659
    outer loop
      vertex 0.051303 0.05 1.48405
      vertex 0.0260472 -0.45 1.47728
      vertex 0.0260472 0.05 1.47728
    endloop
  endfacet
  facet normal 0.422615 0 -0.906309
    outer loop
      vertex 0.051303 -0.45 1.48405
      vertex 0.075 0.05 1.4951
      vertex 0.075 -0.45 1.4951
    endloop
  endfacet
  facet normal 0.422615 0 -0.906309
    outer loop
      vertex 0.075 0.05 1.4951
      vertex 0.051303 -0.45 1.48405
      vertex 0.051303 0.05 1.48405
    endloop
  endfacet
  facet normal 0.573394 0 -0.81928
    outer loop
      vertex 0.075 -0.45 1.4951
      vertex 0.0964181 0.05 1.51009
      vertex 0.0964181 -0.45 1.51009
    endloop
  endfacet
  facet normal 0.573394 0 -0.81928
    outer loop
      vertex 0.0964181 0.05 1.51009
      vertex 0.075 -0.45 1.4951
      vertex 0.075 0.05 1.4951
    endloop
  endfacet
  facet normal 0.707128 0 -0.707086
    outer loop
      vertex 0.114907 -0.45 1.52858
      vertex 0.0964181 0.05 1.51009
      vertex 0.114907 0.05 1.52858
    endloop
  endfacet
  facet normal 0.707128 0 -0.707086
    outer loop
      vertex 0.0964181 0.05 1.51009
      vertex 0.114907 -0.45 1.52858
      vertex 0.0964181 -0.45 1.51009
    endloop
  endfacet
  facet normal 0.819178 0 -0.573539
    outer loop
      vertex 0.129904 -0.45 1.55
      vertex 0.114907 0.05 1.52858
      vertex 0.129904 0.05 1.55
    endloop
  endfacet
  facet normal 0.819178 0 -0.573539
    outer loop
      vertex 0.114907 0.05 1.52858
      vertex 0.129904 -0.45 1.55
      vertex 0.114907 -0.45 1.52858
    endloop
  endfacet
  facet normal 0.90633 0 -0.422571
    outer loop
      vertex 0.140954 -0.45 1.5737
      vertex 0.129904 0.05 1.55
      vertex 0.140954 0.05 1.5737
    endloop
  endfacet
  facet normal 0.90633 0 -0.422571
    outer loop
      vertex 0.129904 0.05 1.55
      vertex 0.140954 -0.45 1.5737
      vertex 0.129904 -0.45 1.55
    endloop
  endfacet
  facet normal 0.965914 0 -0.258865
    outer loop
      vertex 0.147721 -0.45 1.59895
      vertex 0.140954 0.05 1.5737
      vertex 0.147721 0.05 1.59895
    endloop
  endfacet
  facet normal 0.965914 0 -0.258865
    outer loop
      vertex 0.140954 0.05 1.5737
      vertex 0.147721 -0.45 1.59895
      vertex 0.140954 -0.45 1.5737
    endloop
  endfacet
  facet normal 0.996195 0 -0.0871527
    outer loop
      vertex 0.15 -0.45 1.625
      vertex 0.147721 0.05 1.59895
      vertex 0.15 0.05 1.625
    endloop
  endfacet
  facet normal 0.996195 0 -0.0871527
    outer loop
      vertex 0.147721 0.05 1.59895
      vertex 0.15 -0.45 1.625
      vertex 0.147721 -0.45 1.59895
    endloop
  endfacet
  facet normal 0 1 0
    outer loop
      vertex 0.0260472 0.05 1.77272
      vertex -0.0260472 0.05 1.77272
      vertex 0 0.05 1.775
    endloop
  endfacet
  facet normal 0 1 0
    outer loop
      vertex 0.051303 0.05 1.76595
      vertex -0.0260472 0.05 1.77272
      vertex 0.0260472 0.05 1.77272
    endloop
  endfacet
  facet normal 0 1 0
    outer loop
      vertex 0.051303 0.05 1.76595
      vertex -0.051303 0.05 1.76595
      vertex -0.0260472 0.05 1.77272
    endloop
  endfacet
  facet normal 0 1 0
    outer loop
      vertex 0.075 0.05 1.7549
      vertex -0.051303 0.05 1.76595
      vertex 0.051303 0.05 1.76595
    endloop
  endfacet
  facet normal 0 1 0
    outer loop
      vertex 0.075 0.05 1.7549
      vertex -0.075 0.05 1.7549
      vertex -0.051303 0.05 1.76595
    endloop
  endfacet
  facet normal 0 1 0
    outer loop
      vertex 0.0964181 0.05 1.73991
      vertex -0.075 0.05 1.7549
      vertex 0.075 0.05 1.7549
    endloop
  endfacet
  facet normal 0 1 0
    outer loop
      vertex 0.0964181 0.05 1.73991
      vertex -0.0964181 0.05 1.73991
      vertex -0.075 0.05 1.7549
    endloop
  endfacet
  facet normal 0 1 0
    outer loop
      vertex 0.114907 0.05 1.72142
      vertex -0.0964181 0.05 1.73991
      vertex 0.0964181 0.05 1.73991
    endloop
  endfacet
  facet normal 0 1 0
    outer loop
      vertex 0.114907 0.05 1.72142
      vertex -0.114907 0.05 1.72142
      vertex -0.0964181 0.05 1.73991
    endloop
  endfacet
  facet normal 0 1 0
    outer loop
      vertex 0.129904 0.05 1.7
      vertex -0.114907 0.05 1.72142
      vertex 0.114907 0.05 1.72142
    endloop
  endfacet
  facet normal 0 1 0
    outer loop
      vertex 0.129904 0.05 1.7
      vertex -0.129904 0.05 1.7
      vertex -0.114907 0.05 1.72142
    endloop
  endfacet
  facet normal 0 1 0
    outer loop
      vertex 0.140954 0.05 1.6763
      vertex -0.129904 0.05 1.7
      vertex 0.129904 0.05 1.7
    endloop
  endfacet
  facet normal 0 1 0
    outer loop
      vertex 0.140954 0.05 1.6763
      vertex -0.140954 0.05 1.6763
      vertex -0.129904 0.05 1.7
    endloop
  endfacet
  facet normal 0 1 0
    outer loop
      vertex 0.147721 0.05 1.65105
      vertex -0.140954 0.05 1.6763
      vertex 0.140954 0.05 1.6763
    endloop
  endfacet
  facet normal 0 1 0
    outer loop
      vertex 0.147721 0.05 1.65105
      vertex -0.147721 0.05 1.65105
      vertex -0.140954 0.05 1.6763
    endloop
  endfacet
  facet normal 0 1 0
    outer loop
      vertex 0.15 0.05 1.625
      vertex -0.147721 0.05 1.65105
      vertex 0.147721 0.05 1.65105
    endloop
  endfacet
  facet normal 0 1 0
    outer loop
      vertex 0.15 0.05 1.625
      vertex -0.15 0.05 1.625
      vertex -0.147721 0.05 1.65105
    endloop
  endfacet
  facet normal 0 1 -0
    outer loop
      vertex 0.147721 0.05 1.59895
      vertex -0.15 0.05 1.625
      vertex 0.15 0.05 1.625
    endloop
  endfacet
  facet normal 0 1 0
    outer loop
      vertex 0.147721 0.05 1.59895
      vertex -0.147721 0.05 1.59895
      vertex -0.15 0.05 1.625
    endloop
  endfacet
  facet normal 0 1 -0
    outer loop
      vertex 0.140954 0.05 1.5737
      vertex -0.147721 0.05 1.59895
      vertex 0.147721 0.05 1.59895
    endloop
  endfacet
  facet normal 0 1 0
    outer loop
      vertex 0.140954 0.05 1.5737
      vertex -0.140954 0.05 1.5737
      vertex -0.147721 0.05 1.59895
    endloop
  endfacet
  facet normal 0 1 -0
    outer loop
      vertex 0.129904 0.05 1.55
      vertex -0.140954 0.05 1.5737
      vertex 0.140954 0.05 1.5737
    endloop
  endfacet
  facet normal 0 1 0
    outer loop
      vertex 0.129904 0.05 1.55
      vertex -0.129904 0.05 1.55
      vertex -0.140954 0.05 1.5737
    endloop
  endfacet
  facet normal 0 1 -0
    outer loop
      vertex 0.114907 0.05 1.52858
      vertex -0.129904 0.05 1.55
      vertex 0.129904 0.05 1.55
    endloop
  endfacet
  facet normal 0 1 0
    outer loop
      vertex 0.114907 0.05 1.52858
      vertex -0.114907 0.05 1.52858
      vertex -0.129904 0.05 1.55
    endloop
  endfacet
  facet normal 0 1 -0
    outer loop
      vertex 0.0964181 0.05 1.51009
      vertex -0.114907 0.05 1.52858
      vertex 0.114907 0.05 1.52858
    endloop
  endfacet
  facet normal 0 1 0
    outer loop
      vertex 0.0964181 0.05 1.51009
      vertex -0.0964181 0.05 1.51009
      vertex -0.114907 0.05 1.52858
    endloop
  endfacet
  facet normal 0 1 -0
    outer loop
      vertex 0.075 0.05 1.4951
      vertex -0.0964181 0.05 1.51009
      vertex 0.0964181 0.05 1.51009
    endloop
  endfacet
  facet normal 0 1 0
    outer loop
      vertex 0.075 0.05 1.4951
      vertex -0.075 0.05 1.4951
      vertex -0.0964181 0.05 1.51009
    endloop
  endfacet
  facet normal 0 1 -0
    outer loop
      vertex 0.051303 0.05 1.48405
      vertex -0.075 0.05 1.4951
      vertex 0.075 0.05 1.4951
    endloop
  endfacet
  facet normal 0 1 0
    outer loop
      vertex 0.051303 0.05 1.48405
      vertex -0.051303 0.05 1.48405
      vertex -0.075 0.05 1.4951
    endloop
  endfacet
  facet normal 0 1 -0
    outer loop
      vertex 0.0260472 0.05 1.47728
      vertex -0.051303 0.05 1.48405
      vertex 0.051303 0.05 1.48405
    endloop
  endfacet
  facet normal 0 1 0
    outer loop
      vertex 0.0260472 0.05 1.47728
      vertex -0.0260472 0.05 1.47728
      vertex -0.051303 0.05 1.48405
    endloop
  endfacet
  facet normal -0 1 0
    outer loop
      vertex -0.0260472 0.05 1.47728
      vertex 0.0260472 0.05 1.47728
      vertex 0 0.05 1.475
    endloop
  endfacet
  facet normal 0 -1 0
    outer loop
      vertex -0.0260472 -0.45 1.77272
      vertex 0.0260472 -0.45 1.77272
      vertex 0 -0.45 1.775
    endloop
  endfacet
  facet normal 0 -1 0
    outer loop
      vertex -0.051303 -0.45 1.76595
      vertex 0.0260472 -0.45 1.77272
      vertex -0.0260472 -0.45 1.77272
    endloop
  endfacet
  facet normal 0 -1 0
    outer loop
      vertex -0.051303 -0.45 1.76595
      vertex 0.051303 -0.45 1.76595
      vertex 0.0260472 -0.45 1.77272
    endloop
  endfacet
  facet normal 0 -1 0
    outer loop
      vertex -0.075 -0.45 1.7549
      vertex 0.051303 -0.45 1.76595
      vertex -0.051303 -0.45 1.76595
    endloop
  endfacet
  facet normal 0 -1 0
    outer loop
      vertex -0.075 -0.45 1.7549
      vertex 0.075 -0.45 1.7549
      vertex 0.051303 -0.45 1.76595
    endloop
  endfacet
  facet normal 0 -1 0
    outer loop
      vertex -0.0964181 -0.45 1.73991
      vertex 0.075 -0.45 1.7549
      vertex -0.075 -0.45 1.7549
    endloop
  endfacet
  facet normal 0 -1 0
    outer loop
      vertex -0.0964181 -0.45 1.73991
      vertex 0.0964181 -0.45 1.73991
      vertex 0.075 -0.45 1.7549
    endloop
  endfacet
  facet normal 0 -1 0
    outer loop
      vertex -0.114907 -0.45 1.72142
      vertex 0.0964181 -0.45 1.73991
      vertex -0.0964181 -0.45 1.73991
    endloop
  endfacet
  facet normal 0 -1 0
    outer loop
      vertex -0.114907 -0.45 1.72142
      vertex 0.114907 -0.45 1.72142
      vertex 0.0964181 -0.45 1.73991
    endloop
  endfacet
  facet normal 0 -1 0
    outer loop
      vertex -0.129904 -0.45 1.7
      vertex 0.114907 -0.45 1.72142
      vertex -0.114907 -0.45 1.72142
    endloop
  endfacet
  facet normal 0 -1 0
    outer loop
      vertex -0.129904 -0.45 1.7
      vertex 0.129904 -0.45 1.7
      vertex 0.114907 -0.45 1.72142
    endloop
  endfacet
  facet normal 0 -1 0
    outer loop
      vertex -0.140954 -0.45 1.6763
      vertex 0.129904 -0.45 1.7
      vertex -0.129904 -0.45 1.7
    endloop
  endfacet
  facet normal 0 -1 0
    outer loop
      vertex -0.140954 -0.45 1.6763
      vertex 0.140954 -0.45 1.6763
      vertex 0.129904 -0.45 1.7
    endloop
  endfacet
  facet normal 0 -1 0
    outer loop
      vertex -0.147721 -0.45 1.65105
      vertex 0.140954 -0.45 1.6763
      vertex -0.140954 -0.45 1.6763
    endloop
  endfacet
  facet normal 0 -1 0
    outer loop
      vertex -0.147721 -0.45 1.65105
      vertex 0.147721 -0.45 1.65105
      vertex 0.140954 -0.45 1.6763
    endloop
  endfacet
  facet normal 0 -1 0
    outer loop
      vertex -0.15 -0.45 1.625
      vertex 0.147721 -0.45 1.65105
      vertex -0.147721 -0.45 1.65105
    endloop
  endfacet
  facet normal 0 -1 0
    outer loop
      vertex -0.15 -0.45 1.625
      vertex 0.15 -0.45 1.625
      vertex 0.147721 -0.45 1.65105
    endloop
  endfacet
  facet normal 0 -1 0
    outer loop
      vertex -0.147721 -0.45 1.59895
      vertex 0.15 -0.45 1.625
      vertex -0.15 -0.45 1.625
    endloop
  endfacet
  facet normal 0 -1 0
    outer loop
      vertex -0.147721 -0.45 1.59895
      vertex 0.147721 -0.45 1.59895
      vertex 0.15 -0.45 1.625
    endloop
  endfacet
  facet normal 0 -1 0
    outer loop
      vertex -0.140954 -0.45 1.5737
      vertex 0.147721 -0.45 1.59895
      vertex -0.147721 -0.45 1.59895
    endloop
  endfacet
  facet normal 0 -1 0
    outer loop
      vertex -0.140954 -0.45 1.5737
      vertex 0.140954 -0.45 1.5737
      vertex 0.147721 -0.45 1.59895
    endloop
  endfacet
  facet normal 0 -1 0
    outer loop
      vertex -0.129904 -0.45 1.55
      vertex 0.140954 -0.45 1.5737
      vertex -0.140954 -0.45 1.5737
    endloop
  endfacet
  facet normal 0 -1 0
    outer loop
      vertex -0.129904 -0.45 1.55
      vertex 0.129904 -0.45 1.55
      vertex 0.140954 -0.45 1.5737
    endloop
  endfacet
  facet normal 0 -1 0
    outer loop
      vertex -0.114907 -0.45 1.52858
      vertex 0.129904 -0.45 1.55
      vertex -0.129904 -0.45 1.55
    endloop
  endfacet
  facet normal 0 -1 0
    outer loop
      vertex -0.114907 -0.45 1.52858
      vertex 0.114907 -0.45 1.52858
      vertex 0.129904 -0.45 1.55
    endloop
  endfacet
  facet normal 0 -1 0
    outer loop
      vertex -0.0964181 -0.45 1.51009
      vertex 0.114907 -0.45 1.52858
      vertex -0.114907 -0.45 1.52858
    endloop
  endfacet
  facet normal 0 -1 0
    outer loop
      vertex -0.0964181 -0.45 1.51009
      vertex 0.0964181 -0.45 1.51009
      vertex 0.114907 -0.45 1.52858
    endloop
  endfacet
  facet normal 0 -1 0
    outer loop
      vertex -0.075 -0.45 1.4951
      vertex 0.0964181 -0.45 1.51009
      vertex -0.0964181 -0.45 1.51009
    endloop
  endfacet
  facet normal 0 -1 0
    outer loop
      vertex -0.075 -0.45 1.4951
      vertex 0.075 -0.45 1.4951
      vertex 0.0964181 -0.45 1.51009
    endloop
  endfacet
  facet normal 0 -1 0
    outer loop
      vertex -0.051303 -0.45 1.48405
      vertex 0.075 -0.45 1.4951
      vertex -0.075 -0.45 1.4951
    endloop
  endfacet
  facet normal 0 -1 0
    outer loop
      vertex -0.051303 -0.45 1.48405
      vertex 0.051303 -0.45 1.48405
      vertex 0.075 -0.45 1.4951
    endloop
  endfacet
  facet normal 0 -1 0
    outer loop
      vertex -0.0260472 -0.45 1.47728
      vertex 0.051303 -0.45 1.48405
      vertex -0.051303 -0.45 1.48405
    endloop
  endfacet
  facet normal 0 -1 0
    outer loop
      vertex -0.0260472 -0.45 1.47728
      vertex 0.0260472 -0.45 1.47728
      vertex 0.051303 -0.45 1.48405
    endloop
  endfacet
  facet normal -0 -1 0
    outer loop
      vertex 0.0260472 -0.45 1.47728
      vertex -0.0260472 -0.45 1.47728
      vertex 0 -0.45 1.475
    endloop
  endfacet
endsolid OpenSCAD_Model
