solid OpenSCAD_Model
  facet normal 0.965925 -0 0.258822
    outer loop
      vertex 0.108253 -0.06 2.3625
      vertex 0.125 0.44 2.3
      vertex 0.108253 0.44 2.3625
    endloop
  endfacet
  facet normal 0.965925 0 0.258822
    outer loop
      vertex 0.125 0.44 2.3
      vertex 0.108253 -0.06 2.3625
      vertex 0.125 -0.06 2.3
    endloop
  endfacet
  facet normal 0.707084 -0 0.70713
    outer loop
      vertex 0.0625 -0.06 2.40825
      vertex 0.108253 0.44 2.3625
      vertex 0.0625 0.44 2.40825
    endloop
  endfacet
  facet normal 0.707084 0 0.70713
    outer loop
      vertex 0.108253 0.44 2.3625
      vertex 0.0625 -0.06 2.40825
      vertex 0.108253 -0.06 2.3625
    endloop
  endfacet
  facet normal 0.258865 0 0.965914
    outer loop
      vertex 0 0.44 2.425
      vertex 0.0625 -0.06 2.40825
      vertex 0.0625 0.44 2.40825
    endloop
  endfacet
  facet normal 0.258865 0 0.965914
    outer loop
      vertex 0.0625 -0.06 2.40825
      vertex 0 0.44 2.425
      vertex 0 -0.06 2.425
    endloop
  endfacet
  facet normal -0.258865 0 0.965914
    outer loop
      vertex -0.0625 0.44 2.40825
      vertex 0 -0.06 2.425
      vertex 0 0.44 2.425
    endloop
  endfacet
  facet normal -0.258865 0 0.965914
    outer loop
      vertex 0 -0.06 2.425
      vertex -0.0625 0.44 2.40825
      vertex -0.0625 -0.06 2.40825
    endloop
  endfacet
  facet normal -0.707084 0 0.70713
    outer loop
      vertex -0.108253 -0.06 2.3625
      vertex -0.0625 0.44 2.40825
      vertex -0.108253 0.44 2.3625
    endloop
  endfacet
  facet normal -0.707084 0 0.70713
    outer loop
      vertex -0.0625 0.44 2.40825
      vertex -0.108253 -0.06 2.3625
      vertex -0.0625 -0.06 2.40825
    endloop
  endfacet
  facet normal -0.965925 0 0.258822
    outer loop
      vertex -0.125 -0.06 2.3
      vertex -0.108253 0.44 2.3625
      vertex -0.125 0.44 2.3
    endloop
  endfacet
  facet normal -0.965925 0 0.258822
    outer loop
      vertex -0.108253 0.44 2.3625
      vertex -0.125 -0.06 2.3
      vertex -0.108253 -0.06 2.3625
    endloop
  endfacet
  facet normal -0.965925 0 -0.258822
    outer loop
      vertex -0.108253 -0.06 2.2375
      vertex -0.125 0.44 2.3
      vertex -0.108253 0.44 2.2375
    endloop
  endfacet
  facet normal -0.965925 -0 -0.258822
    outer loop
      vertex -0.125 0.44 2.3
      vertex -0.108253 -0.06 2.2375
      vertex -0.125 -0.06 2.3
    endloop
  endfacet
  facet normal -0.707084 0 -0.70713
    outer loop
      vertex -0.0625 -0.06 2.19175
      vertex -0.108253 0.44 2.2375
      vertex -0.0625 0.44 2.19175
    endloop
  endfacet
  facet normal -0.707084 -0 -0.70713
    outer loop
      vertex -0.108253 0.44 2.2375
      vertex -0.0625 -0.06 2.19175
      vertex -0.108253 -0.06 2.2375
    endloop
  endfacet
  facet normal -0.258865 0 -0.965914
    outer loop
      vertex -0.0625 -0.06 2.19175
      vertex 0 0.44 2.175
      vertex 0 -0.06 2.175
    endloop
  endfacet
  facet normal -0.258865 0 -0.965914
    outer loop
      vertex 0 0.44 2.175
      vertex -0.0625 -0.06 2.19175
      vertex -0.0625 0.44 2.19175
    endloop
  endfacet
  facet normal 0.258865 0 -0.965914
    outer loop
      vertex 0 -0.06 2.175
      vertex 0.0625 0.44 2.19175
      vertex 0.0625 -0.06 2.19175
    endloop
  endfacet
  facet normal 0.258865 0 -0.965914
    outer loop
      vertex 0.0625 0.44 2.19175
      vertex 0 -0.06 2.175
      vertex 0 0.44 2.175
    endloop
  endfacet
  facet normal 0.707084 0 -0.70713
    outer loop
      vertex 0.108253 -0.06 2.2375
      vertex 0.0625 0.44 2.19175
      vertex 0.108253 0.44 2.2375
    endloop
  endfacet
  facet normal 0.707084 0 -0.70713
    outer loop
      vertex 0.0625 0.44 2.19175
      vertex 0.108253 -0.06 2.2375
      vertex 0.0625 -0.06 2.19175
    endloop
  endfacet
  facet normal 0.965925 0 -0.258822
    outer loop
      vertex 0.125 -0.06 2.3
      vertex 0.108253 0.44 2.2375
      vertex 0.125 0.44 2.3
    endloop
  endfacet
  facet normal 0.965925 0 -0.258822
    outer loop
      vertex 0.108253 0.44 2.2375
      vertex 0.125 -0.06 2.3
      vertex 0.108253 -0.06 2.2375
    endloop
  endfacet
  facet normal 0 1 0
    outer loop
      vertex 0.0625 0.44 2.40825
      vertex -0.0625 0.44 2.40825
      vertex 0 0.44 2.425
    endloop
  endfacet
  facet normal 0 1 0
    outer loop
      vertex 0.108253 0.44 2.3625
      vertex -0.0625 0.44 2.40825
      vertex 0.0625 0.44 2.40825
    endloop
  endfacet
  facet normal 0 1 0
    outer loop
      vertex 0.108253 0.44 2.3625
      vertex -0.108253 0.44 2.3625
      vertex -0.0625 0.44 2.40825
    endloop
  endfacet
  facet normal 0 1 0
    outer loop
      vertex 0.125 0.44 2.3
      vertex -0.108253 0.44 2.3625
      vertex 0.108253 0.44 2.3625
    endloop
  endfacet
  facet normal 0 1 0
    outer loop
      vertex 0.125 0.44 2.3
      vertex -0.125 0.44 2.3
      vertex -0.108253 0.44 2.3625
    endloop
  endfacet
  facet normal 0 1 -0
    outer loop
      vertex 0.108253 0.44 2.2375
      vertex -0.125 0.44 2.3
      vertex 0.125 0.44 2.3
    endloop
  endfacet
  facet normal 0 1 0
    outer loop
      vertex 0.108253 0.44 2.2375
      vertex -0.108253 0.44 2.2375
      vertex -0.125 0.44 2.3
    endloop
  endfacet
  facet normal 0 1 -0
    outer loop
      vertex 0.0625 0.44 2.19175
      vertex -0.108253 0.44 2.2375
      vertex 0.108253 0.44 2.2375
    endloop
  endfacet
  facet normal 0 1 0
    outer loop
      vertex 0.0625 0.44 2.19175
      vertex -0.0625 0.44 2.19175
      vertex -0.108253 0.44 2.2375
    endloop
  endfacet
  facet normal -0 1 0
    outer loop
      vertex -0.0625 0.44 2.19175
      vertex 0.0625 0.44 2.19175
      vertex 0 0.44 2.175
    endloop
  endfacet
  facet normal 0 -1 0
    outer loop
      vertex -0.0625 -0.06 2.40825
      vertex 0.0625 -0.06 2.40825
      vertex 0 -0.06 2.425
    endloop
  endfacet
  facet normal 0 -1 0
    outer loop
      vertex -0.108253 -0.06 2.3625
      vertex 0.0625 -0.06 2.40825
      vertex -0.0625 -0.06 2.40825
    endloop
  endfacet
  facet normal 0 -1 0
    outer loop
      vertex -0.108253 -0.06 2.3625
      vertex 0.108253 -0.06 2.3625
      vertex 0.0625 -0.06 2.40825
    endloop
  endfacet
  facet normal 0 -1 0
    outer loop
      vertex -0.125 -0.06 2.3
      vertex 0.108253 -0.06 2.3625
      vertex -0.108253 -0.06 2.3625
    endloop
  endfacet
  facet normal 0 -1 0
    outer loop
      vertex -0.125 -0.06 2.3
      vertex 0.125 -0.06 2.3
      vertex 0.108253 -0.06 2.3625
    endloop
  endfacet
  facet normal 0 -1 0
    outer loop
      vertex -0.108253 -0.06 2.2375
      vertex 0.125 -0.06 2.3
      vertex -0.125 -0.06 2.3
    endloop
  endfacet
  facet normal 0 -1 0
    outer loop
      vertex -0.108253 -0.06 2.2375
      vertex 0.108253 -0.06 2.2375
      vertex 0.125 -0.06 2.3
    endloop
  endfacet
  facet normal 0 -1 0
    outer loop
      vertex -0.0625 -0.06 2.19175
      vertex 0.108253 -0.06 2.2375
      vertex -0.108253 -0.06 2.2375
    endloop
  endfacet
  facet normal 0 -1 0
    outer loop
      vertex -0.0625 -0.06 2.19175
      vertex 0.0625 -0.06 2.19175
      vertex 0.108253 -0.06 2.2375
    endloop
  endfacet
  facet normal -0 -1 0
    outer loop
      vertex 0.0625 -0.06 2.19175
      vertex -0.0625 -0.06 2.19175
      vertex 0 -0.06 2.175
    endloop
  endfacet
endsolid OpenSCAD_Model
