solid OpenSCAD_Model
  facet normal 0.996196 -0 0.0871385
    outer loop
      vertex 0.123101 -0.06 1.64671
      vertex 0.125 0.44 1.625
      vertex 0.123101 0.44 1.64671
    endloop
  endfacet
  facet normal 0.996196 0 0.0871385
    outer loop
      vertex 0.125 0.44 1.625
      vertex 0.123101 -0.06 1.64671
      vertex 0.125 -0.06 1.625
    endloop
  endfacet
  facet normal 0.96591 -0 0.258877
    outer loop
      vertex 0.117462 -0.06 1.66775
      vertex 0.123101 0.44 1.64671
      vertex 0.117462 0.44 1.66775
    endloop
  endfacet
  facet normal 0.96591 0 0.258877
    outer loop
      vertex 0.123101 0.44 1.64671
      vertex 0.117462 -0.06 1.66775
      vertex 0.123101 -0.06 1.64671
    endloop
  endfacet
  facet normal 0.906318 -0 0.422597
    outer loop
      vertex 0.108253 -0.06 1.6875
      vertex 0.117462 0.44 1.66775
      vertex 0.108253 0.44 1.6875
    endloop
  endfacet
  facet normal 0.906318 0 0.422597
    outer loop
      vertex 0.117462 0.44 1.66775
      vertex 0.108253 -0.06 1.6875
      vertex 0.117462 -0.06 1.66775
    endloop
  endfacet
  facet normal 0.81918 -0 0.573536
    outer loop
      vertex 0.0957556 -0.06 1.70535
      vertex 0.108253 0.44 1.6875
      vertex 0.0957556 0.44 1.70535
    endloop
  endfacet
  facet normal 0.81918 0 0.573536
    outer loop
      vertex 0.108253 0.44 1.6875
      vertex 0.0957556 -0.06 1.70535
      vertex 0.108253 -0.06 1.6875
    endloop
  endfacet
  facet normal 0.707173 0 0.70704
    outer loop
      vertex 0.0803485 0.44 1.72076
      vertex 0.0957556 -0.06 1.70535
      vertex 0.0957556 0.44 1.70535
    endloop
  endfacet
  facet normal 0.707173 0 0.70704
    outer loop
      vertex 0.0957556 -0.06 1.70535
      vertex 0.0803485 0.44 1.72076
      vertex 0.0803485 -0.06 1.72076
    endloop
  endfacet
  facet normal 0.573341 0 0.819317
    outer loop
      vertex 0.0625 0.44 1.73325
      vertex 0.0803485 -0.06 1.72076
      vertex 0.0803485 0.44 1.72076
    endloop
  endfacet
  facet normal 0.573341 0 0.819317
    outer loop
      vertex 0.0803485 -0.06 1.72076
      vertex 0.0625 0.44 1.73325
      vertex 0.0625 -0.06 1.73325
    endloop
  endfacet
  facet normal 0.422678 0 0.90628
    outer loop
      vertex 0.0427525 0.44 1.74246
      vertex 0.0625 -0.06 1.73325
      vertex 0.0625 0.44 1.73325
    endloop
  endfacet
  facet normal 0.422678 0 0.90628
    outer loop
      vertex 0.0625 -0.06 1.73325
      vertex 0.0427525 0.44 1.74246
      vertex 0.0427525 -0.06 1.74246
    endloop
  endfacet
  facet normal 0.258845 0 0.965919
    outer loop
      vertex 0.021706 0.44 1.7481
      vertex 0.0427525 -0.06 1.74246
      vertex 0.0427525 0.44 1.74246
    endloop
  endfacet
  facet normal 0.258845 0 0.965919
    outer loop
      vertex 0.0427525 -0.06 1.74246
      vertex 0.021706 0.44 1.7481
      vertex 0.021706 -0.06 1.7481
    endloop
  endfacet
  facet normal 0.0872 0 0.996191
    outer loop
      vertex 0 0.44 1.75
      vertex 0.021706 -0.06 1.7481
      vertex 0.021706 0.44 1.7481
    endloop
  endfacet
  facet normal 0.0872 0 0.996191
    outer loop
      vertex 0.021706 -0.06 1.7481
      vertex 0 0.44 1.75
      vertex 0 -0.06 1.75
    endloop
  endfacet
  facet normal -0.0872 0 0.996191
    outer loop
      vertex -0.021706 0.44 1.7481
      vertex 0 -0.06 1.75
      vertex 0 0.44 1.75
    endloop
  endfacet
  facet normal -0.0872 0 0.996191
    outer loop
      vertex 0 -0.06 1.75
      vertex -0.021706 0.44 1.7481
      vertex -0.021706 -0.06 1.7481
    endloop
  endfacet
  facet normal -0.258845 0 0.965919
    outer loop
      vertex -0.0427525 0.44 1.74246
      vertex -0.021706 -0.06 1.7481
      vertex -0.021706 0.44 1.7481
    endloop
  endfacet
  facet normal -0.258845 0 0.965919
    outer loop
      vertex -0.021706 -0.06 1.7481
      vertex -0.0427525 0.44 1.74246
      vertex -0.0427525 -0.06 1.74246
    endloop
  endfacet
  facet normal -0.422678 0 0.90628
    outer loop
      vertex -0.0625 0.44 1.73325
      vertex -0.0427525 -0.06 1.74246
      vertex -0.0427525 0.44 1.74246
    endloop
  endfacet
  facet normal -0.422678 0 0.90628
    outer loop
      vertex -0.0427525 -0.06 1.74246
      vertex -0.0625 0.44 1.73325
      vertex -0.0625 -0.06 1.73325
    endloop
  endfacet
  facet normal -0.573341 0 0.819317
    outer loop
      vertex -0.0803485 0.44 1.72076
      vertex -0.0625 -0.06 1.73325
      vertex -0.0625 0.44 1.73325
    endloop
  endfacet
  facet normal -0.573341 0 0.819317
    outer loop
      vertex -0.0625 -0.06 1.73325
      vertex -0.0803485 0.44 1.72076
      vertex -0.0803485 -0.06 1.72076
    endloop
  endfacet
  facet normal -0.707173 0 0.70704
    outer loop
      vertex -0.0957556 0.44 1.70535
      vertex -0.0803485 -0.06 1.72076
      vertex -0.0803485 0.44 1.72076
    endloop
  endfacet
  facet normal -0.707173 0 0.70704
    outer loop
      vertex -0.0803485 -0.06 1.72076
      vertex -0.0957556 0.44 1.70535
      vertex -0.0957556 -0.06 1.70535
    endloop
  endfacet
  facet normal -0.81918 0 0.573536
    outer loop
      vertex -0.108253 -0.06 1.6875
      vertex -0.0957556 0.44 1.70535
      vertex -0.108253 0.44 1.6875
    endloop
  endfacet
  facet normal -0.81918 0 0.573536
    outer loop
      vertex -0.0957556 0.44 1.70535
      vertex -0.108253 -0.06 1.6875
      vertex -0.0957556 -0.06 1.70535
    endloop
  endfacet
  facet normal -0.906318 0 0.422597
    outer loop
      vertex -0.117462 -0.06 1.66775
      vertex -0.108253 0.44 1.6875
      vertex -0.117462 0.44 1.66775
    endloop
  endfacet
  facet normal -0.906318 0 0.422597
    outer loop
      vertex -0.108253 0.44 1.6875
      vertex -0.117462 -0.06 1.66775
      vertex -0.108253 -0.06 1.6875
    endloop
  endfacet
  facet normal -0.96591 0 0.258877
    outer loop
      vertex -0.123101 -0.06 1.64671
      vertex -0.117462 0.44 1.66775
      vertex -0.123101 0.44 1.64671
    endloop
  endfacet
  facet normal -0.96591 0 0.258877
    outer loop
      vertex -0.117462 0.44 1.66775
      vertex -0.123101 -0.06 1.64671
      vertex -0.117462 -0.06 1.66775
    endloop
  endfacet
  facet normal -0.996196 0 0.0871385
    outer loop
      vertex -0.125 -0.06 1.625
      vertex -0.123101 0.44 1.64671
      vertex -0.125 0.44 1.625
    endloop
  endfacet
  facet normal -0.996196 0 0.0871385
    outer loop
      vertex -0.123101 0.44 1.64671
      vertex -0.125 -0.06 1.625
      vertex -0.123101 -0.06 1.64671
    endloop
  endfacet
  facet normal -0.996196 0 -0.0871385
    outer loop
      vertex -0.123101 -0.06 1.60329
      vertex -0.125 0.44 1.625
      vertex -0.123101 0.44 1.60329
    endloop
  endfacet
  facet normal -0.996196 -0 -0.0871385
    outer loop
      vertex -0.125 0.44 1.625
      vertex -0.123101 -0.06 1.60329
      vertex -0.125 -0.06 1.625
    endloop
  endfacet
  facet normal -0.96591 0 -0.258877
    outer loop
      vertex -0.117462 -0.06 1.58225
      vertex -0.123101 0.44 1.60329
      vertex -0.117462 0.44 1.58225
    endloop
  endfacet
  facet normal -0.96591 -0 -0.258877
    outer loop
      vertex -0.123101 0.44 1.60329
      vertex -0.117462 -0.06 1.58225
      vertex -0.123101 -0.06 1.60329
    endloop
  endfacet
  facet normal -0.906318 0 -0.422597
    outer loop
      vertex -0.108253 -0.06 1.5625
      vertex -0.117462 0.44 1.58225
      vertex -0.108253 0.44 1.5625
    endloop
  endfacet
  facet normal -0.906318 -0 -0.422597
    outer loop
      vertex -0.117462 0.44 1.58225
      vertex -0.108253 -0.06 1.5625
      vertex -0.117462 -0.06 1.58225
    endloop
  endfacet
  facet normal -0.81918 0 -0.573536
    outer loop
      vertex -0.0957556 -0.06 1.54465
      vertex -0.108253 0.44 1.5625
      vertex -0.0957556 0.44 1.54465
    endloop
  endfacet
  facet normal -0.81918 -0 -0.573536
    outer loop
      vertex -0.108253 0.44 1.5625
      vertex -0.0957556 -0.06 1.54465
      vertex -0.108253 -0.06 1.5625
    endloop
  endfacet
  facet normal -0.707173 0 -0.70704
    outer loop
      vertex -0.0957556 -0.06 1.54465
      vertex -0.0803485 0.44 1.52924
      vertex -0.0803485 -0.06 1.52924
    endloop
  endfacet
  facet normal -0.707173 0 -0.70704
    outer loop
      vertex -0.0803485 0.44 1.52924
      vertex -0.0957556 -0.06 1.54465
      vertex -0.0957556 0.44 1.54465
    endloop
  endfacet
  facet normal -0.573341 0 -0.819317
    outer loop
      vertex -0.0803485 -0.06 1.52924
      vertex -0.0625 0.44 1.51675
      vertex -0.0625 -0.06 1.51675
    endloop
  endfacet
  facet normal -0.573341 0 -0.819317
    outer loop
      vertex -0.0625 0.44 1.51675
      vertex -0.0803485 -0.06 1.52924
      vertex -0.0803485 0.44 1.52924
    endloop
  endfacet
  facet normal -0.422678 0 -0.90628
    outer loop
      vertex -0.0625 -0.06 1.51675
      vertex -0.0427525 0.44 1.50754
      vertex -0.0427525 -0.06 1.50754
    endloop
  endfacet
  facet normal -0.422678 0 -0.90628
    outer loop
      vertex -0.0427525 0.44 1.50754
      vertex -0.0625 -0.06 1.51675
      vertex -0.0625 0.44 1.51675
    endloop
  endfacet
  facet normal -0.258845 0 -0.965919
    outer loop
      vertex -0.0427525 -0.06 1.50754
      vertex -0.021706 0.44 1.5019
      vertex -0.021706 -0.06 1.5019
    endloop
  endfacet
  facet normal -0.258845 0 -0.965919
    outer loop
      vertex -0.021706 0.44 1.5019
      vertex -0.0427525 -0.06 1.50754
      vertex -0.0427525 0.44 1.50754
    endloop
  endfacet
  facet normal -0.0872 0 -0.996191
    outer loop
      vertex -0.021706 -0.06 1.5019
      vertex 0 0.44 1.5
      vertex 0 -0.06 1.5
    endloop
  endfacet
  facet normal -0.0872 0 -0.996191
    outer loop
      vertex 0 0.44 1.5
      vertex -0.021706 -0.06 1.5019
      vertex -0.021706 0.44 1.5019
    endloop
  endfacet
  facet normal 0.0872 0 -0.996191
    outer loop
      vertex 0 -0.06 1.5
      vertex 0.021706 0.44 1.5019
      vertex 0.021706 -0.06 1.5019
    endloop
  endfacet
  facet normal 0.0872 0 -0.996191
    outer loop
      vertex 0.021706 0.44 1.5019
      vertex 0 -0.06 1.5
      vertex 0 0.44 1.5
    endloop
  endfacet
  facet normal 0.258845 0 -0.965919
    outer loop
      vertex 0.021706 -0.06 1.5019
      vertex 0.0427525 0.44 1.50754
      vertex 0.0427525 -0.06 1.50754
    endloop
  endfacet
  facet normal 0.258845 0 -0.965919
    outer loop
      vertex 0.0427525 0.44 1.50754
      vertex 0.021706 -0.06 1.5019
      vertex 0.021706 0.44 1.5019
    endloop
  endfacet
  facet normal 0.422678 0 -0.90628
    outer loop
      vertex 0.0427525 -0.06 1.50754
      vertex 0.0625 0.44 1.51675
      vertex 0.0625 -0.06 1.51675
    endloop
  endfacet
  facet normal 0.422678 0 -0.90628
    outer loop
      vertex 0.0625 0.44 1.51675
      vertex 0.0427525 -0.06 1.50754
      vertex 0.0427525 0.44 1.50754
    endloop
  endfacet
  facet normal 0.573341 0 -0.819317
    outer loop
      vertex 0.0625 -0.06 1.51675
      vertex 0.0803485 0.44 1.52924
      vertex 0.0803485 -0.06 1.52924
    endloop
  endfacet
  facet normal 0.573341 0 -0.819317
    outer loop
      vertex 0.0803485 0.44 1.52924
      vertex 0.0625 -0.06 1.51675
      vertex 0.0625 0.44 1.51675
    endloop
  endfacet
  facet normal 0.707173 0 -0.70704
    outer loop
      vertex 0.0803485 -0.06 1.52924
      vertex 0.0957556 0.44 1.54465
      vertex 0.0957556 -0.06 1.54465
    endloop
  endfacet
  facet normal 0.707173 0 -0.70704
    outer loop
      vertex 0.0957556 0.44 1.54465
      vertex 0.0803485 -0.06 1.52924
      vertex 0.0803485 0.44 1.52924
    endloop
  endfacet
  facet normal 0.81918 0 -0.573536
    outer loop
      vertex 0.108253 -0.06 1.5625
      vertex 0.0957556 0.44 1.54465
      vertex 0.108253 0.44 1.5625
    endloop
  endfacet
  facet normal 0.81918 0 -0.573536
    outer loop
      vertex 0.0957556 0.44 1.54465
      vertex 0.108253 -0.06 1.5625
      vertex 0.0957556 -0.06 1.54465
    endloop
  endfacet
  facet normal 0.906318 0 -0.422597
    outer loop
      vertex 0.117462 -0.06 1.58225
      vertex 0.108253 0.44 1.5625
      vertex 0.117462 0.44 1.58225
    endloop
  endfacet
  facet normal 0.906318 0 -0.422597
    outer loop
      vertex 0.108253 0.44 1.5625
      vertex 0.117462 -0.06 1.58225
      vertex 0.108253 -0.06 1.5625
    endloop
  endfacet
  facet normal 0.96591 0 -0.258877
    outer loop
      vertex 0.123101 -0.06 1.60329
      vertex 0.117462 0.44 1.58225
      vertex 0.123101 0.44 1.60329
    endloop
  endfacet
  facet normal 0.96591 0 -0.258877
    outer loop
      vertex 0.117462 0.44 1.58225
      vertex 0.123101 -0.06 1.60329
      vertex 0.117462 -0.06 1.58225
    endloop
  endfacet
  facet normal 0.996196 0 -0.0871385
    outer loop
      vertex 0.125 -0.06 1.625
      vertex 0.123101 0.44 1.60329
      vertex 0.125 0.44 1.625
    endloop
  endfacet
  facet normal 0.996196 0 -0.0871385
    outer loop
      vertex 0.123101 0.44 1.60329
      vertex 0.125 -0.06 1.625
      vertex 0.123101 -0.06 1.60329
    endloop
  endfacet
  facet normal 0 1 0
    outer loop
      vertex 0.021706 0.44 1.7481
      vertex -0.021706 0.44 1.7481
      vertex 0 0.44 1.75
    endloop
  endfacet
  facet normal 0 1 0
    outer loop
      vertex 0.0427525 0.44 1.74246
      vertex -0.021706 0.44 1.7481
      vertex 0.021706 0.44 1.7481
    endloop
  endfacet
  facet normal 0 1 0
    outer loop
      vertex 0.0427525 0.44 1.74246
      vertex -0.0427525 0.44 1.74246
      vertex -0.021706 0.44 1.7481
    endloop
  endfacet
  facet normal 0 1 0
    outer loop
      vertex 0.0625 0.44 1.73325
      vertex -0.0427525 0.44 1.74246
      vertex 0.0427525 0.44 1.74246
    endloop
  endfacet
  facet normal 0 1 0
    outer loop
      vertex 0.0625 0.44 1.73325
      vertex -0.0625 0.44 1.73325
      vertex -0.0427525 0.44 1.74246
    endloop
  endfacet
  facet normal 0 1 0
    outer loop
      vertex 0.0803485 0.44 1.72076
      vertex -0.0625 0.44 1.73325
      vertex 0.0625 0.44 1.73325
    endloop
  endfacet
  facet normal 0 1 0
    outer loop
      vertex 0.0803485 0.44 1.72076
      vertex -0.0803485 0.44 1.72076
      vertex -0.0625 0.44 1.73325
    endloop
  endfacet
  facet normal 0 1 0
    outer loop
      vertex 0.0957556 0.44 1.70535
      vertex -0.0803485 0.44 1.72076
      vertex 0.0803485 0.44 1.72076
    endloop
  endfacet
  facet normal 0 1 0
    outer loop
      vertex 0.0957556 0.44 1.70535
      vertex -0.0957556 0.44 1.70535
      vertex -0.0803485 0.44 1.72076
    endloop
  endfacet
  facet normal 0 1 0
    outer loop
      vertex 0.108253 0.44 1.6875
      vertex -0.0957556 0.44 1.70535
      vertex 0.0957556 0.44 1.70535
    endloop
  endfacet
  facet normal 0 1 0
    outer loop
      vertex 0.108253 0.44 1.6875
      vertex -0.108253 0.44 1.6875
      vertex -0.0957556 0.44 1.70535
    endloop
  endfacet
  facet normal 0 1 0
    outer loop
      vertex 0.117462 0.44 1.66775
      vertex -0.108253 0.44 1.6875
      vertex 0.108253 0.44 1.6875
    endloop
  endfacet
  facet normal 0 1 0
    outer loop
      vertex 0.117462 0.44 1.66775
      vertex -0.117462 0.44 1.66775
      vertex -0.108253 0.44 1.6875
    endloop
  endfacet
  facet normal 0 1 0
    outer loop
      vertex 0.123101 0.44 1.64671
      vertex -0.117462 0.44 1.66775
      vertex 0.117462 0.44 1.66775
    endloop
  endfacet
  facet normal 0 1 0
    outer loop
      vertex 0.123101 0.44 1.64671
      vertex -0.123101 0.44 1.64671
      vertex -0.117462 0.44 1.66775
    endloop
  endfacet
  facet normal 0 1 0
    outer loop
      vertex 0.125 0.44 1.625
      vertex -0.123101 0.44 1.64671
      vertex 0.123101 0.44 1.64671
    endloop
  endfacet
  facet normal 0 1 0
    outer loop
      vertex 0.125 0.44 1.625
      vertex -0.125 0.44 1.625
      vertex -0.123101 0.44 1.64671
    endloop
  endfacet
  facet normal 0 1 -0
    outer loop
      vertex 0.123101 0.44 1.60329
      vertex -0.125 0.44 1.625
      vertex 0.125 0.44 1.625
    endloop
  endfacet
  facet normal 0 1 0
    outer loop
      vertex 0.123101 0.44 1.60329
      vertex -0.123101 0.44 1.60329
      vertex -0.125 0.44 1.625
    endloop
  endfacet
  facet normal 0 1 -0
    outer loop
      vertex 0.117462 0.44 1.58225
      vertex -0.123101 0.44 1.60329
      vertex 0.123101 0.44 1.60329
    endloop
  endfacet
  facet normal 0 1 0
    outer loop
      vertex 0.117462 0.44 1.58225
      vertex -0.117462 0.44 1.58225
      vertex -0.123101 0.44 1.60329
    endloop
  endfacet
  facet normal 0 1 -0
    outer loop
      vertex 0.108253 0.44 1.5625
      vertex -0.117462 0.44 1.58225
      vertex 0.117462 0.44 1.58225
    endloop
  endfacet
  facet normal 0 1 0
    outer loop
      vertex 0.108253 0.44 1.5625
      vertex -0.108253 0.44 1.5625
      vertex -0.117462 0.44 1.58225
    endloop
  endfacet
  facet normal 0 1 -0
    outer loop
      vertex 0.0957556 0.44 1.54465
      vertex -0.108253 0.44 1.5625
      vertex 0.108253 0.44 1.5625
    endloop
  endfacet
  facet normal 0 1 0
    outer loop
      vertex 0.0957556 0.44 1.54465
      vertex -0.0957556 0.44 1.54465
      vertex -0.108253 0.44 1.5625
    endloop
  endfacet
  facet normal 0 1 -0
    outer loop
      vertex 0.0803485 0.44 1.52924
      vertex -0.0957556 0.44 1.54465
      vertex 0.0957556 0.44 1.54465
    endloop
  endfacet
  facet normal 0 1 0
    outer loop
      vertex 0.0803485 0.44 1.52924
      vertex -0.0803485 0.44 1.52924
      vertex -0.0957556 0.44 1.54465
    endloop
  endfacet
  facet normal 0 1 -0
    outer loop
      vertex 0.0625 0.44 1.51675
      vertex -0.0803485 0.44 1.52924
      vertex 0.0803485 0.44 1.52924
    endloop
  endfacet
  facet normal 0 1 0
    outer loop
      vertex 0.0625 0.44 1.51675
      vertex -0.0625 0.44 1.51675
      vertex -0.0803485 0.44 1.52924
    endloop
  endfacet
  facet normal 0 1 -0
    outer loop
      vertex 0.0427525 0.44 1.50754
      vertex -0.0625 0.44 1.51675
      vertex 0.0625 0.44 1.51675
    endloop
  endfacet
  facet normal 0 1 0
    outer loop
      vertex 0.0427525 0.44 1.50754
      vertex -0.0427525 0.44 1.50754
      vertex -0.0625 0.44 1.51675
    endloop
  endfacet
  facet normal 0 1 -0
    outer loop
      vertex 0.021706 0.44 1.5019
      vertex -0.0427525 0.44 1.50754
      vertex 0.0427525 0.44 1.50754
    endloop
  endfacet
  facet normal 0 1 0
    outer loop
      vertex 0.021706 0.44 1.5019
      vertex -0.021706 0.44 1.5019
      vertex -0.0427525 0.44 1.50754
    endloop
  endfacet
  facet normal -0 1 0
    outer loop
      vertex -0.021706 0.44 1.5019
      vertex 0.021706 0.44 1.5019
      vertex 0 0.44 1.5
    endloop
  endfacet
  facet normal 0 -1 0
    outer loop
      vertex -0.021706 -0.06 1.7481
      vertex 0.021706 -0.06 1.7481
      vertex 0 -0.06 1.75
    endloop
  endfacet
  facet normal 0 -1 0
    outer loop
      vertex -0.0427525 -0.06 1.74246
      vertex 0.021706 -0.06 1.7481
      vertex -0.021706 -0.06 1.7481
    endloop
  endfacet
  facet normal 0 -1 0
    outer loop
      vertex -0.0427525 -0.06 1.74246
      vertex 0.0427525 -0.06 1.74246
      vertex 0.021706 -0.06 1.7481
    endloop
  endfacet
  facet normal 0 -1 0
    outer loop
      vertex -0.0625 -0.06 1.73325
      vertex 0.0427525 -0.06 1.74246
      vertex -0.0427525 -0.06 1.74246
    endloop
  endfacet
  facet normal 0 -1 0
    outer loop
      vertex -0.0625 -0.06 1.73325
      vertex 0.0625 -0.06 1.73325
      vertex 0.0427525 -0.06 1.74246
    endloop
  endfacet
  facet normal 0 -1 0
    outer loop
      vertex -0.0803485 -0.06 1.72076
      vertex 0.0625 -0.06 1.73325
      vertex -0.0625 -0.06 1.73325
    endloop
  endfacet
  facet normal 0 -1 0
    outer loop
      vertex -0.0803485 -0.06 1.72076
      vertex 0.0803485 -0.06 1.72076
      vertex 0.0625 -0.06 1.73325
    endloop
  endfacet
  facet normal 0 -1 0
    outer loop
      vertex -0.0957556 -0.06 1.70535
      vertex 0.0803485 -0.06 1.72076
      vertex -0.0803485 -0.06 1.72076
    endloop
  endfacet
  facet normal 0 -1 0
    outer loop
      vertex -0.0957556 -0.06 1.70535
      vertex 0.0957556 -0.06 1.70535
      vertex 0.0803485 -0.06 1.72076
    endloop
  endfacet
  facet normal 0 -1 0
    outer loop
      vertex -0.108253 -0.06 1.6875
      vertex 0.0957556 -0.06 1.70535
      vertex -0.0957556 -0.06 1.70535
    endloop
  endfacet
  facet normal 0 -1 0
    outer loop
      vertex -0.108253 -0.06 1.6875
      vertex 0.108253 -0.06 1.6875
      vertex 0.0957556 -0.06 1.70535
    endloop
  endfacet
  facet normal 0 -1 0
    outer loop
      vertex -0.117462 -0.06 1.66775
      vertex 0.108253 -0.06 1.6875
      vertex -0.108253 -0.06 1.6875
    endloop
  endfacet
  facet normal 0 -1 0
    outer loop
      vertex -0.117462 -0.06 1.66775
      vertex 0.117462 -0.06 1.66775
      vertex 0.108253 -0.06 1.6875
    endloop
  endfacet
  facet normal 0 -1 0
    outer loop
      vertex -0.123101 -0.06 1.64671
      vertex 0.117462 -0.06 1.66775
      vertex -0.117462 -0.06 1.66775
    endloop
  endfacet
  facet normal 0 -1 0
    outer loop
      vertex -0.123101 -0.06 1.64671
      vertex 0.123101 -0.06 1.64671
      vertex 0.117462 -0.06 1.66775
    endloop
  endfacet
  facet normal 0 -1 0
    outer loop
      vertex -0.125 -0.06 1.625
      vertex 0.123101 -0.06 1.64671
      vertex -0.123101 -0.06 1.64671
    endloop
  endfacet
  facet normal 0 -1 0
    outer loop
      vertex -0.125 -0.06 1.625
      vertex 0.125 -0.06 1.625
      vertex 0.123101 -0.06 1.64671
    endloop
  endfacet
  facet normal 0 -1 0
    outer loop
      vertex -0.123101 -0.06 1.60329
      vertex 0.125 -0.06 1.625
      vertex -0.125 -0.06 1.625
    endloop
  endfacet
  facet normal 0 -1 0
    outer loop
      vertex -0.123101 -0.06 1.60329
      vertex 0.123101 -0.06 1.60329
      vertex 0.125 -0.06 1.625
    endloop
  endfacet
  facet normal 0 -1 0
    outer loop
      vertex -0.117462 -0.06 1.58225
      vertex 0.123101 -0.06 1.60329
      vertex -0.123101 -0.06 1.60329
    endloop
  endfacet
  facet normal 0 -1 0
    outer loop
      vertex -0.117462 -0.06 1.58225
      vertex 0.117462 -0.06 1.58225
      vertex 0.123101 -0.06 1.60329
    endloop
  endfacet
  facet normal 0 -1 0
    outer loop
      vertex -0.108253 -0.06 1.5625
      vertex 0.117462 -0.06 1.58225
      vertex -0.117462 -0.06 1.58225
    endloop
  endfacet
  facet normal 0 -1 0
    outer loop
      vertex -0.108253 -0.06 1.5625
      vertex 0.108253 -0.06 1.5625
      vertex 0.117462 -0.06 1.58225
    endloop
  endfacet
  facet normal 0 -1 0
    outer loop
      vertex -0.0957556 -0.06 1.54465
      vertex 0.108253 -0.06 1.5625
      vertex -0.108253 -0.06 1.5625
    endloop
  endfacet
  facet normal 0 -1 0
    outer loop
      vertex -0.0957556 -0.06 1.54465
      vertex 0.0957556 -0.06 1.54465
      vertex 0.108253 -0.06 1.5625
    endloop
  endfacet
  facet normal 0 -1 0
    outer loop
      vertex -0.0803485 -0.06 1.52924
      vertex 0.0957556 -0.06 1.54465
      vertex -0.0957556 -0.06 1.54465
    endloop
  endfacet
  facet normal 0 -1 0
    outer loop
      vertex -0.0803485 -0.06 1.52924
      vertex 0.0803485 -0.06 1.52924
      vertex 0.0957556 -0.06 1.54465
    endloop
  endfacet
  facet normal 0 -1 0
    outer loop
      vertex -0.0625 -0.06 1.51675
      vertex 0.0803485 -0.06 1.52924
      vertex -0.0803485 -0.06 1.52924
    endloop
  endfacet
  facet normal 0 -1 0
    outer loop
      vertex -0.0625 -0.06 1.51675
      vertex 0.0625 -0.06 1.51675
      vertex 0.0803485 -0.06 1.52924
    endloop
  endfacet
  facet normal 0 -1 0
    outer loop
      vertex -0.0427525 -0.06 1.50754
      vertex 0.0625 -0.06 1.51675
      vertex -0.0625 -0.06 1.51675
    endloop
  endfacet
  facet normal 0 -1 0
    outer loop
      vertex -0.0427525 -0.06 1.50754
      vertex 0.0427525 -0.06 1.50754
      vertex 0.0625 -0.06 1.51675
    endloop
  endfacet
  facet normal 0 -1 0
    outer loop
      vertex -0.021706 -0.06 1.5019
      vertex 0.0427525 -0.06 1.50754
      vertex -0.0427525 -0.06 1.50754
    endloop
  endfacet
  facet normal 0 -1 0
    outer loop
      vertex -0.021706 -0.06 1.5019
      vertex 0.021706 -0.06 1.5019
      vertex 0.0427525 -0.06 1.50754
    endloop
  endfacet
  facet normal -0 -1 0
    outer loop
      vertex 0.021706 -0.06 1.5019
      vertex -0.021706 -0.06 1.5019
      vertex 0 -0.06 1.5
    endloop
  endfacet
endsolid OpenSCAD_Model
