solid OpenSCAD_Model
  facet normal 0.47827 0.828286 0.29189
    outer loop
      vertex 0.151736 -0.200152 1.79
      vertex 0.151405 -0.202033 1.79588
      vertex 0.156197 -0.2048 1.79588
    endloop
  endfacet
  facet normal -0.766036 0.642798 0
    outer loop
      vertex -0.159397 -0.20658 1.79
      vertex -0.155 -0.20134 0.01
      vertex -0.159397 -0.20658 0.01
    endloop
  endfacet
  facet normal 0.574506 0.209142 0.79133
    outer loop
      vertex 0.15809 -0.21 1.79588
      vertex 0.156197 -0.2048 1.79588
      vertex 0.15309 -0.21 1.79951
    endloop
  endfacet
  facet normal -0.468565 0.393179 -0.791111
    outer loop
      vertex -0.151545 -0.207324 0.000489435
      vertex -0.157602 -0.207233 0.00412215
      vertex -0.154045 -0.202994 0.00412215
    endloop
  endfacet
  facet normal -0.732665 -0.614796 0.291938
    outer loop
      vertex -0.155 -0.39866 1.79
      vertex -0.157602 -0.392767 1.79588
      vertex -0.159397 -0.39342 1.79
    endloop
  endfacet
  facet normal 0 0 1
    outer loop
      vertex 0.152367 -0.208014 1.79951
      vertex -0.151545 -0.207324 1.79951
      vertex 0.15309 -0.21 1.79951
    endloop
  endfacet
  facet normal 0.89871 0.32716 -0.29204
    outer loop
      vertex 0.156197 -0.2048 0.00412215
      vertex 0.15766 -0.203572 0.01
      vertex 0.16 -0.21 0.01
    endloop
  endfacet
  facet normal 0.305728 0.529473 0.791321
    outer loop
      vertex 0.156197 -0.2048 1.79588
      vertex 0.151405 -0.202033 1.79588
      vertex 0.150537 -0.206957 1.79951
    endloop
  endfacet
  facet normal 0.89871 0.327165 -0.292035
    outer loop
      vertex 0.16 -0.21 0.01
      vertex 0.15809 -0.21 0.00412215
      vertex 0.156197 -0.2048 0.00412215
    endloop
  endfacet
  facet normal 0.898738 0.327175 0.291937
    outer loop
      vertex 0.16 -0.21 1.79
      vertex 0.156197 -0.2048 1.79588
      vertex 0.15809 -0.21 1.79588
    endloop
  endfacet
  facet normal 0.587498 -0 0.809226
    outer loop
      vertex 0.15309 -0.39 1.79951
      vertex 0.15809 -0.39 1.79588
      vertex 0.15309 -0.21 1.79951
    endloop
  endfacet
  facet normal 0.305872 -0.52972 -0.7911
    outer loop
      vertex 0.151405 -0.397967 0.00412215
      vertex 0.150537 -0.393043 0.000489435
      vertex 0.156197 -0.3952 0.00412215
    endloop
  endfacet
  facet normal 0 -1 -0
    outer loop
      vertex 0.151736 -0.399848 1.79
      vertex -0.148264 -0.399848 0.01
      vertex 0.151736 -0.399848 0.01
    endloop
  endfacet
  facet normal -0.73267 -0.614793 0.291933
    outer loop
      vertex -0.155 -0.39866 1.79
      vertex -0.154045 -0.397006 1.79588
      vertex -0.157602 -0.392767 1.79588
    endloop
  endfacet
  facet normal -0 0.952452 0.304688
    outer loop
      vertex -0.148264 -0.200152 1.79
      vertex -0.148595 -0.202033 1.79588
      vertex 0.151736 -0.200152 1.79
    endloop
  endfacet
  facet normal 0.478176 0.82828 -0.292062
    outer loop
      vertex 0.151736 -0.200152 0.01
      vertex 0.15766 -0.203572 0.01
      vertex 0.156197 -0.2048 0.00412215
    endloop
  endfacet
  facet normal 0.305777 -0.529397 0.791353
    outer loop
      vertex 0.150537 -0.393043 1.79951
      vertex 0.156197 -0.3952 1.79588
      vertex 0.152367 -0.391986 1.79951
    endloop
  endfacet
  facet normal -1 -0 0
    outer loop
      vertex -0.159397 -0.20658 1.79
      vertex -0.159397 -0.39342 0.01
      vertex -0.159397 -0.39342 1.79
    endloop
  endfacet
  facet normal 0.478255 0.828261 -0.291988
    outer loop
      vertex 0.156197 -0.2048 0.00412215
      vertex 0.151405 -0.202033 0.00412215
      vertex 0.151736 -0.200152 0.01
    endloop
  endfacet
  facet normal 0.499976 0.86604 0
    outer loop
      vertex 0.151736 -0.200152 1.79
      vertex 0.15766 -0.203572 1.79
      vertex 0.151736 -0.200152 0.01
    endloop
  endfacet
  facet normal -1 0 0
    outer loop
      vertex -0.159397 -0.20658 0.01
      vertex -0.159397 -0.39342 0.01
      vertex -0.159397 -0.20658 1.79
    endloop
  endfacet
  facet normal 0.951082 -0 0.30894
    outer loop
      vertex 0.15809 -0.39 1.79588
      vertex 0.16 -0.39 1.79
      vertex 0.15809 -0.21 1.79588
    endloop
  endfacet
  facet normal 0.305777 0.529397 0.791353
    outer loop
      vertex 0.152367 -0.208014 1.79951
      vertex 0.156197 -0.2048 1.79588
      vertex 0.150537 -0.206957 1.79951
    endloop
  endfacet
  facet normal 0.574501 0.209146 0.791332
    outer loop
      vertex 0.15309 -0.21 1.79951
      vertex 0.156197 -0.2048 1.79588
      vertex 0.152367 -0.208014 1.79951
    endloop
  endfacet
  facet normal -0.611419 0 0.791307
    outer loop
      vertex -0.157602 -0.392767 1.79588
      vertex -0.152904 -0.208943 1.79951
      vertex -0.157602 -0.207233 1.79588
    endloop
  endfacet
  facet normal 0 0.593389 0.804916
    outer loop
      vertex 0.151405 -0.202033 1.79588
      vertex -0.148595 -0.202033 1.79588
      vertex 0.150537 -0.206957 1.79951
    endloop
  endfacet
  facet normal 0.499976 0.86604 0
    outer loop
      vertex 0.151736 -0.200152 0.01
      vertex 0.15766 -0.203572 1.79
      vertex 0.15766 -0.203572 0.01
    endloop
  endfacet
  facet normal 0.574774 0.20924 -0.791109
    outer loop
      vertex 0.156197 -0.2048 0.00412215
      vertex 0.15809 -0.21 0.00412215
      vertex 0.15309 -0.21 0.000489435
    endloop
  endfacet
  facet normal 0.951082 0 0.30894
    outer loop
      vertex 0.15809 -0.21 1.79588
      vertex 0.16 -0.39 1.79
      vertex 0.16 -0.21 1.79
    endloop
  endfacet
  facet normal -0.166082 0.94188 -0.292025
    outer loop
      vertex -0.154045 -0.202994 0.00412215
      vertex -0.155 -0.20134 0.01
      vertex -0.148595 -0.202033 0.00412215
    endloop
  endfacet
  facet normal -0.173685 -0.984801 0
    outer loop
      vertex -0.155 -0.39866 1.79
      vertex -0.148264 -0.399848 0.01
      vertex -0.148264 -0.399848 1.79
    endloop
  endfacet
  facet normal -0.106219 0.602384 -0.791108
    outer loop
      vertex -0.151545 -0.207324 0.000489435
      vertex -0.154045 -0.202994 0.00412215
      vertex -0.148595 -0.202033 0.00412215
    endloop
  endfacet
  facet normal -0.611419 0 0.791307
    outer loop
      vertex -0.152904 -0.391057 1.79951
      vertex -0.152904 -0.208943 1.79951
      vertex -0.157602 -0.392767 1.79588
    endloop
  endfacet
  facet normal -0.166118 -0.941894 0.291959
    outer loop
      vertex -0.148264 -0.399848 1.79
      vertex -0.148595 -0.397967 1.79588
      vertex -0.155 -0.39866 1.79
    endloop
  endfacet
  facet normal 0 1 0
    outer loop
      vertex -0.148264 -0.200152 0.01
      vertex -0.148264 -0.200152 1.79
      vertex 0.151736 -0.200152 0.01
    endloop
  endfacet
  facet normal 0 0 1
    outer loop
      vertex -0.152904 -0.391057 1.79951
      vertex -0.151545 -0.207324 1.79951
      vertex -0.152904 -0.208943 1.79951
    endloop
  endfacet
  facet normal 0 -0.95242 -0.304789
    outer loop
      vertex -0.148264 -0.399848 0.01
      vertex -0.148595 -0.397967 0.00412215
      vertex 0.151736 -0.399848 0.01
    endloop
  endfacet
  facet normal 1 -0 0
    outer loop
      vertex 0.16 -0.39 1.79
      vertex 0.16 -0.39 0.01
      vertex 0.16 -0.21 1.79
    endloop
  endfacet
  facet normal 0.939674 0.342072 -0
    outer loop
      vertex 0.16 -0.21 0.01
      vertex 0.15766 -0.203572 1.79
      vertex 0.16 -0.21 1.79
    endloop
  endfacet
  facet normal 0.939674 0.342072 -0
    outer loop
      vertex 0.15766 -0.203572 0.01
      vertex 0.15766 -0.203572 1.79
      vertex 0.16 -0.21 0.01
    endloop
  endfacet
  facet normal 0.939674 -0.342072 0
    outer loop
      vertex 0.15766 -0.396428 0.01
      vertex 0.16 -0.39 0.01
      vertex 0.15766 -0.396428 1.79
    endloop
  endfacet
  facet normal 0 -0 -1
    outer loop
      vertex -0.151545 -0.207324 0.000489435
      vertex 0.150537 -0.393043 0.000489435
      vertex -0.152904 -0.208943 0.000489435
    endloop
  endfacet
  facet normal -0.166087 0.94191 0.291927
    outer loop
      vertex -0.155 -0.20134 1.79
      vertex -0.154045 -0.202994 1.79588
      vertex -0.148595 -0.202033 1.79588
    endloop
  endfacet
  facet normal -0.173685 -0.984801 0
    outer loop
      vertex -0.155 -0.39866 0.01
      vertex -0.148264 -0.399848 0.01
      vertex -0.155 -0.39866 1.79
    endloop
  endfacet
  facet normal 0.587786 0 -0.809017
    outer loop
      vertex 0.15809 -0.39 0.00412215
      vertex 0.15309 -0.39 0.000489435
      vertex 0.15809 -0.21 0.00412215
    endloop
  endfacet
  facet normal 0.939674 -0.342072 0
    outer loop
      vertex 0.15766 -0.396428 1.79
      vertex 0.16 -0.39 0.01
      vertex 0.16 -0.39 1.79
    endloop
  endfacet
  facet normal 0.574501 -0.209146 0.791332
    outer loop
      vertex 0.152367 -0.391986 1.79951
      vertex 0.156197 -0.3952 1.79588
      vertex 0.15309 -0.39 1.79951
    endloop
  endfacet
  facet normal -0.766036 -0.642798 0
    outer loop
      vertex -0.159397 -0.39342 0.01
      vertex -0.155 -0.39866 1.79
      vertex -0.159397 -0.39342 1.79
    endloop
  endfacet
  facet normal -0.106132 -0.602091 0.791342
    outer loop
      vertex -0.148595 -0.397967 1.79588
      vertex -0.149463 -0.393043 1.79951
      vertex -0.151545 -0.392676 1.79951
    endloop
  endfacet
  facet normal 0 -0.593389 0.804916
    outer loop
      vertex -0.149463 -0.393043 1.79951
      vertex 0.151405 -0.397967 1.79588
      vertex 0.150537 -0.393043 1.79951
    endloop
  endfacet
  facet normal -0.173685 0.984801 0
    outer loop
      vertex -0.148264 -0.200152 0.01
      vertex -0.155 -0.20134 0.01
      vertex -0.148264 -0.200152 1.79
    endloop
  endfacet
  facet normal -0.173685 0.984801 0
    outer loop
      vertex -0.148264 -0.200152 1.79
      vertex -0.155 -0.20134 0.01
      vertex -0.155 -0.20134 1.79
    endloop
  endfacet
  facet normal 0 0.952452 0.304688
    outer loop
      vertex 0.151736 -0.200152 1.79
      vertex -0.148595 -0.202033 1.79588
      vertex 0.151405 -0.202033 1.79588
    endloop
  endfacet
  facet normal -0.73267 0.614793 0.291933
    outer loop
      vertex -0.157602 -0.207233 1.79588
      vertex -0.154045 -0.202994 1.79588
      vertex -0.155 -0.20134 1.79
    endloop
  endfacet
  facet normal -0.166118 0.941894 0.291959
    outer loop
      vertex -0.155 -0.20134 1.79
      vertex -0.148595 -0.202033 1.79588
      vertex -0.148264 -0.200152 1.79
    endloop
  endfacet
  facet normal 0 1 -0
    outer loop
      vertex 0.151736 -0.200152 0.01
      vertex -0.148264 -0.200152 1.79
      vertex 0.151736 -0.200152 1.79
    endloop
  endfacet
  facet normal 0.305921 -0.529645 -0.791131
    outer loop
      vertex 0.156197 -0.3952 0.00412215
      vertex 0.150537 -0.393043 0.000489435
      vertex 0.152367 -0.391986 0.000489435
    endloop
  endfacet
  facet normal 0 0.593676 -0.804704
    outer loop
      vertex 0.151405 -0.202033 0.00412215
      vertex -0.149463 -0.206957 0.000489435
      vertex -0.148595 -0.202033 0.00412215
    endloop
  endfacet
  facet normal 0.305921 0.529645 -0.791131
    outer loop
      vertex 0.156197 -0.2048 0.00412215
      vertex 0.152367 -0.208014 0.000489435
      vertex 0.150537 -0.206957 0.000489435
    endloop
  endfacet
  facet normal 0.57477 0.209244 -0.791111
    outer loop
      vertex 0.15309 -0.21 0.000489435
      vertex 0.152367 -0.208014 0.000489435
      vertex 0.156197 -0.2048 0.00412215
    endloop
  endfacet
  facet normal 0.478191 0.828305 0.291965
    outer loop
      vertex 0.156197 -0.2048 1.79588
      vertex 0.15766 -0.203572 1.79
      vertex 0.151736 -0.200152 1.79
    endloop
  endfacet
  facet normal 0.898738 0.32717 0.291942
    outer loop
      vertex 0.16 -0.21 1.79
      vertex 0.15766 -0.203572 1.79
      vertex 0.156197 -0.2048 1.79588
    endloop
  endfacet
  facet normal -0.106182 0.602373 -0.791121
    outer loop
      vertex -0.148595 -0.202033 0.00412215
      vertex -0.149463 -0.206957 0.000489435
      vertex -0.151545 -0.207324 0.000489435
    endloop
  endfacet
  facet normal 0 0.593676 -0.804704
    outer loop
      vertex 0.150537 -0.206957 0.000489435
      vertex -0.149463 -0.206957 0.000489435
      vertex 0.151405 -0.202033 0.00412215
    endloop
  endfacet
  facet normal 0.89871 -0.32716 -0.29204
    outer loop
      vertex 0.156197 -0.3952 0.00412215
      vertex 0.16 -0.39 0.01
      vertex 0.15766 -0.396428 0.01
    endloop
  endfacet
  facet normal 0.587498 0 0.809226
    outer loop
      vertex 0.15309 -0.21 1.79951
      vertex 0.15809 -0.39 1.79588
      vertex 0.15809 -0.21 1.79588
    endloop
  endfacet
  facet normal -0.106132 0.602091 0.791342
    outer loop
      vertex -0.148595 -0.202033 1.79588
      vertex -0.151545 -0.207324 1.79951
      vertex -0.149463 -0.206957 1.79951
    endloop
  endfacet
  facet normal 0 -0.952452 0.304688
    outer loop
      vertex 0.151736 -0.399848 1.79
      vertex 0.151405 -0.397967 1.79588
      vertex -0.148264 -0.399848 1.79
    endloop
  endfacet
  facet normal -0.468565 -0.393179 -0.791111
    outer loop
      vertex -0.151545 -0.392676 0.000489435
      vertex -0.154045 -0.397006 0.00412215
      vertex -0.157602 -0.392767 0.00412215
    endloop
  endfacet
  facet normal -0.766036 -0.642798 0
    outer loop
      vertex -0.155 -0.39866 0.01
      vertex -0.155 -0.39866 1.79
      vertex -0.159397 -0.39342 0.01
    endloop
  endfacet
  facet normal 0.898738 -0.32717 0.291942
    outer loop
      vertex 0.16 -0.39 1.79
      vertex 0.156197 -0.3952 1.79588
      vertex 0.15766 -0.396428 1.79
    endloop
  endfacet
  facet normal 0.499976 -0.86604 0
    outer loop
      vertex 0.151736 -0.399848 0.01
      vertex 0.15766 -0.396428 0.01
      vertex 0.151736 -0.399848 1.79
    endloop
  endfacet
  facet normal -0.166082 -0.94188 -0.292025
    outer loop
      vertex -0.154045 -0.397006 0.00412215
      vertex -0.148595 -0.397967 0.00412215
      vertex -0.155 -0.39866 0.01
    endloop
  endfacet
  facet normal 0.587786 0 -0.809017
    outer loop
      vertex 0.15809 -0.21 0.00412215
      vertex 0.15309 -0.39 0.000489435
      vertex 0.15309 -0.21 0.000489435
    endloop
  endfacet
  facet normal 0.47827 -0.828286 0.29189
    outer loop
      vertex 0.156197 -0.3952 1.79588
      vertex 0.151405 -0.397967 1.79588
      vertex 0.151736 -0.399848 1.79
    endloop
  endfacet
  facet normal -0.46832 -0.393111 0.791291
    outer loop
      vertex -0.152904 -0.391057 1.79951
      vertex -0.157602 -0.392767 1.79588
      vertex -0.151545 -0.392676 1.79951
    endloop
  endfacet
  facet normal -0.766036 0.642798 0
    outer loop
      vertex -0.155 -0.20134 1.79
      vertex -0.155 -0.20134 0.01
      vertex -0.159397 -0.20658 1.79
    endloop
  endfacet
  facet normal 0.305872 0.52972 -0.7911
    outer loop
      vertex 0.150537 -0.206957 0.000489435
      vertex 0.151405 -0.202033 0.00412215
      vertex 0.156197 -0.2048 0.00412215
    endloop
  endfacet
  facet normal -0.468539 -0.393295 -0.791069
    outer loop
      vertex -0.157602 -0.392767 0.00412215
      vertex -0.152904 -0.391057 0.000489435
      vertex -0.151545 -0.392676 0.000489435
    endloop
  endfacet
  facet normal -0.166113 0.941865 -0.292057
    outer loop
      vertex -0.148595 -0.202033 0.00412215
      vertex -0.155 -0.20134 0.01
      vertex -0.148264 -0.200152 0.01
    endloop
  endfacet
  facet normal -0.732665 0.614796 0.291938
    outer loop
      vertex -0.159397 -0.20658 1.79
      vertex -0.157602 -0.207233 1.79588
      vertex -0.155 -0.20134 1.79
    endloop
  endfacet
  facet normal -0.468346 -0.392995 0.791332
    outer loop
      vertex -0.157602 -0.392767 1.79588
      vertex -0.154045 -0.397006 1.79588
      vertex -0.151545 -0.392676 1.79951
    endloop
  endfacet
  facet normal 0.305728 -0.529473 0.791321
    outer loop
      vertex 0.150537 -0.393043 1.79951
      vertex 0.151405 -0.397967 1.79588
      vertex 0.156197 -0.3952 1.79588
    endloop
  endfacet
  facet normal 0 -0 1
    outer loop
      vertex -0.151545 -0.392676 1.79951
      vertex -0.151545 -0.207324 1.79951
      vertex -0.152904 -0.391057 1.79951
    endloop
  endfacet
  facet normal 0.478191 -0.828305 0.291965
    outer loop
      vertex 0.15766 -0.396428 1.79
      vertex 0.156197 -0.3952 1.79588
      vertex 0.151736 -0.399848 1.79
    endloop
  endfacet
  facet normal -0.468346 0.392995 0.791332
    outer loop
      vertex -0.157602 -0.207233 1.79588
      vertex -0.151545 -0.207324 1.79951
      vertex -0.154045 -0.202994 1.79588
    endloop
  endfacet
  facet normal -0.732642 -0.614777 -0.292036
    outer loop
      vertex -0.159397 -0.39342 0.01
      vertex -0.157602 -0.392767 0.00412215
      vertex -0.155 -0.39866 0.01
    endloop
  endfacet
  facet normal -0.611705 -0 -0.791086
    outer loop
      vertex -0.157602 -0.207233 0.00412215
      vertex -0.152904 -0.391057 0.000489435
      vertex -0.157602 -0.392767 0.00412215
    endloop
  endfacet
  facet normal 0.898738 -0.327175 0.291937
    outer loop
      vertex 0.15809 -0.39 1.79588
      vertex 0.156197 -0.3952 1.79588
      vertex 0.16 -0.39 1.79
    endloop
  endfacet
  facet normal 0.574506 -0.209142 0.79133
    outer loop
      vertex 0.15309 -0.39 1.79951
      vertex 0.156197 -0.3952 1.79588
      vertex 0.15809 -0.39 1.79588
    endloop
  endfacet
  facet normal 0 0.95242 -0.304789
    outer loop
      vertex -0.148264 -0.200152 0.01
      vertex 0.151405 -0.202033 0.00412215
      vertex -0.148595 -0.202033 0.00412215
    endloop
  endfacet
  facet normal 0 0.95242 -0.304789
    outer loop
      vertex 0.151736 -0.200152 0.01
      vertex 0.151405 -0.202033 0.00412215
      vertex -0.148264 -0.200152 0.01
    endloop
  endfacet
  facet normal 0.574774 -0.20924 -0.791109
    outer loop
      vertex 0.156197 -0.3952 0.00412215
      vertex 0.15309 -0.39 0.000489435
      vertex 0.15809 -0.39 0.00412215
    endloop
  endfacet
  facet normal 0 -0.593676 -0.804704
    outer loop
      vertex -0.149463 -0.393043 0.000489435
      vertex 0.150537 -0.393043 0.000489435
      vertex -0.148595 -0.397967 0.00412215
    endloop
  endfacet
  facet normal -0.956427 0 0.291971
    outer loop
      vertex -0.159397 -0.20658 1.79
      vertex -0.157602 -0.392767 1.79588
      vertex -0.157602 -0.207233 1.79588
    endloop
  endfacet
  facet normal -0.956427 0 0.291971
    outer loop
      vertex -0.159397 -0.39342 1.79
      vertex -0.157602 -0.392767 1.79588
      vertex -0.159397 -0.20658 1.79
    endloop
  endfacet
  facet normal 0 0 1
    outer loop
      vertex 0.152367 -0.391986 1.79951
      vertex -0.151545 -0.207324 1.79951
      vertex 0.150537 -0.393043 1.79951
    endloop
  endfacet
  facet normal 0 0.593389 0.804916
    outer loop
      vertex 0.150537 -0.206957 1.79951
      vertex -0.148595 -0.202033 1.79588
      vertex -0.149463 -0.206957 1.79951
    endloop
  endfacet
  facet normal -0.106169 0.602102 0.791329
    outer loop
      vertex -0.154045 -0.202994 1.79588
      vertex -0.151545 -0.207324 1.79951
      vertex -0.148595 -0.202033 1.79588
    endloop
  endfacet
  facet normal -0.46832 0.393111 0.791291
    outer loop
      vertex -0.152904 -0.208943 1.79951
      vertex -0.151545 -0.207324 1.79951
      vertex -0.157602 -0.207233 1.79588
    endloop
  endfacet
  facet normal 0.89871 -0.327165 -0.292035
    outer loop
      vertex 0.15809 -0.39 0.00412215
      vertex 0.16 -0.39 0.01
      vertex 0.156197 -0.3952 0.00412215
    endloop
  endfacet
  facet normal -0.468539 0.393295 -0.791069
    outer loop
      vertex -0.151545 -0.207324 0.000489435
      vertex -0.152904 -0.208943 0.000489435
      vertex -0.157602 -0.207233 0.00412215
    endloop
  endfacet
  facet normal 0 0 -1
    outer loop
      vertex -0.151545 -0.392676 0.000489435
      vertex 0.150537 -0.393043 0.000489435
      vertex -0.149463 -0.393043 0.000489435
    endloop
  endfacet
  facet normal 0.499976 -0.86604 0
    outer loop
      vertex 0.151736 -0.399848 1.79
      vertex 0.15766 -0.396428 0.01
      vertex 0.15766 -0.396428 1.79
    endloop
  endfacet
  facet normal 0.478176 -0.82828 -0.292062
    outer loop
      vertex 0.156197 -0.3952 0.00412215
      vertex 0.15766 -0.396428 0.01
      vertex 0.151736 -0.399848 0.01
    endloop
  endfacet
  facet normal 0.951048 0 -0.309042
    outer loop
      vertex 0.15809 -0.21 0.00412215
      vertex 0.16 -0.39 0.01
      vertex 0.15809 -0.39 0.00412215
    endloop
  endfacet
  facet normal 0 -0.952452 0.304688
    outer loop
      vertex -0.148264 -0.399848 1.79
      vertex 0.151405 -0.397967 1.79588
      vertex -0.148595 -0.397967 1.79588
    endloop
  endfacet
  facet normal 0 -0.593389 0.804916
    outer loop
      vertex -0.148595 -0.397967 1.79588
      vertex 0.151405 -0.397967 1.79588
      vertex -0.149463 -0.393043 1.79951
    endloop
  endfacet
  facet normal 0 0 1
    outer loop
      vertex 0.150537 -0.393043 1.79951
      vertex -0.151545 -0.207324 1.79951
      vertex -0.149463 -0.393043 1.79951
    endloop
  endfacet
  facet normal 0 0 1
    outer loop
      vertex -0.149463 -0.393043 1.79951
      vertex -0.151545 -0.207324 1.79951
      vertex -0.151545 -0.392676 1.79951
    endloop
  endfacet
  facet normal -0.956397 0 -0.292068
    outer loop
      vertex -0.159397 -0.39342 0.01
      vertex -0.157602 -0.207233 0.00412215
      vertex -0.157602 -0.392767 0.00412215
    endloop
  endfacet
  facet normal -0.956397 -0 -0.292068
    outer loop
      vertex -0.159397 -0.20658 0.01
      vertex -0.157602 -0.207233 0.00412215
      vertex -0.159397 -0.39342 0.01
    endloop
  endfacet
  facet normal 0 -1 0
    outer loop
      vertex -0.148264 -0.399848 1.79
      vertex -0.148264 -0.399848 0.01
      vertex 0.151736 -0.399848 1.79
    endloop
  endfacet
  facet normal -0.732647 -0.614774 -0.292031
    outer loop
      vertex -0.157602 -0.392767 0.00412215
      vertex -0.154045 -0.397006 0.00412215
      vertex -0.155 -0.39866 0.01
    endloop
  endfacet
  facet normal -0.732647 0.614774 -0.292031
    outer loop
      vertex -0.157602 -0.207233 0.00412215
      vertex -0.155 -0.20134 0.01
      vertex -0.154045 -0.202994 0.00412215
    endloop
  endfacet
  facet normal -0.732642 0.614777 -0.292036
    outer loop
      vertex -0.159397 -0.20658 0.01
      vertex -0.155 -0.20134 0.01
      vertex -0.157602 -0.207233 0.00412215
    endloop
  endfacet
  facet normal -0.166087 -0.94191 0.291927
    outer loop
      vertex -0.148595 -0.397967 1.79588
      vertex -0.154045 -0.397006 1.79588
      vertex -0.155 -0.39866 1.79
    endloop
  endfacet
  facet normal -0.106169 -0.602102 0.791329
    outer loop
      vertex -0.151545 -0.392676 1.79951
      vertex -0.154045 -0.397006 1.79588
      vertex -0.148595 -0.397967 1.79588
    endloop
  endfacet
  facet normal 0 0 1
    outer loop
      vertex 0.150537 -0.206957 1.79951
      vertex -0.151545 -0.207324 1.79951
      vertex 0.152367 -0.208014 1.79951
    endloop
  endfacet
  facet normal -0 0 1
    outer loop
      vertex -0.149463 -0.206957 1.79951
      vertex -0.151545 -0.207324 1.79951
      vertex 0.150537 -0.206957 1.79951
    endloop
  endfacet
  facet normal 0.951048 0 -0.309042
    outer loop
      vertex 0.16 -0.21 0.01
      vertex 0.16 -0.39 0.01
      vertex 0.15809 -0.21 0.00412215
    endloop
  endfacet
  facet normal 1 0 0
    outer loop
      vertex 0.16 -0.21 1.79
      vertex 0.16 -0.39 0.01
      vertex 0.16 -0.21 0.01
    endloop
  endfacet
  facet normal -0.106219 -0.602384 -0.791108
    outer loop
      vertex -0.151545 -0.392676 0.000489435
      vertex -0.148595 -0.397967 0.00412215
      vertex -0.154045 -0.397006 0.00412215
    endloop
  endfacet
  facet normal -0.166113 -0.941865 -0.292057
    outer loop
      vertex -0.155 -0.39866 0.01
      vertex -0.148595 -0.397967 0.00412215
      vertex -0.148264 -0.399848 0.01
    endloop
  endfacet
  facet normal -0.106182 -0.602373 -0.791121
    outer loop
      vertex -0.151545 -0.392676 0.000489435
      vertex -0.149463 -0.393043 0.000489435
      vertex -0.148595 -0.397967 0.00412215
    endloop
  endfacet
  facet normal -0 0 -1
    outer loop
      vertex 0.15309 -0.21 0.000489435
      vertex 0.150537 -0.393043 0.000489435
      vertex 0.152367 -0.208014 0.000489435
    endloop
  endfacet
  facet normal -0 0 -1
    outer loop
      vertex 0.152367 -0.208014 0.000489435
      vertex 0.150537 -0.393043 0.000489435
      vertex 0.150537 -0.206957 0.000489435
    endloop
  endfacet
  facet normal -0.611705 -0 -0.791086
    outer loop
      vertex -0.152904 -0.208943 0.000489435
      vertex -0.152904 -0.391057 0.000489435
      vertex -0.157602 -0.207233 0.00412215
    endloop
  endfacet
  facet normal 0.57477 -0.209244 -0.791111
    outer loop
      vertex 0.156197 -0.3952 0.00412215
      vertex 0.152367 -0.391986 0.000489435
      vertex 0.15309 -0.39 0.000489435
    endloop
  endfacet
  facet normal 0.478255 -0.828261 -0.291988
    outer loop
      vertex 0.151736 -0.399848 0.01
      vertex 0.151405 -0.397967 0.00412215
      vertex 0.156197 -0.3952 0.00412215
    endloop
  endfacet
  facet normal 0 0 1
    outer loop
      vertex 0.15309 -0.39 1.79951
      vertex -0.151545 -0.207324 1.79951
      vertex 0.152367 -0.391986 1.79951
    endloop
  endfacet
  facet normal 0 0 1
    outer loop
      vertex 0.15309 -0.21 1.79951
      vertex -0.151545 -0.207324 1.79951
      vertex 0.15309 -0.39 1.79951
    endloop
  endfacet
  facet normal -0 0 -1
    outer loop
      vertex 0.152367 -0.391986 0.000489435
      vertex 0.150537 -0.393043 0.000489435
      vertex 0.15309 -0.39 0.000489435
    endloop
  endfacet
  facet normal -0 0 -1
    outer loop
      vertex 0.15309 -0.39 0.000489435
      vertex 0.150537 -0.393043 0.000489435
      vertex 0.15309 -0.21 0.000489435
    endloop
  endfacet
  facet normal 0 -0.593676 -0.804704
    outer loop
      vertex -0.148595 -0.397967 0.00412215
      vertex 0.150537 -0.393043 0.000489435
      vertex 0.151405 -0.397967 0.00412215
    endloop
  endfacet
  facet normal 0 -0.95242 -0.304789
    outer loop
      vertex 0.151736 -0.399848 0.01
      vertex -0.148595 -0.397967 0.00412215
      vertex 0.151405 -0.397967 0.00412215
    endloop
  endfacet
  facet normal -0 -0 -1
    outer loop
      vertex 0.150537 -0.206957 0.000489435
      vertex 0.150537 -0.393043 0.000489435
      vertex -0.149463 -0.206957 0.000489435
    endloop
  endfacet
  facet normal 0 -0 -1
    outer loop
      vertex -0.149463 -0.206957 0.000489435
      vertex 0.150537 -0.393043 0.000489435
      vertex -0.151545 -0.207324 0.000489435
    endloop
  endfacet
  facet normal 0 0 -1
    outer loop
      vertex -0.152904 -0.208943 0.000489435
      vertex 0.150537 -0.393043 0.000489435
      vertex -0.152904 -0.391057 0.000489435
    endloop
  endfacet
  facet normal 0 0 -1
    outer loop
      vertex -0.152904 -0.391057 0.000489435
      vertex 0.150537 -0.393043 0.000489435
      vertex -0.151545 -0.392676 0.000489435
    endloop
  endfacet
endsolid OpenSCAD_Model
