solid OpenSCAD_Model
  facet normal 0.999049 -0 0.0435938
    outer loop
      vertex 0.0996195 0.35 2.30872
      vertex 0.1 0.85 2.3
      vertex 0.0996195 0.85 2.30872
    endloop
  endfacet
  facet normal 0.999049 0 0.0435938
    outer loop
      vertex 0.1 0.85 2.3
      vertex 0.0996195 0.35 2.30872
      vertex 0.1 0.35 2.3
    endloop
  endfacet
  facet normal 0.991427 -0 0.130664
    outer loop
      vertex 0.0984808 0.35 2.31736
      vertex 0.0996195 0.85 2.30872
      vertex 0.0984808 0.85 2.31736
    endloop
  endfacet
  facet normal 0.991427 0 0.130664
    outer loop
      vertex 0.0996195 0.85 2.30872
      vertex 0.0984808 0.35 2.31736
      vertex 0.0996195 0.35 2.30872
    endloop
  endfacet
  facet normal 0.976311 -0 0.21637
    outer loop
      vertex 0.0965926 0.35 2.32588
      vertex 0.0984808 0.85 2.31736
      vertex 0.0965926 0.85 2.32588
    endloop
  endfacet
  facet normal 0.976311 0 0.21637
    outer loop
      vertex 0.0984808 0.85 2.31736
      vertex 0.0965926 0.35 2.32588
      vertex 0.0984808 0.35 2.31736
    endloop
  endfacet
  facet normal 0.953716 -0 0.300707
    outer loop
      vertex 0.0939693 0.35 2.3342
      vertex 0.0965926 0.85 2.32588
      vertex 0.0939693 0.85 2.3342
    endloop
  endfacet
  facet normal 0.953716 0 0.300707
    outer loop
      vertex 0.0965926 0.85 2.32588
      vertex 0.0939693 0.35 2.3342
      vertex 0.0965926 0.35 2.32588
    endloop
  endfacet
  facet normal 0.923882 -0 0.382677
    outer loop
      vertex 0.0906308 0.35 2.34226
      vertex 0.0939693 0.85 2.3342
      vertex 0.0906308 0.85 2.34226
    endloop
  endfacet
  facet normal 0.923882 0 0.382677
    outer loop
      vertex 0.0939693 0.85 2.3342
      vertex 0.0906308 0.35 2.34226
      vertex 0.0939693 0.35 2.3342
    endloop
  endfacet
  facet normal 0.887053 -0 0.461668
    outer loop
      vertex 0.0866025 0.35 2.35
      vertex 0.0906308 0.85 2.34226
      vertex 0.0866025 0.85 2.35
    endloop
  endfacet
  facet normal 0.887053 0 0.461668
    outer loop
      vertex 0.0906308 0.85 2.34226
      vertex 0.0866025 0.35 2.35
      vertex 0.0906308 0.35 2.34226
    endloop
  endfacet
  facet normal 0.843471 -0 0.537174
    outer loop
      vertex 0.0819152 0.35 2.35736
      vertex 0.0866025 0.85 2.35
      vertex 0.0819152 0.85 2.35736
    endloop
  endfacet
  facet normal 0.843471 0 0.537174
    outer loop
      vertex 0.0866025 0.85 2.35
      vertex 0.0819152 0.35 2.35736
      vertex 0.0866025 0.35 2.35
    endloop
  endfacet
  facet normal 0.793304 -0 0.608826
    outer loop
      vertex 0.0766044 0.35 2.36428
      vertex 0.0819152 0.85 2.35736
      vertex 0.0766044 0.85 2.36428
    endloop
  endfacet
  facet normal 0.793304 0 0.608826
    outer loop
      vertex 0.0819152 0.85 2.35736
      vertex 0.0766044 0.35 2.36428
      vertex 0.0819152 0.35 2.35736
    endloop
  endfacet
  facet normal 0.737181 -0 0.675696
    outer loop
      vertex 0.0707107 0.35 2.37071
      vertex 0.0766044 0.85 2.36428
      vertex 0.0707107 0.85 2.37071
    endloop
  endfacet
  facet normal 0.737181 0 0.675696
    outer loop
      vertex 0.0766044 0.85 2.36428
      vertex 0.0707107 0.35 2.37071
      vertex 0.0766044 0.35 2.36428
    endloop
  endfacet
  facet normal 0.675356 0 0.737491
    outer loop
      vertex 0.0642788 0.85 2.3766
      vertex 0.0707107 0.35 2.37071
      vertex 0.0707107 0.85 2.37071
    endloop
  endfacet
  facet normal 0.675356 0 0.737491
    outer loop
      vertex 0.0707107 0.35 2.37071
      vertex 0.0642788 0.85 2.3766
      vertex 0.0642788 0.35 2.3766
    endloop
  endfacet
  facet normal 0.609423 0 0.792845
    outer loop
      vertex 0.0573576 0.85 2.38192
      vertex 0.0642788 0.35 2.3766
      vertex 0.0642788 0.85 2.3766
    endloop
  endfacet
  facet normal 0.609423 0 0.792845
    outer loop
      vertex 0.0642788 0.35 2.3766
      vertex 0.0573576 0.85 2.38192
      vertex 0.0573576 0.35 2.38192
    endloop
  endfacet
  facet normal 0.536703 0 0.843771
    outer loop
      vertex 0.05 0.85 2.3866
      vertex 0.0573576 0.35 2.38192
      vertex 0.0573576 0.85 2.38192
    endloop
  endfacet
  facet normal 0.536703 0 0.843771
    outer loop
      vertex 0.0573576 0.35 2.38192
      vertex 0.05 0.85 2.3866
      vertex 0.05 0.35 2.3866
    endloop
  endfacet
  facet normal 0.461906 0 0.886929
    outer loop
      vertex 0.0422618 0.85 2.39063
      vertex 0.05 0.35 2.3866
      vertex 0.05 0.85 2.3866
    endloop
  endfacet
  facet normal 0.461906 0 0.886929
    outer loop
      vertex 0.05 0.35 2.3866
      vertex 0.0422618 0.85 2.39063
      vertex 0.0422618 0.35 2.39063
    endloop
  endfacet
  facet normal 0.382832 0 0.923818
    outer loop
      vertex 0.034202 0.85 2.39397
      vertex 0.0422618 0.35 2.39063
      vertex 0.0422618 0.85 2.39063
    endloop
  endfacet
  facet normal 0.382832 0 0.923818
    outer loop
      vertex 0.0422618 0.35 2.39063
      vertex 0.034202 0.85 2.39397
      vertex 0.034202 0.35 2.39397
    endloop
  endfacet
  facet normal 0.30036 0 0.953826
    outer loop
      vertex 0.0258819 0.85 2.39659
      vertex 0.034202 0.35 2.39397
      vertex 0.034202 0.85 2.39397
    endloop
  endfacet
  facet normal 0.30036 0 0.953826
    outer loop
      vertex 0.034202 0.35 2.39397
      vertex 0.0258819 0.85 2.39659
      vertex 0.0258819 0.35 2.39659
    endloop
  endfacet
  facet normal 0.216637 0 0.976252
    outer loop
      vertex 0.0173648 0.85 2.39848
      vertex 0.0258819 0.35 2.39659
      vertex 0.0258819 0.85 2.39659
    endloop
  endfacet
  facet normal 0.216637 0 0.976252
    outer loop
      vertex 0.0258819 0.35 2.39659
      vertex 0.0173648 0.85 2.39848
      vertex 0.0173648 0.35 2.39848
    endloop
  endfacet
  facet normal 0.130673 0 0.991425
    outer loop
      vertex 0.00871557 0.85 2.39962
      vertex 0.0173648 0.35 2.39848
      vertex 0.0173648 0.85 2.39848
    endloop
  endfacet
  facet normal 0.130673 0 0.991425
    outer loop
      vertex 0.0173648 0.35 2.39848
      vertex 0.00871557 0.85 2.39962
      vertex 0.00871557 0.35 2.39962
    endloop
  endfacet
  facet normal 0.0435587 0 0.999051
    outer loop
      vertex 0 0.85 2.4
      vertex 0.00871557 0.35 2.39962
      vertex 0.00871557 0.85 2.39962
    endloop
  endfacet
  facet normal 0.0435587 0 0.999051
    outer loop
      vertex 0.00871557 0.35 2.39962
      vertex 0 0.85 2.4
      vertex 0 0.35 2.4
    endloop
  endfacet
  facet normal -0.0435587 0 0.999051
    outer loop
      vertex -0.00871557 0.85 2.39962
      vertex 0 0.35 2.4
      vertex 0 0.85 2.4
    endloop
  endfacet
  facet normal -0.0435587 0 0.999051
    outer loop
      vertex 0 0.35 2.4
      vertex -0.00871557 0.85 2.39962
      vertex -0.00871557 0.35 2.39962
    endloop
  endfacet
  facet normal -0.130673 0 0.991425
    outer loop
      vertex -0.0173648 0.85 2.39848
      vertex -0.00871557 0.35 2.39962
      vertex -0.00871557 0.85 2.39962
    endloop
  endfacet
  facet normal -0.130673 0 0.991425
    outer loop
      vertex -0.00871557 0.35 2.39962
      vertex -0.0173648 0.85 2.39848
      vertex -0.0173648 0.35 2.39848
    endloop
  endfacet
  facet normal -0.216637 0 0.976252
    outer loop
      vertex -0.0258819 0.85 2.39659
      vertex -0.0173648 0.35 2.39848
      vertex -0.0173648 0.85 2.39848
    endloop
  endfacet
  facet normal -0.216637 0 0.976252
    outer loop
      vertex -0.0173648 0.35 2.39848
      vertex -0.0258819 0.85 2.39659
      vertex -0.0258819 0.35 2.39659
    endloop
  endfacet
  facet normal -0.30036 0 0.953826
    outer loop
      vertex -0.034202 0.85 2.39397
      vertex -0.0258819 0.35 2.39659
      vertex -0.0258819 0.85 2.39659
    endloop
  endfacet
  facet normal -0.30036 0 0.953826
    outer loop
      vertex -0.0258819 0.35 2.39659
      vertex -0.034202 0.85 2.39397
      vertex -0.034202 0.35 2.39397
    endloop
  endfacet
  facet normal -0.382832 0 0.923818
    outer loop
      vertex -0.0422618 0.85 2.39063
      vertex -0.034202 0.35 2.39397
      vertex -0.034202 0.85 2.39397
    endloop
  endfacet
  facet normal -0.382832 0 0.923818
    outer loop
      vertex -0.034202 0.35 2.39397
      vertex -0.0422618 0.85 2.39063
      vertex -0.0422618 0.35 2.39063
    endloop
  endfacet
  facet normal -0.461906 0 0.886929
    outer loop
      vertex -0.05 0.85 2.3866
      vertex -0.0422618 0.35 2.39063
      vertex -0.0422618 0.85 2.39063
    endloop
  endfacet
  facet normal -0.461906 0 0.886929
    outer loop
      vertex -0.0422618 0.35 2.39063
      vertex -0.05 0.85 2.3866
      vertex -0.05 0.35 2.3866
    endloop
  endfacet
  facet normal -0.536703 0 0.843771
    outer loop
      vertex -0.0573576 0.85 2.38192
      vertex -0.05 0.35 2.3866
      vertex -0.05 0.85 2.3866
    endloop
  endfacet
  facet normal -0.536703 0 0.843771
    outer loop
      vertex -0.05 0.35 2.3866
      vertex -0.0573576 0.85 2.38192
      vertex -0.0573576 0.35 2.38192
    endloop
  endfacet
  facet normal -0.609423 0 0.792845
    outer loop
      vertex -0.0642788 0.85 2.3766
      vertex -0.0573576 0.35 2.38192
      vertex -0.0573576 0.85 2.38192
    endloop
  endfacet
  facet normal -0.609423 0 0.792845
    outer loop
      vertex -0.0573576 0.35 2.38192
      vertex -0.0642788 0.85 2.3766
      vertex -0.0642788 0.35 2.3766
    endloop
  endfacet
  facet normal -0.675356 0 0.737491
    outer loop
      vertex -0.0707107 0.85 2.37071
      vertex -0.0642788 0.35 2.3766
      vertex -0.0642788 0.85 2.3766
    endloop
  endfacet
  facet normal -0.675356 0 0.737491
    outer loop
      vertex -0.0642788 0.35 2.3766
      vertex -0.0707107 0.85 2.37071
      vertex -0.0707107 0.35 2.37071
    endloop
  endfacet
  facet normal -0.737181 0 0.675696
    outer loop
      vertex -0.0766044 0.35 2.36428
      vertex -0.0707107 0.85 2.37071
      vertex -0.0766044 0.85 2.36428
    endloop
  endfacet
  facet normal -0.737181 0 0.675696
    outer loop
      vertex -0.0707107 0.85 2.37071
      vertex -0.0766044 0.35 2.36428
      vertex -0.0707107 0.35 2.37071
    endloop
  endfacet
  facet normal -0.793304 0 0.608826
    outer loop
      vertex -0.0819152 0.35 2.35736
      vertex -0.0766044 0.85 2.36428
      vertex -0.0819152 0.85 2.35736
    endloop
  endfacet
  facet normal -0.793304 0 0.608826
    outer loop
      vertex -0.0766044 0.85 2.36428
      vertex -0.0819152 0.35 2.35736
      vertex -0.0766044 0.35 2.36428
    endloop
  endfacet
  facet normal -0.843471 0 0.537174
    outer loop
      vertex -0.0866025 0.35 2.35
      vertex -0.0819152 0.85 2.35736
      vertex -0.0866025 0.85 2.35
    endloop
  endfacet
  facet normal -0.843471 0 0.537174
    outer loop
      vertex -0.0819152 0.85 2.35736
      vertex -0.0866025 0.35 2.35
      vertex -0.0819152 0.35 2.35736
    endloop
  endfacet
  facet normal -0.887053 0 0.461668
    outer loop
      vertex -0.0906308 0.35 2.34226
      vertex -0.0866025 0.85 2.35
      vertex -0.0906308 0.85 2.34226
    endloop
  endfacet
  facet normal -0.887053 0 0.461668
    outer loop
      vertex -0.0866025 0.85 2.35
      vertex -0.0906308 0.35 2.34226
      vertex -0.0866025 0.35 2.35
    endloop
  endfacet
  facet normal -0.923882 0 0.382677
    outer loop
      vertex -0.0939693 0.35 2.3342
      vertex -0.0906308 0.85 2.34226
      vertex -0.0939693 0.85 2.3342
    endloop
  endfacet
  facet normal -0.923882 0 0.382677
    outer loop
      vertex -0.0906308 0.85 2.34226
      vertex -0.0939693 0.35 2.3342
      vertex -0.0906308 0.35 2.34226
    endloop
  endfacet
  facet normal -0.953716 0 0.300707
    outer loop
      vertex -0.0965926 0.35 2.32588
      vertex -0.0939693 0.85 2.3342
      vertex -0.0965926 0.85 2.32588
    endloop
  endfacet
  facet normal -0.953716 0 0.300707
    outer loop
      vertex -0.0939693 0.85 2.3342
      vertex -0.0965926 0.35 2.32588
      vertex -0.0939693 0.35 2.3342
    endloop
  endfacet
  facet normal -0.976311 0 0.21637
    outer loop
      vertex -0.0984808 0.35 2.31736
      vertex -0.0965926 0.85 2.32588
      vertex -0.0984808 0.85 2.31736
    endloop
  endfacet
  facet normal -0.976311 0 0.21637
    outer loop
      vertex -0.0965926 0.85 2.32588
      vertex -0.0984808 0.35 2.31736
      vertex -0.0965926 0.35 2.32588
    endloop
  endfacet
  facet normal -0.991427 0 0.130664
    outer loop
      vertex -0.0996195 0.35 2.30872
      vertex -0.0984808 0.85 2.31736
      vertex -0.0996195 0.85 2.30872
    endloop
  endfacet
  facet normal -0.991427 0 0.130664
    outer loop
      vertex -0.0984808 0.85 2.31736
      vertex -0.0996195 0.35 2.30872
      vertex -0.0984808 0.35 2.31736
    endloop
  endfacet
  facet normal -0.999049 0 0.0435938
    outer loop
      vertex -0.1 0.35 2.3
      vertex -0.0996195 0.85 2.30872
      vertex -0.1 0.85 2.3
    endloop
  endfacet
  facet normal -0.999049 0 0.0435938
    outer loop
      vertex -0.0996195 0.85 2.30872
      vertex -0.1 0.35 2.3
      vertex -0.0996195 0.35 2.30872
    endloop
  endfacet
  facet normal -0.999049 0 -0.0435938
    outer loop
      vertex -0.0996195 0.35 2.29128
      vertex -0.1 0.85 2.3
      vertex -0.0996195 0.85 2.29128
    endloop
  endfacet
  facet normal -0.999049 -0 -0.0435938
    outer loop
      vertex -0.1 0.85 2.3
      vertex -0.0996195 0.35 2.29128
      vertex -0.1 0.35 2.3
    endloop
  endfacet
  facet normal -0.991427 0 -0.130664
    outer loop
      vertex -0.0984808 0.35 2.28264
      vertex -0.0996195 0.85 2.29128
      vertex -0.0984808 0.85 2.28264
    endloop
  endfacet
  facet normal -0.991427 -0 -0.130664
    outer loop
      vertex -0.0996195 0.85 2.29128
      vertex -0.0984808 0.35 2.28264
      vertex -0.0996195 0.35 2.29128
    endloop
  endfacet
  facet normal -0.976311 0 -0.21637
    outer loop
      vertex -0.0965926 0.35 2.27412
      vertex -0.0984808 0.85 2.28264
      vertex -0.0965926 0.85 2.27412
    endloop
  endfacet
  facet normal -0.976311 -0 -0.21637
    outer loop
      vertex -0.0984808 0.85 2.28264
      vertex -0.0965926 0.35 2.27412
      vertex -0.0984808 0.35 2.28264
    endloop
  endfacet
  facet normal -0.953716 0 -0.300707
    outer loop
      vertex -0.0939693 0.35 2.2658
      vertex -0.0965926 0.85 2.27412
      vertex -0.0939693 0.85 2.2658
    endloop
  endfacet
  facet normal -0.953716 -0 -0.300707
    outer loop
      vertex -0.0965926 0.85 2.27412
      vertex -0.0939693 0.35 2.2658
      vertex -0.0965926 0.35 2.27412
    endloop
  endfacet
  facet normal -0.923882 0 -0.382677
    outer loop
      vertex -0.0906308 0.35 2.25774
      vertex -0.0939693 0.85 2.2658
      vertex -0.0906308 0.85 2.25774
    endloop
  endfacet
  facet normal -0.923882 -0 -0.382677
    outer loop
      vertex -0.0939693 0.85 2.2658
      vertex -0.0906308 0.35 2.25774
      vertex -0.0939693 0.35 2.2658
    endloop
  endfacet
  facet normal -0.887053 0 -0.461668
    outer loop
      vertex -0.0866025 0.35 2.25
      vertex -0.0906308 0.85 2.25774
      vertex -0.0866025 0.85 2.25
    endloop
  endfacet
  facet normal -0.887053 -0 -0.461668
    outer loop
      vertex -0.0906308 0.85 2.25774
      vertex -0.0866025 0.35 2.25
      vertex -0.0906308 0.35 2.25774
    endloop
  endfacet
  facet normal -0.843471 0 -0.537174
    outer loop
      vertex -0.0819152 0.35 2.24264
      vertex -0.0866025 0.85 2.25
      vertex -0.0819152 0.85 2.24264
    endloop
  endfacet
  facet normal -0.843471 -0 -0.537174
    outer loop
      vertex -0.0866025 0.85 2.25
      vertex -0.0819152 0.35 2.24264
      vertex -0.0866025 0.35 2.25
    endloop
  endfacet
  facet normal -0.793304 0 -0.608826
    outer loop
      vertex -0.0766044 0.35 2.23572
      vertex -0.0819152 0.85 2.24264
      vertex -0.0766044 0.85 2.23572
    endloop
  endfacet
  facet normal -0.793304 -0 -0.608826
    outer loop
      vertex -0.0819152 0.85 2.24264
      vertex -0.0766044 0.35 2.23572
      vertex -0.0819152 0.35 2.24264
    endloop
  endfacet
  facet normal -0.737181 0 -0.675696
    outer loop
      vertex -0.0707107 0.35 2.22929
      vertex -0.0766044 0.85 2.23572
      vertex -0.0707107 0.85 2.22929
    endloop
  endfacet
  facet normal -0.737181 -0 -0.675696
    outer loop
      vertex -0.0766044 0.85 2.23572
      vertex -0.0707107 0.35 2.22929
      vertex -0.0766044 0.35 2.23572
    endloop
  endfacet
  facet normal -0.675356 0 -0.737491
    outer loop
      vertex -0.0707107 0.35 2.22929
      vertex -0.0642788 0.85 2.2234
      vertex -0.0642788 0.35 2.2234
    endloop
  endfacet
  facet normal -0.675356 0 -0.737491
    outer loop
      vertex -0.0642788 0.85 2.2234
      vertex -0.0707107 0.35 2.22929
      vertex -0.0707107 0.85 2.22929
    endloop
  endfacet
  facet normal -0.609423 0 -0.792845
    outer loop
      vertex -0.0642788 0.35 2.2234
      vertex -0.0573576 0.85 2.21808
      vertex -0.0573576 0.35 2.21808
    endloop
  endfacet
  facet normal -0.609423 0 -0.792845
    outer loop
      vertex -0.0573576 0.85 2.21808
      vertex -0.0642788 0.35 2.2234
      vertex -0.0642788 0.85 2.2234
    endloop
  endfacet
  facet normal -0.536703 0 -0.843771
    outer loop
      vertex -0.0573576 0.35 2.21808
      vertex -0.05 0.85 2.2134
      vertex -0.05 0.35 2.2134
    endloop
  endfacet
  facet normal -0.536703 0 -0.843771
    outer loop
      vertex -0.05 0.85 2.2134
      vertex -0.0573576 0.35 2.21808
      vertex -0.0573576 0.85 2.21808
    endloop
  endfacet
  facet normal -0.461906 0 -0.886929
    outer loop
      vertex -0.05 0.35 2.2134
      vertex -0.0422618 0.85 2.20937
      vertex -0.0422618 0.35 2.20937
    endloop
  endfacet
  facet normal -0.461906 0 -0.886929
    outer loop
      vertex -0.0422618 0.85 2.20937
      vertex -0.05 0.35 2.2134
      vertex -0.05 0.85 2.2134
    endloop
  endfacet
  facet normal -0.382832 0 -0.923818
    outer loop
      vertex -0.0422618 0.35 2.20937
      vertex -0.034202 0.85 2.20603
      vertex -0.034202 0.35 2.20603
    endloop
  endfacet
  facet normal -0.382832 0 -0.923818
    outer loop
      vertex -0.034202 0.85 2.20603
      vertex -0.0422618 0.35 2.20937
      vertex -0.0422618 0.85 2.20937
    endloop
  endfacet
  facet normal -0.30036 0 -0.953826
    outer loop
      vertex -0.034202 0.35 2.20603
      vertex -0.0258819 0.85 2.20341
      vertex -0.0258819 0.35 2.20341
    endloop
  endfacet
  facet normal -0.30036 0 -0.953826
    outer loop
      vertex -0.0258819 0.85 2.20341
      vertex -0.034202 0.35 2.20603
      vertex -0.034202 0.85 2.20603
    endloop
  endfacet
  facet normal -0.216637 0 -0.976252
    outer loop
      vertex -0.0258819 0.35 2.20341
      vertex -0.0173648 0.85 2.20152
      vertex -0.0173648 0.35 2.20152
    endloop
  endfacet
  facet normal -0.216637 0 -0.976252
    outer loop
      vertex -0.0173648 0.85 2.20152
      vertex -0.0258819 0.35 2.20341
      vertex -0.0258819 0.85 2.20341
    endloop
  endfacet
  facet normal -0.130673 0 -0.991425
    outer loop
      vertex -0.0173648 0.35 2.20152
      vertex -0.00871557 0.85 2.20038
      vertex -0.00871557 0.35 2.20038
    endloop
  endfacet
  facet normal -0.130673 0 -0.991425
    outer loop
      vertex -0.00871557 0.85 2.20038
      vertex -0.0173648 0.35 2.20152
      vertex -0.0173648 0.85 2.20152
    endloop
  endfacet
  facet normal -0.0435587 0 -0.999051
    outer loop
      vertex -0.00871557 0.35 2.20038
      vertex 0 0.85 2.2
      vertex 0 0.35 2.2
    endloop
  endfacet
  facet normal -0.0435587 0 -0.999051
    outer loop
      vertex 0 0.85 2.2
      vertex -0.00871557 0.35 2.20038
      vertex -0.00871557 0.85 2.20038
    endloop
  endfacet
  facet normal 0.0435587 0 -0.999051
    outer loop
      vertex 0 0.35 2.2
      vertex 0.00871557 0.85 2.20038
      vertex 0.00871557 0.35 2.20038
    endloop
  endfacet
  facet normal 0.0435587 0 -0.999051
    outer loop
      vertex 0.00871557 0.85 2.20038
      vertex 0 0.35 2.2
      vertex 0 0.85 2.2
    endloop
  endfacet
  facet normal 0.130673 0 -0.991425
    outer loop
      vertex 0.00871557 0.35 2.20038
      vertex 0.0173648 0.85 2.20152
      vertex 0.0173648 0.35 2.20152
    endloop
  endfacet
  facet normal 0.130673 0 -0.991425
    outer loop
      vertex 0.0173648 0.85 2.20152
      vertex 0.00871557 0.35 2.20038
      vertex 0.00871557 0.85 2.20038
    endloop
  endfacet
  facet normal 0.216637 0 -0.976252
    outer loop
      vertex 0.0173648 0.35 2.20152
      vertex 0.0258819 0.85 2.20341
      vertex 0.0258819 0.35 2.20341
    endloop
  endfacet
  facet normal 0.216637 0 -0.976252
    outer loop
      vertex 0.0258819 0.85 2.20341
      vertex 0.0173648 0.35 2.20152
      vertex 0.0173648 0.85 2.20152
    endloop
  endfacet
  facet normal 0.30036 0 -0.953826
    outer loop
      vertex 0.0258819 0.35 2.20341
      vertex 0.034202 0.85 2.20603
      vertex 0.034202 0.35 2.20603
    endloop
  endfacet
  facet normal 0.30036 0 -0.953826
    outer loop
      vertex 0.034202 0.85 2.20603
      vertex 0.0258819 0.35 2.20341
      vertex 0.0258819 0.85 2.20341
    endloop
  endfacet
  facet normal 0.382832 0 -0.923818
    outer loop
      vertex 0.034202 0.35 2.20603
      vertex 0.0422618 0.85 2.20937
      vertex 0.0422618 0.35 2.20937
    endloop
  endfacet
  facet normal 0.382832 0 -0.923818
    outer loop
      vertex 0.0422618 0.85 2.20937
      vertex 0.034202 0.35 2.20603
      vertex 0.034202 0.85 2.20603
    endloop
  endfacet
  facet normal 0.461906 0 -0.886929
    outer loop
      vertex 0.0422618 0.35 2.20937
      vertex 0.05 0.85 2.2134
      vertex 0.05 0.35 2.2134
    endloop
  endfacet
  facet normal 0.461906 0 -0.886929
    outer loop
      vertex 0.05 0.85 2.2134
      vertex 0.0422618 0.35 2.20937
      vertex 0.0422618 0.85 2.20937
    endloop
  endfacet
  facet normal 0.536703 0 -0.843771
    outer loop
      vertex 0.05 0.35 2.2134
      vertex 0.0573576 0.85 2.21808
      vertex 0.0573576 0.35 2.21808
    endloop
  endfacet
  facet normal 0.536703 0 -0.843771
    outer loop
      vertex 0.0573576 0.85 2.21808
      vertex 0.05 0.35 2.2134
      vertex 0.05 0.85 2.2134
    endloop
  endfacet
  facet normal 0.609423 0 -0.792845
    outer loop
      vertex 0.0573576 0.35 2.21808
      vertex 0.0642788 0.85 2.2234
      vertex 0.0642788 0.35 2.2234
    endloop
  endfacet
  facet normal 0.609423 0 -0.792845
    outer loop
      vertex 0.0642788 0.85 2.2234
      vertex 0.0573576 0.35 2.21808
      vertex 0.0573576 0.85 2.21808
    endloop
  endfacet
  facet normal 0.675356 0 -0.737491
    outer loop
      vertex 0.0642788 0.35 2.2234
      vertex 0.0707107 0.85 2.22929
      vertex 0.0707107 0.35 2.22929
    endloop
  endfacet
  facet normal 0.675356 0 -0.737491
    outer loop
      vertex 0.0707107 0.85 2.22929
      vertex 0.0642788 0.35 2.2234
      vertex 0.0642788 0.85 2.2234
    endloop
  endfacet
  facet normal 0.737181 0 -0.675696
    outer loop
      vertex 0.0766044 0.35 2.23572
      vertex 0.0707107 0.85 2.22929
      vertex 0.0766044 0.85 2.23572
    endloop
  endfacet
  facet normal 0.737181 0 -0.675696
    outer loop
      vertex 0.0707107 0.85 2.22929
      vertex 0.0766044 0.35 2.23572
      vertex 0.0707107 0.35 2.22929
    endloop
  endfacet
  facet normal 0.793304 0 -0.608826
    outer loop
      vertex 0.0819152 0.35 2.24264
      vertex 0.0766044 0.85 2.23572
      vertex 0.0819152 0.85 2.24264
    endloop
  endfacet
  facet normal 0.793304 0 -0.608826
    outer loop
      vertex 0.0766044 0.85 2.23572
      vertex 0.0819152 0.35 2.24264
      vertex 0.0766044 0.35 2.23572
    endloop
  endfacet
  facet normal 0.843471 0 -0.537174
    outer loop
      vertex 0.0866025 0.35 2.25
      vertex 0.0819152 0.85 2.24264
      vertex 0.0866025 0.85 2.25
    endloop
  endfacet
  facet normal 0.843471 0 -0.537174
    outer loop
      vertex 0.0819152 0.85 2.24264
      vertex 0.0866025 0.35 2.25
      vertex 0.0819152 0.35 2.24264
    endloop
  endfacet
  facet normal 0.887053 0 -0.461668
    outer loop
      vertex 0.0906308 0.35 2.25774
      vertex 0.0866025 0.85 2.25
      vertex 0.0906308 0.85 2.25774
    endloop
  endfacet
  facet normal 0.887053 0 -0.461668
    outer loop
      vertex 0.0866025 0.85 2.25
      vertex 0.0906308 0.35 2.25774
      vertex 0.0866025 0.35 2.25
    endloop
  endfacet
  facet normal 0.923882 0 -0.382677
    outer loop
      vertex 0.0939693 0.35 2.2658
      vertex 0.0906308 0.85 2.25774
      vertex 0.0939693 0.85 2.2658
    endloop
  endfacet
  facet normal 0.923882 0 -0.382677
    outer loop
      vertex 0.0906308 0.85 2.25774
      vertex 0.0939693 0.35 2.2658
      vertex 0.0906308 0.35 2.25774
    endloop
  endfacet
  facet normal 0.953716 0 -0.300707
    outer loop
      vertex 0.0965926 0.35 2.27412
      vertex 0.0939693 0.85 2.2658
      vertex 0.0965926 0.85 2.27412
    endloop
  endfacet
  facet normal 0.953716 0 -0.300707
    outer loop
      vertex 0.0939693 0.85 2.2658
      vertex 0.0965926 0.35 2.27412
      vertex 0.0939693 0.35 2.2658
    endloop
  endfacet
  facet normal 0.976311 0 -0.21637
    outer loop
      vertex 0.0984808 0.35 2.28264
      vertex 0.0965926 0.85 2.27412
      vertex 0.0984808 0.85 2.28264
    endloop
  endfacet
  facet normal 0.976311 0 -0.21637
    outer loop
      vertex 0.0965926 0.85 2.27412
      vertex 0.0984808 0.35 2.28264
      vertex 0.0965926 0.35 2.27412
    endloop
  endfacet
  facet normal 0.991427 0 -0.130664
    outer loop
      vertex 0.0996195 0.35 2.29128
      vertex 0.0984808 0.85 2.28264
      vertex 0.0996195 0.85 2.29128
    endloop
  endfacet
  facet normal 0.991427 0 -0.130664
    outer loop
      vertex 0.0984808 0.85 2.28264
      vertex 0.0996195 0.35 2.29128
      vertex 0.0984808 0.35 2.28264
    endloop
  endfacet
  facet normal 0.999049 0 -0.0435938
    outer loop
      vertex 0.1 0.35 2.3
      vertex 0.0996195 0.85 2.29128
      vertex 0.1 0.85 2.3
    endloop
  endfacet
  facet normal 0.999049 0 -0.0435938
    outer loop
      vertex 0.0996195 0.85 2.29128
      vertex 0.1 0.35 2.3
      vertex 0.0996195 0.35 2.29128
    endloop
  endfacet
  facet normal 0 1 0
    outer loop
      vertex 0.00871557 0.85 2.39962
      vertex -0.00871557 0.85 2.39962
      vertex 0 0.85 2.4
    endloop
  endfacet
  facet normal 0 1 0
    outer loop
      vertex 0.0173648 0.85 2.39848
      vertex -0.00871557 0.85 2.39962
      vertex 0.00871557 0.85 2.39962
    endloop
  endfacet
  facet normal 0 1 0
    outer loop
      vertex 0.0173648 0.85 2.39848
      vertex -0.0173648 0.85 2.39848
      vertex -0.00871557 0.85 2.39962
    endloop
  endfacet
  facet normal 0 1 0
    outer loop
      vertex 0.0258819 0.85 2.39659
      vertex -0.0173648 0.85 2.39848
      vertex 0.0173648 0.85 2.39848
    endloop
  endfacet
  facet normal 0 1 0
    outer loop
      vertex 0.0258819 0.85 2.39659
      vertex -0.0258819 0.85 2.39659
      vertex -0.0173648 0.85 2.39848
    endloop
  endfacet
  facet normal 0 1 0
    outer loop
      vertex 0.034202 0.85 2.39397
      vertex -0.0258819 0.85 2.39659
      vertex 0.0258819 0.85 2.39659
    endloop
  endfacet
  facet normal 0 1 0
    outer loop
      vertex 0.034202 0.85 2.39397
      vertex -0.034202 0.85 2.39397
      vertex -0.0258819 0.85 2.39659
    endloop
  endfacet
  facet normal 0 1 0
    outer loop
      vertex 0.0422618 0.85 2.39063
      vertex -0.034202 0.85 2.39397
      vertex 0.034202 0.85 2.39397
    endloop
  endfacet
  facet normal 0 1 0
    outer loop
      vertex 0.0422618 0.85 2.39063
      vertex -0.0422618 0.85 2.39063
      vertex -0.034202 0.85 2.39397
    endloop
  endfacet
  facet normal 0 1 0
    outer loop
      vertex 0.05 0.85 2.3866
      vertex -0.0422618 0.85 2.39063
      vertex 0.0422618 0.85 2.39063
    endloop
  endfacet
  facet normal 0 1 0
    outer loop
      vertex 0.05 0.85 2.3866
      vertex -0.05 0.85 2.3866
      vertex -0.0422618 0.85 2.39063
    endloop
  endfacet
  facet normal 0 1 0
    outer loop
      vertex 0.0573576 0.85 2.38192
      vertex -0.05 0.85 2.3866
      vertex 0.05 0.85 2.3866
    endloop
  endfacet
  facet normal 0 1 0
    outer loop
      vertex 0.0573576 0.85 2.38192
      vertex -0.0573576 0.85 2.38192
      vertex -0.05 0.85 2.3866
    endloop
  endfacet
  facet normal 0 1 0
    outer loop
      vertex 0.0642788 0.85 2.3766
      vertex -0.0573576 0.85 2.38192
      vertex 0.0573576 0.85 2.38192
    endloop
  endfacet
  facet normal 0 1 0
    outer loop
      vertex 0.0642788 0.85 2.3766
      vertex -0.0642788 0.85 2.3766
      vertex -0.0573576 0.85 2.38192
    endloop
  endfacet
  facet normal 0 1 0
    outer loop
      vertex 0.0707107 0.85 2.37071
      vertex -0.0642788 0.85 2.3766
      vertex 0.0642788 0.85 2.3766
    endloop
  endfacet
  facet normal 0 1 0
    outer loop
      vertex 0.0707107 0.85 2.37071
      vertex -0.0707107 0.85 2.37071
      vertex -0.0642788 0.85 2.3766
    endloop
  endfacet
  facet normal 0 1 0
    outer loop
      vertex 0.0766044 0.85 2.36428
      vertex -0.0707107 0.85 2.37071
      vertex 0.0707107 0.85 2.37071
    endloop
  endfacet
  facet normal 0 1 0
    outer loop
      vertex 0.0766044 0.85 2.36428
      vertex -0.0766044 0.85 2.36428
      vertex -0.0707107 0.85 2.37071
    endloop
  endfacet
  facet normal 0 1 0
    outer loop
      vertex 0.0819152 0.85 2.35736
      vertex -0.0766044 0.85 2.36428
      vertex 0.0766044 0.85 2.36428
    endloop
  endfacet
  facet normal 0 1 0
    outer loop
      vertex 0.0819152 0.85 2.35736
      vertex -0.0819152 0.85 2.35736
      vertex -0.0766044 0.85 2.36428
    endloop
  endfacet
  facet normal 0 1 0
    outer loop
      vertex 0.0866025 0.85 2.35
      vertex -0.0819152 0.85 2.35736
      vertex 0.0819152 0.85 2.35736
    endloop
  endfacet
  facet normal 0 1 0
    outer loop
      vertex 0.0866025 0.85 2.35
      vertex -0.0866025 0.85 2.35
      vertex -0.0819152 0.85 2.35736
    endloop
  endfacet
  facet normal 0 1 0
    outer loop
      vertex 0.0906308 0.85 2.34226
      vertex -0.0866025 0.85 2.35
      vertex 0.0866025 0.85 2.35
    endloop
  endfacet
  facet normal 0 1 0
    outer loop
      vertex 0.0906308 0.85 2.34226
      vertex -0.0906308 0.85 2.34226
      vertex -0.0866025 0.85 2.35
    endloop
  endfacet
  facet normal 0 1 0
    outer loop
      vertex 0.0939693 0.85 2.3342
      vertex -0.0906308 0.85 2.34226
      vertex 0.0906308 0.85 2.34226
    endloop
  endfacet
  facet normal 0 1 0
    outer loop
      vertex 0.0939693 0.85 2.3342
      vertex -0.0939693 0.85 2.3342
      vertex -0.0906308 0.85 2.34226
    endloop
  endfacet
  facet normal 0 1 0
    outer loop
      vertex 0.0965926 0.85 2.32588
      vertex -0.0939693 0.85 2.3342
      vertex 0.0939693 0.85 2.3342
    endloop
  endfacet
  facet normal 0 1 0
    outer loop
      vertex 0.0965926 0.85 2.32588
      vertex -0.0965926 0.85 2.32588
      vertex -0.0939693 0.85 2.3342
    endloop
  endfacet
  facet normal 0 1 0
    outer loop
      vertex 0.0984808 0.85 2.31736
      vertex -0.0965926 0.85 2.32588
      vertex 0.0965926 0.85 2.32588
    endloop
  endfacet
  facet normal 0 1 0
    outer loop
      vertex 0.0984808 0.85 2.31736
      vertex -0.0984808 0.85 2.31736
      vertex -0.0965926 0.85 2.32588
    endloop
  endfacet
  facet normal 0 1 0
    outer loop
      vertex 0.0996195 0.85 2.30872
      vertex -0.0984808 0.85 2.31736
      vertex 0.0984808 0.85 2.31736
    endloop
  endfacet
  facet normal 0 1 0
    outer loop
      vertex 0.0996195 0.85 2.30872
      vertex -0.0996195 0.85 2.30872
      vertex -0.0984808 0.85 2.31736
    endloop
  endfacet
  facet normal 0 1 0
    outer loop
      vertex 0.1 0.85 2.3
      vertex -0.0996195 0.85 2.30872
      vertex 0.0996195 0.85 2.30872
    endloop
  endfacet
  facet normal 0 1 0
    outer loop
      vertex 0.1 0.85 2.3
      vertex -0.1 0.85 2.3
      vertex -0.0996195 0.85 2.30872
    endloop
  endfacet
  facet normal 0 1 -0
    outer loop
      vertex 0.0996195 0.85 2.29128
      vertex -0.1 0.85 2.3
      vertex 0.1 0.85 2.3
    endloop
  endfacet
  facet normal 0 1 0
    outer loop
      vertex 0.0996195 0.85 2.29128
      vertex -0.0996195 0.85 2.29128
      vertex -0.1 0.85 2.3
    endloop
  endfacet
  facet normal 0 1 -0
    outer loop
      vertex 0.0984808 0.85 2.28264
      vertex -0.0996195 0.85 2.29128
      vertex 0.0996195 0.85 2.29128
    endloop
  endfacet
  facet normal 0 1 0
    outer loop
      vertex 0.0984808 0.85 2.28264
      vertex -0.0984808 0.85 2.28264
      vertex -0.0996195 0.85 2.29128
    endloop
  endfacet
  facet normal 0 1 -0
    outer loop
      vertex 0.0965926 0.85 2.27412
      vertex -0.0984808 0.85 2.28264
      vertex 0.0984808 0.85 2.28264
    endloop
  endfacet
  facet normal 0 1 0
    outer loop
      vertex 0.0965926 0.85 2.27412
      vertex -0.0965926 0.85 2.27412
      vertex -0.0984808 0.85 2.28264
    endloop
  endfacet
  facet normal 0 1 -0
    outer loop
      vertex 0.0939693 0.85 2.2658
      vertex -0.0965926 0.85 2.27412
      vertex 0.0965926 0.85 2.27412
    endloop
  endfacet
  facet normal 0 1 0
    outer loop
      vertex 0.0939693 0.85 2.2658
      vertex -0.0939693 0.85 2.2658
      vertex -0.0965926 0.85 2.27412
    endloop
  endfacet
  facet normal 0 1 -0
    outer loop
      vertex 0.0906308 0.85 2.25774
      vertex -0.0939693 0.85 2.2658
      vertex 0.0939693 0.85 2.2658
    endloop
  endfacet
  facet normal 0 1 0
    outer loop
      vertex 0.0906308 0.85 2.25774
      vertex -0.0906308 0.85 2.25774
      vertex -0.0939693 0.85 2.2658
    endloop
  endfacet
  facet normal 0 1 -0
    outer loop
      vertex 0.0866025 0.85 2.25
      vertex -0.0906308 0.85 2.25774
      vertex 0.0906308 0.85 2.25774
    endloop
  endfacet
  facet normal 0 1 0
    outer loop
      vertex 0.0866025 0.85 2.25
      vertex -0.0866025 0.85 2.25
      vertex -0.0906308 0.85 2.25774
    endloop
  endfacet
  facet normal 0 1 -0
    outer loop
      vertex 0.0819152 0.85 2.24264
      vertex -0.0866025 0.85 2.25
      vertex 0.0866025 0.85 2.25
    endloop
  endfacet
  facet normal 0 1 0
    outer loop
      vertex 0.0819152 0.85 2.24264
      vertex -0.0819152 0.85 2.24264
      vertex -0.0866025 0.85 2.25
    endloop
  endfacet
  facet normal 0 1 -0
    outer loop
      vertex 0.0766044 0.85 2.23572
      vertex -0.0819152 0.85 2.24264
      vertex 0.0819152 0.85 2.24264
    endloop
  endfacet
  facet normal 0 1 0
    outer loop
      vertex 0.0766044 0.85 2.23572
      vertex -0.0766044 0.85 2.23572
      vertex -0.0819152 0.85 2.24264
    endloop
  endfacet
  facet normal 0 1 -0
    outer loop
      vertex 0.0707107 0.85 2.22929
      vertex -0.0766044 0.85 2.23572
      vertex 0.0766044 0.85 2.23572
    endloop
  endfacet
  facet normal 0 1 0
    outer loop
      vertex 0.0707107 0.85 2.22929
      vertex -0.0707107 0.85 2.22929
      vertex -0.0766044 0.85 2.23572
    endloop
  endfacet
  facet normal 0 1 -0
    outer loop
      vertex 0.0642788 0.85 2.2234
      vertex -0.0707107 0.85 2.22929
      vertex 0.0707107 0.85 2.22929
    endloop
  endfacet
  facet normal 0 1 0
    outer loop
      vertex 0.0642788 0.85 2.2234
      vertex -0.0642788 0.85 2.2234
      vertex -0.0707107 0.85 2.22929
    endloop
  endfacet
  facet normal 0 1 -0
    outer loop
      vertex 0.0573576 0.85 2.21808
      vertex -0.0642788 0.85 2.2234
      vertex 0.0642788 0.85 2.2234
    endloop
  endfacet
  facet normal 0 1 0
    outer loop
      vertex 0.0573576 0.85 2.21808
      vertex -0.0573576 0.85 2.21808
      vertex -0.0642788 0.85 2.2234
    endloop
  endfacet
  facet normal 0 1 -0
    outer loop
      vertex 0.05 0.85 2.2134
      vertex -0.0573576 0.85 2.21808
      vertex 0.0573576 0.85 2.21808
    endloop
  endfacet
  facet normal 0 1 0
    outer loop
      vertex 0.05 0.85 2.2134
      vertex -0.05 0.85 2.2134
      vertex -0.0573576 0.85 2.21808
    endloop
  endfacet
  facet normal 0 1 -0
    outer loop
      vertex 0.0422618 0.85 2.20937
      vertex -0.05 0.85 2.2134
      vertex 0.05 0.85 2.2134
    endloop
  endfacet
  facet normal 0 1 0
    outer loop
      vertex 0.0422618 0.85 2.20937
      vertex -0.0422618 0.85 2.20937
      vertex -0.05 0.85 2.2134
    endloop
  endfacet
  facet normal 0 1 -0
    outer loop
      vertex 0.034202 0.85 2.20603
      vertex -0.0422618 0.85 2.20937
      vertex 0.0422618 0.85 2.20937
    endloop
  endfacet
  facet normal 0 1 0
    outer loop
      vertex 0.034202 0.85 2.20603
      vertex -0.034202 0.85 2.20603
      vertex -0.0422618 0.85 2.20937
    endloop
  endfacet
  facet normal 0 1 -0
    outer loop
      vertex 0.0258819 0.85 2.20341
      vertex -0.034202 0.85 2.20603
      vertex 0.034202 0.85 2.20603
    endloop
  endfacet
  facet normal 0 1 0
    outer loop
      vertex 0.0258819 0.85 2.20341
      vertex -0.0258819 0.85 2.20341
      vertex -0.034202 0.85 2.20603
    endloop
  endfacet
  facet normal 0 1 -0
    outer loop
      vertex 0.0173648 0.85 2.20152
      vertex -0.0258819 0.85 2.20341
      vertex 0.0258819 0.85 2.20341
    endloop
  endfacet
  facet normal 0 1 0
    outer loop
      vertex 0.0173648 0.85 2.20152
      vertex -0.0173648 0.85 2.20152
      vertex -0.0258819 0.85 2.20341
    endloop
  endfacet
  facet normal 0 1 -0
    outer loop
      vertex 0.00871557 0.85 2.20038
      vertex -0.0173648 0.85 2.20152
      vertex 0.0173648 0.85 2.20152
    endloop
  endfacet
  facet normal 0 1 0
    outer loop
      vertex 0.00871557 0.85 2.20038
      vertex -0.00871557 0.85 2.20038
      vertex -0.0173648 0.85 2.20152
    endloop
  endfacet
  facet normal -0 1 0
    outer loop
      vertex -0.00871557 0.85 2.20038
      vertex 0.00871557 0.85 2.20038
      vertex 0 0.85 2.2
    endloop
  endfacet
  facet normal 0 -1 0
    outer loop
      vertex -0.00871557 0.35 2.39962
      vertex 0.00871557 0.35 2.39962
      vertex 0 0.35 2.4
    endloop
  endfacet
  facet normal 0 -1 0
    outer loop
      vertex -0.0173648 0.35 2.39848
      vertex 0.00871557 0.35 2.39962
      vertex -0.00871557 0.35 2.39962
    endloop
  endfacet
  facet normal 0 -1 0
    outer loop
      vertex -0.0173648 0.35 2.39848
      vertex 0.0173648 0.35 2.39848
      vertex 0.00871557 0.35 2.39962
    endloop
  endfacet
  facet normal 0 -1 0
    outer loop
      vertex -0.0258819 0.35 2.39659
      vertex 0.0173648 0.35 2.39848
      vertex -0.0173648 0.35 2.39848
    endloop
  endfacet
  facet normal 0 -1 0
    outer loop
      vertex -0.0258819 0.35 2.39659
      vertex 0.0258819 0.35 2.39659
      vertex 0.0173648 0.35 2.39848
    endloop
  endfacet
  facet normal 0 -1 0
    outer loop
      vertex -0.034202 0.35 2.39397
      vertex 0.0258819 0.35 2.39659
      vertex -0.0258819 0.35 2.39659
    endloop
  endfacet
  facet normal 0 -1 0
    outer loop
      vertex -0.034202 0.35 2.39397
      vertex 0.034202 0.35 2.39397
      vertex 0.0258819 0.35 2.39659
    endloop
  endfacet
  facet normal 0 -1 0
    outer loop
      vertex -0.0422618 0.35 2.39063
      vertex 0.034202 0.35 2.39397
      vertex -0.034202 0.35 2.39397
    endloop
  endfacet
  facet normal 0 -1 0
    outer loop
      vertex -0.0422618 0.35 2.39063
      vertex 0.0422618 0.35 2.39063
      vertex 0.034202 0.35 2.39397
    endloop
  endfacet
  facet normal 0 -1 0
    outer loop
      vertex -0.05 0.35 2.3866
      vertex 0.0422618 0.35 2.39063
      vertex -0.0422618 0.35 2.39063
    endloop
  endfacet
  facet normal 0 -1 0
    outer loop
      vertex -0.05 0.35 2.3866
      vertex 0.05 0.35 2.3866
      vertex 0.0422618 0.35 2.39063
    endloop
  endfacet
  facet normal 0 -1 0
    outer loop
      vertex -0.0573576 0.35 2.38192
      vertex 0.05 0.35 2.3866
      vertex -0.05 0.35 2.3866
    endloop
  endfacet
  facet normal 0 -1 0
    outer loop
      vertex -0.0573576 0.35 2.38192
      vertex 0.0573576 0.35 2.38192
      vertex 0.05 0.35 2.3866
    endloop
  endfacet
  facet normal 0 -1 0
    outer loop
      vertex -0.0642788 0.35 2.3766
      vertex 0.0573576 0.35 2.38192
      vertex -0.0573576 0.35 2.38192
    endloop
  endfacet
  facet normal 0 -1 0
    outer loop
      vertex -0.0642788 0.35 2.3766
      vertex 0.0642788 0.35 2.3766
      vertex 0.0573576 0.35 2.38192
    endloop
  endfacet
  facet normal 0 -1 0
    outer loop
      vertex -0.0707107 0.35 2.37071
      vertex 0.0642788 0.35 2.3766
      vertex -0.0642788 0.35 2.3766
    endloop
  endfacet
  facet normal 0 -1 0
    outer loop
      vertex -0.0707107 0.35 2.37071
      vertex 0.0707107 0.35 2.37071
      vertex 0.0642788 0.35 2.3766
    endloop
  endfacet
  facet normal 0 -1 0
    outer loop
      vertex -0.0766044 0.35 2.36428
      vertex 0.0707107 0.35 2.37071
      vertex -0.0707107 0.35 2.37071
    endloop
  endfacet
  facet normal 0 -1 0
    outer loop
      vertex -0.0766044 0.35 2.36428
      vertex 0.0766044 0.35 2.36428
      vertex 0.0707107 0.35 2.37071
    endloop
  endfacet
  facet normal 0 -1 0
    outer loop
      vertex -0.0819152 0.35 2.35736
      vertex 0.0766044 0.35 2.36428
      vertex -0.0766044 0.35 2.36428
    endloop
  endfacet
  facet normal 0 -1 0
    outer loop
      vertex -0.0819152 0.35 2.35736
      vertex 0.0819152 0.35 2.35736
      vertex 0.0766044 0.35 2.36428
    endloop
  endfacet
  facet normal 0 -1 0
    outer loop
      vertex -0.0866025 0.35 2.35
      vertex 0.0819152 0.35 2.35736
      vertex -0.0819152 0.35 2.35736
    endloop
  endfacet
  facet normal 0 -1 0
    outer loop
      vertex -0.0866025 0.35 2.35
      vertex 0.0866025 0.35 2.35
      vertex 0.0819152 0.35 2.35736
    endloop
  endfacet
  facet normal 0 -1 0
    outer loop
      vertex -0.0906308 0.35 2.34226
      vertex 0.0866025 0.35 2.35
      vertex -0.0866025 0.35 2.35
    endloop
  endfacet
  facet normal 0 -1 0
    outer loop
      vertex -0.0906308 0.35 2.34226
      vertex 0.0906308 0.35 2.34226
      vertex 0.0866025 0.35 2.35
    endloop
  endfacet
  facet normal 0 -1 0
    outer loop
      vertex -0.0939693 0.35 2.3342
      vertex 0.0906308 0.35 2.34226
      vertex -0.0906308 0.35 2.34226
    endloop
  endfacet
  facet normal 0 -1 0
    outer loop
      vertex -0.0939693 0.35 2.3342
      vertex 0.0939693 0.35 2.3342
      vertex 0.0906308 0.35 2.34226
    endloop
  endfacet
  facet normal 0 -1 0
    outer loop
      vertex -0.0965926 0.35 2.32588
      vertex 0.0939693 0.35 2.3342
      vertex -0.0939693 0.35 2.3342
    endloop
  endfacet
  facet normal 0 -1 0
    outer loop
      vertex -0.0965926 0.35 2.32588
      vertex 0.0965926 0.35 2.32588
      vertex 0.0939693 0.35 2.3342
    endloop
  endfacet
  facet normal 0 -1 0
    outer loop
      vertex -0.0984808 0.35 2.31736
      vertex 0.0965926 0.35 2.32588
      vertex -0.0965926 0.35 2.32588
    endloop
  endfacet
  facet normal 0 -1 0
    outer loop
      vertex -0.0984808 0.35 2.31736
      vertex 0.0984808 0.35 2.31736
      vertex 0.0965926 0.35 2.32588
    endloop
  endfacet
  facet normal 0 -1 0
    outer loop
      vertex -0.0996195 0.35 2.30872
      vertex 0.0984808 0.35 2.31736
      vertex -0.0984808 0.35 2.31736
    endloop
  endfacet
  facet normal 0 -1 0
    outer loop
      vertex -0.0996195 0.35 2.30872
      vertex 0.0996195 0.35 2.30872
      vertex 0.0984808 0.35 2.31736
    endloop
  endfacet
  facet normal 0 -1 0
    outer loop
      vertex -0.1 0.35 2.3
      vertex 0.0996195 0.35 2.30872
      vertex -0.0996195 0.35 2.30872
    endloop
  endfacet
  facet normal 0 -1 0
    outer loop
      vertex -0.1 0.35 2.3
      vertex 0.1 0.35 2.3
      vertex 0.0996195 0.35 2.30872
    endloop
  endfacet
  facet normal 0 -1 0
    outer loop
      vertex -0.0996195 0.35 2.29128
      vertex 0.1 0.35 2.3
      vertex -0.1 0.35 2.3
    endloop
  endfacet
  facet normal 0 -1 0
    outer loop
      vertex -0.0996195 0.35 2.29128
      vertex 0.0996195 0.35 2.29128
      vertex 0.1 0.35 2.3
    endloop
  endfacet
  facet normal 0 -1 0
    outer loop
      vertex -0.0984808 0.35 2.28264
      vertex 0.0996195 0.35 2.29128
      vertex -0.0996195 0.35 2.29128
    endloop
  endfacet
  facet normal 0 -1 0
    outer loop
      vertex -0.0984808 0.35 2.28264
      vertex 0.0984808 0.35 2.28264
      vertex 0.0996195 0.35 2.29128
    endloop
  endfacet
  facet normal 0 -1 0
    outer loop
      vertex -0.0965926 0.35 2.27412
      vertex 0.0984808 0.35 2.28264
      vertex -0.0984808 0.35 2.28264
    endloop
  endfacet
  facet normal 0 -1 0
    outer loop
      vertex -0.0965926 0.35 2.27412
      vertex 0.0965926 0.35 2.27412
      vertex 0.0984808 0.35 2.28264
    endloop
  endfacet
  facet normal 0 -1 0
    outer loop
      vertex -0.0939693 0.35 2.2658
      vertex 0.0965926 0.35 2.27412
      vertex -0.0965926 0.35 2.27412
    endloop
  endfacet
  facet normal 0 -1 0
    outer loop
      vertex -0.0939693 0.35 2.2658
      vertex 0.0939693 0.35 2.2658
      vertex 0.0965926 0.35 2.27412
    endloop
  endfacet
  facet normal 0 -1 0
    outer loop
      vertex -0.0906308 0.35 2.25774
      vertex 0.0939693 0.35 2.2658
      vertex -0.0939693 0.35 2.2658
    endloop
  endfacet
  facet normal 0 -1 0
    outer loop
      vertex -0.0906308 0.35 2.25774
      vertex 0.0906308 0.35 2.25774
      vertex 0.0939693 0.35 2.2658
    endloop
  endfacet
  facet normal 0 -1 0
    outer loop
      vertex -0.0866025 0.35 2.25
      vertex 0.0906308 0.35 2.25774
      vertex -0.0906308 0.35 2.25774
    endloop
  endfacet
  facet normal 0 -1 0
    outer loop
      vertex -0.0866025 0.35 2.25
      vertex 0.0866025 0.35 2.25
      vertex 0.0906308 0.35 2.25774
    endloop
  endfacet
  facet normal 0 -1 0
    outer loop
      vertex -0.0819152 0.35 2.24264
      vertex 0.0866025 0.35 2.25
      vertex -0.0866025 0.35 2.25
    endloop
  endfacet
  facet normal 0 -1 0
    outer loop
      vertex -0.0819152 0.35 2.24264
      vertex 0.0819152 0.35 2.24264
      vertex 0.0866025 0.35 2.25
    endloop
  endfacet
  facet normal 0 -1 0
    outer loop
      vertex -0.0766044 0.35 2.23572
      vertex 0.0819152 0.35 2.24264
      vertex -0.0819152 0.35 2.24264
    endloop
  endfacet
  facet normal 0 -1 0
    outer loop
      vertex -0.0766044 0.35 2.23572
      vertex 0.0766044 0.35 2.23572
      vertex 0.0819152 0.35 2.24264
    endloop
  endfacet
  facet normal 0 -1 0
    outer loop
      vertex -0.0707107 0.35 2.22929
      vertex 0.0766044 0.35 2.23572
      vertex -0.0766044 0.35 2.23572
    endloop
  endfacet
  facet normal 0 -1 0
    outer loop
      vertex -0.0707107 0.35 2.22929
      vertex 0.0707107 0.35 2.22929
      vertex 0.0766044 0.35 2.23572
    endloop
  endfacet
  facet normal 0 -1 0
    outer loop
      vertex -0.0642788 0.35 2.2234
      vertex 0.0707107 0.35 2.22929
      vertex -0.0707107 0.35 2.22929
    endloop
  endfacet
  facet normal 0 -1 0
    outer loop
      vertex -0.0642788 0.35 2.2234
      vertex 0.0642788 0.35 2.2234
      vertex 0.0707107 0.35 2.22929
    endloop
  endfacet
  facet normal 0 -1 0
    outer loop
      vertex -0.0573576 0.35 2.21808
      vertex 0.0642788 0.35 2.2234
      vertex -0.0642788 0.35 2.2234
    endloop
  endfacet
  facet normal 0 -1 0
    outer loop
      vertex -0.0573576 0.35 2.21808
      vertex 0.0573576 0.35 2.21808
      vertex 0.0642788 0.35 2.2234
    endloop
  endfacet
  facet normal 0 -1 0
    outer loop
      vertex -0.05 0.35 2.2134
      vertex 0.0573576 0.35 2.21808
      vertex -0.0573576 0.35 2.21808
    endloop
  endfacet
  facet normal 0 -1 0
    outer loop
      vertex -0.05 0.35 2.2134
      vertex 0.05 0.35 2.2134
      vertex 0.0573576 0.35 2.21808
    endloop
  endfacet
  facet normal 0 -1 0
    outer loop
      vertex -0.0422618 0.35 2.20937
      vertex 0.05 0.35 2.2134
      vertex -0.05 0.35 2.2134
    endloop
  endfacet
  facet normal 0 -1 0
    outer loop
      vertex -0.0422618 0.35 2.20937
      vertex 0.0422618 0.35 2.20937
      vertex 0.05 0.35 2.2134
    endloop
  endfacet
  facet normal 0 -1 0
    outer loop
      vertex -0.034202 0.35 2.20603
      vertex 0.0422618 0.35 2.20937
      vertex -0.0422618 0.35 2.20937
    endloop
  endfacet
  facet normal 0 -1 0
    outer loop
      vertex -0.034202 0.35 2.20603
      vertex 0.034202 0.35 2.20603
      vertex 0.0422618 0.35 2.20937
    endloop
  endfacet
  facet normal 0 -1 0
    outer loop
      vertex -0.0258819 0.35 2.20341
      vertex 0.034202 0.35 2.20603
      vertex -0.034202 0.35 2.20603
    endloop
  endfacet
  facet normal 0 -1 0
    outer loop
      vertex -0.0258819 0.35 2.20341
      vertex 0.0258819 0.35 2.20341
      vertex 0.034202 0.35 2.20603
    endloop
  endfacet
  facet normal 0 -1 0
    outer loop
      vertex -0.0173648 0.35 2.20152
      vertex 0.0258819 0.35 2.20341
      vertex -0.0258819 0.35 2.20341
    endloop
  endfacet
  facet normal 0 -1 0
    outer loop
      vertex -0.0173648 0.35 2.20152
      vertex 0.0173648 0.35 2.20152
      vertex 0.0258819 0.35 2.20341
    endloop
  endfacet
  facet normal 0 -1 0
    outer loop
      vertex -0.00871557 0.35 2.20038
      vertex 0.0173648 0.35 2.20152
      vertex -0.0173648 0.35 2.20152
    endloop
  endfacet
  facet normal 0 -1 0
    outer loop
      vertex -0.00871557 0.35 2.20038
      vertex 0.00871557 0.35 2.20038
      vertex 0.0173648 0.35 2.20152
    endloop
  endfacet
  facet normal -0 -1 0
    outer loop
      vertex 0.00871557 0.35 2.20038
      vertex -0.00871557 0.35 2.20038
      vertex 0 0.35 2.2
    endloop
  endfacet
endsolid OpenSCAD_Model
