solid OpenSCAD_Model
  facet normal 0.965926 -0 0.258817
    outer loop
      vertex 0.129904 -0.45 2.375
      vertex 0.15 0.05 2.3
      vertex 0.129904 0.05 2.375
    endloop
  endfacet
  facet normal 0.965926 0 0.258817
    outer loop
      vertex 0.15 0.05 2.3
      vertex 0.129904 -0.45 2.375
      vertex 0.15 -0.45 2.3
    endloop
  endfacet
  facet normal 0.707081 0 0.707133
    outer loop
      vertex 0.075 0.05 2.4299
      vertex 0.129904 -0.45 2.375
      vertex 0.129904 0.05 2.375
    endloop
  endfacet
  facet normal 0.707081 0 0.707133
    outer loop
      vertex 0.129904 -0.45 2.375
      vertex 0.075 0.05 2.4299
      vertex 0.075 -0.45 2.4299
    endloop
  endfacet
  facet normal 0.258865 0 0.965914
    outer loop
      vertex 0 0.05 2.45
      vertex 0.075 -0.45 2.4299
      vertex 0.075 0.05 2.4299
    endloop
  endfacet
  facet normal 0.258865 0 0.965914
    outer loop
      vertex 0.075 -0.45 2.4299
      vertex 0 0.05 2.45
      vertex 0 -0.45 2.45
    endloop
  endfacet
  facet normal -0.258865 0 0.965914
    outer loop
      vertex -0.075 0.05 2.4299
      vertex 0 -0.45 2.45
      vertex 0 0.05 2.45
    endloop
  endfacet
  facet normal -0.258865 0 0.965914
    outer loop
      vertex 0 -0.45 2.45
      vertex -0.075 0.05 2.4299
      vertex -0.075 -0.45 2.4299
    endloop
  endfacet
  facet normal -0.707081 0 0.707133
    outer loop
      vertex -0.129904 0.05 2.375
      vertex -0.075 -0.45 2.4299
      vertex -0.075 0.05 2.4299
    endloop
  endfacet
  facet normal -0.707081 0 0.707133
    outer loop
      vertex -0.075 -0.45 2.4299
      vertex -0.129904 0.05 2.375
      vertex -0.129904 -0.45 2.375
    endloop
  endfacet
  facet normal -0.965926 0 0.258817
    outer loop
      vertex -0.15 -0.45 2.3
      vertex -0.129904 0.05 2.375
      vertex -0.15 0.05 2.3
    endloop
  endfacet
  facet normal -0.965926 0 0.258817
    outer loop
      vertex -0.129904 0.05 2.375
      vertex -0.15 -0.45 2.3
      vertex -0.129904 -0.45 2.375
    endloop
  endfacet
  facet normal -0.965926 0 -0.258817
    outer loop
      vertex -0.129904 -0.45 2.225
      vertex -0.15 0.05 2.3
      vertex -0.129904 0.05 2.225
    endloop
  endfacet
  facet normal -0.965926 -0 -0.258817
    outer loop
      vertex -0.15 0.05 2.3
      vertex -0.129904 -0.45 2.225
      vertex -0.15 -0.45 2.3
    endloop
  endfacet
  facet normal -0.707081 0 -0.707133
    outer loop
      vertex -0.129904 -0.45 2.225
      vertex -0.075 0.05 2.1701
      vertex -0.075 -0.45 2.1701
    endloop
  endfacet
  facet normal -0.707081 0 -0.707133
    outer loop
      vertex -0.075 0.05 2.1701
      vertex -0.129904 -0.45 2.225
      vertex -0.129904 0.05 2.225
    endloop
  endfacet
  facet normal -0.258865 0 -0.965914
    outer loop
      vertex -0.075 -0.45 2.1701
      vertex 0 0.05 2.15
      vertex 0 -0.45 2.15
    endloop
  endfacet
  facet normal -0.258865 0 -0.965914
    outer loop
      vertex 0 0.05 2.15
      vertex -0.075 -0.45 2.1701
      vertex -0.075 0.05 2.1701
    endloop
  endfacet
  facet normal 0.258865 0 -0.965914
    outer loop
      vertex 0 -0.45 2.15
      vertex 0.075 0.05 2.1701
      vertex 0.075 -0.45 2.1701
    endloop
  endfacet
  facet normal 0.258865 0 -0.965914
    outer loop
      vertex 0.075 0.05 2.1701
      vertex 0 -0.45 2.15
      vertex 0 0.05 2.15
    endloop
  endfacet
  facet normal 0.707081 0 -0.707133
    outer loop
      vertex 0.075 -0.45 2.1701
      vertex 0.129904 0.05 2.225
      vertex 0.129904 -0.45 2.225
    endloop
  endfacet
  facet normal 0.707081 0 -0.707133
    outer loop
      vertex 0.129904 0.05 2.225
      vertex 0.075 -0.45 2.1701
      vertex 0.075 0.05 2.1701
    endloop
  endfacet
  facet normal 0.965926 0 -0.258817
    outer loop
      vertex 0.15 -0.45 2.3
      vertex 0.129904 0.05 2.225
      vertex 0.15 0.05 2.3
    endloop
  endfacet
  facet normal 0.965926 0 -0.258817
    outer loop
      vertex 0.129904 0.05 2.225
      vertex 0.15 -0.45 2.3
      vertex 0.129904 -0.45 2.225
    endloop
  endfacet
  facet normal 0 1 0
    outer loop
      vertex 0.075 0.05 2.4299
      vertex -0.075 0.05 2.4299
      vertex 0 0.05 2.45
    endloop
  endfacet
  facet normal 0 1 0
    outer loop
      vertex 0.129904 0.05 2.375
      vertex -0.075 0.05 2.4299
      vertex 0.075 0.05 2.4299
    endloop
  endfacet
  facet normal 0 1 0
    outer loop
      vertex 0.129904 0.05 2.375
      vertex -0.129904 0.05 2.375
      vertex -0.075 0.05 2.4299
    endloop
  endfacet
  facet normal 0 1 0
    outer loop
      vertex 0.15 0.05 2.3
      vertex -0.129904 0.05 2.375
      vertex 0.129904 0.05 2.375
    endloop
  endfacet
  facet normal 0 1 0
    outer loop
      vertex 0.15 0.05 2.3
      vertex -0.15 0.05 2.3
      vertex -0.129904 0.05 2.375
    endloop
  endfacet
  facet normal 0 1 -0
    outer loop
      vertex 0.129904 0.05 2.225
      vertex -0.15 0.05 2.3
      vertex 0.15 0.05 2.3
    endloop
  endfacet
  facet normal 0 1 0
    outer loop
      vertex 0.129904 0.05 2.225
      vertex -0.129904 0.05 2.225
      vertex -0.15 0.05 2.3
    endloop
  endfacet
  facet normal 0 1 -0
    outer loop
      vertex 0.075 0.05 2.1701
      vertex -0.129904 0.05 2.225
      vertex 0.129904 0.05 2.225
    endloop
  endfacet
  facet normal 0 1 0
    outer loop
      vertex 0.075 0.05 2.1701
      vertex -0.075 0.05 2.1701
      vertex -0.129904 0.05 2.225
    endloop
  endfacet
  facet normal -0 1 0
    outer loop
      vertex -0.075 0.05 2.1701
      vertex 0.075 0.05 2.1701
      vertex 0 0.05 2.15
    endloop
  endfacet
  facet normal 0 -1 0
    outer loop
      vertex -0.075 -0.45 2.4299
      vertex 0.075 -0.45 2.4299
      vertex 0 -0.45 2.45
    endloop
  endfacet
  facet normal 0 -1 0
    outer loop
      vertex -0.129904 -0.45 2.375
      vertex 0.075 -0.45 2.4299
      vertex -0.075 -0.45 2.4299
    endloop
  endfacet
  facet normal 0 -1 0
    outer loop
      vertex -0.129904 -0.45 2.375
      vertex 0.129904 -0.45 2.375
      vertex 0.075 -0.45 2.4299
    endloop
  endfacet
  facet normal 0 -1 0
    outer loop
      vertex -0.15 -0.45 2.3
      vertex 0.129904 -0.45 2.375
      vertex -0.129904 -0.45 2.375
    endloop
  endfacet
  facet normal 0 -1 0
    outer loop
      vertex -0.15 -0.45 2.3
      vertex 0.15 -0.45 2.3
      vertex 0.129904 -0.45 2.375
    endloop
  endfacet
  facet normal 0 -1 0
    outer loop
      vertex -0.129904 -0.45 2.225
      vertex 0.15 -0.45 2.3
      vertex -0.15 -0.45 2.3
    endloop
  endfacet
  facet normal 0 -1 0
    outer loop
      vertex -0.129904 -0.45 2.225
      vertex 0.129904 -0.45 2.225
      vertex 0.15 -0.45 2.3
    endloop
  endfacet
  facet normal 0 -1 0
    outer loop
      vertex -0.075 -0.45 2.1701
      vertex 0.129904 -0.45 2.225
      vertex -0.129904 -0.45 2.225
    endloop
  endfacet
  facet normal 0 -1 0
    outer loop
      vertex -0.075 -0.45 2.1701
      vertex 0.075 -0.45 2.1701
      vertex 0.129904 -0.45 2.225
    endloop
  endfacet
  facet normal -0 -1 0
    outer loop
      vertex 0.075 -0.45 2.1701
      vertex -0.075 -0.45 2.1701
      vertex 0 -0.45 2.15
    endloop
  endfacet
endsolid OpenSCAD_Model
