solid OpenSCAD_Model
  facet normal 0.991443 -0 0.130539
    outer loop
      vertex 0.193185 -0.875 2.75176
      vertex 0.2 -0.125 2.7
      vertex 0.193185 -0.125 2.75176
    endloop
  endfacet
  facet normal 0.991443 0 0.130539
    outer loop
      vertex 0.2 -0.125 2.7
      vertex 0.193185 -0.875 2.75176
      vertex 0.2 -0.875 2.7
    endloop
  endfacet
  facet normal 0.923891 -0 0.382656
    outer loop
      vertex 0.173205 -0.875 2.8
      vertex 0.193185 -0.125 2.75176
      vertex 0.173205 -0.125 2.8
    endloop
  endfacet
  facet normal 0.923891 0 0.382656
    outer loop
      vertex 0.193185 -0.125 2.75176
      vertex 0.173205 -0.875 2.8
      vertex 0.193185 -0.875 2.75176
    endloop
  endfacet
  facet normal 0.793341 -0 0.608777
    outer loop
      vertex 0.141421 -0.875 2.84142
      vertex 0.173205 -0.125 2.8
      vertex 0.141421 -0.125 2.84142
    endloop
  endfacet
  facet normal 0.793341 0 0.608777
    outer loop
      vertex 0.173205 -0.125 2.8
      vertex 0.141421 -0.875 2.84142
      vertex 0.173205 -0.875 2.8
    endloop
  endfacet
  facet normal 0.60884 0 0.793293
    outer loop
      vertex 0.1 -0.125 2.87321
      vertex 0.141421 -0.875 2.84142
      vertex 0.141421 -0.125 2.84142
    endloop
  endfacet
  facet normal 0.60884 0 0.793293
    outer loop
      vertex 0.141421 -0.875 2.84142
      vertex 0.1 -0.125 2.87321
      vertex 0.1 -0.875 2.87321
    endloop
  endfacet
  facet normal 0.382682 0 0.92388
    outer loop
      vertex 0.0517638 -0.125 2.89319
      vertex 0.1 -0.875 2.87321
      vertex 0.1 -0.125 2.87321
    endloop
  endfacet
  facet normal 0.382682 0 0.92388
    outer loop
      vertex 0.1 -0.875 2.87321
      vertex 0.0517638 -0.125 2.89319
      vertex 0.0517638 -0.875 2.89319
    endloop
  endfacet
  facet normal 0.130435 0 0.991457
    outer loop
      vertex 0 -0.125 2.9
      vertex 0.0517638 -0.875 2.89319
      vertex 0.0517638 -0.125 2.89319
    endloop
  endfacet
  facet normal 0.130435 0 0.991457
    outer loop
      vertex 0.0517638 -0.875 2.89319
      vertex 0 -0.125 2.9
      vertex 0 -0.875 2.9
    endloop
  endfacet
  facet normal -0.130435 0 0.991457
    outer loop
      vertex -0.0517638 -0.125 2.89319
      vertex 0 -0.875 2.9
      vertex 0 -0.125 2.9
    endloop
  endfacet
  facet normal -0.130435 0 0.991457
    outer loop
      vertex 0 -0.875 2.9
      vertex -0.0517638 -0.125 2.89319
      vertex -0.0517638 -0.875 2.89319
    endloop
  endfacet
  facet normal -0.382682 0 0.92388
    outer loop
      vertex -0.1 -0.125 2.87321
      vertex -0.0517638 -0.875 2.89319
      vertex -0.0517638 -0.125 2.89319
    endloop
  endfacet
  facet normal -0.382682 0 0.92388
    outer loop
      vertex -0.0517638 -0.875 2.89319
      vertex -0.1 -0.125 2.87321
      vertex -0.1 -0.875 2.87321
    endloop
  endfacet
  facet normal -0.60884 0 0.793293
    outer loop
      vertex -0.141421 -0.125 2.84142
      vertex -0.1 -0.875 2.87321
      vertex -0.1 -0.125 2.87321
    endloop
  endfacet
  facet normal -0.60884 0 0.793293
    outer loop
      vertex -0.1 -0.875 2.87321
      vertex -0.141421 -0.125 2.84142
      vertex -0.141421 -0.875 2.84142
    endloop
  endfacet
  facet normal -0.793341 0 0.608777
    outer loop
      vertex -0.173205 -0.875 2.8
      vertex -0.141421 -0.125 2.84142
      vertex -0.173205 -0.125 2.8
    endloop
  endfacet
  facet normal -0.793341 0 0.608777
    outer loop
      vertex -0.141421 -0.125 2.84142
      vertex -0.173205 -0.875 2.8
      vertex -0.141421 -0.875 2.84142
    endloop
  endfacet
  facet normal -0.923891 0 0.382656
    outer loop
      vertex -0.193185 -0.875 2.75176
      vertex -0.173205 -0.125 2.8
      vertex -0.193185 -0.125 2.75176
    endloop
  endfacet
  facet normal -0.923891 0 0.382656
    outer loop
      vertex -0.173205 -0.125 2.8
      vertex -0.193185 -0.875 2.75176
      vertex -0.173205 -0.875 2.8
    endloop
  endfacet
  facet normal -0.991443 0 0.130539
    outer loop
      vertex -0.2 -0.875 2.7
      vertex -0.193185 -0.125 2.75176
      vertex -0.2 -0.125 2.7
    endloop
  endfacet
  facet normal -0.991443 0 0.130539
    outer loop
      vertex -0.193185 -0.125 2.75176
      vertex -0.2 -0.875 2.7
      vertex -0.193185 -0.875 2.75176
    endloop
  endfacet
  facet normal -0.991443 0 -0.130539
    outer loop
      vertex -0.193185 -0.875 2.64824
      vertex -0.2 -0.125 2.7
      vertex -0.193185 -0.125 2.64824
    endloop
  endfacet
  facet normal -0.991443 -0 -0.130539
    outer loop
      vertex -0.2 -0.125 2.7
      vertex -0.193185 -0.875 2.64824
      vertex -0.2 -0.875 2.7
    endloop
  endfacet
  facet normal -0.923891 0 -0.382656
    outer loop
      vertex -0.173205 -0.875 2.6
      vertex -0.193185 -0.125 2.64824
      vertex -0.173205 -0.125 2.6
    endloop
  endfacet
  facet normal -0.923891 -0 -0.382656
    outer loop
      vertex -0.193185 -0.125 2.64824
      vertex -0.173205 -0.875 2.6
      vertex -0.193185 -0.875 2.64824
    endloop
  endfacet
  facet normal -0.793341 0 -0.608777
    outer loop
      vertex -0.141421 -0.875 2.55858
      vertex -0.173205 -0.125 2.6
      vertex -0.141421 -0.125 2.55858
    endloop
  endfacet
  facet normal -0.793341 -0 -0.608777
    outer loop
      vertex -0.173205 -0.125 2.6
      vertex -0.141421 -0.875 2.55858
      vertex -0.173205 -0.875 2.6
    endloop
  endfacet
  facet normal -0.60884 0 -0.793293
    outer loop
      vertex -0.141421 -0.875 2.55858
      vertex -0.1 -0.125 2.52679
      vertex -0.1 -0.875 2.52679
    endloop
  endfacet
  facet normal -0.60884 0 -0.793293
    outer loop
      vertex -0.1 -0.125 2.52679
      vertex -0.141421 -0.875 2.55858
      vertex -0.141421 -0.125 2.55858
    endloop
  endfacet
  facet normal -0.382682 0 -0.92388
    outer loop
      vertex -0.1 -0.875 2.52679
      vertex -0.0517638 -0.125 2.50681
      vertex -0.0517638 -0.875 2.50681
    endloop
  endfacet
  facet normal -0.382682 0 -0.92388
    outer loop
      vertex -0.0517638 -0.125 2.50681
      vertex -0.1 -0.875 2.52679
      vertex -0.1 -0.125 2.52679
    endloop
  endfacet
  facet normal -0.130435 0 -0.991457
    outer loop
      vertex -0.0517638 -0.875 2.50681
      vertex 0 -0.125 2.5
      vertex 0 -0.875 2.5
    endloop
  endfacet
  facet normal -0.130435 0 -0.991457
    outer loop
      vertex 0 -0.125 2.5
      vertex -0.0517638 -0.875 2.50681
      vertex -0.0517638 -0.125 2.50681
    endloop
  endfacet
  facet normal 0.130435 0 -0.991457
    outer loop
      vertex 0 -0.875 2.5
      vertex 0.0517638 -0.125 2.50681
      vertex 0.0517638 -0.875 2.50681
    endloop
  endfacet
  facet normal 0.130435 0 -0.991457
    outer loop
      vertex 0.0517638 -0.125 2.50681
      vertex 0 -0.875 2.5
      vertex 0 -0.125 2.5
    endloop
  endfacet
  facet normal 0.382682 0 -0.92388
    outer loop
      vertex 0.0517638 -0.875 2.50681
      vertex 0.1 -0.125 2.52679
      vertex 0.1 -0.875 2.52679
    endloop
  endfacet
  facet normal 0.382682 0 -0.92388
    outer loop
      vertex 0.1 -0.125 2.52679
      vertex 0.0517638 -0.875 2.50681
      vertex 0.0517638 -0.125 2.50681
    endloop
  endfacet
  facet normal 0.60884 0 -0.793293
    outer loop
      vertex 0.1 -0.875 2.52679
      vertex 0.141421 -0.125 2.55858
      vertex 0.141421 -0.875 2.55858
    endloop
  endfacet
  facet normal 0.60884 0 -0.793293
    outer loop
      vertex 0.141421 -0.125 2.55858
      vertex 0.1 -0.875 2.52679
      vertex 0.1 -0.125 2.52679
    endloop
  endfacet
  facet normal 0.793341 0 -0.608777
    outer loop
      vertex 0.173205 -0.875 2.6
      vertex 0.141421 -0.125 2.55858
      vertex 0.173205 -0.125 2.6
    endloop
  endfacet
  facet normal 0.793341 0 -0.608777
    outer loop
      vertex 0.141421 -0.125 2.55858
      vertex 0.173205 -0.875 2.6
      vertex 0.141421 -0.875 2.55858
    endloop
  endfacet
  facet normal 0.923891 0 -0.382656
    outer loop
      vertex 0.193185 -0.875 2.64824
      vertex 0.173205 -0.125 2.6
      vertex 0.193185 -0.125 2.64824
    endloop
  endfacet
  facet normal 0.923891 0 -0.382656
    outer loop
      vertex 0.173205 -0.125 2.6
      vertex 0.193185 -0.875 2.64824
      vertex 0.173205 -0.875 2.6
    endloop
  endfacet
  facet normal 0.991443 0 -0.130539
    outer loop
      vertex 0.2 -0.875 2.7
      vertex 0.193185 -0.125 2.64824
      vertex 0.2 -0.125 2.7
    endloop
  endfacet
  facet normal 0.991443 0 -0.130539
    outer loop
      vertex 0.193185 -0.125 2.64824
      vertex 0.2 -0.875 2.7
      vertex 0.193185 -0.875 2.64824
    endloop
  endfacet
  facet normal 0 1 0
    outer loop
      vertex 0.0517638 -0.125 2.89319
      vertex -0.0517638 -0.125 2.89319
      vertex 0 -0.125 2.9
    endloop
  endfacet
  facet normal 0 1 0
    outer loop
      vertex 0.1 -0.125 2.87321
      vertex -0.0517638 -0.125 2.89319
      vertex 0.0517638 -0.125 2.89319
    endloop
  endfacet
  facet normal 0 1 0
    outer loop
      vertex 0.1 -0.125 2.87321
      vertex -0.1 -0.125 2.87321
      vertex -0.0517638 -0.125 2.89319
    endloop
  endfacet
  facet normal 0 1 0
    outer loop
      vertex 0.141421 -0.125 2.84142
      vertex -0.1 -0.125 2.87321
      vertex 0.1 -0.125 2.87321
    endloop
  endfacet
  facet normal 0 1 0
    outer loop
      vertex 0.141421 -0.125 2.84142
      vertex -0.141421 -0.125 2.84142
      vertex -0.1 -0.125 2.87321
    endloop
  endfacet
  facet normal 0 1 0
    outer loop
      vertex 0.173205 -0.125 2.8
      vertex -0.141421 -0.125 2.84142
      vertex 0.141421 -0.125 2.84142
    endloop
  endfacet
  facet normal 0 1 0
    outer loop
      vertex 0.173205 -0.125 2.8
      vertex -0.173205 -0.125 2.8
      vertex -0.141421 -0.125 2.84142
    endloop
  endfacet
  facet normal 0 1 0
    outer loop
      vertex 0.193185 -0.125 2.75176
      vertex -0.173205 -0.125 2.8
      vertex 0.173205 -0.125 2.8
    endloop
  endfacet
  facet normal 0 1 0
    outer loop
      vertex 0.193185 -0.125 2.75176
      vertex -0.193185 -0.125 2.75176
      vertex -0.173205 -0.125 2.8
    endloop
  endfacet
  facet normal 0 1 0
    outer loop
      vertex 0.2 -0.125 2.7
      vertex -0.193185 -0.125 2.75176
      vertex 0.193185 -0.125 2.75176
    endloop
  endfacet
  facet normal 0 1 0
    outer loop
      vertex 0.2 -0.125 2.7
      vertex -0.2 -0.125 2.7
      vertex -0.193185 -0.125 2.75176
    endloop
  endfacet
  facet normal 0 1 -0
    outer loop
      vertex 0.193185 -0.125 2.64824
      vertex -0.2 -0.125 2.7
      vertex 0.2 -0.125 2.7
    endloop
  endfacet
  facet normal 0 1 0
    outer loop
      vertex 0.193185 -0.125 2.64824
      vertex -0.193185 -0.125 2.64824
      vertex -0.2 -0.125 2.7
    endloop
  endfacet
  facet normal 0 1 -0
    outer loop
      vertex 0.173205 -0.125 2.6
      vertex -0.193185 -0.125 2.64824
      vertex 0.193185 -0.125 2.64824
    endloop
  endfacet
  facet normal 0 1 0
    outer loop
      vertex 0.173205 -0.125 2.6
      vertex -0.173205 -0.125 2.6
      vertex -0.193185 -0.125 2.64824
    endloop
  endfacet
  facet normal 0 1 -0
    outer loop
      vertex 0.141421 -0.125 2.55858
      vertex -0.173205 -0.125 2.6
      vertex 0.173205 -0.125 2.6
    endloop
  endfacet
  facet normal 0 1 0
    outer loop
      vertex 0.141421 -0.125 2.55858
      vertex -0.141421 -0.125 2.55858
      vertex -0.173205 -0.125 2.6
    endloop
  endfacet
  facet normal 0 1 -0
    outer loop
      vertex 0.1 -0.125 2.52679
      vertex -0.141421 -0.125 2.55858
      vertex 0.141421 -0.125 2.55858
    endloop
  endfacet
  facet normal 0 1 0
    outer loop
      vertex 0.1 -0.125 2.52679
      vertex -0.1 -0.125 2.52679
      vertex -0.141421 -0.125 2.55858
    endloop
  endfacet
  facet normal 0 1 -0
    outer loop
      vertex 0.0517638 -0.125 2.50681
      vertex -0.1 -0.125 2.52679
      vertex 0.1 -0.125 2.52679
    endloop
  endfacet
  facet normal 0 1 0
    outer loop
      vertex 0.0517638 -0.125 2.50681
      vertex -0.0517638 -0.125 2.50681
      vertex -0.1 -0.125 2.52679
    endloop
  endfacet
  facet normal -0 1 0
    outer loop
      vertex -0.0517638 -0.125 2.50681
      vertex 0.0517638 -0.125 2.50681
      vertex 0 -0.125 2.5
    endloop
  endfacet
  facet normal 0 -1 0
    outer loop
      vertex -0.0517638 -0.875 2.89319
      vertex 0.0517638 -0.875 2.89319
      vertex 0 -0.875 2.9
    endloop
  endfacet
  facet normal 0 -1 0
    outer loop
      vertex -0.1 -0.875 2.87321
      vertex 0.0517638 -0.875 2.89319
      vertex -0.0517638 -0.875 2.89319
    endloop
  endfacet
  facet normal 0 -1 0
    outer loop
      vertex -0.1 -0.875 2.87321
      vertex 0.1 -0.875 2.87321
      vertex 0.0517638 -0.875 2.89319
    endloop
  endfacet
  facet normal 0 -1 0
    outer loop
      vertex -0.141421 -0.875 2.84142
      vertex 0.1 -0.875 2.87321
      vertex -0.1 -0.875 2.87321
    endloop
  endfacet
  facet normal 0 -1 0
    outer loop
      vertex -0.141421 -0.875 2.84142
      vertex 0.141421 -0.875 2.84142
      vertex 0.1 -0.875 2.87321
    endloop
  endfacet
  facet normal 0 -1 0
    outer loop
      vertex -0.173205 -0.875 2.8
      vertex 0.141421 -0.875 2.84142
      vertex -0.141421 -0.875 2.84142
    endloop
  endfacet
  facet normal 0 -1 0
    outer loop
      vertex -0.173205 -0.875 2.8
      vertex 0.173205 -0.875 2.8
      vertex 0.141421 -0.875 2.84142
    endloop
  endfacet
  facet normal 0 -1 0
    outer loop
      vertex -0.193185 -0.875 2.75176
      vertex 0.173205 -0.875 2.8
      vertex -0.173205 -0.875 2.8
    endloop
  endfacet
  facet normal 0 -1 0
    outer loop
      vertex -0.193185 -0.875 2.75176
      vertex 0.193185 -0.875 2.75176
      vertex 0.173205 -0.875 2.8
    endloop
  endfacet
  facet normal 0 -1 0
    outer loop
      vertex -0.2 -0.875 2.7
      vertex 0.193185 -0.875 2.75176
      vertex -0.193185 -0.875 2.75176
    endloop
  endfacet
  facet normal 0 -1 0
    outer loop
      vertex -0.2 -0.875 2.7
      vertex 0.2 -0.875 2.7
      vertex 0.193185 -0.875 2.75176
    endloop
  endfacet
  facet normal 0 -1 0
    outer loop
      vertex -0.193185 -0.875 2.64824
      vertex 0.2 -0.875 2.7
      vertex -0.2 -0.875 2.7
    endloop
  endfacet
  facet normal 0 -1 0
    outer loop
      vertex -0.193185 -0.875 2.64824
      vertex 0.193185 -0.875 2.64824
      vertex 0.2 -0.875 2.7
    endloop
  endfacet
  facet normal 0 -1 0
    outer loop
      vertex -0.173205 -0.875 2.6
      vertex 0.193185 -0.875 2.64824
      vertex -0.193185 -0.875 2.64824
    endloop
  endfacet
  facet normal 0 -1 0
    outer loop
      vertex -0.173205 -0.875 2.6
      vertex 0.173205 -0.875 2.6
      vertex 0.193185 -0.875 2.64824
    endloop
  endfacet
  facet normal 0 -1 0
    outer loop
      vertex -0.141421 -0.875 2.55858
      vertex 0.173205 -0.875 2.6
      vertex -0.173205 -0.875 2.6
    endloop
  endfacet
  facet normal 0 -1 0
    outer loop
      vertex -0.141421 -0.875 2.55858
      vertex 0.141421 -0.875 2.55858
      vertex 0.173205 -0.875 2.6
    endloop
  endfacet
  facet normal 0 -1 0
    outer loop
      vertex -0.1 -0.875 2.52679
      vertex 0.141421 -0.875 2.55858
      vertex -0.141421 -0.875 2.55858
    endloop
  endfacet
  facet normal 0 -1 0
    outer loop
      vertex -0.1 -0.875 2.52679
      vertex 0.1 -0.875 2.52679
      vertex 0.141421 -0.875 2.55858
    endloop
  endfacet
  facet normal 0 -1 0
    outer loop
      vertex -0.0517638 -0.875 2.50681
      vertex 0.1 -0.875 2.52679
      vertex -0.1 -0.875 2.52679
    endloop
  endfacet
  facet normal 0 -1 0
    outer loop
      vertex -0.0517638 -0.875 2.50681
      vertex 0.0517638 -0.875 2.50681
      vertex 0.1 -0.875 2.52679
    endloop
  endfacet
  facet normal -0 -1 0
    outer loop
      vertex 0.0517638 -0.875 2.50681
      vertex -0.0517638 -0.875 2.50681
      vertex 0 -0.875 2.5
    endloop
  endfacet
endsolid OpenSCAD_Model
