solid OpenSCAD_Model
  facet normal 0.866025 -0.5 0
    outer loop
      vertex 0 -0.35 0.025
      vertex 0.303109 0.175 -0.025
      vertex 0.303109 0.175 0.025
    endloop
  endfacet
  facet normal 0.866025 -0.5 0
    outer loop
      vertex 0.303109 0.175 -0.025
      vertex 0 -0.35 0.025
      vertex 0 -0.35 -0.025
    endloop
  endfacet
  facet normal 0 1 -0
    outer loop
      vertex 0.303109 0.175 -0.025
      vertex -0.303109 0.175 0.025
      vertex 0.303109 0.175 0.025
    endloop
  endfacet
  facet normal 0 1 0
    outer loop
      vertex -0.303109 0.175 0.025
      vertex 0.303109 0.175 -0.025
      vertex -0.303109 0.175 -0.025
    endloop
  endfacet
  facet normal -0.866025 -0.5 0
    outer loop
      vertex 0 -0.35 -0.025
      vertex -0.303109 0.175 0.025
      vertex -0.303109 0.175 -0.025
    endloop
  endfacet
  facet normal -0.866025 -0.5 0
    outer loop
      vertex -0.303109 0.175 0.025
      vertex 0 -0.35 -0.025
      vertex 0 -0.35 0.025
    endloop
  endfacet
  facet normal 0 0 -1
    outer loop
      vertex -0.303109 0.175 -0.025
      vertex 0.303109 0.175 -0.025
      vertex 0 -0.35 -0.025
    endloop
  endfacet
  facet normal 0 -0 1
    outer loop
      vertex 0 -0.35 0.025
      vertex 0.303109 0.175 0.025
      vertex -0.303109 0.175 0.025
    endloop
  endfacet
endsolid OpenSCAD_Model
