solid OpenSCAD_Model
  facet normal -0.495522 -0.132982 0.858355
    outer loop
      vertex -0.492929 -0.490341 1
      vertex -0.497412 -0.490341 0.997412
      vertex -0.492582 -0.491634 1
    endloop
  endfacet
  facet normal -0.226005 0.843639 0.487026
    outer loop
      vertex -0.490341 0.5 0.992929
      vertex -0.493876 0.496465 0.997412
      vertex -0.490341 0.497412 0.997412
    endloop
  endfacet
  facet normal -0.965936 0.258783 0
    outer loop
      vertex -0.5 0.490341 0.907071
      vertex -0.498706 0.495171 0.992929
      vertex -0.498706 0.495171 0.907071
    endloop
  endfacet
  facet normal -0.965936 0.258783 0
    outer loop
      vertex -0.498706 0.495171 0.992929
      vertex -0.5 0.490341 0.907071
      vertex -0.5 0.490341 0.992929
    endloop
  endfacet
  facet normal -0.226019 -0.843641 0.487016
    outer loop
      vertex -0.493876 -0.496465 0.997412
      vertex -0.495171 -0.498706 0.992929
      vertex -0.490341 -0.5 0.992929
    endloop
  endfacet
  facet normal 0.96594 -0.258768 0
    outer loop
      vertex -0.45 -0.490341 0.992929
      vertex -0.450947 -0.493876 0.95
      vertex -0.45 -0.490341 0.95
    endloop
  endfacet
  facet normal 0.965936 -0.258783 1.30439e-06
    outer loop
      vertex -0.451294 -0.495171 0.992929
      vertex -0.450947 -0.493876 0.95
      vertex -0.45 -0.490341 0.992929
    endloop
  endfacet
  facet normal 0.965925 -0.258823 0
    outer loop
      vertex -0.450947 -0.493876 0.95
      vertex -0.451294 -0.495171 0.992929
      vertex -0.451294 -0.495171 0.95
    endloop
  endfacet
  facet normal 0.226025 0.843662 0.486978
    outer loop
      vertex -0.454829 0.498706 0.992929
      vertex -0.459659 0.5 0.992929
      vertex -0.456123 0.496465 0.997412
    endloop
  endfacet
  facet normal -1 0 0
    outer loop
      vertex -0.5 -0.490341 0.907071
      vertex -0.5 0.490341 0.992929
      vertex -0.5 0.490341 0.907071
    endloop
  endfacet
  facet normal -1 -0 0
    outer loop
      vertex -0.5 0.490341 0.992929
      vertex -0.5 -0.490341 0.907071
      vertex -0.5 -0.490341 0.992929
    endloop
  endfacet
  facet normal -0.843639 0.226005 0.487026
    outer loop
      vertex -0.496465 0.493876 0.997412
      vertex -0.5 0.490341 0.992929
      vertex -0.497412 0.490341 0.997412
    endloop
  endfacet
  facet normal -0.132982 0.495522 0.858355
    outer loop
      vertex -0.490341 0.497412 0.997412
      vertex -0.491634 0.492582 1
      vertex -0.490341 0.492929 1
    endloop
  endfacet
  facet normal -0.132737 0.495487 0.858413
    outer loop
      vertex -0.490341 0.497412 0.997412
      vertex -0.493876 0.496465 0.997412
      vertex -0.491634 0.492582 1
    endloop
  endfacet
  facet normal -0.843639 -0.226005 0.487026
    outer loop
      vertex -0.497412 -0.490341 0.997412
      vertex -0.5 -0.490341 0.992929
      vertex -0.496465 -0.493876 0.997412
    endloop
  endfacet
  facet normal 1 -0 0
    outer loop
      vertex -0.45 -0.490341 0.992929
      vertex -0.45 0.490341 0.95
      vertex -0.45 0.490341 0.992929
    endloop
  endfacet
  facet normal 1 0 0
    outer loop
      vertex -0.45 0.490341 0.95
      vertex -0.45 -0.490341 0.992929
      vertex -0.45 -0.490341 0.95
    endloop
  endfacet
  facet normal 0.132881 -0.495528 0.858367
    outer loop
      vertex -0.459659 -0.492929 1
      vertex -0.459659 -0.497412 0.997412
      vertex -0.458365 -0.492582 1
    endloop
  endfacet
  facet normal -0.499962 0 0.866047
    outer loop
      vertex -0.497412 0.490341 0.997412
      vertex -0.492929 -0.490341 1
      vertex -0.492929 0.490341 1
    endloop
  endfacet
  facet normal -0.499962 0 0.866047
    outer loop
      vertex -0.492929 -0.490341 1
      vertex -0.497412 0.490341 0.997412
      vertex -0.497412 -0.490341 0.997412
    endloop
  endfacet
  facet normal -0.843641 -0.226019 0.487016
    outer loop
      vertex -0.496465 -0.493876 0.997412
      vertex -0.5 -0.490341 0.992929
      vertex -0.498706 -0.495171 0.992929
    endloop
  endfacet
  facet normal 0 0.866047 0.499962
    outer loop
      vertex -0.459659 0.5 0.992929
      vertex -0.490341 0.497412 0.997412
      vertex -0.459659 0.497412 0.997412
    endloop
  endfacet
  facet normal 0 0.866047 0.499962
    outer loop
      vertex -0.490341 0.497412 0.997412
      vertex -0.459659 0.5 0.992929
      vertex -0.490341 0.5 0.992929
    endloop
  endfacet
  facet normal -0.258783 -0.965936 0
    outer loop
      vertex -0.495171 -0.498706 0.907071
      vertex -0.490341 -0.5 0.992929
      vertex -0.495171 -0.498706 0.992929
    endloop
  endfacet
  facet normal -0.258783 -0.965936 -0
    outer loop
      vertex -0.490341 -0.5 0.992929
      vertex -0.495171 -0.498706 0.907071
      vertex -0.490341 -0.5 0.907071
    endloop
  endfacet
  facet normal 0.707107 -0.707107 0
    outer loop
      vertex -0.454829 -0.498706 0.992929
      vertex -0.451294 -0.495171 0.95
      vertex -0.451294 -0.495171 0.992929
    endloop
  endfacet
  facet normal 0.707107 -0.707107 0
    outer loop
      vertex -0.451294 -0.495171 0.95
      vertex -0.454829 -0.498706 0.992929
      vertex -0.454829 -0.498706 0.95
    endloop
  endfacet
  facet normal 0.707107 0.707107 0
    outer loop
      vertex -0.451294 0.495171 0.992929
      vertex -0.454829 0.498706 0.95
      vertex -0.454829 0.498706 0.992929
    endloop
  endfacet
  facet normal 0.707107 0.707107 0
    outer loop
      vertex -0.454829 0.498706 0.95
      vertex -0.451294 0.495171 0.992929
      vertex -0.451294 0.495171 0.95
    endloop
  endfacet
  facet normal 0.258783 0.965936 -0
    outer loop
      vertex -0.454829 0.498706 0.95
      vertex -0.459659 0.5 0.992929
      vertex -0.454829 0.498706 0.992929
    endloop
  endfacet
  facet normal 0.258783 0.965936 0
    outer loop
      vertex -0.459659 0.5 0.992929
      vertex -0.454829 0.498706 0.95
      vertex -0.459659 0.5 0.95
    endloop
  endfacet
  facet normal -0.362709 0.362709 0.85842
    outer loop
      vertex -0.493876 0.496465 0.997412
      vertex -0.492582 0.491634 1
      vertex -0.491634 0.492582 1
    endloop
  endfacet
  facet normal -0.362709 0.362709 0.85842
    outer loop
      vertex -0.492582 0.491634 1
      vertex -0.493876 0.496465 0.997412
      vertex -0.496465 0.493876 0.997412
    endloop
  endfacet
  facet normal 0.866047 -0 0.499962
    outer loop
      vertex -0.452588 -0.490341 0.997412
      vertex -0.45 0.490341 0.992929
      vertex -0.452588 0.490341 0.997412
    endloop
  endfacet
  facet normal 0.866047 0 0.499962
    outer loop
      vertex -0.45 0.490341 0.992929
      vertex -0.452588 -0.490341 0.997412
      vertex -0.45 -0.490341 0.992929
    endloop
  endfacet
  facet normal -0.226005 -0.843639 0.487026
    outer loop
      vertex -0.490341 -0.497412 0.997412
      vertex -0.493876 -0.496465 0.997412
      vertex -0.490341 -0.5 0.992929
    endloop
  endfacet
  facet normal 0.225944 -0.843652 0.487033
    outer loop
      vertex -0.459659 -0.497412 0.997412
      vertex -0.459659 -0.5 0.992929
      vertex -0.456123 -0.496465 0.997412
    endloop
  endfacet
  facet normal 0 -0.499962 0.866047
    outer loop
      vertex -0.490341 -0.492929 1
      vertex -0.459659 -0.497412 0.997412
      vertex -0.459659 -0.492929 1
    endloop
  endfacet
  facet normal 0 -0.499962 0.866047
    outer loop
      vertex -0.459659 -0.497412 0.997412
      vertex -0.490341 -0.492929 1
      vertex -0.490341 -0.497412 0.997412
    endloop
  endfacet
  facet normal 0.495569 -0.132759 0.858363
    outer loop
      vertex -0.452588 -0.490341 0.997412
      vertex -0.457417 -0.491634 1
      vertex -0.453535 -0.493876 0.997412
    endloop
  endfacet
  facet normal -0.866047 0 0.499962
    outer loop
      vertex -0.5 -0.490341 0.992929
      vertex -0.497412 0.490341 0.997412
      vertex -0.5 0.490341 0.992929
    endloop
  endfacet
  facet normal -0.866047 0 0.499962
    outer loop
      vertex -0.497412 0.490341 0.997412
      vertex -0.5 -0.490341 0.992929
      vertex -0.497412 -0.490341 0.997412
    endloop
  endfacet
  facet normal 0.362809 0.362668 0.858395
    outer loop
      vertex -0.456123 0.496465 0.997412
      vertex -0.457417 0.491634 1
      vertex -0.453535 0.493876 0.997412
    endloop
  endfacet
  facet normal 0.362709 0.362709 0.85842
    outer loop
      vertex -0.457417 0.491634 1
      vertex -0.456123 0.496465 0.997412
      vertex -0.458365 0.492582 1
    endloop
  endfacet
  facet normal -0.132737 -0.495487 0.858413
    outer loop
      vertex -0.491634 -0.492582 1
      vertex -0.493876 -0.496465 0.997412
      vertex -0.490341 -0.497412 0.997412
    endloop
  endfacet
  facet normal 0 -1 0
    outer loop
      vertex -0.490341 -0.5 0.992929
      vertex -0.459659 -0.5 0.95
      vertex -0.459659 -0.5 0.992929
    endloop
  endfacet
  facet normal 0 -1 0
    outer loop
      vertex -0.490341 -0.5 0.907071
      vertex -0.459659 -0.5 0.95
      vertex -0.490341 -0.5 0.992929
    endloop
  endfacet
  facet normal 0 -1 -0
    outer loop
      vertex -0.452587 -0.5 0.942928
      vertex -0.490341 -0.5 0.907071
      vertex 0.452587 -0.5 0.942928
    endloop
  endfacet
  facet normal 0 -1 -0
    outer loop
      vertex -0.45707 -0.5 0.945517
      vertex -0.490341 -0.5 0.907071
      vertex -0.452587 -0.5 0.942928
    endloop
  endfacet
  facet normal 0 -1 -0
    outer loop
      vertex -0.459659 -0.5 0.95
      vertex -0.490341 -0.5 0.907071
      vertex -0.45707 -0.5 0.945517
    endloop
  endfacet
  facet normal 0 -1 0
    outer loop
      vertex 0.459659 -0.5 0.95
      vertex 0.490341 -0.5 0.992929
      vertex 0.459659 -0.5 0.992929
    endloop
  endfacet
  facet normal 0 -1 0
    outer loop
      vertex 0.490341 -0.5 0.907071
      vertex 0.459659 -0.5 0.95
      vertex 0.45707 -0.5 0.945517
    endloop
  endfacet
  facet normal 0 -1 0
    outer loop
      vertex 0.459659 -0.5 0.95
      vertex 0.490341 -0.5 0.907071
      vertex 0.490341 -0.5 0.992929
    endloop
  endfacet
  facet normal 0 -1 0
    outer loop
      vertex 0.452587 -0.5 0.942928
      vertex 0.490341 -0.5 0.907071
      vertex 0.45707 -0.5 0.945517
    endloop
  endfacet
  facet normal 0 -1 0
    outer loop
      vertex 0.490341 -0.5 0.907071
      vertex 0.452587 -0.5 0.942928
      vertex -0.490341 -0.5 0.907071
    endloop
  endfacet
  facet normal 0.258783 -0.965936 0
    outer loop
      vertex -0.459659 -0.5 0.95
      vertex -0.454829 -0.498706 0.992929
      vertex -0.459659 -0.5 0.992929
    endloop
  endfacet
  facet normal 0.258783 -0.965936 0
    outer loop
      vertex -0.454829 -0.498706 0.992929
      vertex -0.459659 -0.5 0.95
      vertex -0.454829 -0.498706 0.95
    endloop
  endfacet
  facet normal 0 1 0
    outer loop
      vertex 0.490341 0.5 0.992929
      vertex 0.459659 0.5 0.95
      vertex 0.459659 0.5 0.992929
    endloop
  endfacet
  facet normal 0 1 -0
    outer loop
      vertex 0.490341 0.5 0.907071
      vertex 0.459659 0.5 0.95
      vertex 0.490341 0.5 0.992929
    endloop
  endfacet
  facet normal 0 1 0
    outer loop
      vertex 0.452587 0.5 0.942928
      vertex 0.490341 0.5 0.907071
      vertex -0.452587 0.5 0.942928
    endloop
  endfacet
  facet normal 0 1 0
    outer loop
      vertex 0.45707 0.5 0.945517
      vertex 0.490341 0.5 0.907071
      vertex 0.452587 0.5 0.942928
    endloop
  endfacet
  facet normal 0 1 0
    outer loop
      vertex 0.459659 0.5 0.95
      vertex 0.490341 0.5 0.907071
      vertex 0.45707 0.5 0.945517
    endloop
  endfacet
  facet normal 0 1 -0
    outer loop
      vertex -0.459659 0.5 0.95
      vertex -0.490341 0.5 0.992929
      vertex -0.459659 0.5 0.992929
    endloop
  endfacet
  facet normal 0 1 0
    outer loop
      vertex -0.490341 0.5 0.907071
      vertex -0.459659 0.5 0.95
      vertex -0.45707 0.5 0.945517
    endloop
  endfacet
  facet normal 0 1 0
    outer loop
      vertex -0.459659 0.5 0.95
      vertex -0.490341 0.5 0.907071
      vertex -0.490341 0.5 0.992929
    endloop
  endfacet
  facet normal 0 1 0
    outer loop
      vertex -0.452587 0.5 0.942928
      vertex -0.490341 0.5 0.907071
      vertex -0.45707 0.5 0.945517
    endloop
  endfacet
  facet normal 0 1 0
    outer loop
      vertex -0.490341 0.5 0.907071
      vertex -0.452587 0.5 0.942928
      vertex 0.490341 0.5 0.907071
    endloop
  endfacet
  facet normal 0.617592 0.617592 0.486992
    outer loop
      vertex -0.456123 0.496465 0.997412
      vertex -0.451294 0.495171 0.992929
      vertex -0.454829 0.498706 0.992929
    endloop
  endfacet
  facet normal 0.617662 0.617423 0.487116
    outer loop
      vertex -0.451294 0.495171 0.992929
      vertex -0.456123 0.496465 0.997412
      vertex -0.453535 0.493876 0.997412
    endloop
  endfacet
  facet normal 0.132704 0.495503 0.858409
    outer loop
      vertex -0.456123 0.496465 0.997412
      vertex -0.459659 0.497412 0.997412
      vertex -0.458365 0.492582 1
    endloop
  endfacet
  facet normal 0.132881 0.495528 0.858367
    outer loop
      vertex -0.459659 0.497412 0.997412
      vertex -0.459659 0.492929 1
      vertex -0.458365 0.492582 1
    endloop
  endfacet
  facet normal 0.225944 0.843652 0.487033
    outer loop
      vertex -0.459659 0.5 0.992929
      vertex -0.459659 0.497412 0.997412
      vertex -0.456123 0.496465 0.997412
    endloop
  endfacet
  facet normal -0.965936 -0.258783 0
    outer loop
      vertex -0.498706 -0.495171 0.907071
      vertex -0.5 -0.490341 0.992929
      vertex -0.5 -0.490341 0.907071
    endloop
  endfacet
  facet normal -0.965936 -0.258783 0
    outer loop
      vertex -0.5 -0.490341 0.992929
      vertex -0.498706 -0.495171 0.907071
      vertex -0.498706 -0.495171 0.992929
    endloop
  endfacet
  facet normal -0.495487 -0.132737 0.858413
    outer loop
      vertex -0.492582 -0.491634 1
      vertex -0.497412 -0.490341 0.997412
      vertex -0.496465 -0.493876 0.997412
    endloop
  endfacet
  facet normal 0.965925 0.258823 0
    outer loop
      vertex -0.451294 0.495171 0.992929
      vertex -0.450947 0.493876 0.95
      vertex -0.451294 0.495171 0.95
    endloop
  endfacet
  facet normal 0.965936 0.258783 1.30439e-06
    outer loop
      vertex -0.45 0.490341 0.992929
      vertex -0.450947 0.493876 0.95
      vertex -0.451294 0.495171 0.992929
    endloop
  endfacet
  facet normal 0.96594 0.258768 0
    outer loop
      vertex -0.450947 0.493876 0.95
      vertex -0.45 0.490341 0.992929
      vertex -0.45 0.490341 0.95
    endloop
  endfacet
  facet normal 0.499962 0 0.866047
    outer loop
      vertex -0.457071 0.490341 1
      vertex -0.452588 -0.490341 0.997412
      vertex -0.452588 0.490341 0.997412
    endloop
  endfacet
  facet normal 0.499962 0 0.866047
    outer loop
      vertex -0.452588 -0.490341 0.997412
      vertex -0.457071 0.490341 1
      vertex -0.457071 -0.490341 1
    endloop
  endfacet
  facet normal -0 0.499962 0.866047
    outer loop
      vertex -0.490341 0.497412 0.997412
      vertex -0.459659 0.492929 1
      vertex -0.459659 0.497412 0.997412
    endloop
  endfacet
  facet normal 0 0.499962 0.866047
    outer loop
      vertex -0.459659 0.492929 1
      vertex -0.490341 0.497412 0.997412
      vertex -0.490341 0.492929 1
    endloop
  endfacet
  facet normal 0.226025 -0.843662 0.486978
    outer loop
      vertex -0.456123 -0.496465 0.997412
      vertex -0.459659 -0.5 0.992929
      vertex -0.454829 -0.498706 0.992929
    endloop
  endfacet
  facet normal -0.226019 0.843641 0.487016
    outer loop
      vertex -0.490341 0.5 0.992929
      vertex -0.495171 0.498706 0.992929
      vertex -0.493876 0.496465 0.997412
    endloop
  endfacet
  facet normal 0.843641 0.226019 0.487016
    outer loop
      vertex -0.451294 0.495171 0.992929
      vertex -0.453535 0.493876 0.997412
      vertex -0.45 0.490341 0.992929
    endloop
  endfacet
  facet normal -0.495522 0.132982 0.858355
    outer loop
      vertex -0.492582 0.491634 1
      vertex -0.497412 0.490341 0.997412
      vertex -0.492929 0.490341 1
    endloop
  endfacet
  facet normal 0 -0.866047 0.499962
    outer loop
      vertex -0.490341 -0.5 0.992929
      vertex -0.459659 -0.497412 0.997412
      vertex -0.490341 -0.497412 0.997412
    endloop
  endfacet
  facet normal 0 -0.866047 0.499962
    outer loop
      vertex -0.459659 -0.497412 0.997412
      vertex -0.490341 -0.5 0.992929
      vertex -0.459659 -0.5 0.992929
    endloop
  endfacet
  facet normal -0.707107 -0.707107 0
    outer loop
      vertex -0.495171 -0.498706 0.907071
      vertex -0.498706 -0.495171 0.992929
      vertex -0.498706 -0.495171 0.907071
    endloop
  endfacet
  facet normal -0.707107 -0.707107 0
    outer loop
      vertex -0.498706 -0.495171 0.992929
      vertex -0.495171 -0.498706 0.907071
      vertex -0.495171 -0.498706 0.992929
    endloop
  endfacet
  facet normal -0.61755 -0.61755 0.487097
    outer loop
      vertex -0.498706 -0.495171 0.992929
      vertex -0.493876 -0.496465 0.997412
      vertex -0.496465 -0.493876 0.997412
    endloop
  endfacet
  facet normal -0.61755 -0.61755 0.487097
    outer loop
      vertex -0.493876 -0.496465 0.997412
      vertex -0.498706 -0.495171 0.992929
      vertex -0.495171 -0.498706 0.992929
    endloop
  endfacet
  facet normal -0.495487 0.132737 0.858413
    outer loop
      vertex -0.496465 0.493876 0.997412
      vertex -0.497412 0.490341 0.997412
      vertex -0.492582 0.491634 1
    endloop
  endfacet
  facet normal -0.132982 -0.495522 0.858355
    outer loop
      vertex -0.490341 -0.492929 1
      vertex -0.491634 -0.492582 1
      vertex -0.490341 -0.497412 0.997412
    endloop
  endfacet
  facet normal 0.617662 -0.617423 0.487116
    outer loop
      vertex -0.456123 -0.496465 0.997412
      vertex -0.451294 -0.495171 0.992929
      vertex -0.453535 -0.493876 0.997412
    endloop
  endfacet
  facet normal 0.617592 -0.617592 0.486992
    outer loop
      vertex -0.451294 -0.495171 0.992929
      vertex -0.456123 -0.496465 0.997412
      vertex -0.454829 -0.498706 0.992929
    endloop
  endfacet
  facet normal 0 0 1
    outer loop
      vertex -0.459659 0.492929 1
      vertex -0.457071 0.490341 1
      vertex -0.457417 0.491634 1
    endloop
  endfacet
  facet normal 0 0 1
    outer loop
      vertex -0.457071 0.490341 1
      vertex -0.492929 0.490341 1
      vertex -0.457071 -0.490341 1
    endloop
  endfacet
  facet normal 0 0 1
    outer loop
      vertex -0.459659 0.492929 1
      vertex -0.457417 0.491634 1
      vertex -0.458365 0.492582 1
    endloop
  endfacet
  facet normal 0 0 1
    outer loop
      vertex -0.492929 -0.490341 1
      vertex -0.457071 -0.490341 1
      vertex -0.492929 0.490341 1
    endloop
  endfacet
  facet normal 0 0 1
    outer loop
      vertex -0.457071 0.490341 1
      vertex -0.459659 0.492929 1
      vertex -0.492929 0.490341 1
    endloop
  endfacet
  facet normal 0 -0 1
    outer loop
      vertex -0.459659 -0.492929 1
      vertex -0.457071 -0.490341 1
      vertex -0.492929 -0.490341 1
    endloop
  endfacet
  facet normal 0 0 1
    outer loop
      vertex -0.492929 0.490341 1
      vertex -0.459659 0.492929 1
      vertex -0.490341 0.492929 1
    endloop
  endfacet
  facet normal 0 0 1
    outer loop
      vertex -0.457071 -0.490341 1
      vertex -0.459659 -0.492929 1
      vertex -0.457417 -0.491634 1
    endloop
  endfacet
  facet normal 0 0 1
    outer loop
      vertex -0.492929 0.490341 1
      vertex -0.490341 0.492929 1
      vertex -0.491634 0.492582 1
    endloop
  endfacet
  facet normal 0 0 1
    outer loop
      vertex -0.457417 -0.491634 1
      vertex -0.459659 -0.492929 1
      vertex -0.458365 -0.492582 1
    endloop
  endfacet
  facet normal 0 0 1
    outer loop
      vertex -0.492929 0.490341 1
      vertex -0.491634 0.492582 1
      vertex -0.492582 0.491634 1
    endloop
  endfacet
  facet normal 0 0 1
    outer loop
      vertex -0.459659 -0.492929 1
      vertex -0.492929 -0.490341 1
      vertex -0.490341 -0.492929 1
    endloop
  endfacet
  facet normal 0 0 1
    outer loop
      vertex -0.490341 -0.492929 1
      vertex -0.492929 -0.490341 1
      vertex -0.491634 -0.492582 1
    endloop
  endfacet
  facet normal 0 0 1
    outer loop
      vertex -0.491634 -0.492582 1
      vertex -0.492929 -0.490341 1
      vertex -0.492582 -0.491634 1
    endloop
  endfacet
  facet normal 0.495547 0.132606 0.858399
    outer loop
      vertex -0.452588 0.490341 0.997412
      vertex -0.457417 0.491634 1
      vertex -0.457071 0.490341 1
    endloop
  endfacet
  facet normal 0.843639 0.226005 0.487026
    outer loop
      vertex -0.45 0.490341 0.992929
      vertex -0.453535 0.493876 0.997412
      vertex -0.452588 0.490341 0.997412
    endloop
  endfacet
  facet normal -0.362709 -0.362709 0.85842
    outer loop
      vertex -0.492582 -0.491634 1
      vertex -0.493876 -0.496465 0.997412
      vertex -0.491634 -0.492582 1
    endloop
  endfacet
  facet normal -0.362709 -0.362709 0.85842
    outer loop
      vertex -0.493876 -0.496465 0.997412
      vertex -0.492582 -0.491634 1
      vertex -0.496465 -0.493876 0.997412
    endloop
  endfacet
  facet normal 0.362809 -0.362668 0.858395
    outer loop
      vertex -0.457417 -0.491634 1
      vertex -0.456123 -0.496465 0.997412
      vertex -0.453535 -0.493876 0.997412
    endloop
  endfacet
  facet normal 0.362709 -0.362709 0.85842
    outer loop
      vertex -0.456123 -0.496465 0.997412
      vertex -0.457417 -0.491634 1
      vertex -0.458365 -0.492582 1
    endloop
  endfacet
  facet normal 0.132704 -0.495503 0.858409
    outer loop
      vertex -0.458365 -0.492582 1
      vertex -0.459659 -0.497412 0.997412
      vertex -0.456123 -0.496465 0.997412
    endloop
  endfacet
  facet normal -0.707107 0.707107 0
    outer loop
      vertex -0.498706 0.495171 0.907071
      vertex -0.495171 0.498706 0.992929
      vertex -0.495171 0.498706 0.907071
    endloop
  endfacet
  facet normal -0.707107 0.707107 0
    outer loop
      vertex -0.495171 0.498706 0.992929
      vertex -0.498706 0.495171 0.907071
      vertex -0.498706 0.495171 0.992929
    endloop
  endfacet
  facet normal 0.495569 0.132759 0.858363
    outer loop
      vertex -0.453535 0.493876 0.997412
      vertex -0.457417 0.491634 1
      vertex -0.452588 0.490341 0.997412
    endloop
  endfacet
  facet normal 0.495547 -0.132606 0.858399
    outer loop
      vertex -0.457071 -0.490341 1
      vertex -0.457417 -0.491634 1
      vertex -0.452588 -0.490341 0.997412
    endloop
  endfacet
  facet normal 0.843641 -0.226019 0.487016
    outer loop
      vertex -0.45 -0.490341 0.992929
      vertex -0.453535 -0.493876 0.997412
      vertex -0.451294 -0.495171 0.992929
    endloop
  endfacet
  facet normal 0.843639 -0.226005 0.487026
    outer loop
      vertex -0.452588 -0.490341 0.997412
      vertex -0.453535 -0.493876 0.997412
      vertex -0.45 -0.490341 0.992929
    endloop
  endfacet
  facet normal -0.258783 0.965936 0
    outer loop
      vertex -0.490341 0.5 0.907071
      vertex -0.495171 0.498706 0.992929
      vertex -0.490341 0.5 0.992929
    endloop
  endfacet
  facet normal -0.258783 0.965936 0
    outer loop
      vertex -0.495171 0.498706 0.992929
      vertex -0.490341 0.5 0.907071
      vertex -0.495171 0.498706 0.907071
    endloop
  endfacet
  facet normal -0.61755 0.61755 0.487097
    outer loop
      vertex -0.498706 0.495171 0.992929
      vertex -0.493876 0.496465 0.997412
      vertex -0.495171 0.498706 0.992929
    endloop
  endfacet
  facet normal -0.61755 0.61755 0.487097
    outer loop
      vertex -0.493876 0.496465 0.997412
      vertex -0.498706 0.495171 0.992929
      vertex -0.496465 0.493876 0.997412
    endloop
  endfacet
  facet normal -0.843641 0.226019 0.487016
    outer loop
      vertex -0.498706 0.495171 0.992929
      vertex -0.5 0.490341 0.992929
      vertex -0.496465 0.493876 0.997412
    endloop
  endfacet
  facet normal 0.255991 0.955316 0.147781
    outer loop
      vertex -0.45707 0.5 0.945517
      vertex -0.454829 0.498706 0.95
      vertex -0.452241 0.498706 0.945517
    endloop
  endfacet
  facet normal 0.25594 0.955326 0.147809
    outer loop
      vertex -0.454829 0.498706 0.95
      vertex -0.45707 0.5 0.945517
      vertex -0.459659 0.5 0.95
    endloop
  endfacet
  facet normal 0 0 1
    outer loop
      vertex -0.450947 -0.493876 0.95
      vertex -0.450346 -0.491634 0.95
      vertex -0.45 -0.490341 0.95
    endloop
  endfacet
  facet normal 0.84379 -0.226097 0.486723
    outer loop
      vertex -0.450947 -0.493876 0.95
      vertex -0.451294 -0.495171 0.95
      vertex -0.450821 -0.495171 0.94918
    endloop
  endfacet
  facet normal 0.25594 -0.955326 0.147809
    outer loop
      vertex -0.45707 -0.5 0.945517
      vertex -0.454829 -0.498706 0.95
      vertex -0.459659 -0.5 0.95
    endloop
  endfacet
  facet normal 0.255991 -0.955316 0.147781
    outer loop
      vertex -0.454829 -0.498706 0.95
      vertex -0.45707 -0.5 0.945517
      vertex -0.452241 -0.498706 0.945517
    endloop
  endfacet
  facet normal 0 0 1
    outer loop
      vertex -0.450346 0.491634 0.95
      vertex -0.450947 0.493876 0.95
      vertex -0.45 0.490341 0.95
    endloop
  endfacet
  facet normal 0.84379 0.226097 0.486723
    outer loop
      vertex -0.451294 0.495171 0.95
      vertex -0.450947 0.493876 0.95
      vertex -0.450821 0.495171 0.94918
    endloop
  endfacet
  facet normal 0.654738 0.654738 0.377672
    outer loop
      vertex -0.452115 0.496465 0.94918
      vertex -0.451294 0.495171 0.95
      vertex -0.450821 0.495171 0.94918
    endloop
  endfacet
  facet normal 0.654738 0.654738 0.377672
    outer loop
      vertex -0.451294 0.495171 0.95
      vertex -0.452115 0.496465 0.94918
      vertex -0.454829 0.498706 0.95
    endloop
  endfacet
  facet normal 0.654711 0.6546 0.377959
    outer loop
      vertex -0.454829 0.498706 0.95
      vertex -0.452115 0.496465 0.94918
      vertex -0.452241 0.498706 0.945517
    endloop
  endfacet
  facet normal 0.654738 -0.654738 0.377672
    outer loop
      vertex -0.454829 -0.498706 0.95
      vertex -0.452115 -0.496465 0.94918
      vertex -0.451294 -0.495171 0.95
    endloop
  endfacet
  facet normal 0.654711 -0.6546 0.377959
    outer loop
      vertex -0.452115 -0.496465 0.94918
      vertex -0.454829 -0.498706 0.95
      vertex -0.452241 -0.498706 0.945517
    endloop
  endfacet
  facet normal 0.654738 -0.654738 0.377672
    outer loop
      vertex -0.451294 -0.495171 0.95
      vertex -0.452115 -0.496465 0.94918
      vertex -0.450821 -0.495171 0.94918
    endloop
  endfacet
  facet normal -0.843639 -0.226005 -0.487026
    outer loop
      vertex -0.496465 -0.493876 0.902588
      vertex -0.5 -0.490341 0.907071
      vertex -0.497412 -0.490341 0.902588
    endloop
  endfacet
  facet normal -0.843639 0.226005 -0.487026
    outer loop
      vertex -0.497412 0.490341 0.902588
      vertex -0.5 0.490341 0.907071
      vertex -0.496465 0.493876 0.902588
    endloop
  endfacet
  facet normal 0.843639 -0.226005 -0.487026
    outer loop
      vertex 0.5 -0.490341 0.907071
      vertex 0.496465 -0.493876 0.902588
      vertex 0.497412 -0.490341 0.902588
    endloop
  endfacet
  facet normal 0 -0.866047 -0.499962
    outer loop
      vertex -0.490341 -0.497412 0.902588
      vertex 0.490341 -0.5 0.907071
      vertex -0.490341 -0.5 0.907071
    endloop
  endfacet
  facet normal 0 -0.866047 -0.499962
    outer loop
      vertex 0.490341 -0.5 0.907071
      vertex -0.490341 -0.497412 0.902588
      vertex 0.490341 -0.497412 0.902588
    endloop
  endfacet
  facet normal -0.495487 -0.132737 -0.858413
    outer loop
      vertex -0.496465 -0.493876 0.902588
      vertex -0.497412 -0.490341 0.902588
      vertex -0.492582 -0.491634 0.9
    endloop
  endfacet
  facet normal 0.61755 -0.61755 -0.487097
    outer loop
      vertex 0.498706 -0.495171 0.907071
      vertex 0.493876 -0.496465 0.902588
      vertex 0.496465 -0.493876 0.902588
    endloop
  endfacet
  facet normal 0.61755 -0.61755 -0.487097
    outer loop
      vertex 0.493876 -0.496465 0.902588
      vertex 0.498706 -0.495171 0.907071
      vertex 0.495171 -0.498706 0.907071
    endloop
  endfacet
  facet normal 0.132982 -0.495522 -0.858355
    outer loop
      vertex 0.491634 -0.492582 0.9
      vertex 0.490341 -0.497412 0.902588
      vertex 0.490341 -0.492929 0.9
    endloop
  endfacet
  facet normal 0 0 -1
    outer loop
      vertex 0.490341 -0.492929 0.9
      vertex 0.492929 -0.490341 0.9
      vertex 0.492582 -0.491634 0.9
    endloop
  endfacet
  facet normal -0 0 -1
    outer loop
      vertex 0.492929 -0.490341 0.9
      vertex 0.490341 -0.492929 0.9
      vertex 0.492929 0.490341 0.9
    endloop
  endfacet
  facet normal 0 0 -1
    outer loop
      vertex 0.490341 -0.492929 0.9
      vertex 0.492582 -0.491634 0.9
      vertex 0.491634 -0.492582 0.9
    endloop
  endfacet
  facet normal 0 0 -1
    outer loop
      vertex 0.490341 0.492929 0.9
      vertex 0.492929 0.490341 0.9
      vertex 0.490341 -0.492929 0.9
    endloop
  endfacet
  facet normal 0 0 -1
    outer loop
      vertex 0.492929 0.490341 0.9
      vertex 0.490341 0.492929 0.9
      vertex 0.492582 0.491634 0.9
    endloop
  endfacet
  facet normal 0 0 -1
    outer loop
      vertex 0.492582 0.491634 0.9
      vertex 0.490341 0.492929 0.9
      vertex 0.491634 0.492582 0.9
    endloop
  endfacet
  facet normal 0 0 -1
    outer loop
      vertex -0.490341 -0.492929 0.9
      vertex 0.490341 0.492929 0.9
      vertex 0.490341 -0.492929 0.9
    endloop
  endfacet
  facet normal 0 0 -1
    outer loop
      vertex -0.490341 -0.492929 0.9
      vertex -0.490341 0.492929 0.9
      vertex 0.490341 0.492929 0.9
    endloop
  endfacet
  facet normal 0 0 -1
    outer loop
      vertex -0.492929 -0.490341 0.9
      vertex -0.490341 -0.492929 0.9
      vertex -0.491634 -0.492582 0.9
    endloop
  endfacet
  facet normal 0 0 -1
    outer loop
      vertex -0.490341 -0.492929 0.9
      vertex -0.492929 -0.490341 0.9
      vertex -0.490341 0.492929 0.9
    endloop
  endfacet
  facet normal 0 0 -1
    outer loop
      vertex -0.492929 -0.490341 0.9
      vertex -0.491634 -0.492582 0.9
      vertex -0.492582 -0.491634 0.9
    endloop
  endfacet
  facet normal 0 0 -1
    outer loop
      vertex -0.492929 0.490341 0.9
      vertex -0.490341 0.492929 0.9
      vertex -0.492929 -0.490341 0.9
    endloop
  endfacet
  facet normal 0 0 -1
    outer loop
      vertex -0.490341 0.492929 0.9
      vertex -0.492929 0.490341 0.9
      vertex -0.491634 0.492582 0.9
    endloop
  endfacet
  facet normal 0 0 -1
    outer loop
      vertex -0.491634 0.492582 0.9
      vertex -0.492929 0.490341 0.9
      vertex -0.492582 0.491634 0.9
    endloop
  endfacet
  facet normal -0.226005 -0.843639 -0.487026
    outer loop
      vertex -0.490341 -0.5 0.907071
      vertex -0.493876 -0.496465 0.902588
      vertex -0.490341 -0.497412 0.902588
    endloop
  endfacet
  facet normal -0.843641 0.226019 -0.487016
    outer loop
      vertex -0.496465 0.493876 0.902588
      vertex -0.5 0.490341 0.907071
      vertex -0.498706 0.495171 0.907071
    endloop
  endfacet
  facet normal 0 0.50006 0.865991
    outer loop
      vertex 0.449999 0.496465 0.947958
      vertex -0.449999 0.496465 0.947958
      vertex 0.449999 0.493876 0.949453
    endloop
  endfacet
  facet normal 0 0.499485 0.866323
    outer loop
      vertex 0.451786 0.497412 0.947412
      vertex -0.449999 0.496465 0.947958
      vertex 0.449999 0.496465 0.947958
    endloop
  endfacet
  facet normal 0 0.499485 0.866323
    outer loop
      vertex -0.449999 0.496465 0.947958
      vertex 0.451786 0.497412 0.947412
      vertex -0.451786 0.497412 0.947412
    endloop
  endfacet
  facet normal -0 0.50006 0.865991
    outer loop
      vertex -0.449999 0.493876 0.949453
      vertex 0.449999 0.493876 0.949453
      vertex -0.449999 0.496465 0.947958
    endloop
  endfacet
  facet normal 0 0.500171 0.865927
    outer loop
      vertex 0.449999 0.493876 0.949453
      vertex -0.449999 0.493876 0.949453
      vertex 0.450693 0.492929 0.95
    endloop
  endfacet
  facet normal 0 0.500171 0.865927
    outer loop
      vertex 0.450693 0.492929 0.95
      vertex -0.449999 0.493876 0.949453
      vertex -0.450693 0.492929 0.95
    endloop
  endfacet
  facet normal 0.495487 -0.132737 -0.858413
    outer loop
      vertex 0.496465 -0.493876 0.902588
      vertex 0.492582 -0.491634 0.9
      vertex 0.497412 -0.490341 0.902588
    endloop
  endfacet
  facet normal -0.362709 -0.362709 -0.85842
    outer loop
      vertex -0.493876 -0.496465 0.902588
      vertex -0.492582 -0.491634 0.9
      vertex -0.491634 -0.492582 0.9
    endloop
  endfacet
  facet normal -0.362709 -0.362709 -0.85842
    outer loop
      vertex -0.492582 -0.491634 0.9
      vertex -0.493876 -0.496465 0.902588
      vertex -0.496465 -0.493876 0.902588
    endloop
  endfacet
  facet normal 0.499962 0 -0.866047
    outer loop
      vertex 0.492929 -0.490341 0.9
      vertex 0.497412 0.490341 0.902588
      vertex 0.497412 -0.490341 0.902588
    endloop
  endfacet
  facet normal 0.499962 0 -0.866047
    outer loop
      vertex 0.497412 0.490341 0.902588
      vertex 0.492929 -0.490341 0.9
      vertex 0.492929 0.490341 0.9
    endloop
  endfacet
  facet normal 1 -0 0
    outer loop
      vertex 0.5 -0.490341 0.992929
      vertex 0.5 0.490341 0.907071
      vertex 0.5 0.490341 0.992929
    endloop
  endfacet
  facet normal 1 0 0
    outer loop
      vertex 0.5 0.490341 0.907071
      vertex 0.5 -0.490341 0.992929
      vertex 0.5 -0.490341 0.907071
    endloop
  endfacet
  facet normal 0.866047 0 -0.499962
    outer loop
      vertex 0.5 -0.490341 0.907071
      vertex 0.497412 0.490341 0.902588
      vertex 0.5 0.490341 0.907071
    endloop
  endfacet
  facet normal 0.866047 0 -0.499962
    outer loop
      vertex 0.497412 0.490341 0.902588
      vertex 0.5 -0.490341 0.907071
      vertex 0.497412 -0.490341 0.902588
    endloop
  endfacet
  facet normal -0.226019 -0.843641 -0.487016
    outer loop
      vertex -0.490341 -0.5 0.907071
      vertex -0.495171 -0.498706 0.907071
      vertex -0.493876 -0.496465 0.902588
    endloop
  endfacet
  facet normal 0.132982 0.495522 -0.858355
    outer loop
      vertex 0.491634 0.492582 0.9
      vertex 0.490341 0.492929 0.9
      vertex 0.490341 0.497412 0.902588
    endloop
  endfacet
  facet normal 0.707107 0.707107 0
    outer loop
      vertex 0.498706 0.495171 0.992929
      vertex 0.495171 0.498706 0.907071
      vertex 0.495171 0.498706 0.992929
    endloop
  endfacet
  facet normal 0.707107 0.707107 0
    outer loop
      vertex 0.495171 0.498706 0.907071
      vertex 0.498706 0.495171 0.992929
      vertex 0.498706 0.495171 0.907071
    endloop
  endfacet
  facet normal 0 -0.50006 0.865991
    outer loop
      vertex 0.449999 -0.493876 0.949453
      vertex -0.449999 -0.493876 0.949453
      vertex 0.449999 -0.496465 0.947958
    endloop
  endfacet
  facet normal 0 -0.500171 0.865927
    outer loop
      vertex 0.450693 -0.492929 0.95
      vertex -0.449999 -0.493876 0.949453
      vertex 0.449999 -0.493876 0.949453
    endloop
  endfacet
  facet normal 0 -0.500171 0.865927
    outer loop
      vertex -0.449999 -0.493876 0.949453
      vertex 0.450693 -0.492929 0.95
      vertex -0.450693 -0.492929 0.95
    endloop
  endfacet
  facet normal 0 -0.50006 0.865991
    outer loop
      vertex -0.449999 -0.496465 0.947958
      vertex 0.449999 -0.496465 0.947958
      vertex -0.449999 -0.493876 0.949453
    endloop
  endfacet
  facet normal 0 -0.499485 0.866323
    outer loop
      vertex 0.449999 -0.496465 0.947958
      vertex -0.449999 -0.496465 0.947958
      vertex 0.451786 -0.497412 0.947412
    endloop
  endfacet
  facet normal 0 -0.499485 0.866323
    outer loop
      vertex 0.451786 -0.497412 0.947412
      vertex -0.449999 -0.496465 0.947958
      vertex -0.451786 -0.497412 0.947412
    endloop
  endfacet
  facet normal 0.226005 -0.843639 -0.487026
    outer loop
      vertex 0.493876 -0.496465 0.902588
      vertex 0.490341 -0.5 0.907071
      vertex 0.490341 -0.497412 0.902588
    endloop
  endfacet
  facet normal 0.132737 -0.495487 -0.858413
    outer loop
      vertex 0.493876 -0.496465 0.902588
      vertex 0.490341 -0.497412 0.902588
      vertex 0.491634 -0.492582 0.9
    endloop
  endfacet
  facet normal 0.226019 -0.843641 -0.487016
    outer loop
      vertex 0.495171 -0.498706 0.907071
      vertex 0.490341 -0.5 0.907071
      vertex 0.493876 -0.496465 0.902588
    endloop
  endfacet
  facet normal 0.362709 0.362709 -0.85842
    outer loop
      vertex 0.492582 0.491634 0.9
      vertex 0.493876 0.496465 0.902588
      vertex 0.496465 0.493876 0.902588
    endloop
  endfacet
  facet normal 0.362709 0.362709 -0.85842
    outer loop
      vertex 0.493876 0.496465 0.902588
      vertex 0.492582 0.491634 0.9
      vertex 0.491634 0.492582 0.9
    endloop
  endfacet
  facet normal -0.495487 0.132737 -0.858413
    outer loop
      vertex -0.492582 0.491634 0.9
      vertex -0.497412 0.490341 0.902588
      vertex -0.496465 0.493876 0.902588
    endloop
  endfacet
  facet normal -0.132982 0.495522 -0.858355
    outer loop
      vertex -0.490341 0.492929 0.9
      vertex -0.491634 0.492582 0.9
      vertex -0.490341 0.497412 0.902588
    endloop
  endfacet
  facet normal -0.132737 0.495487 -0.858413
    outer loop
      vertex -0.491634 0.492582 0.9
      vertex -0.493876 0.496465 0.902588
      vertex -0.490341 0.497412 0.902588
    endloop
  endfacet
  facet normal -0.866047 0 -0.499962
    outer loop
      vertex -0.497412 -0.490341 0.902588
      vertex -0.5 0.490341 0.907071
      vertex -0.497412 0.490341 0.902588
    endloop
  endfacet
  facet normal -0.866047 -0 -0.499962
    outer loop
      vertex -0.5 0.490341 0.907071
      vertex -0.497412 -0.490341 0.902588
      vertex -0.5 -0.490341 0.907071
    endloop
  endfacet
  facet normal 0.258783 0.965936 -0
    outer loop
      vertex 0.495171 0.498706 0.907071
      vertex 0.490341 0.5 0.992929
      vertex 0.495171 0.498706 0.992929
    endloop
  endfacet
  facet normal 0.258783 0.965936 0
    outer loop
      vertex 0.490341 0.5 0.992929
      vertex 0.495171 0.498706 0.907071
      vertex 0.490341 0.5 0.907071
    endloop
  endfacet
  facet normal -0.495522 0.132982 -0.858355
    outer loop
      vertex -0.492929 0.490341 0.9
      vertex -0.497412 0.490341 0.902588
      vertex -0.492582 0.491634 0.9
    endloop
  endfacet
  facet normal -0.132737 -0.495487 -0.858413
    outer loop
      vertex -0.490341 -0.497412 0.902588
      vertex -0.493876 -0.496465 0.902588
      vertex -0.491634 -0.492582 0.9
    endloop
  endfacet
  facet normal 0.707107 -0.707107 0
    outer loop
      vertex 0.495171 -0.498706 0.992929
      vertex 0.498706 -0.495171 0.907071
      vertex 0.498706 -0.495171 0.992929
    endloop
  endfacet
  facet normal 0.707107 -0.707107 0
    outer loop
      vertex 0.498706 -0.495171 0.907071
      vertex 0.495171 -0.498706 0.992929
      vertex 0.495171 -0.498706 0.907071
    endloop
  endfacet
  facet normal 0.965936 -0.258783 0
    outer loop
      vertex 0.498706 -0.495171 0.992929
      vertex 0.5 -0.490341 0.907071
      vertex 0.5 -0.490341 0.992929
    endloop
  endfacet
  facet normal 0.965936 -0.258783 0
    outer loop
      vertex 0.5 -0.490341 0.907071
      vertex 0.498706 -0.495171 0.992929
      vertex 0.498706 -0.495171 0.907071
    endloop
  endfacet
  facet normal 0.495522 -0.132982 -0.858355
    outer loop
      vertex 0.497412 -0.490341 0.902588
      vertex 0.492582 -0.491634 0.9
      vertex 0.492929 -0.490341 0.9
    endloop
  endfacet
  facet normal -0.226019 0.843641 -0.487016
    outer loop
      vertex -0.493876 0.496465 0.902588
      vertex -0.495171 0.498706 0.907071
      vertex -0.490341 0.5 0.907071
    endloop
  endfacet
  facet normal 0.843641 0.226019 -0.487016
    outer loop
      vertex 0.5 0.490341 0.907071
      vertex 0.496465 0.493876 0.902588
      vertex 0.498706 0.495171 0.907071
    endloop
  endfacet
  facet normal 0 0.499962 -0.866047
    outer loop
      vertex -0.490341 0.492929 0.9
      vertex 0.490341 0.497412 0.902588
      vertex 0.490341 0.492929 0.9
    endloop
  endfacet
  facet normal 0 0.499962 -0.866047
    outer loop
      vertex 0.490341 0.497412 0.902588
      vertex -0.490341 0.492929 0.9
      vertex -0.490341 0.497412 0.902588
    endloop
  endfacet
  facet normal -0.843641 -0.226019 -0.487016
    outer loop
      vertex -0.498706 -0.495171 0.907071
      vertex -0.5 -0.490341 0.907071
      vertex -0.496465 -0.493876 0.902588
    endloop
  endfacet
  facet normal 0.495487 0.132737 -0.858413
    outer loop
      vertex 0.497412 0.490341 0.902588
      vertex 0.492582 0.491634 0.9
      vertex 0.496465 0.493876 0.902588
    endloop
  endfacet
  facet normal 0.843639 0.226005 -0.487026
    outer loop
      vertex 0.497412 0.490341 0.902588
      vertex 0.496465 0.493876 0.902588
      vertex 0.5 0.490341 0.907071
    endloop
  endfacet
  facet normal 0 0.866096 0.499879
    outer loop
      vertex 0.45164 0.498706 0.94517
      vertex -0.451786 0.497412 0.947412
      vertex 0.451786 0.497412 0.947412
    endloop
  endfacet
  facet normal 0 0.866096 0.499879
    outer loop
      vertex 0.45164 0.498706 0.94517
      vertex -0.45164 0.498706 0.94517
      vertex -0.451786 0.497412 0.947412
    endloop
  endfacet
  facet normal 0 0.866096 0.499879
    outer loop
      vertex 0.452587 0.5 0.942928
      vertex -0.45164 0.498706 0.94517
      vertex 0.45164 0.498706 0.94517
    endloop
  endfacet
  facet normal 0 0.866096 0.499879
    outer loop
      vertex -0.45164 0.498706 0.94517
      vertex 0.452587 0.5 0.942928
      vertex -0.452587 0.5 0.942928
    endloop
  endfacet
  facet normal 0.843641 -0.226019 -0.487016
    outer loop
      vertex 0.498706 -0.495171 0.907071
      vertex 0.496465 -0.493876 0.902588
      vertex 0.5 -0.490341 0.907071
    endloop
  endfacet
  facet normal -0.132982 -0.495522 -0.858355
    outer loop
      vertex -0.490341 -0.497412 0.902588
      vertex -0.491634 -0.492582 0.9
      vertex -0.490341 -0.492929 0.9
    endloop
  endfacet
  facet normal 0.495522 0.132982 -0.858355
    outer loop
      vertex 0.492929 0.490341 0.9
      vertex 0.492582 0.491634 0.9
      vertex 0.497412 0.490341 0.902588
    endloop
  endfacet
  facet normal -0.61755 0.61755 -0.487097
    outer loop
      vertex -0.493876 0.496465 0.902588
      vertex -0.498706 0.495171 0.907071
      vertex -0.495171 0.498706 0.907071
    endloop
  endfacet
  facet normal -0.61755 0.61755 -0.487097
    outer loop
      vertex -0.498706 0.495171 0.907071
      vertex -0.493876 0.496465 0.902588
      vertex -0.496465 0.493876 0.902588
    endloop
  endfacet
  facet normal -0.362709 0.362709 -0.85842
    outer loop
      vertex -0.492582 0.491634 0.9
      vertex -0.493876 0.496465 0.902588
      vertex -0.491634 0.492582 0.9
    endloop
  endfacet
  facet normal -0.362709 0.362709 -0.85842
    outer loop
      vertex -0.493876 0.496465 0.902588
      vertex -0.492582 0.491634 0.9
      vertex -0.496465 0.493876 0.902588
    endloop
  endfacet
  facet normal -0.226005 0.843639 -0.487026
    outer loop
      vertex -0.490341 0.497412 0.902588
      vertex -0.493876 0.496465 0.902588
      vertex -0.490341 0.5 0.907071
    endloop
  endfacet
  facet normal 0 0.866047 -0.499962
    outer loop
      vertex 0.490341 0.497412 0.902588
      vertex -0.490341 0.5 0.907071
      vertex 0.490341 0.5 0.907071
    endloop
  endfacet
  facet normal 0 0.866047 -0.499962
    outer loop
      vertex -0.490341 0.5 0.907071
      vertex 0.490341 0.497412 0.902588
      vertex -0.490341 0.497412 0.902588
    endloop
  endfacet
  facet normal 0.362709 -0.362709 -0.85842
    outer loop
      vertex 0.493876 -0.496465 0.902588
      vertex 0.492582 -0.491634 0.9
      vertex 0.496465 -0.493876 0.902588
    endloop
  endfacet
  facet normal 0.362709 -0.362709 -0.85842
    outer loop
      vertex 0.492582 -0.491634 0.9
      vertex 0.493876 -0.496465 0.902588
      vertex 0.491634 -0.492582 0.9
    endloop
  endfacet
  facet normal -0.499962 0 -0.866047
    outer loop
      vertex -0.497412 -0.490341 0.902588
      vertex -0.492929 0.490341 0.9
      vertex -0.492929 -0.490341 0.9
    endloop
  endfacet
  facet normal -0.499962 0 -0.866047
    outer loop
      vertex -0.492929 0.490341 0.9
      vertex -0.497412 -0.490341 0.902588
      vertex -0.497412 0.490341 0.902588
    endloop
  endfacet
  facet normal -0.61755 -0.61755 -0.487097
    outer loop
      vertex -0.493876 -0.496465 0.902588
      vertex -0.498706 -0.495171 0.907071
      vertex -0.496465 -0.493876 0.902588
    endloop
  endfacet
  facet normal -0.61755 -0.61755 -0.487097
    outer loop
      vertex -0.498706 -0.495171 0.907071
      vertex -0.493876 -0.496465 0.902588
      vertex -0.495171 -0.498706 0.907071
    endloop
  endfacet
  facet normal 0.965936 0.258783 0
    outer loop
      vertex 0.5 0.490341 0.992929
      vertex 0.498706 0.495171 0.907071
      vertex 0.498706 0.495171 0.992929
    endloop
  endfacet
  facet normal 0.965936 0.258783 0
    outer loop
      vertex 0.498706 0.495171 0.907071
      vertex 0.5 0.490341 0.992929
      vertex 0.5 0.490341 0.907071
    endloop
  endfacet
  facet normal 0.61755 0.61755 -0.487097
    outer loop
      vertex 0.498706 0.495171 0.907071
      vertex 0.493876 0.496465 0.902588
      vertex 0.495171 0.498706 0.907071
    endloop
  endfacet
  facet normal 0.61755 0.61755 -0.487097
    outer loop
      vertex 0.493876 0.496465 0.902588
      vertex 0.498706 0.495171 0.907071
      vertex 0.496465 0.493876 0.902588
    endloop
  endfacet
  facet normal 0.132737 0.495487 -0.858413
    outer loop
      vertex 0.491634 0.492582 0.9
      vertex 0.490341 0.497412 0.902588
      vertex 0.493876 0.496465 0.902588
    endloop
  endfacet
  facet normal -0.495522 -0.132982 -0.858355
    outer loop
      vertex -0.492582 -0.491634 0.9
      vertex -0.497412 -0.490341 0.902588
      vertex -0.492929 -0.490341 0.9
    endloop
  endfacet
  facet normal 0 -0.499962 -0.866047
    outer loop
      vertex -0.490341 -0.497412 0.902588
      vertex 0.490341 -0.492929 0.9
      vertex 0.490341 -0.497412 0.902588
    endloop
  endfacet
  facet normal -0 -0.499962 -0.866047
    outer loop
      vertex 0.490341 -0.492929 0.9
      vertex -0.490341 -0.497412 0.902588
      vertex -0.490341 -0.492929 0.9
    endloop
  endfacet
  facet normal 0.226005 0.843639 -0.487026
    outer loop
      vertex 0.493876 0.496465 0.902588
      vertex 0.490341 0.497412 0.902588
      vertex 0.490341 0.5 0.907071
    endloop
  endfacet
  facet normal 0.226019 0.843641 -0.487016
    outer loop
      vertex 0.493876 0.496465 0.902588
      vertex 0.490341 0.5 0.907071
      vertex 0.495171 0.498706 0.907071
    endloop
  endfacet
  facet normal 0.258783 -0.965936 0
    outer loop
      vertex 0.490341 -0.5 0.907071
      vertex 0.495171 -0.498706 0.992929
      vertex 0.490341 -0.5 0.992929
    endloop
  endfacet
  facet normal 0.258783 -0.965936 0
    outer loop
      vertex 0.495171 -0.498706 0.992929
      vertex 0.490341 -0.5 0.907071
      vertex 0.495171 -0.498706 0.907071
    endloop
  endfacet
  facet normal 0 -0.866096 0.499879
    outer loop
      vertex -0.45164 -0.498706 0.94517
      vertex 0.451786 -0.497412 0.947412
      vertex -0.451786 -0.497412 0.947412
    endloop
  endfacet
  facet normal 0 -0.866096 0.499879
    outer loop
      vertex -0.45164 -0.498706 0.94517
      vertex 0.45164 -0.498706 0.94517
      vertex 0.451786 -0.497412 0.947412
    endloop
  endfacet
  facet normal 0 -0.866096 0.499879
    outer loop
      vertex -0.452587 -0.5 0.942928
      vertex 0.45164 -0.498706 0.94517
      vertex -0.45164 -0.498706 0.94517
    endloop
  endfacet
  facet normal 0 -0.866096 0.499879
    outer loop
      vertex 0.45164 -0.498706 0.94517
      vertex -0.452587 -0.5 0.942928
      vertex 0.452587 -0.5 0.942928
    endloop
  endfacet
  facet normal 0 0 1
    outer loop
      vertex 0.45 0.490341 0.95
      vertex -0.45 0.490341 0.95
      vertex 0.45 -0.490341 0.95
    endloop
  endfacet
  facet normal 0 0 1
    outer loop
      vertex 0.450346 0.491634 0.95
      vertex -0.45 0.490341 0.95
      vertex 0.45 0.490341 0.95
    endloop
  endfacet
  facet normal 0 0 1
    outer loop
      vertex 0.450693 0.492929 0.95
      vertex -0.45 0.490341 0.95
      vertex 0.450346 0.491634 0.95
    endloop
  endfacet
  facet normal 0 0 1
    outer loop
      vertex 0.450693 0.492929 0.95
      vertex -0.450346 0.491634 0.95
      vertex -0.45 0.490341 0.95
    endloop
  endfacet
  facet normal 0 -0 1
    outer loop
      vertex -0.450346 0.491634 0.95
      vertex 0.450693 0.492929 0.95
      vertex -0.450693 0.492929 0.95
    endloop
  endfacet
  facet normal 0 0 1
    outer loop
      vertex -0.45 -0.490341 0.95
      vertex 0.45 -0.490341 0.95
      vertex -0.45 0.490341 0.95
    endloop
  endfacet
  facet normal 0 0 1
    outer loop
      vertex 0.45 -0.490341 0.95
      vertex -0.45 -0.490341 0.95
      vertex 0.450346 -0.491634 0.95
    endloop
  endfacet
  facet normal 0 0 1
    outer loop
      vertex 0.450346 -0.491634 0.95
      vertex -0.45 -0.490341 0.95
      vertex 0.450693 -0.492929 0.95
    endloop
  endfacet
  facet normal -0 0 1
    outer loop
      vertex -0.450346 -0.491634 0.95
      vertex 0.450693 -0.492929 0.95
      vertex -0.45 -0.490341 0.95
    endloop
  endfacet
  facet normal 0 0 1
    outer loop
      vertex 0.450693 -0.492929 0.95
      vertex -0.450346 -0.491634 0.95
      vertex -0.450693 -0.492929 0.95
    endloop
  endfacet
  facet normal -0.284858 -0.821921 0.493256
    outer loop
      vertex 0.451786 -0.497412 0.947412
      vertex 0.452115 -0.496465 0.94918
      vertex 0.449999 -0.496465 0.947958
    endloop
  endfacet
  facet normal -0.284011 -0.822214 0.493256
    outer loop
      vertex 0.451786 -0.497412 0.947412
      vertex 0.452241 -0.498706 0.945517
      vertex 0.452115 -0.496465 0.94918
    endloop
  endfacet
  facet normal -0.284664 -0.822121 0.493035
    outer loop
      vertex 0.452241 -0.498706 0.945517
      vertex 0.451786 -0.497412 0.947412
      vertex 0.45164 -0.498706 0.94517
    endloop
  endfacet
  facet normal -0.236143 -0.881452 0.408997
    outer loop
      vertex 0.452587 -0.5 0.942928
      vertex 0.452241 -0.498706 0.945517
      vertex 0.45164 -0.498706 0.94517
    endloop
  endfacet
  facet normal -0.236195 -0.881443 0.408986
    outer loop
      vertex 0.452241 -0.498706 0.945517
      vertex 0.452587 -0.5 0.942928
      vertex 0.45707 -0.5 0.945517
    endloop
  endfacet
  facet normal -0.236195 0.881443 0.408986
    outer loop
      vertex 0.452587 0.5 0.942928
      vertex 0.452241 0.498706 0.945517
      vertex 0.45707 0.5 0.945517
    endloop
  endfacet
  facet normal -0.236143 0.881452 0.408997
    outer loop
      vertex 0.452241 0.498706 0.945517
      vertex 0.452587 0.5 0.942928
      vertex 0.45164 0.498706 0.94517
    endloop
  endfacet
  facet normal 0 0 1
    outer loop
      vertex 0.450346 -0.491634 0.95
      vertex 0.450693 -0.492929 0.95
      vertex 0.450947 -0.493876 0.95
    endloop
  endfacet
  facet normal -0.495345 -0.132859 0.858477
    outer loop
      vertex 0.450947 -0.493876 0.95
      vertex 0.450693 -0.492929 0.95
      vertex 0.449999 -0.493876 0.949453
    endloop
  endfacet
  facet normal -0.447285 0.447285 0.774514
    outer loop
      vertex 0.452115 0.496465 0.94918
      vertex 0.449999 0.496465 0.947958
      vertex 0.450821 0.495171 0.94918
    endloop
  endfacet
  facet normal -0.447355 0.447232 0.774504
    outer loop
      vertex 0.449999 0.493876 0.949453
      vertex 0.450821 0.495171 0.94918
      vertex 0.449999 0.496465 0.947958
    endloop
  endfacet
  facet normal -0.447044 0.44709 0.774766
    outer loop
      vertex 0.450821 0.495171 0.94918
      vertex 0.449999 0.493876 0.949453
      vertex 0.450947 0.493876 0.95
    endloop
  endfacet
  facet normal -0.447044 -0.44709 0.774766
    outer loop
      vertex 0.450947 -0.493876 0.95
      vertex 0.449999 -0.493876 0.949453
      vertex 0.450821 -0.495171 0.94918
    endloop
  endfacet
  facet normal -0.447285 -0.447285 0.774514
    outer loop
      vertex 0.450821 -0.495171 0.94918
      vertex 0.449999 -0.496465 0.947958
      vertex 0.452115 -0.496465 0.94918
    endloop
  endfacet
  facet normal -0.447355 -0.447232 0.774504
    outer loop
      vertex 0.449999 -0.496465 0.947958
      vertex 0.450821 -0.495171 0.94918
      vertex 0.449999 -0.493876 0.949453
    endloop
  endfacet
  facet normal -0.495345 0.132859 0.858477
    outer loop
      vertex 0.450947 0.493876 0.95
      vertex 0.449999 0.493876 0.949453
      vertex 0.450693 0.492929 0.95
    endloop
  endfacet
  facet normal -0 0 1
    outer loop
      vertex 0.450693 0.492929 0.95
      vertex 0.450346 0.491634 0.95
      vertex 0.450947 0.493876 0.95
    endloop
  endfacet
  facet normal -0.284858 0.821921 0.493256
    outer loop
      vertex 0.452115 0.496465 0.94918
      vertex 0.451786 0.497412 0.947412
      vertex 0.449999 0.496465 0.947958
    endloop
  endfacet
  facet normal -0.284011 0.822214 0.493256
    outer loop
      vertex 0.452241 0.498706 0.945517
      vertex 0.451786 0.497412 0.947412
      vertex 0.452115 0.496465 0.94918
    endloop
  endfacet
  facet normal -0.284664 0.822121 0.493035
    outer loop
      vertex 0.451786 0.497412 0.947412
      vertex 0.452241 0.498706 0.945517
      vertex 0.45164 0.498706 0.94517
    endloop
  endfacet
  facet normal 0.447355 -0.447232 0.774504
    outer loop
      vertex -0.449999 -0.493876 0.949453
      vertex -0.450821 -0.495171 0.94918
      vertex -0.449999 -0.496465 0.947958
    endloop
  endfacet
  facet normal 0.447044 -0.44709 0.774766
    outer loop
      vertex -0.450821 -0.495171 0.94918
      vertex -0.449999 -0.493876 0.949453
      vertex -0.450947 -0.493876 0.95
    endloop
  endfacet
  facet normal 0.447285 -0.447285 0.774514
    outer loop
      vertex -0.449999 -0.496465 0.947958
      vertex -0.450821 -0.495171 0.94918
      vertex -0.452115 -0.496465 0.94918
    endloop
  endfacet
  facet normal 0.447355 0.447232 0.774504
    outer loop
      vertex -0.449999 0.496465 0.947958
      vertex -0.450821 0.495171 0.94918
      vertex -0.449999 0.493876 0.949453
    endloop
  endfacet
  facet normal 0.447285 0.447285 0.774514
    outer loop
      vertex -0.450821 0.495171 0.94918
      vertex -0.449999 0.496465 0.947958
      vertex -0.452115 0.496465 0.94918
    endloop
  endfacet
  facet normal 0.447044 0.44709 0.774766
    outer loop
      vertex -0.449999 0.493876 0.949453
      vertex -0.450821 0.495171 0.94918
      vertex -0.450947 0.493876 0.95
    endloop
  endfacet
  facet normal 0 -0 1
    outer loop
      vertex -0.450693 -0.492929 0.95
      vertex -0.450346 -0.491634 0.95
      vertex -0.450947 -0.493876 0.95
    endloop
  endfacet
  facet normal 0.495345 -0.132859 0.858477
    outer loop
      vertex -0.449999 -0.493876 0.949453
      vertex -0.450693 -0.492929 0.95
      vertex -0.450947 -0.493876 0.95
    endloop
  endfacet
  facet normal 0.495345 0.132859 0.858477
    outer loop
      vertex -0.449999 0.493876 0.949453
      vertex -0.450947 0.493876 0.95
      vertex -0.450693 0.492929 0.95
    endloop
  endfacet
  facet normal 0 0 1
    outer loop
      vertex -0.450346 0.491634 0.95
      vertex -0.450693 0.492929 0.95
      vertex -0.450947 0.493876 0.95
    endloop
  endfacet
  facet normal 0.284858 0.821921 0.493256
    outer loop
      vertex -0.451786 0.497412 0.947412
      vertex -0.452115 0.496465 0.94918
      vertex -0.449999 0.496465 0.947958
    endloop
  endfacet
  facet normal 0.284011 0.822214 0.493256
    outer loop
      vertex -0.451786 0.497412 0.947412
      vertex -0.452241 0.498706 0.945517
      vertex -0.452115 0.496465 0.94918
    endloop
  endfacet
  facet normal 0.284664 0.822121 0.493035
    outer loop
      vertex -0.452241 0.498706 0.945517
      vertex -0.451786 0.497412 0.947412
      vertex -0.45164 0.498706 0.94517
    endloop
  endfacet
  facet normal 0.236195 -0.881443 0.408986
    outer loop
      vertex -0.452587 -0.5 0.942928
      vertex -0.452241 -0.498706 0.945517
      vertex -0.45707 -0.5 0.945517
    endloop
  endfacet
  facet normal 0.236143 -0.881452 0.408997
    outer loop
      vertex -0.452241 -0.498706 0.945517
      vertex -0.452587 -0.5 0.942928
      vertex -0.45164 -0.498706 0.94517
    endloop
  endfacet
  facet normal 0.236143 0.881452 0.408997
    outer loop
      vertex -0.452587 0.5 0.942928
      vertex -0.452241 0.498706 0.945517
      vertex -0.45164 0.498706 0.94517
    endloop
  endfacet
  facet normal 0.236195 0.881443 0.408986
    outer loop
      vertex -0.452241 0.498706 0.945517
      vertex -0.452587 0.5 0.942928
      vertex -0.45707 0.5 0.945517
    endloop
  endfacet
  facet normal 0.284858 -0.821921 0.493256
    outer loop
      vertex -0.452115 -0.496465 0.94918
      vertex -0.451786 -0.497412 0.947412
      vertex -0.449999 -0.496465 0.947958
    endloop
  endfacet
  facet normal 0.284011 -0.822214 0.493256
    outer loop
      vertex -0.452241 -0.498706 0.945517
      vertex -0.451786 -0.497412 0.947412
      vertex -0.452115 -0.496465 0.94918
    endloop
  endfacet
  facet normal 0.284664 -0.822121 0.493035
    outer loop
      vertex -0.451786 -0.497412 0.947412
      vertex -0.452241 -0.498706 0.945517
      vertex -0.45164 -0.498706 0.94517
    endloop
  endfacet
  facet normal -0.495547 -0.132606 0.858399
    outer loop
      vertex 0.457071 -0.490341 1
      vertex 0.452588 -0.490341 0.997412
      vertex 0.457417 -0.491634 1
    endloop
  endfacet
  facet normal -0.225944 0.843652 0.487033
    outer loop
      vertex 0.459659 0.5 0.992929
      vertex 0.456123 0.496465 0.997412
      vertex 0.459659 0.497412 0.997412
    endloop
  endfacet
  facet normal 0.495487 -0.132737 0.858413
    outer loop
      vertex 0.497412 -0.490341 0.997412
      vertex 0.492582 -0.491634 1
      vertex 0.496465 -0.493876 0.997412
    endloop
  endfacet
  facet normal -0.226025 -0.843662 0.486978
    outer loop
      vertex 0.456123 -0.496465 0.997412
      vertex 0.454829 -0.498706 0.992929
      vertex 0.459659 -0.5 0.992929
    endloop
  endfacet
  facet normal 0.226019 0.843641 0.487016
    outer loop
      vertex 0.495171 0.498706 0.992929
      vertex 0.490341 0.5 0.992929
      vertex 0.493876 0.496465 0.997412
    endloop
  endfacet
  facet normal -0.843641 0.226019 0.487016
    outer loop
      vertex 0.451294 0.495171 0.992929
      vertex 0.45 0.490341 0.992929
      vertex 0.453535 0.493876 0.997412
    endloop
  endfacet
  facet normal -1 0 0
    outer loop
      vertex 0.45 -0.490341 0.95
      vertex 0.45 0.490341 0.992929
      vertex 0.45 0.490341 0.95
    endloop
  endfacet
  facet normal -1 -0 0
    outer loop
      vertex 0.45 0.490341 0.992929
      vertex 0.45 -0.490341 0.95
      vertex 0.45 -0.490341 0.992929
    endloop
  endfacet
  facet normal -0.843639 0.226005 0.487026
    outer loop
      vertex 0.453535 0.493876 0.997412
      vertex 0.45 0.490341 0.992929
      vertex 0.452588 0.490341 0.997412
    endloop
  endfacet
  facet normal -0.132881 -0.495528 0.858367
    outer loop
      vertex 0.459659 -0.492929 1
      vertex 0.458365 -0.492582 1
      vertex 0.459659 -0.497412 0.997412
    endloop
  endfacet
  facet normal -0.707107 -0.707107 0
    outer loop
      vertex 0.454829 -0.498706 0.95
      vertex 0.451294 -0.495171 0.992929
      vertex 0.451294 -0.495171 0.95
    endloop
  endfacet
  facet normal -0.707107 -0.707107 0
    outer loop
      vertex 0.451294 -0.495171 0.992929
      vertex 0.454829 -0.498706 0.95
      vertex 0.454829 -0.498706 0.992929
    endloop
  endfacet
  facet normal -0.499962 0 0.866047
    outer loop
      vertex 0.452588 0.490341 0.997412
      vertex 0.457071 -0.490341 1
      vertex 0.457071 0.490341 1
    endloop
  endfacet
  facet normal -0.499962 0 0.866047
    outer loop
      vertex 0.457071 -0.490341 1
      vertex 0.452588 0.490341 0.997412
      vertex 0.452588 -0.490341 0.997412
    endloop
  endfacet
  facet normal -0.495569 -0.132759 0.858363
    outer loop
      vertex 0.457417 -0.491634 1
      vertex 0.452588 -0.490341 0.997412
      vertex 0.453535 -0.493876 0.997412
    endloop
  endfacet
  facet normal 0 0.866047 0.499962
    outer loop
      vertex 0.490341 0.5 0.992929
      vertex 0.459659 0.497412 0.997412
      vertex 0.490341 0.497412 0.997412
    endloop
  endfacet
  facet normal 0 0.866047 0.499962
    outer loop
      vertex 0.459659 0.497412 0.997412
      vertex 0.490341 0.5 0.992929
      vertex 0.459659 0.5 0.992929
    endloop
  endfacet
  facet normal 0.843641 -0.226019 0.487016
    outer loop
      vertex 0.5 -0.490341 0.992929
      vertex 0.496465 -0.493876 0.997412
      vertex 0.498706 -0.495171 0.992929
    endloop
  endfacet
  facet normal -0.132881 0.495528 0.858367
    outer loop
      vertex 0.459659 0.497412 0.997412
      vertex 0.458365 0.492582 1
      vertex 0.459659 0.492929 1
    endloop
  endfacet
  facet normal 0.495487 0.132737 0.858413
    outer loop
      vertex 0.496465 0.493876 0.997412
      vertex 0.492582 0.491634 1
      vertex 0.497412 0.490341 0.997412
    endloop
  endfacet
  facet normal -0.495547 0.132606 0.858399
    outer loop
      vertex 0.457417 0.491634 1
      vertex 0.452588 0.490341 0.997412
      vertex 0.457071 0.490341 1
    endloop
  endfacet
  facet normal 0.499962 0 0.866047
    outer loop
      vertex 0.492929 0.490341 1
      vertex 0.497412 -0.490341 0.997412
      vertex 0.497412 0.490341 0.997412
    endloop
  endfacet
  facet normal 0.499962 0 0.866047
    outer loop
      vertex 0.497412 -0.490341 0.997412
      vertex 0.492929 0.490341 1
      vertex 0.492929 -0.490341 1
    endloop
  endfacet
  facet normal 0.132982 0.495522 0.858355
    outer loop
      vertex 0.490341 0.497412 0.997412
      vertex 0.490341 0.492929 1
      vertex 0.491634 0.492582 1
    endloop
  endfacet
  facet normal -0.225944 -0.843652 0.487033
    outer loop
      vertex 0.459659 -0.497412 0.997412
      vertex 0.456123 -0.496465 0.997412
      vertex 0.459659 -0.5 0.992929
    endloop
  endfacet
  facet normal -0 0.499962 0.866047
    outer loop
      vertex 0.459659 0.497412 0.997412
      vertex 0.490341 0.492929 1
      vertex 0.490341 0.497412 0.997412
    endloop
  endfacet
  facet normal 0 0.499962 0.866047
    outer loop
      vertex 0.490341 0.492929 1
      vertex 0.459659 0.497412 0.997412
      vertex 0.459659 0.492929 1
    endloop
  endfacet
  facet normal 0.362709 0.362709 0.85842
    outer loop
      vertex 0.493876 0.496465 0.997412
      vertex 0.492582 0.491634 1
      vertex 0.496465 0.493876 0.997412
    endloop
  endfacet
  facet normal 0.362709 0.362709 0.85842
    outer loop
      vertex 0.492582 0.491634 1
      vertex 0.493876 0.496465 0.997412
      vertex 0.491634 0.492582 1
    endloop
  endfacet
  facet normal 0 -0.866047 0.499962
    outer loop
      vertex 0.459659 -0.5 0.992929
      vertex 0.490341 -0.497412 0.997412
      vertex 0.459659 -0.497412 0.997412
    endloop
  endfacet
  facet normal 0 -0.866047 0.499962
    outer loop
      vertex 0.490341 -0.497412 0.997412
      vertex 0.459659 -0.5 0.992929
      vertex 0.490341 -0.5 0.992929
    endloop
  endfacet
  facet normal 0.362709 -0.362709 0.85842
    outer loop
      vertex 0.492582 -0.491634 1
      vertex 0.493876 -0.496465 0.997412
      vertex 0.496465 -0.493876 0.997412
    endloop
  endfacet
  facet normal 0.362709 -0.362709 0.85842
    outer loop
      vertex 0.493876 -0.496465 0.997412
      vertex 0.492582 -0.491634 1
      vertex 0.491634 -0.492582 1
    endloop
  endfacet
  facet normal 0 0 1
    outer loop
      vertex 0.490341 0.492929 1
      vertex 0.492929 0.490341 1
      vertex 0.492582 0.491634 1
    endloop
  endfacet
  facet normal 0 0 1
    outer loop
      vertex 0.492929 0.490341 1
      vertex 0.457071 0.490341 1
      vertex 0.492929 -0.490341 1
    endloop
  endfacet
  facet normal 0 0 1
    outer loop
      vertex 0.490341 0.492929 1
      vertex 0.492582 0.491634 1
      vertex 0.491634 0.492582 1
    endloop
  endfacet
  facet normal 0 0 1
    outer loop
      vertex 0.457071 -0.490341 1
      vertex 0.492929 -0.490341 1
      vertex 0.457071 0.490341 1
    endloop
  endfacet
  facet normal 0 0 1
    outer loop
      vertex 0.492929 0.490341 1
      vertex 0.490341 0.492929 1
      vertex 0.457071 0.490341 1
    endloop
  endfacet
  facet normal 0 -0 1
    outer loop
      vertex 0.490341 -0.492929 1
      vertex 0.492929 -0.490341 1
      vertex 0.457071 -0.490341 1
    endloop
  endfacet
  facet normal 0 0 1
    outer loop
      vertex 0.457071 0.490341 1
      vertex 0.490341 0.492929 1
      vertex 0.459659 0.492929 1
    endloop
  endfacet
  facet normal 0 0 1
    outer loop
      vertex 0.492929 -0.490341 1
      vertex 0.490341 -0.492929 1
      vertex 0.492582 -0.491634 1
    endloop
  endfacet
  facet normal 0 0 1
    outer loop
      vertex 0.457071 0.490341 1
      vertex 0.459659 0.492929 1
      vertex 0.458365 0.492582 1
    endloop
  endfacet
  facet normal 0 0 1
    outer loop
      vertex 0.492582 -0.491634 1
      vertex 0.490341 -0.492929 1
      vertex 0.491634 -0.492582 1
    endloop
  endfacet
  facet normal 0 0 1
    outer loop
      vertex 0.457071 0.490341 1
      vertex 0.458365 0.492582 1
      vertex 0.457417 0.491634 1
    endloop
  endfacet
  facet normal 0 0 1
    outer loop
      vertex 0.490341 -0.492929 1
      vertex 0.457071 -0.490341 1
      vertex 0.459659 -0.492929 1
    endloop
  endfacet
  facet normal 0 0 1
    outer loop
      vertex 0.459659 -0.492929 1
      vertex 0.457071 -0.490341 1
      vertex 0.458365 -0.492582 1
    endloop
  endfacet
  facet normal 0 0 1
    outer loop
      vertex 0.458365 -0.492582 1
      vertex 0.457071 -0.490341 1
      vertex 0.457417 -0.491634 1
    endloop
  endfacet
  facet normal -0.866047 0 0.499962
    outer loop
      vertex 0.45 -0.490341 0.992929
      vertex 0.452588 0.490341 0.997412
      vertex 0.45 0.490341 0.992929
    endloop
  endfacet
  facet normal -0.866047 0 0.499962
    outer loop
      vertex 0.452588 0.490341 0.997412
      vertex 0.45 -0.490341 0.992929
      vertex 0.452588 -0.490341 0.997412
    endloop
  endfacet
  facet normal -0.707107 0.707107 0
    outer loop
      vertex 0.451294 0.495171 0.95
      vertex 0.454829 0.498706 0.992929
      vertex 0.454829 0.498706 0.95
    endloop
  endfacet
  facet normal -0.707107 0.707107 0
    outer loop
      vertex 0.454829 0.498706 0.992929
      vertex 0.451294 0.495171 0.95
      vertex 0.451294 0.495171 0.992929
    endloop
  endfacet
  facet normal 0.495522 0.132982 0.858355
    outer loop
      vertex 0.497412 0.490341 0.997412
      vertex 0.492582 0.491634 1
      vertex 0.492929 0.490341 1
    endloop
  endfacet
  facet normal 0.132737 0.495487 0.858413
    outer loop
      vertex 0.493876 0.496465 0.997412
      vertex 0.490341 0.497412 0.997412
      vertex 0.491634 0.492582 1
    endloop
  endfacet
  facet normal 0.226005 0.843639 0.487026
    outer loop
      vertex 0.490341 0.5 0.992929
      vertex 0.490341 0.497412 0.997412
      vertex 0.493876 0.496465 0.997412
    endloop
  endfacet
  facet normal -0.96594 -0.258768 0
    outer loop
      vertex 0.450947 -0.493876 0.95
      vertex 0.45 -0.490341 0.992929
      vertex 0.45 -0.490341 0.95
    endloop
  endfacet
  facet normal -0.965925 -0.258823 -0
    outer loop
      vertex 0.451294 -0.495171 0.992929
      vertex 0.450947 -0.493876 0.95
      vertex 0.451294 -0.495171 0.95
    endloop
  endfacet
  facet normal -0.965936 -0.258783 1.30439e-06
    outer loop
      vertex 0.450947 -0.493876 0.95
      vertex 0.451294 -0.495171 0.992929
      vertex 0.45 -0.490341 0.992929
    endloop
  endfacet
  facet normal -0.617662 -0.617423 0.487116
    outer loop
      vertex 0.451294 -0.495171 0.992929
      vertex 0.456123 -0.496465 0.997412
      vertex 0.453535 -0.493876 0.997412
    endloop
  endfacet
  facet normal -0.617592 -0.617592 0.486992
    outer loop
      vertex 0.456123 -0.496465 0.997412
      vertex 0.451294 -0.495171 0.992929
      vertex 0.454829 -0.498706 0.992929
    endloop
  endfacet
  facet normal 0 -0.499962 0.866047
    outer loop
      vertex 0.459659 -0.492929 1
      vertex 0.490341 -0.497412 0.997412
      vertex 0.490341 -0.492929 1
    endloop
  endfacet
  facet normal 0 -0.499962 0.866047
    outer loop
      vertex 0.490341 -0.497412 0.997412
      vertex 0.459659 -0.492929 1
      vertex 0.459659 -0.497412 0.997412
    endloop
  endfacet
  facet normal 0.866047 -0 0.499962
    outer loop
      vertex 0.497412 -0.490341 0.997412
      vertex 0.5 0.490341 0.992929
      vertex 0.497412 0.490341 0.997412
    endloop
  endfacet
  facet normal 0.866047 0 0.499962
    outer loop
      vertex 0.5 0.490341 0.992929
      vertex 0.497412 -0.490341 0.997412
      vertex 0.5 -0.490341 0.992929
    endloop
  endfacet
  facet normal 0.843639 -0.226005 0.487026
    outer loop
      vertex 0.497412 -0.490341 0.997412
      vertex 0.496465 -0.493876 0.997412
      vertex 0.5 -0.490341 0.992929
    endloop
  endfacet
  facet normal -0.617592 0.617592 0.486992
    outer loop
      vertex 0.451294 0.495171 0.992929
      vertex 0.456123 0.496465 0.997412
      vertex 0.454829 0.498706 0.992929
    endloop
  endfacet
  facet normal -0.617662 0.617423 0.487116
    outer loop
      vertex 0.456123 0.496465 0.997412
      vertex 0.451294 0.495171 0.992929
      vertex 0.453535 0.493876 0.997412
    endloop
  endfacet
  facet normal 0.61755 0.61755 0.487097
    outer loop
      vertex 0.493876 0.496465 0.997412
      vertex 0.498706 0.495171 0.992929
      vertex 0.495171 0.498706 0.992929
    endloop
  endfacet
  facet normal 0.61755 0.61755 0.487097
    outer loop
      vertex 0.498706 0.495171 0.992929
      vertex 0.493876 0.496465 0.997412
      vertex 0.496465 0.493876 0.997412
    endloop
  endfacet
  facet normal -0.495569 0.132759 0.858363
    outer loop
      vertex 0.453535 0.493876 0.997412
      vertex 0.452588 0.490341 0.997412
      vertex 0.457417 0.491634 1
    endloop
  endfacet
  facet normal -0.258783 -0.965936 0
    outer loop
      vertex 0.454829 -0.498706 0.95
      vertex 0.459659 -0.5 0.992929
      vertex 0.454829 -0.498706 0.992929
    endloop
  endfacet
  facet normal -0.258783 -0.965936 -0
    outer loop
      vertex 0.459659 -0.5 0.992929
      vertex 0.454829 -0.498706 0.95
      vertex 0.459659 -0.5 0.95
    endloop
  endfacet
  facet normal -0.843639 -0.226005 0.487026
    outer loop
      vertex 0.452588 -0.490341 0.997412
      vertex 0.45 -0.490341 0.992929
      vertex 0.453535 -0.493876 0.997412
    endloop
  endfacet
  facet normal -0.843641 -0.226019 0.487016
    outer loop
      vertex 0.453535 -0.493876 0.997412
      vertex 0.45 -0.490341 0.992929
      vertex 0.451294 -0.495171 0.992929
    endloop
  endfacet
  facet normal 0.132982 -0.495522 0.858355
    outer loop
      vertex 0.490341 -0.492929 1
      vertex 0.490341 -0.497412 0.997412
      vertex 0.491634 -0.492582 1
    endloop
  endfacet
  facet normal 0.132737 -0.495487 0.858413
    outer loop
      vertex 0.491634 -0.492582 1
      vertex 0.490341 -0.497412 0.997412
      vertex 0.493876 -0.496465 0.997412
    endloop
  endfacet
  facet normal -0.362709 -0.362709 0.85842
    outer loop
      vertex 0.457417 -0.491634 1
      vertex 0.456123 -0.496465 0.997412
      vertex 0.458365 -0.492582 1
    endloop
  endfacet
  facet normal -0.362809 -0.362668 0.858395
    outer loop
      vertex 0.456123 -0.496465 0.997412
      vertex 0.457417 -0.491634 1
      vertex 0.453535 -0.493876 0.997412
    endloop
  endfacet
  facet normal -0.132704 -0.495503 0.858409
    outer loop
      vertex 0.458365 -0.492582 1
      vertex 0.456123 -0.496465 0.997412
      vertex 0.459659 -0.497412 0.997412
    endloop
  endfacet
  facet normal -0.258783 0.965936 0
    outer loop
      vertex 0.459659 0.5 0.95
      vertex 0.454829 0.498706 0.992929
      vertex 0.459659 0.5 0.992929
    endloop
  endfacet
  facet normal -0.258783 0.965936 0
    outer loop
      vertex 0.454829 0.498706 0.992929
      vertex 0.459659 0.5 0.95
      vertex 0.454829 0.498706 0.95
    endloop
  endfacet
  facet normal -0.226025 0.843662 0.486978
    outer loop
      vertex 0.459659 0.5 0.992929
      vertex 0.454829 0.498706 0.992929
      vertex 0.456123 0.496465 0.997412
    endloop
  endfacet
  facet normal 0.843639 0.226005 0.487026
    outer loop
      vertex 0.5 0.490341 0.992929
      vertex 0.496465 0.493876 0.997412
      vertex 0.497412 0.490341 0.997412
    endloop
  endfacet
  facet normal 0.843641 0.226019 0.487016
    outer loop
      vertex 0.498706 0.495171 0.992929
      vertex 0.496465 0.493876 0.997412
      vertex 0.5 0.490341 0.992929
    endloop
  endfacet
  facet normal -0.132704 0.495503 0.858409
    outer loop
      vertex 0.459659 0.497412 0.997412
      vertex 0.456123 0.496465 0.997412
      vertex 0.458365 0.492582 1
    endloop
  endfacet
  facet normal -0.362709 0.362709 0.85842
    outer loop
      vertex 0.456123 0.496465 0.997412
      vertex 0.457417 0.491634 1
      vertex 0.458365 0.492582 1
    endloop
  endfacet
  facet normal -0.362809 0.362668 0.858395
    outer loop
      vertex 0.457417 0.491634 1
      vertex 0.456123 0.496465 0.997412
      vertex 0.453535 0.493876 0.997412
    endloop
  endfacet
  facet normal 0.61755 -0.61755 0.487097
    outer loop
      vertex 0.493876 -0.496465 0.997412
      vertex 0.498706 -0.495171 0.992929
      vertex 0.496465 -0.493876 0.997412
    endloop
  endfacet
  facet normal 0.61755 -0.61755 0.487097
    outer loop
      vertex 0.498706 -0.495171 0.992929
      vertex 0.493876 -0.496465 0.997412
      vertex 0.495171 -0.498706 0.992929
    endloop
  endfacet
  facet normal 0.495522 -0.132982 0.858355
    outer loop
      vertex 0.492929 -0.490341 1
      vertex 0.492582 -0.491634 1
      vertex 0.497412 -0.490341 0.997412
    endloop
  endfacet
  facet normal 0.226005 -0.843639 0.487026
    outer loop
      vertex 0.490341 -0.497412 0.997412
      vertex 0.490341 -0.5 0.992929
      vertex 0.493876 -0.496465 0.997412
    endloop
  endfacet
  facet normal 0.226019 -0.843641 0.487016
    outer loop
      vertex 0.493876 -0.496465 0.997412
      vertex 0.490341 -0.5 0.992929
      vertex 0.495171 -0.498706 0.992929
    endloop
  endfacet
  facet normal -0.965925 0.258823 0
    outer loop
      vertex 0.450947 0.493876 0.95
      vertex 0.451294 0.495171 0.992929
      vertex 0.451294 0.495171 0.95
    endloop
  endfacet
  facet normal -0.96594 0.258768 0
    outer loop
      vertex 0.45 0.490341 0.992929
      vertex 0.450947 0.493876 0.95
      vertex 0.45 0.490341 0.95
    endloop
  endfacet
  facet normal -0.965936 0.258783 1.30439e-06
    outer loop
      vertex 0.450947 0.493876 0.95
      vertex 0.45 0.490341 0.992929
      vertex 0.451294 0.495171 0.992929
    endloop
  endfacet
  facet normal -0.84379 -0.226097 0.486723
    outer loop
      vertex 0.451294 -0.495171 0.95
      vertex 0.450947 -0.493876 0.95
      vertex 0.450821 -0.495171 0.94918
    endloop
  endfacet
  facet normal -0.84379 0.226097 0.486723
    outer loop
      vertex 0.450947 0.493876 0.95
      vertex 0.451294 0.495171 0.95
      vertex 0.450821 0.495171 0.94918
    endloop
  endfacet
  facet normal -0.255991 -0.955316 0.147781
    outer loop
      vertex 0.45707 -0.5 0.945517
      vertex 0.454829 -0.498706 0.95
      vertex 0.452241 -0.498706 0.945517
    endloop
  endfacet
  facet normal -0.25594 -0.955326 0.147809
    outer loop
      vertex 0.454829 -0.498706 0.95
      vertex 0.45707 -0.5 0.945517
      vertex 0.459659 -0.5 0.95
    endloop
  endfacet
  facet normal -0.654738 -0.654738 0.377672
    outer loop
      vertex 0.452115 -0.496465 0.94918
      vertex 0.451294 -0.495171 0.95
      vertex 0.450821 -0.495171 0.94918
    endloop
  endfacet
  facet normal -0.654738 -0.654738 0.377672
    outer loop
      vertex 0.451294 -0.495171 0.95
      vertex 0.452115 -0.496465 0.94918
      vertex 0.454829 -0.498706 0.95
    endloop
  endfacet
  facet normal -0.654711 -0.6546 0.377959
    outer loop
      vertex 0.454829 -0.498706 0.95
      vertex 0.452115 -0.496465 0.94918
      vertex 0.452241 -0.498706 0.945517
    endloop
  endfacet
  facet normal -0 -0 1
    outer loop
      vertex 0.450346 -0.491634 0.95
      vertex 0.450947 -0.493876 0.95
      vertex 0.45 -0.490341 0.95
    endloop
  endfacet
  facet normal 0 0 1
    outer loop
      vertex 0.450947 0.493876 0.95
      vertex 0.450346 0.491634 0.95
      vertex 0.45 0.490341 0.95
    endloop
  endfacet
  facet normal -0.25594 0.955326 0.147809
    outer loop
      vertex 0.45707 0.5 0.945517
      vertex 0.454829 0.498706 0.95
      vertex 0.459659 0.5 0.95
    endloop
  endfacet
  facet normal -0.255991 0.955316 0.147781
    outer loop
      vertex 0.454829 0.498706 0.95
      vertex 0.45707 0.5 0.945517
      vertex 0.452241 0.498706 0.945517
    endloop
  endfacet
  facet normal -0.654711 0.6546 0.377959
    outer loop
      vertex 0.452115 0.496465 0.94918
      vertex 0.454829 0.498706 0.95
      vertex 0.452241 0.498706 0.945517
    endloop
  endfacet
  facet normal -0.654738 0.654738 0.377672
    outer loop
      vertex 0.451294 0.495171 0.95
      vertex 0.452115 0.496465 0.94918
      vertex 0.450821 0.495171 0.94918
    endloop
  endfacet
  facet normal -0.654738 0.654738 0.377672
    outer loop
      vertex 0.452115 0.496465 0.94918
      vertex 0.451294 0.495171 0.95
      vertex 0.454829 0.498706 0.95
    endloop
  endfacet
endsolid OpenSCAD_Model
