solid OpenSCAD_Model
  facet normal 1 -0 0
    outer loop
      vertex 0.5 -0.5 1
      vertex 0.5 0.5 0.9
      vertex 0.5 0.5 1
    endloop
  endfacet
  facet normal 1 0 0
    outer loop
      vertex 0.5 0.5 0.9
      vertex 0.5 -0.5 1
      vertex 0.5 -0.5 0.9
    endloop
  endfacet
  facet normal -0 0 1
    outer loop
      vertex -0.5 0.5 1
      vertex -0.45 -0.5 1
      vertex -0.45 0.5 1
    endloop
  endfacet
  facet normal 0 0 1
    outer loop
      vertex -0.45 -0.5 1
      vertex -0.5 0.5 1
      vertex -0.5 -0.5 1
    endloop
  endfacet
  facet normal -0 0 1
    outer loop
      vertex 0.45 0.5 1
      vertex 0.5 -0.5 1
      vertex 0.5 0.5 1
    endloop
  endfacet
  facet normal 0 0 1
    outer loop
      vertex 0.5 -0.5 1
      vertex 0.45 0.5 1
      vertex 0.45 -0.5 1
    endloop
  endfacet
  facet normal 0 0 -1
    outer loop
      vertex -0.5 -0.5 0.9
      vertex 0.5 0.5 0.9
      vertex 0.5 -0.5 0.9
    endloop
  endfacet
  facet normal -0 0 -1
    outer loop
      vertex 0.5 0.5 0.9
      vertex -0.5 -0.5 0.9
      vertex -0.5 0.5 0.9
    endloop
  endfacet
  facet normal -1 0 0
    outer loop
      vertex -0.5 -0.5 0.9
      vertex -0.5 0.5 1
      vertex -0.5 0.5 0.9
    endloop
  endfacet
  facet normal -1 -0 0
    outer loop
      vertex -0.5 0.5 1
      vertex -0.5 -0.5 0.9
      vertex -0.5 -0.5 1
    endloop
  endfacet
  facet normal 0 1 0
    outer loop
      vertex 0.5 0.5 1
      vertex 0.45 0.5 0.95
      vertex 0.45 0.5 1
    endloop
  endfacet
  facet normal 0 1 0
    outer loop
      vertex 0.45 0.5 0.95
      vertex 0.5 0.5 0.9
      vertex -0.45 0.5 0.95
    endloop
  endfacet
  facet normal 0 1 -0
    outer loop
      vertex 0.5 0.5 0.9
      vertex 0.45 0.5 0.95
      vertex 0.5 0.5 1
    endloop
  endfacet
  facet normal 0 1 -0
    outer loop
      vertex -0.45 0.5 0.95
      vertex -0.5 0.5 1
      vertex -0.45 0.5 1
    endloop
  endfacet
  facet normal 0 1 0
    outer loop
      vertex -0.45 0.5 0.95
      vertex -0.5 0.5 0.9
      vertex -0.5 0.5 1
    endloop
  endfacet
  facet normal 0 1 0
    outer loop
      vertex -0.5 0.5 0.9
      vertex -0.45 0.5 0.95
      vertex 0.5 0.5 0.9
    endloop
  endfacet
  facet normal 0 -1 0
    outer loop
      vertex -0.5 -0.5 1
      vertex -0.45 -0.5 0.95
      vertex -0.45 -0.5 1
    endloop
  endfacet
  facet normal 0 -1 -0
    outer loop
      vertex -0.45 -0.5 0.95
      vertex -0.5 -0.5 0.9
      vertex 0.45 -0.5 0.95
    endloop
  endfacet
  facet normal 0 -1 0
    outer loop
      vertex -0.5 -0.5 0.9
      vertex -0.45 -0.5 0.95
      vertex -0.5 -0.5 1
    endloop
  endfacet
  facet normal 0 -1 0
    outer loop
      vertex 0.45 -0.5 0.95
      vertex 0.5 -0.5 1
      vertex 0.45 -0.5 1
    endloop
  endfacet
  facet normal 0 -1 0
    outer loop
      vertex 0.45 -0.5 0.95
      vertex 0.5 -0.5 0.9
      vertex 0.5 -0.5 1
    endloop
  endfacet
  facet normal 0 -1 0
    outer loop
      vertex 0.5 -0.5 0.9
      vertex 0.45 -0.5 0.95
      vertex -0.5 -0.5 0.9
    endloop
  endfacet
  facet normal -1 0 0
    outer loop
      vertex 0.45 -0.5 0.95
      vertex 0.45 0.5 1
      vertex 0.45 0.5 0.95
    endloop
  endfacet
  facet normal -1 -0 0
    outer loop
      vertex 0.45 0.5 1
      vertex 0.45 -0.5 0.95
      vertex 0.45 -0.5 1
    endloop
  endfacet
  facet normal -0 0 1
    outer loop
      vertex -0.45 0.5 0.95
      vertex 0.45 -0.5 0.95
      vertex 0.45 0.5 0.95
    endloop
  endfacet
  facet normal 0 0 1
    outer loop
      vertex 0.45 -0.5 0.95
      vertex -0.45 0.5 0.95
      vertex -0.45 -0.5 0.95
    endloop
  endfacet
  facet normal 1 -0 0
    outer loop
      vertex -0.45 -0.5 1
      vertex -0.45 0.5 0.95
      vertex -0.45 0.5 1
    endloop
  endfacet
  facet normal 1 0 0
    outer loop
      vertex -0.45 0.5 0.95
      vertex -0.45 -0.5 1
      vertex -0.45 -0.5 0.95
    endloop
  endfacet
endsolid OpenSCAD_Model
