solid OpenSCAD_Model
  facet normal -0.280006 -0.861674 0.423219
    outer loop
      vertex -0.488456 -0.495245 1
      vertex -0.498091 -0.496367 0.991341
      vertex -0.486911 -0.5 0.991341
    endloop
  endfacet
  facet normal -0.280106 -0.861592 0.42332
    outer loop
      vertex -0.494045 -0.493428 1
      vertex -0.498091 -0.496367 0.991341
      vertex -0.488456 -0.495245 1
    endloop
  endfacet
  facet normal -0.905977 0 0.423326
    outer loop
      vertex -0.498091 0.496367 0.991341
      vertex -0.494045 -0.493428 1
      vertex -0.494045 0.493428 1
    endloop
  endfacet
  facet normal -0.905977 0 0.423326
    outer loop
      vertex -0.494045 -0.493428 1
      vertex -0.498091 0.496367 0.991341
      vertex -0.498091 -0.496367 0.991341
    endloop
  endfacet
  facet normal -0 0.876534 0.48134
    outer loop
      vertex -0.486911 0.5 0.991341
      vertex -0.456545 0.495245 1
      vertex -0.455 0.5 0.991341
    endloop
  endfacet
  facet normal 0 0.876534 0.48134
    outer loop
      vertex -0.456545 0.495245 1
      vertex -0.486911 0.5 0.991341
      vertex -0.488456 0.495245 1
    endloop
  endfacet
  facet normal 0 -1 0
    outer loop
      vertex -0.486911 -0.5 0.991341
      vertex -0.455 -0.5 0.95
      vertex -0.455 -0.5 0.991341
    endloop
  endfacet
  facet normal 0 -1 0
    outer loop
      vertex -0.486911 -0.5 0.908659
      vertex -0.455 -0.5 0.95
      vertex -0.486911 -0.5 0.991341
    endloop
  endfacet
  facet normal 0 -1 -0
    outer loop
      vertex -0.450954 -0.5 0.94134
      vertex -0.486911 -0.5 0.908659
      vertex 0.458089 -0.5 0.94134
    endloop
  endfacet
  facet normal 0 -1 -0
    outer loop
      vertex -0.455 -0.5 0.95
      vertex -0.486911 -0.5 0.908659
      vertex -0.450954 -0.5 0.94134
    endloop
  endfacet
  facet normal 0 -1 0
    outer loop
      vertex 0.463089 -0.5 0.95
      vertex 0.495 -0.5 0.991341
      vertex 0.463089 -0.5 0.991341
    endloop
  endfacet
  facet normal 0 -1 0
    outer loop
      vertex 0.495 -0.5 0.908659
      vertex 0.463089 -0.5 0.95
      vertex 0.458089 -0.5 0.94134
    endloop
  endfacet
  facet normal 0 -1 0
    outer loop
      vertex 0.463089 -0.5 0.95
      vertex 0.495 -0.5 0.908659
      vertex 0.495 -0.5 0.991341
    endloop
  endfacet
  facet normal 0 -1 0
    outer loop
      vertex 0.495 -0.5 0.908659
      vertex 0.458089 -0.5 0.94134
      vertex -0.486911 -0.5 0.908659
    endloop
  endfacet
  facet normal 0.733023 0.532463 0.423273
    outer loop
      vertex -0.448091 0.49049 0.991341
      vertex -0.456545 0.495245 1
      vertex -0.453091 0.49049 1
    endloop
  endfacet
  facet normal 0.733006 -0.532528 0.42322
    outer loop
      vertex -0.448091 -0.49049 0.991341
      vertex -0.456545 -0.495245 1
      vertex -0.455 -0.5 0.991341
    endloop
  endfacet
  facet normal 0.809074 -0.587706 0
    outer loop
      vertex -0.448091 -0.49049 0.991341
      vertex -0.451545 -0.495245 0.95
      vertex -0.448091 -0.49049 0.95
    endloop
  endfacet
  facet normal 0.809034 -0.587762 9.78489e-06
    outer loop
      vertex -0.455 -0.5 0.991341
      vertex -0.451545 -0.495245 0.95
      vertex -0.448091 -0.49049 0.991341
    endloop
  endfacet
  facet normal 0.808994 -0.587818 0
    outer loop
      vertex -0.451545 -0.495245 0.95
      vertex -0.455 -0.5 0.991341
      vertex -0.455 -0.5 0.95
    endloop
  endfacet
  facet normal 0.865994 -0 0.500054
    outer loop
      vertex -0.453091 -0.49049 1
      vertex -0.448091 0.49049 0.991341
      vertex -0.453091 0.49049 1
    endloop
  endfacet
  facet normal 0.865994 0 0.500054
    outer loop
      vertex -0.448091 0.49049 0.991341
      vertex -0.453091 -0.49049 1
      vertex -0.448091 -0.49049 0.991341
    endloop
  endfacet
  facet normal 0.733006 0.532528 0.42322
    outer loop
      vertex -0.455 0.5 0.991341
      vertex -0.456545 0.495245 1
      vertex -0.448091 0.49049 0.991341
    endloop
  endfacet
  facet normal -0.280106 0.861592 0.42332
    outer loop
      vertex -0.488456 0.495245 1
      vertex -0.498091 0.496367 0.991341
      vertex -0.494045 0.493428 1
    endloop
  endfacet
  facet normal 0.733023 -0.532463 0.423273
    outer loop
      vertex -0.453091 -0.49049 1
      vertex -0.456545 -0.495245 1
      vertex -0.448091 -0.49049 0.991341
    endloop
  endfacet
  facet normal 0.808994 0.587818 0
    outer loop
      vertex -0.455 0.5 0.991341
      vertex -0.451545 0.495245 0.95
      vertex -0.455 0.5 0.95
    endloop
  endfacet
  facet normal 0.809034 0.587762 9.78489e-06
    outer loop
      vertex -0.448091 0.49049 0.991341
      vertex -0.451545 0.495245 0.95
      vertex -0.455 0.5 0.991341
    endloop
  endfacet
  facet normal 0.809074 0.587706 0
    outer loop
      vertex -0.451545 0.495245 0.95
      vertex -0.448091 0.49049 0.991341
      vertex -0.448091 0.49049 0.95
    endloop
  endfacet
  facet normal -0.280006 0.861674 0.423219
    outer loop
      vertex -0.486911 0.5 0.991341
      vertex -0.498091 0.496367 0.991341
      vertex -0.488456 0.495245 1
    endloop
  endfacet
  facet normal 1 -0 0
    outer loop
      vertex -0.448091 -0.49049 0.991341
      vertex -0.448091 0.49049 0.95
      vertex -0.448091 0.49049 0.991341
    endloop
  endfacet
  facet normal 1 0 0
    outer loop
      vertex -0.448091 0.49049 0.95
      vertex -0.448091 -0.49049 0.991341
      vertex -0.448091 -0.49049 0.95
    endloop
  endfacet
  facet normal -0.309048 -0.951047 0
    outer loop
      vertex -0.498091 -0.496367 0.908659
      vertex -0.486911 -0.5 0.991341
      vertex -0.498091 -0.496367 0.991341
    endloop
  endfacet
  facet normal -0.309048 -0.951047 -0
    outer loop
      vertex -0.486911 -0.5 0.991341
      vertex -0.498091 -0.496367 0.908659
      vertex -0.486911 -0.5 0.908659
    endloop
  endfacet
  facet normal -0.309048 0.951047 0
    outer loop
      vertex -0.486911 0.5 0.908659
      vertex -0.498091 0.496367 0.991341
      vertex -0.486911 0.5 0.991341
    endloop
  endfacet
  facet normal -0.309048 0.951047 0
    outer loop
      vertex -0.498091 0.496367 0.991341
      vertex -0.486911 0.5 0.908659
      vertex -0.498091 0.496367 0.908659
    endloop
  endfacet
  facet normal 0 -0.876534 0.48134
    outer loop
      vertex -0.486911 -0.5 0.991341
      vertex -0.456545 -0.495245 1
      vertex -0.488456 -0.495245 1
    endloop
  endfacet
  facet normal 0 -0.876534 0.48134
    outer loop
      vertex -0.456545 -0.495245 1
      vertex -0.486911 -0.5 0.991341
      vertex -0.455 -0.5 0.991341
    endloop
  endfacet
  facet normal 0 1 0
    outer loop
      vertex 0.495 0.5 0.991341
      vertex 0.463089 0.5 0.95
      vertex 0.463089 0.5 0.991341
    endloop
  endfacet
  facet normal 0 1 -0
    outer loop
      vertex 0.495 0.5 0.908659
      vertex 0.463089 0.5 0.95
      vertex 0.495 0.5 0.991341
    endloop
  endfacet
  facet normal 0 1 0
    outer loop
      vertex -0.486911 0.5 0.908659
      vertex 0.458089 0.5 0.94134
      vertex 0.495 0.5 0.908659
    endloop
  endfacet
  facet normal 0 1 0
    outer loop
      vertex 0.463089 0.5 0.95
      vertex 0.495 0.5 0.908659
      vertex 0.458089 0.5 0.94134
    endloop
  endfacet
  facet normal 0 1 -0
    outer loop
      vertex -0.455 0.5 0.95
      vertex -0.486911 0.5 0.991341
      vertex -0.455 0.5 0.991341
    endloop
  endfacet
  facet normal 0 1 0
    outer loop
      vertex -0.486911 0.5 0.908659
      vertex -0.455 0.5 0.95
      vertex -0.450954 0.5 0.94134
    endloop
  endfacet
  facet normal 0 1 0
    outer loop
      vertex -0.455 0.5 0.95
      vertex -0.486911 0.5 0.908659
      vertex -0.486911 0.5 0.991341
    endloop
  endfacet
  facet normal 0 1 0
    outer loop
      vertex 0.458089 0.5 0.94134
      vertex -0.486911 0.5 0.908659
      vertex -0.450954 0.5 0.94134
    endloop
  endfacet
  facet normal -0 0 1
    outer loop
      vertex -0.488456 0.495245 1
      vertex -0.453091 0.49049 1
      vertex -0.456545 0.495245 1
    endloop
  endfacet
  facet normal 0 0 1
    outer loop
      vertex -0.453091 0.49049 1
      vertex -0.494045 0.493428 1
      vertex -0.453091 -0.49049 1
    endloop
  endfacet
  facet normal 0 0 1
    outer loop
      vertex -0.453091 0.49049 1
      vertex -0.488456 0.495245 1
      vertex -0.494045 0.493428 1
    endloop
  endfacet
  facet normal 0 0 1
    outer loop
      vertex -0.494045 -0.493428 1
      vertex -0.453091 -0.49049 1
      vertex -0.494045 0.493428 1
    endloop
  endfacet
  facet normal 0 -0 1
    outer loop
      vertex -0.488456 -0.495245 1
      vertex -0.453091 -0.49049 1
      vertex -0.494045 -0.493428 1
    endloop
  endfacet
  facet normal 0 0 1
    outer loop
      vertex -0.453091 -0.49049 1
      vertex -0.488456 -0.495245 1
      vertex -0.456545 -0.495245 1
    endloop
  endfacet
  facet normal -1 0 0
    outer loop
      vertex -0.498091 -0.496367 0.908659
      vertex -0.498091 0.496367 0.991341
      vertex -0.498091 0.496367 0.908659
    endloop
  endfacet
  facet normal -1 -0 0
    outer loop
      vertex -0.498091 0.496367 0.991341
      vertex -0.498091 -0.496367 0.908659
      vertex -0.498091 -0.496367 0.991341
    endloop
  endfacet
  facet normal 0.756744 -0.549853 0.353555
    outer loop
      vertex -0.451545 -0.495245 0.95
      vertex -0.455 -0.5 0.95
      vertex -0.450954 -0.5 0.94134
    endloop
  endfacet
  facet normal 0.756744 0.549853 0.353555
    outer loop
      vertex -0.450954 0.5 0.94134
      vertex -0.455 0.5 0.95
      vertex -0.451545 0.495245 0.95
    endloop
  endfacet
  facet normal 0 0.876534 -0.48134
    outer loop
      vertex 0.493455 0.495245 0.9
      vertex -0.486911 0.5 0.908659
      vertex 0.495 0.5 0.908659
    endloop
  endfacet
  facet normal 0 0.876534 -0.48134
    outer loop
      vertex -0.486911 0.5 0.908659
      vertex 0.493455 0.495245 0.9
      vertex -0.488456 0.495245 0.9
    endloop
  endfacet
  facet normal -0.905977 0 -0.423326
    outer loop
      vertex -0.494045 -0.493428 0.9
      vertex -0.498091 0.496367 0.908659
      vertex -0.494045 0.493428 0.9
    endloop
  endfacet
  facet normal -0.905977 -0 -0.423326
    outer loop
      vertex -0.498091 0.496367 0.908659
      vertex -0.494045 -0.493428 0.9
      vertex -0.498091 -0.496367 0.908659
    endloop
  endfacet
  facet normal -0.280106 -0.861592 -0.42332
    outer loop
      vertex -0.488456 -0.495245 0.9
      vertex -0.498091 -0.496367 0.908659
      vertex -0.494045 -0.493428 0.9
    endloop
  endfacet
  facet normal -0.280006 -0.861674 -0.423219
    outer loop
      vertex -0.486911 -0.5 0.908659
      vertex -0.498091 -0.496367 0.908659
      vertex -0.488456 -0.495245 0.9
    endloop
  endfacet
  facet normal -0.280106 0.861592 -0.42332
    outer loop
      vertex -0.494045 0.493428 0.9
      vertex -0.498091 0.496367 0.908659
      vertex -0.488456 0.495245 0.9
    endloop
  endfacet
  facet normal -0.280006 0.861674 -0.423219
    outer loop
      vertex -0.488456 0.495245 0.9
      vertex -0.498091 0.496367 0.908659
      vertex -0.486911 0.5 0.908659
    endloop
  endfacet
  facet normal -0 -0.876534 -0.48134
    outer loop
      vertex 0.493455 -0.495245 0.9
      vertex -0.486911 -0.5 0.908659
      vertex -0.488456 -0.495245 0.9
    endloop
  endfacet
  facet normal 0 -0.876534 -0.48134
    outer loop
      vertex -0.486911 -0.5 0.908659
      vertex 0.493455 -0.495245 0.9
      vertex 0.495 -0.5 0.908659
    endloop
  endfacet
  facet normal 0.733023 0.532463 -0.423273
    outer loop
      vertex 0.496909 0.49049 0.9
      vertex 0.493455 0.495245 0.9
      vertex 0.501909 0.49049 0.908659
    endloop
  endfacet
  facet normal 0 -0.876614 0.481194
    outer loop
      vertex -0.451545 -0.495245 0.95
      vertex 0.450729 -0.496367 0.947956
      vertex 0.451544 -0.495245 0.95
    endloop
  endfacet
  facet normal 3.02939e-07 -0.876558 0.481297
    outer loop
      vertex -0.450954 -0.5 0.94134
      vertex 0.450729 -0.496367 0.947956
      vertex -0.451545 -0.495245 0.95
    endloop
  endfacet
  facet normal 0 -0.87654 0.481329
    outer loop
      vertex 0.450729 -0.496367 0.947956
      vertex -0.450954 -0.5 0.94134
      vertex 0.458089 -0.5 0.94134
    endloop
  endfacet
  facet normal 0.809034 -0.587762 0
    outer loop
      vertex 0.495 -0.5 0.991341
      vertex 0.501909 -0.49049 0.908659
      vertex 0.501909 -0.49049 0.991341
    endloop
  endfacet
  facet normal 0.809034 -0.587762 0
    outer loop
      vertex 0.501909 -0.49049 0.908659
      vertex 0.495 -0.5 0.991341
      vertex 0.495 -0.5 0.908659
    endloop
  endfacet
  facet normal 1 -0 0
    outer loop
      vertex 0.501909 -0.49049 0.991341
      vertex 0.501909 0.49049 0.908659
      vertex 0.501909 0.49049 0.991341
    endloop
  endfacet
  facet normal 1 0 0
    outer loop
      vertex 0.501909 0.49049 0.908659
      vertex 0.501909 -0.49049 0.991341
      vertex 0.501909 -0.49049 0.908659
    endloop
  endfacet
  facet normal 0.733006 -0.532528 -0.42322
    outer loop
      vertex 0.495 -0.5 0.908659
      vertex 0.493455 -0.495245 0.9
      vertex 0.501909 -0.49049 0.908659
    endloop
  endfacet
  facet normal 0 0 -1
    outer loop
      vertex 0.2475 -0.25 0.9
      vertex 0.496909 -0.49049 0.9
      vertex 0.493455 -0.495245 0.9
    endloop
  endfacet
  facet normal 0 0 -1
    outer loop
      vertex 0.496909 -0.49049 0.9
      vertex 0.251909 -0.24049 0.9
      vertex 0.496909 0.49049 0.9
    endloop
  endfacet
  facet normal 0 0 -1
    outer loop
      vertex 0.251909 0.24049 0.9
      vertex 0.496909 0.49049 0.9
      vertex 0.251909 -0.24049 0.9
    endloop
  endfacet
  facet normal 0 0 -1
    outer loop
      vertex 0.496909 -0.49049 0.9
      vertex 0.250955 -0.245245 0.9
      vertex 0.251909 -0.24049 0.9
    endloop
  endfacet
  facet normal 0 0 -1
    outer loop
      vertex 0.496909 -0.49049 0.9
      vertex 0.2475 -0.25 0.9
      vertex 0.250955 -0.245245 0.9
    endloop
  endfacet
  facet normal 0 0 -1
    outer loop
      vertex 0.493455 -0.495245 0.9
      vertex 0.245 -0.25 0.9
      vertex 0.2475 -0.25 0.9
    endloop
  endfacet
  facet normal 0 0 -1
    outer loop
      vertex 0.493455 -0.495245 0.9
      vertex -0.236911 -0.25 0.9
      vertex 0.245 -0.25 0.9
    endloop
  endfacet
  facet normal 0 0 -1
    outer loop
      vertex -0.488456 -0.495245 0.9
      vertex -0.236911 -0.25 0.9
      vertex 0.493455 -0.495245 0.9
    endloop
  endfacet
  facet normal -0 0 -1
    outer loop
      vertex -0.236911 -0.25 0.9
      vertex -0.488456 -0.495245 0.9
      vertex -0.243456 -0.25 0.9
    endloop
  endfacet
  facet normal 0 0 -1
    outer loop
      vertex -0.494045 -0.493428 0.9
      vertex -0.249045 -0.248183 0.9
      vertex -0.488456 -0.495245 0.9
    endloop
  endfacet
  facet normal -0 0 -1
    outer loop
      vertex -0.243456 -0.25 0.9
      vertex -0.488456 -0.495245 0.9
      vertex -0.249045 -0.248183 0.9
    endloop
  endfacet
  facet normal 0 0 -1
    outer loop
      vertex 0.250955 0.245245 0.9
      vertex 0.496909 0.49049 0.9
      vertex 0.251909 0.24049 0.9
    endloop
  endfacet
  facet normal 0 0 -1
    outer loop
      vertex 0.2475 0.25 0.9
      vertex 0.496909 0.49049 0.9
      vertex 0.250955 0.245245 0.9
    endloop
  endfacet
  facet normal -0 0 -1
    outer loop
      vertex 0.496909 0.49049 0.9
      vertex 0.2475 0.25 0.9
      vertex 0.493455 0.495245 0.9
    endloop
  endfacet
  facet normal 0 0 -1
    outer loop
      vertex 0.245 0.25 0.9
      vertex 0.493455 0.495245 0.9
      vertex 0.2475 0.25 0.9
    endloop
  endfacet
  facet normal 0 0 -1
    outer loop
      vertex -0.236911 0.25 0.9
      vertex 0.493455 0.495245 0.9
      vertex 0.245 0.25 0.9
    endloop
  endfacet
  facet normal 0 0 -1
    outer loop
      vertex -0.488456 0.495245 0.9
      vertex -0.236911 0.25 0.9
      vertex -0.243456 0.25 0.9
    endloop
  endfacet
  facet normal 0 0 -1
    outer loop
      vertex -0.488456 0.495245 0.9
      vertex -0.243456 0.25 0.9
      vertex -0.249045 0.248183 0.9
    endloop
  endfacet
  facet normal 0 0 -1
    outer loop
      vertex -0.236911 0.25 0.9
      vertex -0.488456 0.495245 0.9
      vertex 0.493455 0.495245 0.9
    endloop
  endfacet
  facet normal -0 0 -1
    outer loop
      vertex -0.249045 -0.248183 0.9
      vertex -0.494045 -0.493428 0.9
      vertex -0.249045 0.248183 0.9
    endloop
  endfacet
  facet normal 0 0 -1
    outer loop
      vertex -0.494045 0.493428 0.9
      vertex -0.249045 0.248183 0.9
      vertex -0.494045 -0.493428 0.9
    endloop
  endfacet
  facet normal 0 0 -1
    outer loop
      vertex -0.249045 0.248183 0.9
      vertex -0.494045 0.493428 0.9
      vertex -0.488456 0.495245 0.9
    endloop
  endfacet
  facet normal 0.733023 -0.532463 -0.423273
    outer loop
      vertex 0.501909 -0.49049 0.908659
      vertex 0.493455 -0.495245 0.9
      vertex 0.496909 -0.49049 0.9
    endloop
  endfacet
  facet normal 0.733006 0.532528 -0.42322
    outer loop
      vertex 0.501909 0.49049 0.908659
      vertex 0.493455 0.495245 0.9
      vertex 0.495 0.5 0.908659
    endloop
  endfacet
  facet normal 0 0.876614 0.481194
    outer loop
      vertex 0.450729 0.496367 0.947956
      vertex -0.451545 0.495245 0.95
      vertex 0.451544 0.495245 0.95
    endloop
  endfacet
  facet normal -0 0.87654 0.481329
    outer loop
      vertex -0.450954 0.5 0.94134
      vertex 0.450729 0.496367 0.947956
      vertex 0.458089 0.5 0.94134
    endloop
  endfacet
  facet normal 3.02939e-07 0.876558 0.481297
    outer loop
      vertex 0.450729 0.496367 0.947956
      vertex -0.450954 0.5 0.94134
      vertex -0.451545 0.495245 0.95
    endloop
  endfacet
  facet normal 0.809034 0.587762 0
    outer loop
      vertex 0.501909 0.49049 0.991341
      vertex 0.495 0.5 0.908659
      vertex 0.495 0.5 0.991341
    endloop
  endfacet
  facet normal 0.809034 0.587762 0
    outer loop
      vertex 0.495 0.5 0.908659
      vertex 0.501909 0.49049 0.991341
      vertex 0.501909 0.49049 0.908659
    endloop
  endfacet
  facet normal 0.865994 0 -0.500054
    outer loop
      vertex 0.501909 -0.49049 0.908659
      vertex 0.496909 0.49049 0.9
      vertex 0.501909 0.49049 0.908659
    endloop
  endfacet
  facet normal 0.865994 0 -0.500054
    outer loop
      vertex 0.496909 0.49049 0.9
      vertex 0.501909 -0.49049 0.908659
      vertex 0.496909 -0.49049 0.9
    endloop
  endfacet
  facet normal 0 0 1
    outer loop
      vertex 0.450954 0.493428 0.95
      vertex -0.448091 0.49049 0.95
      vertex 0.450954 -0.493428 0.95
    endloop
  endfacet
  facet normal 0 0 1
    outer loop
      vertex 0.451544 0.495245 0.95
      vertex -0.448091 0.49049 0.95
      vertex 0.450954 0.493428 0.95
    endloop
  endfacet
  facet normal 0 -0 1
    outer loop
      vertex -0.448091 0.49049 0.95
      vertex 0.451544 0.495245 0.95
      vertex -0.451545 0.495245 0.95
    endloop
  endfacet
  facet normal -0 0 1
    outer loop
      vertex -0.448091 -0.49049 0.95
      vertex 0.450954 -0.493428 0.95
      vertex -0.448091 0.49049 0.95
    endloop
  endfacet
  facet normal 0 0 1
    outer loop
      vertex 0.450954 -0.493428 0.95
      vertex -0.448091 -0.49049 0.95
      vertex 0.451544 -0.495245 0.95
    endloop
  endfacet
  facet normal 0 0 1
    outer loop
      vertex 0.451544 -0.495245 0.95
      vertex -0.448091 -0.49049 0.95
      vertex -0.451545 -0.495245 0.95
    endloop
  endfacet
  facet normal -0.304257 -0.936256 0.175648
    outer loop
      vertex 0.458089 -0.5 0.94134
      vertex 0.451909 -0.496367 0.95
      vertex 0.450729 -0.496367 0.947956
    endloop
  endfacet
  facet normal -0.304242 -0.936259 0.175659
    outer loop
      vertex 0.451909 -0.496367 0.95
      vertex 0.458089 -0.5 0.94134
      vertex 0.463089 -0.5 0.95
    endloop
  endfacet
  facet normal -0.86588 0 0.500251
    outer loop
      vertex 0.450954 -0.493428 0.95
      vertex 0.451909 0.493428 0.951653
      vertex 0.450954 0.493428 0.95
    endloop
  endfacet
  facet normal -0.86588 0 0.500251
    outer loop
      vertex 0.451909 0.493428 0.951653
      vertex 0.450954 -0.493428 0.95
      vertex 0.451909 -0.493428 0.951653
    endloop
  endfacet
  facet normal -0.833593 0.271178 0.481233
    outer loop
      vertex 0.451544 0.495245 0.95
      vertex 0.451909 0.496367 0.95
      vertex 0.450729 0.496367 0.947956
    endloop
  endfacet
  facet normal -0.83356 0.270666 0.481579
    outer loop
      vertex 0.451909 0.493428 0.951653
      vertex 0.451544 0.495245 0.95
      vertex 0.450954 0.493428 0.95
    endloop
  endfacet
  facet normal -0.833226 0.271058 0.481936
    outer loop
      vertex 0.451544 0.495245 0.95
      vertex 0.451909 0.493428 0.951653
      vertex 0.451909 0.496367 0.95
    endloop
  endfacet
  facet normal -0.83356 -0.270666 0.481579
    outer loop
      vertex 0.451544 -0.495245 0.95
      vertex 0.451909 -0.493428 0.951653
      vertex 0.450954 -0.493428 0.95
    endloop
  endfacet
  facet normal -0.833226 -0.271058 0.481936
    outer loop
      vertex 0.451544 -0.495245 0.95
      vertex 0.451909 -0.496367 0.95
      vertex 0.451909 -0.493428 0.951653
    endloop
  endfacet
  facet normal -0.833593 -0.271178 0.481233
    outer loop
      vertex 0.451909 -0.496367 0.95
      vertex 0.451544 -0.495245 0.95
      vertex 0.450729 -0.496367 0.947956
    endloop
  endfacet
  facet normal -0.304242 0.936259 0.175659
    outer loop
      vertex 0.458089 0.5 0.94134
      vertex 0.451909 0.496367 0.95
      vertex 0.463089 0.5 0.95
    endloop
  endfacet
  facet normal -0.304257 0.936256 0.175648
    outer loop
      vertex 0.451909 0.496367 0.95
      vertex 0.458089 0.5 0.94134
      vertex 0.450729 0.496367 0.947956
    endloop
  endfacet
  facet normal -0.280006 -0.861674 0.423219
    outer loop
      vertex 0.461544 -0.495245 1
      vertex 0.451909 -0.496367 0.991341
      vertex 0.463089 -0.5 0.991341
    endloop
  endfacet
  facet normal -0.280106 -0.861592 0.42332
    outer loop
      vertex 0.455955 -0.493428 1
      vertex 0.451909 -0.496367 0.991341
      vertex 0.461544 -0.495245 1
    endloop
  endfacet
  facet normal -0.905977 0 0.423326
    outer loop
      vertex 0.451909 0.496367 0.991341
      vertex 0.455955 -0.493428 1
      vertex 0.455955 0.493428 1
    endloop
  endfacet
  facet normal -0.905977 0 0.423326
    outer loop
      vertex 0.455955 -0.493428 1
      vertex 0.451909 0.496367 0.991341
      vertex 0.451909 -0.496367 0.991341
    endloop
  endfacet
  facet normal -0 0.876534 0.48134
    outer loop
      vertex 0.463089 0.5 0.991341
      vertex 0.493455 0.495245 1
      vertex 0.495 0.5 0.991341
    endloop
  endfacet
  facet normal 0 0.876534 0.48134
    outer loop
      vertex 0.493455 0.495245 1
      vertex 0.463089 0.5 0.991341
      vertex 0.461544 0.495245 1
    endloop
  endfacet
  facet normal 0.733023 0.532463 0.423273
    outer loop
      vertex 0.501909 0.49049 0.991341
      vertex 0.493455 0.495245 1
      vertex 0.496909 0.49049 1
    endloop
  endfacet
  facet normal 0.733006 -0.532528 0.42322
    outer loop
      vertex 0.501909 -0.49049 0.991341
      vertex 0.493455 -0.495245 1
      vertex 0.495 -0.5 0.991341
    endloop
  endfacet
  facet normal 0.865994 -0 0.500054
    outer loop
      vertex 0.496909 -0.49049 1
      vertex 0.501909 0.49049 0.991341
      vertex 0.496909 0.49049 1
    endloop
  endfacet
  facet normal 0.865994 0 0.500054
    outer loop
      vertex 0.501909 0.49049 0.991341
      vertex 0.496909 -0.49049 1
      vertex 0.501909 -0.49049 0.991341
    endloop
  endfacet
  facet normal 0.733006 0.532528 0.42322
    outer loop
      vertex 0.495 0.5 0.991341
      vertex 0.493455 0.495245 1
      vertex 0.501909 0.49049 0.991341
    endloop
  endfacet
  facet normal -0.280106 0.861592 0.42332
    outer loop
      vertex 0.461544 0.495245 1
      vertex 0.451909 0.496367 0.991341
      vertex 0.455955 0.493428 1
    endloop
  endfacet
  facet normal 0.733023 -0.532463 0.423273
    outer loop
      vertex 0.496909 -0.49049 1
      vertex 0.493455 -0.495245 1
      vertex 0.501909 -0.49049 0.991341
    endloop
  endfacet
  facet normal -0.280006 0.861674 0.423219
    outer loop
      vertex 0.463089 0.5 0.991341
      vertex 0.451909 0.496367 0.991341
      vertex 0.461544 0.495245 1
    endloop
  endfacet
  facet normal -0.309048 -0.951047 0
    outer loop
      vertex 0.451909 -0.496367 0.95
      vertex 0.463089 -0.5 0.991341
      vertex 0.451909 -0.496367 0.991341
    endloop
  endfacet
  facet normal -0.309048 -0.951047 -0
    outer loop
      vertex 0.463089 -0.5 0.991341
      vertex 0.451909 -0.496367 0.95
      vertex 0.463089 -0.5 0.95
    endloop
  endfacet
  facet normal -0.309048 0.951047 0
    outer loop
      vertex 0.463089 0.5 0.95
      vertex 0.451909 0.496367 0.991341
      vertex 0.463089 0.5 0.991341
    endloop
  endfacet
  facet normal -0.309048 0.951047 0
    outer loop
      vertex 0.451909 0.496367 0.991341
      vertex 0.463089 0.5 0.95
      vertex 0.451909 0.496367 0.95
    endloop
  endfacet
  facet normal 0 -0.876534 0.48134
    outer loop
      vertex 0.463089 -0.5 0.991341
      vertex 0.493455 -0.495245 1
      vertex 0.461544 -0.495245 1
    endloop
  endfacet
  facet normal 0 -0.876534 0.48134
    outer loop
      vertex 0.493455 -0.495245 1
      vertex 0.463089 -0.5 0.991341
      vertex 0.495 -0.5 0.991341
    endloop
  endfacet
  facet normal -0 0 1
    outer loop
      vertex 0.461544 0.495245 1
      vertex 0.496909 0.49049 1
      vertex 0.493455 0.495245 1
    endloop
  endfacet
  facet normal 0 0 1
    outer loop
      vertex 0.496909 0.49049 1
      vertex 0.455955 0.493428 1
      vertex 0.496909 -0.49049 1
    endloop
  endfacet
  facet normal 0 0 1
    outer loop
      vertex 0.496909 0.49049 1
      vertex 0.461544 0.495245 1
      vertex 0.455955 0.493428 1
    endloop
  endfacet
  facet normal 0 0 1
    outer loop
      vertex 0.455955 -0.493428 1
      vertex 0.496909 -0.49049 1
      vertex 0.455955 0.493428 1
    endloop
  endfacet
  facet normal 0 -0 1
    outer loop
      vertex 0.461544 -0.495245 1
      vertex 0.496909 -0.49049 1
      vertex 0.455955 -0.493428 1
    endloop
  endfacet
  facet normal 0 0 1
    outer loop
      vertex 0.496909 -0.49049 1
      vertex 0.461544 -0.495245 1
      vertex 0.493455 -0.495245 1
    endloop
  endfacet
  facet normal -1 0 0
    outer loop
      vertex 0.451909 0.493428 0.951653
      vertex 0.451909 0.496367 0.991341
      vertex 0.451909 0.496367 0.95
    endloop
  endfacet
  facet normal -1 0 0
    outer loop
      vertex 0.451909 -0.493428 0.951653
      vertex 0.451909 0.496367 0.991341
      vertex 0.451909 0.493428 0.951653
    endloop
  endfacet
  facet normal -1 0 0
    outer loop
      vertex 0.451909 -0.493428 0.951653
      vertex 0.451909 -0.496367 0.991341
      vertex 0.451909 0.496367 0.991341
    endloop
  endfacet
  facet normal -1 0 0
    outer loop
      vertex 0.451909 -0.496367 0.991341
      vertex 0.451909 -0.493428 0.951653
      vertex 0.451909 -0.496367 0.95
    endloop
  endfacet
  facet normal -0.280008 0.861681 -0.423204
    outer loop
      vertex -0.238456 0.245245 0
      vertex -0.248091 0.246367 0.00865936
      vertex -0.236911 0.25 0.00865936
    endloop
  endfacet
  facet normal -0.308971 -0.951072 -7.44547e-07
    outer loop
      vertex -0.247379 -0.246599 0.897114
      vertex -0.248091 -0.246367 0.00865936
      vertex -0.241789 -0.248415 0.897113
    endloop
  endfacet
  facet normal -0.309811 -0.950798 0
    outer loop
      vertex -0.248091 -0.246367 0.00865936
      vertex -0.247379 -0.246599 0.897114
      vertex -0.248091 -0.246367 0.898346
    endloop
  endfacet
  facet normal -0.309048 -0.951047 -1.41131e-07
    outer loop
      vertex -0.236911 -0.25 0.00865936
      vertex -0.241789 -0.248415 0.897113
      vertex -0.248091 -0.246367 0.00865936
    endloop
  endfacet
  facet normal -0.309024 -0.951054 0
    outer loop
      vertex -0.241789 -0.248415 0.897113
      vertex -0.236911 -0.25 0.00865936
      vertex -0.236911 -0.25 0.9
    endloop
  endfacet
  facet normal 0 1 -0
    outer loop
      vertex 0.245 0.25 0.00865936
      vertex -0.236911 0.25 0.9
      vertex 0.245 0.25 0.9
    endloop
  endfacet
  facet normal 0 1 0
    outer loop
      vertex -0.236911 0.25 0.9
      vertex 0.245 0.25 0.00865936
      vertex -0.236911 0.25 0.00865936
    endloop
  endfacet
  facet normal -0.280108 -0.861598 -0.423306
    outer loop
      vertex -0.238456 -0.245245 0
      vertex -0.248091 -0.246367 0.00865936
      vertex -0.244045 -0.243428 0
    endloop
  endfacet
  facet normal -0.309024 0.951054 0
    outer loop
      vertex -0.236911 0.25 0.9
      vertex -0.236911 0.25 0.00865936
      vertex -0.241789 0.248415 0.897113
    endloop
  endfacet
  facet normal -0.308971 0.951072 3.25932e-07
    outer loop
      vertex -0.236911 0.25 0.00865936
      vertex -0.247379 0.246599 0.897114
      vertex -0.241789 0.248415 0.897113
    endloop
  endfacet
  facet normal -0.309048 0.951047 -6.76356e-07
    outer loop
      vertex -0.248091 0.246367 0.00865936
      vertex -0.247379 0.246599 0.897114
      vertex -0.236911 0.25 0.00865936
    endloop
  endfacet
  facet normal -0.309811 0.950798 0
    outer loop
      vertex -0.247379 0.246599 0.897114
      vertex -0.248091 0.246367 0.00865936
      vertex -0.248091 0.246367 0.898346
    endloop
  endfacet
  facet normal -1 0 0
    outer loop
      vertex -0.248091 -0.246367 0.00865936
      vertex -0.248091 0.246367 0.898346
      vertex -0.248091 0.246367 0.00865936
    endloop
  endfacet
  facet normal -1 -0 0
    outer loop
      vertex -0.248091 0.246367 0.898346
      vertex -0.248091 -0.246367 0.00865936
      vertex -0.248091 -0.246367 0.898346
    endloop
  endfacet
  facet normal 0.808913 0.587929 0
    outer loop
      vertex 0.246152 0.248415 0.897113
      vertex 0.245 0.25 0.00865936
      vertex 0.245 0.25 0.9
    endloop
  endfacet
  facet normal 0.809074 0.587706 -6.07103e-07
    outer loop
      vertex 0.249606 0.24366 0.897113
      vertex 0.245 0.25 0.00865936
      vertex 0.246152 0.248415 0.897113
    endloop
  endfacet
  facet normal 0.809034 0.587762 -0
    outer loop
      vertex 0.251909 0.24049 0.00865936
      vertex 0.249606 0.24366 0.897113
      vertex 0.251909 0.24049 0.9
    endloop
  endfacet
  facet normal 0.809034 0.587762 1.21659e-17
    outer loop
      vertex 0.249606 0.24366 0.897113
      vertex 0.251909 0.24049 0.00865936
      vertex 0.245 0.25 0.00865936
    endloop
  endfacet
  facet normal 0.733029 -0.532467 -0.423258
    outer loop
      vertex 0.251909 -0.24049 0.00865936
      vertex 0.243455 -0.245245 0
      vertex 0.246909 -0.24049 0
    endloop
  endfacet
  facet normal 0.733029 0.532467 -0.423258
    outer loop
      vertex 0.246909 0.24049 0
      vertex 0.243455 0.245245 0
      vertex 0.251909 0.24049 0.00865936
    endloop
  endfacet
  facet normal -0.280108 0.861598 -0.423306
    outer loop
      vertex -0.244045 0.243428 0
      vertex -0.248091 0.246367 0.00865936
      vertex -0.238456 0.245245 0
    endloop
  endfacet
  facet normal 0.809034 -0.587762 0
    outer loop
      vertex 0.249606 -0.24366 0.897113
      vertex 0.251909 -0.24049 0.00865936
      vertex 0.251909 -0.24049 0.9
    endloop
  endfacet
  facet normal 0.809074 -0.587706 3.03552e-07
    outer loop
      vertex 0.246152 -0.248415 0.897113
      vertex 0.251909 -0.24049 0.00865936
      vertex 0.249606 -0.24366 0.897113
    endloop
  endfacet
  facet normal 0.808913 -0.587929 0
    outer loop
      vertex 0.245 -0.25 0.00865936
      vertex 0.246152 -0.248415 0.897113
      vertex 0.245 -0.25 0.9
    endloop
  endfacet
  facet normal 0.809034 -0.587762 -4.55305e-07
    outer loop
      vertex 0.246152 -0.248415 0.897113
      vertex 0.245 -0.25 0.00865936
      vertex 0.251909 -0.24049 0.00865936
    endloop
  endfacet
  facet normal -0.905984 0 -0.423312
    outer loop
      vertex -0.244045 -0.243428 0
      vertex -0.248091 0.246367 0.00865936
      vertex -0.244045 0.243428 0
    endloop
  endfacet
  facet normal -0.905984 -0 -0.423312
    outer loop
      vertex -0.248091 0.246367 0.00865936
      vertex -0.244045 -0.243428 0
      vertex -0.248091 -0.246367 0.00865936
    endloop
  endfacet
  facet normal 0.866003 0 -0.500039
    outer loop
      vertex 0.251909 -0.24049 0.00865936
      vertex 0.246909 0.24049 0
      vertex 0.251909 0.24049 0.00865936
    endloop
  endfacet
  facet normal 0.866003 0 -0.500039
    outer loop
      vertex 0.246909 0.24049 0
      vertex 0.251909 -0.24049 0.00865936
      vertex 0.246909 -0.24049 0
    endloop
  endfacet
  facet normal 0.733012 0.532532 -0.423206
    outer loop
      vertex 0.251909 0.24049 0.00865936
      vertex 0.243455 0.245245 0
      vertex 0.245 0.25 0.00865936
    endloop
  endfacet
  facet normal 0 0.876543 -0.481324
    outer loop
      vertex 0.243455 0.245245 0
      vertex -0.236911 0.25 0.00865936
      vertex 0.245 0.25 0.00865936
    endloop
  endfacet
  facet normal 0 0.876543 -0.481324
    outer loop
      vertex -0.236911 0.25 0.00865936
      vertex 0.243455 0.245245 0
      vertex -0.238456 0.245245 0
    endloop
  endfacet
  facet normal 0.733012 -0.532532 -0.423206
    outer loop
      vertex 0.245 -0.25 0.00865936
      vertex 0.243455 -0.245245 0
      vertex 0.251909 -0.24049 0.00865936
    endloop
  endfacet
  facet normal -0 -0.876543 -0.481324
    outer loop
      vertex 0.243455 -0.245245 0
      vertex -0.236911 -0.25 0.00865936
      vertex -0.238456 -0.245245 0
    endloop
  endfacet
  facet normal 0 -0.876543 -0.481324
    outer loop
      vertex -0.236911 -0.25 0.00865936
      vertex 0.243455 -0.245245 0
      vertex 0.245 -0.25 0.00865936
    endloop
  endfacet
  facet normal -0.280008 -0.861681 -0.423204
    outer loop
      vertex -0.236911 -0.25 0.00865936
      vertex -0.248091 -0.246367 0.00865936
      vertex -0.238456 -0.245245 0
    endloop
  endfacet
  facet normal 0 -1 0
    outer loop
      vertex -0.236911 -0.25 0.00865936
      vertex 0.245 -0.25 0.9
      vertex -0.236911 -0.25 0.9
    endloop
  endfacet
  facet normal 0 -1 -0
    outer loop
      vertex 0.245 -0.25 0.9
      vertex -0.236911 -0.25 0.00865936
      vertex 0.245 -0.25 0.00865936
    endloop
  endfacet
  facet normal 0 0 -1
    outer loop
      vertex -0.238456 -0.245245 0
      vertex 0.246909 -0.24049 0
      vertex 0.243455 -0.245245 0
    endloop
  endfacet
  facet normal -0 0 -1
    outer loop
      vertex 0.246909 -0.24049 0
      vertex -0.238456 -0.245245 0
      vertex 0.246909 0.24049 0
    endloop
  endfacet
  facet normal 0 0 -1
    outer loop
      vertex -0.238456 0.245245 0
      vertex 0.246909 0.24049 0
      vertex -0.238456 -0.245245 0
    endloop
  endfacet
  facet normal 0 0 -1
    outer loop
      vertex 0.246909 0.24049 0
      vertex -0.238456 0.245245 0
      vertex 0.243455 0.245245 0
    endloop
  endfacet
  facet normal 0 0 -1
    outer loop
      vertex -0.244045 -0.243428 0
      vertex -0.238456 0.245245 0
      vertex -0.238456 -0.245245 0
    endloop
  endfacet
  facet normal 0 0 -1
    outer loop
      vertex -0.238456 0.245245 0
      vertex -0.244045 -0.243428 0
      vertex -0.244045 0.243428 0
    endloop
  endfacet
  facet normal 1 -0 0
    outer loop
      vertex 0.251909 -0.24049 0.9
      vertex 0.251909 0.24049 0.00865936
      vertex 0.251909 0.24049 0.9
    endloop
  endfacet
  facet normal 1 0 0
    outer loop
      vertex 0.251909 0.24049 0.00865936
      vertex 0.251909 -0.24049 0.9
      vertex 0.251909 -0.24049 0.00865936
    endloop
  endfacet
  facet normal -0.253233 -0.778932 -0.573706
    outer loop
      vertex -0.247379 -0.246599 0.897114
      vertex -0.243456 -0.25 0.9
      vertex -0.249045 -0.248183 0.9
    endloop
  endfacet
  facet normal -0.25314 -0.778898 -0.573792
    outer loop
      vertex -0.243456 -0.25 0.9
      vertex -0.247379 -0.246599 0.897114
      vertex -0.241789 -0.248415 0.897113
    endloop
  endfacet
  facet normal -0.865873 0.000766423 -0.500263
    outer loop
      vertex -0.248091 0.246367 0.898346
      vertex -0.249045 0.248183 0.9
      vertex -0.247379 0.246599 0.897114
    endloop
  endfacet
  facet normal -0.866238 0 -0.499632
    outer loop
      vertex -0.248091 -0.246367 0.898346
      vertex -0.249045 0.248183 0.9
      vertex -0.248091 0.246367 0.898346
    endloop
  endfacet
  facet normal -0.866238 0 -0.499632
    outer loop
      vertex -0.248091 -0.246367 0.898346
      vertex -0.249045 -0.248183 0.9
      vertex -0.249045 0.248183 0.9
    endloop
  endfacet
  facet normal -0.865873 -0.000766423 -0.500263
    outer loop
      vertex -0.249045 -0.248183 0.9
      vertex -0.248091 -0.246367 0.898346
      vertex -0.247379 -0.246599 0.897114
    endloop
  endfacet
  facet normal 0.853218 -0.171182 -0.492662
    outer loop
      vertex 0.250955 -0.245245 0.9
      vertex 0.249606 -0.24366 0.897113
      vertex 0.251909 -0.24049 0.9
    endloop
  endfacet
  facet normal 0.853218 0.171182 -0.492662
    outer loop
      vertex 0.251909 0.24049 0.9
      vertex 0.249606 0.24366 0.897113
      vertex 0.250955 0.245245 0.9
    endloop
  endfacet
  facet normal 0 0.876581 -0.481254
    outer loop
      vertex 0.246152 0.248415 0.897113
      vertex 0.245 0.25 0.9
      vertex 0.2475 0.25 0.9
    endloop
  endfacet
  facet normal 0 0.876581 -0.481254
    outer loop
      vertex -0.241789 0.248415 0.897113
      vertex -0.243456 0.25 0.9
      vertex -0.236911 0.25 0.9
    endloop
  endfacet
  facet normal -0.253233 0.778932 -0.573706
    outer loop
      vertex -0.243456 0.25 0.9
      vertex -0.247379 0.246599 0.897114
      vertex -0.249045 0.248183 0.9
    endloop
  endfacet
  facet normal -0.25314 0.778898 -0.573792
    outer loop
      vertex -0.247379 0.246599 0.897114
      vertex -0.243456 0.25 0.9
      vertex -0.241789 0.248415 0.897113
    endloop
  endfacet
  facet normal -0 -0.876581 -0.481254
    outer loop
      vertex -0.236911 -0.25 0.9
      vertex -0.243456 -0.25 0.9
      vertex -0.241789 -0.248415 0.897113
    endloop
  endfacet
  facet normal -0 -0.876581 -0.481254
    outer loop
      vertex 0.2475 -0.25 0.9
      vertex 0.245 -0.25 0.9
      vertex 0.246152 -0.248415 0.897113
    endloop
  endfacet
  facet normal 0.662598 -0.481307 -0.573854
    outer loop
      vertex 0.250955 -0.245245 0.9
      vertex 0.246152 -0.248415 0.897113
      vertex 0.249606 -0.24366 0.897113
    endloop
  endfacet
  facet normal 0.662612 -0.481456 -0.573713
    outer loop
      vertex 0.246152 -0.248415 0.897113
      vertex 0.250955 -0.245245 0.9
      vertex 0.2475 -0.25 0.9
    endloop
  endfacet
  facet normal 0.662612 0.481456 -0.573713
    outer loop
      vertex 0.250955 0.245245 0.9
      vertex 0.246152 0.248415 0.897113
      vertex 0.2475 0.25 0.9
    endloop
  endfacet
  facet normal 0.662598 0.481307 -0.573854
    outer loop
      vertex 0.246152 0.248415 0.897113
      vertex 0.250955 0.245245 0.9
      vertex 0.249606 0.24366 0.897113
    endloop
  endfacet
endsolid OpenSCAD_Model
