solid OpenSCAD_Model
  facet normal 1 -0 0
    outer loop
      vertex 0.247499 -0.247499 0.197499
      vertex 0.247499 0.247499 -0.25
      vertex 0.247499 0.247499 0.197499
    endloop
  endfacet
  facet normal 1 0 0
    outer loop
      vertex 0.247499 0.247499 -0.25
      vertex 0.247499 -0.247499 0.197499
      vertex 0.247499 -0.247499 -0.25
    endloop
  endfacet
  facet normal 0 0 -1
    outer loop
      vertex -0.247499 -0.247499 -0.25
      vertex 0.247499 0.247499 -0.25
      vertex 0.247499 -0.247499 -0.25
    endloop
  endfacet
  facet normal -0 0 -1
    outer loop
      vertex 0.247499 0.247499 -0.25
      vertex -0.247499 -0.247499 -0.25
      vertex -0.247499 0.247499 -0.25
    endloop
  endfacet
  facet normal -1 0 0
    outer loop
      vertex -0.247499 -0.247499 -0.25
      vertex -0.247499 0.247499 0.197499
      vertex -0.247499 0.247499 -0.25
    endloop
  endfacet
  facet normal -1 -0 0
    outer loop
      vertex -0.247499 0.247499 0.197499
      vertex -0.247499 -0.247499 -0.25
      vertex -0.247499 -0.247499 0.197499
    endloop
  endfacet
  facet normal 0 1 -0
    outer loop
      vertex 0.247499 0.247499 -0.25
      vertex -0.247499 0.247499 0.197499
      vertex 0.247499 0.247499 0.197499
    endloop
  endfacet
  facet normal 0 1 0
    outer loop
      vertex -0.247499 0.247499 0.197499
      vertex 0.247499 0.247499 -0.25
      vertex -0.247499 0.247499 -0.25
    endloop
  endfacet
  facet normal 0 -1 0
    outer loop
      vertex -0.247499 -0.247499 -0.25
      vertex 0.247499 -0.247499 0.197499
      vertex -0.247499 -0.247499 0.197499
    endloop
  endfacet
  facet normal 0 -1 -0
    outer loop
      vertex 0.247499 -0.247499 0.197499
      vertex -0.247499 -0.247499 -0.25
      vertex 0.247499 -0.247499 -0.25
    endloop
  endfacet
  facet normal 1 -0 0
    outer loop
      vertex 0.495 -0.495 0.2975
      vertex 0.495 0.495 0.197499
      vertex 0.495 0.495 0.2975
    endloop
  endfacet
  facet normal 1 0 0
    outer loop
      vertex 0.495 0.495 0.197499
      vertex 0.495 -0.495 0.2975
      vertex 0.495 -0.495 0.197499
    endloop
  endfacet
  facet normal -0 0 1
    outer loop
      vertex -0.495 0.495 0.2975
      vertex -0.445 -0.495 0.2975
      vertex -0.445 0.495 0.2975
    endloop
  endfacet
  facet normal 0 0 1
    outer loop
      vertex -0.445 -0.495 0.2975
      vertex -0.495 0.495 0.2975
      vertex -0.495 -0.495 0.2975
    endloop
  endfacet
  facet normal -0 0 1
    outer loop
      vertex 0.445 0.495 0.2975
      vertex 0.495 -0.495 0.2975
      vertex 0.495 0.495 0.2975
    endloop
  endfacet
  facet normal 0 0 1
    outer loop
      vertex 0.495 -0.495 0.2975
      vertex 0.445 0.495 0.2975
      vertex 0.445 -0.495 0.2975
    endloop
  endfacet
  facet normal 0 0 -1
    outer loop
      vertex 0.495 -0.495 0.197499
      vertex 0.247499 -0.247499 0.197499
      vertex 0.495 0.495 0.197499
    endloop
  endfacet
  facet normal 0 0 -1
    outer loop
      vertex 0.495 -0.495 0.197499
      vertex -0.247499 -0.247499 0.197499
      vertex 0.247499 -0.247499 0.197499
    endloop
  endfacet
  facet normal -0 0 -1
    outer loop
      vertex -0.247499 -0.247499 0.197499
      vertex -0.495 -0.495 0.197499
      vertex -0.247499 0.247499 0.197499
    endloop
  endfacet
  facet normal 0 0 -1
    outer loop
      vertex -0.495 -0.495 0.197499
      vertex -0.247499 -0.247499 0.197499
      vertex 0.495 -0.495 0.197499
    endloop
  endfacet
  facet normal 0 0 -1
    outer loop
      vertex 0.247499 0.247499 0.197499
      vertex 0.495 0.495 0.197499
      vertex 0.247499 -0.247499 0.197499
    endloop
  endfacet
  facet normal 0 0 -1
    outer loop
      vertex -0.247499 0.247499 0.197499
      vertex 0.495 0.495 0.197499
      vertex 0.247499 0.247499 0.197499
    endloop
  endfacet
  facet normal 0 0 -1
    outer loop
      vertex -0.247499 0.247499 0.197499
      vertex -0.495 0.495 0.197499
      vertex 0.495 0.495 0.197499
    endloop
  endfacet
  facet normal 0 0 -1
    outer loop
      vertex -0.495 0.495 0.197499
      vertex -0.247499 0.247499 0.197499
      vertex -0.495 -0.495 0.197499
    endloop
  endfacet
  facet normal -1 0 0
    outer loop
      vertex -0.495 -0.495 0.197499
      vertex -0.495 0.495 0.2975
      vertex -0.495 0.495 0.197499
    endloop
  endfacet
  facet normal -1 -0 0
    outer loop
      vertex -0.495 0.495 0.2975
      vertex -0.495 -0.495 0.197499
      vertex -0.495 -0.495 0.2975
    endloop
  endfacet
  facet normal 0 1 0
    outer loop
      vertex 0.495 0.495 0.2975
      vertex 0.445 0.495 0.247499
      vertex 0.445 0.495 0.2975
    endloop
  endfacet
  facet normal 0 1 0
    outer loop
      vertex 0.445 0.495 0.247499
      vertex 0.495 0.495 0.197499
      vertex -0.445 0.495 0.247499
    endloop
  endfacet
  facet normal 0 1 -0
    outer loop
      vertex 0.495 0.495 0.197499
      vertex 0.445 0.495 0.247499
      vertex 0.495 0.495 0.2975
    endloop
  endfacet
  facet normal 0 1 -0
    outer loop
      vertex -0.445 0.495 0.247499
      vertex -0.495 0.495 0.2975
      vertex -0.445 0.495 0.2975
    endloop
  endfacet
  facet normal 0 1 0
    outer loop
      vertex -0.445 0.495 0.247499
      vertex -0.495 0.495 0.197499
      vertex -0.495 0.495 0.2975
    endloop
  endfacet
  facet normal 0 1 0
    outer loop
      vertex -0.495 0.495 0.197499
      vertex -0.445 0.495 0.247499
      vertex 0.495 0.495 0.197499
    endloop
  endfacet
  facet normal 0 -1 0
    outer loop
      vertex -0.495 -0.495 0.2975
      vertex -0.445 -0.495 0.247499
      vertex -0.445 -0.495 0.2975
    endloop
  endfacet
  facet normal 0 -1 -0
    outer loop
      vertex -0.445 -0.495 0.247499
      vertex -0.495 -0.495 0.197499
      vertex 0.445 -0.495 0.247499
    endloop
  endfacet
  facet normal 0 -1 0
    outer loop
      vertex -0.495 -0.495 0.197499
      vertex -0.445 -0.495 0.247499
      vertex -0.495 -0.495 0.2975
    endloop
  endfacet
  facet normal 0 -1 0
    outer loop
      vertex 0.445 -0.495 0.247499
      vertex 0.495 -0.495 0.2975
      vertex 0.445 -0.495 0.2975
    endloop
  endfacet
  facet normal 0 -1 0
    outer loop
      vertex 0.445 -0.495 0.247499
      vertex 0.495 -0.495 0.197499
      vertex 0.495 -0.495 0.2975
    endloop
  endfacet
  facet normal 0 -1 0
    outer loop
      vertex 0.495 -0.495 0.197499
      vertex 0.445 -0.495 0.247499
      vertex -0.495 -0.495 0.197499
    endloop
  endfacet
  facet normal -1 0 0
    outer loop
      vertex 0.445 -0.495 0.247499
      vertex 0.445 0.495 0.2975
      vertex 0.445 0.495 0.247499
    endloop
  endfacet
  facet normal -1 -0 0
    outer loop
      vertex 0.445 0.495 0.2975
      vertex 0.445 -0.495 0.247499
      vertex 0.445 -0.495 0.2975
    endloop
  endfacet
  facet normal -0 0 1
    outer loop
      vertex -0.445 0.495 0.247499
      vertex 0.445 -0.495 0.247499
      vertex 0.445 0.495 0.247499
    endloop
  endfacet
  facet normal 0 0 1
    outer loop
      vertex 0.445 -0.495 0.247499
      vertex -0.445 0.495 0.247499
      vertex -0.445 -0.495 0.247499
    endloop
  endfacet
  facet normal 1 -0 0
    outer loop
      vertex -0.445 -0.495 0.2975
      vertex -0.445 0.495 0.247499
      vertex -0.445 0.495 0.2975
    endloop
  endfacet
  facet normal 1 0 0
    outer loop
      vertex -0.445 0.495 0.247499
      vertex -0.445 -0.495 0.2975
      vertex -0.445 -0.495 0.247499
    endloop
  endfacet
endsolid OpenSCAD_Model
