solid OpenSCAD_Model
  facet normal 0 0.130525 -0.991445
    outer loop
      vertex -0.44 0 -0.05
      vertex 0.44 0.012941 -0.0482963
      vertex 0.44 0 -0.05
    endloop
  endfacet
  facet normal 0 0.130525 -0.991445
    outer loop
      vertex 0.44 0.012941 -0.0482963
      vertex -0.44 0 -0.05
      vertex -0.44 0.012941 -0.0482963
    endloop
  endfacet
  facet normal 0 0.382683 -0.92388
    outer loop
      vertex -0.44 0.012941 -0.0482963
      vertex 0.44 0.025 -0.0433013
      vertex 0.44 0.012941 -0.0482963
    endloop
  endfacet
  facet normal 0 0.382683 -0.92388
    outer loop
      vertex 0.44 0.025 -0.0433013
      vertex -0.44 0.012941 -0.0482963
      vertex -0.44 0.025 -0.0433013
    endloop
  endfacet
  facet normal 0 0.608766 -0.79335
    outer loop
      vertex -0.44 0.025 -0.0433013
      vertex 0.44 0.0353553 -0.0353553
      vertex 0.44 0.025 -0.0433013
    endloop
  endfacet
  facet normal 0 0.608766 -0.79335
    outer loop
      vertex 0.44 0.0353553 -0.0353553
      vertex -0.44 0.025 -0.0433013
      vertex -0.44 0.0353553 -0.0353553
    endloop
  endfacet
  facet normal 0 0.79335 -0.608766
    outer loop
      vertex 0.44 0.0353553 -0.0353553
      vertex -0.44 0.0433013 -0.025
      vertex 0.44 0.0433013 -0.025
    endloop
  endfacet
  facet normal 0 0.79335 -0.608766
    outer loop
      vertex -0.44 0.0433013 -0.025
      vertex 0.44 0.0353553 -0.0353553
      vertex -0.44 0.0353553 -0.0353553
    endloop
  endfacet
  facet normal 0 0.92388 -0.382683
    outer loop
      vertex 0.44 0.0433013 -0.025
      vertex -0.44 0.0482963 -0.012941
      vertex 0.44 0.0482963 -0.012941
    endloop
  endfacet
  facet normal 0 0.92388 -0.382683
    outer loop
      vertex -0.44 0.0482963 -0.012941
      vertex 0.44 0.0433013 -0.025
      vertex -0.44 0.0433013 -0.025
    endloop
  endfacet
  facet normal 0 0.991445 -0.130525
    outer loop
      vertex 0.44 0.0482963 -0.012941
      vertex -0.44 0.05 0
      vertex 0.44 0.05 0
    endloop
  endfacet
  facet normal 0 0.991445 -0.130525
    outer loop
      vertex -0.44 0.05 0
      vertex 0.44 0.0482963 -0.012941
      vertex -0.44 0.0482963 -0.012941
    endloop
  endfacet
  facet normal 0 0.991445 0.130525
    outer loop
      vertex 0.44 0.05 0
      vertex -0.44 0.0482963 0.012941
      vertex 0.44 0.0482963 0.012941
    endloop
  endfacet
  facet normal 0 0.991445 0.130525
    outer loop
      vertex -0.44 0.0482963 0.012941
      vertex 0.44 0.05 0
      vertex -0.44 0.05 0
    endloop
  endfacet
  facet normal 0 0.92388 0.382683
    outer loop
      vertex 0.44 0.0482963 0.012941
      vertex -0.44 0.0433013 0.025
      vertex 0.44 0.0433013 0.025
    endloop
  endfacet
  facet normal 0 0.92388 0.382683
    outer loop
      vertex -0.44 0.0433013 0.025
      vertex 0.44 0.0482963 0.012941
      vertex -0.44 0.0482963 0.012941
    endloop
  endfacet
  facet normal 0 0.79335 0.608766
    outer loop
      vertex 0.44 0.0433013 0.025
      vertex -0.44 0.0353553 0.0353553
      vertex 0.44 0.0353553 0.0353553
    endloop
  endfacet
  facet normal 0 0.79335 0.608766
    outer loop
      vertex -0.44 0.0353553 0.0353553
      vertex 0.44 0.0433013 0.025
      vertex -0.44 0.0433013 0.025
    endloop
  endfacet
  facet normal -0 0.608766 0.79335
    outer loop
      vertex -0.44 0.0353553 0.0353553
      vertex 0.44 0.025 0.0433013
      vertex 0.44 0.0353553 0.0353553
    endloop
  endfacet
  facet normal 0 0.608766 0.79335
    outer loop
      vertex 0.44 0.025 0.0433013
      vertex -0.44 0.0353553 0.0353553
      vertex -0.44 0.025 0.0433013
    endloop
  endfacet
  facet normal -0 0.382683 0.92388
    outer loop
      vertex -0.44 0.025 0.0433013
      vertex 0.44 0.012941 0.0482963
      vertex 0.44 0.025 0.0433013
    endloop
  endfacet
  facet normal 0 0.382683 0.92388
    outer loop
      vertex 0.44 0.012941 0.0482963
      vertex -0.44 0.025 0.0433013
      vertex -0.44 0.012941 0.0482963
    endloop
  endfacet
  facet normal -0 0.130525 0.991445
    outer loop
      vertex -0.44 0.012941 0.0482963
      vertex 0.44 0 0.05
      vertex 0.44 0.012941 0.0482963
    endloop
  endfacet
  facet normal 0 0.130525 0.991445
    outer loop
      vertex 0.44 0 0.05
      vertex -0.44 0.012941 0.0482963
      vertex -0.44 0 0.05
    endloop
  endfacet
  facet normal 0 -0.130525 0.991445
    outer loop
      vertex -0.44 0 0.05
      vertex 0.44 -0.012941 0.0482963
      vertex 0.44 0 0.05
    endloop
  endfacet
  facet normal 0 -0.130525 0.991445
    outer loop
      vertex 0.44 -0.012941 0.0482963
      vertex -0.44 0 0.05
      vertex -0.44 -0.012941 0.0482963
    endloop
  endfacet
  facet normal 0 -0.382683 0.92388
    outer loop
      vertex -0.44 -0.012941 0.0482963
      vertex 0.44 -0.025 0.0433013
      vertex 0.44 -0.012941 0.0482963
    endloop
  endfacet
  facet normal 0 -0.382683 0.92388
    outer loop
      vertex 0.44 -0.025 0.0433013
      vertex -0.44 -0.012941 0.0482963
      vertex -0.44 -0.025 0.0433013
    endloop
  endfacet
  facet normal 0 -0.608766 0.79335
    outer loop
      vertex -0.44 -0.025 0.0433013
      vertex 0.44 -0.0353553 0.0353553
      vertex 0.44 -0.025 0.0433013
    endloop
  endfacet
  facet normal 0 -0.608766 0.79335
    outer loop
      vertex 0.44 -0.0353553 0.0353553
      vertex -0.44 -0.025 0.0433013
      vertex -0.44 -0.0353553 0.0353553
    endloop
  endfacet
  facet normal 0 -0.79335 0.608766
    outer loop
      vertex -0.44 -0.0433013 0.025
      vertex 0.44 -0.0353553 0.0353553
      vertex -0.44 -0.0353553 0.0353553
    endloop
  endfacet
  facet normal 0 -0.79335 0.608766
    outer loop
      vertex 0.44 -0.0353553 0.0353553
      vertex -0.44 -0.0433013 0.025
      vertex 0.44 -0.0433013 0.025
    endloop
  endfacet
  facet normal 0 -0.92388 0.382683
    outer loop
      vertex -0.44 -0.0482963 0.012941
      vertex 0.44 -0.0433013 0.025
      vertex -0.44 -0.0433013 0.025
    endloop
  endfacet
  facet normal 0 -0.92388 0.382683
    outer loop
      vertex 0.44 -0.0433013 0.025
      vertex -0.44 -0.0482963 0.012941
      vertex 0.44 -0.0482963 0.012941
    endloop
  endfacet
  facet normal 0 -0.991445 0.130525
    outer loop
      vertex -0.44 -0.05 0
      vertex 0.44 -0.0482963 0.012941
      vertex -0.44 -0.0482963 0.012941
    endloop
  endfacet
  facet normal 0 -0.991445 0.130525
    outer loop
      vertex 0.44 -0.0482963 0.012941
      vertex -0.44 -0.05 0
      vertex 0.44 -0.05 0
    endloop
  endfacet
  facet normal 0 -0.991445 -0.130525
    outer loop
      vertex -0.44 -0.0482963 -0.012941
      vertex 0.44 -0.05 0
      vertex -0.44 -0.05 0
    endloop
  endfacet
  facet normal 0 -0.991445 -0.130525
    outer loop
      vertex 0.44 -0.05 0
      vertex -0.44 -0.0482963 -0.012941
      vertex 0.44 -0.0482963 -0.012941
    endloop
  endfacet
  facet normal 0 -0.92388 -0.382683
    outer loop
      vertex -0.44 -0.0433013 -0.025
      vertex 0.44 -0.0482963 -0.012941
      vertex -0.44 -0.0482963 -0.012941
    endloop
  endfacet
  facet normal 0 -0.92388 -0.382683
    outer loop
      vertex 0.44 -0.0482963 -0.012941
      vertex -0.44 -0.0433013 -0.025
      vertex 0.44 -0.0433013 -0.025
    endloop
  endfacet
  facet normal 0 -0.79335 -0.608766
    outer loop
      vertex -0.44 -0.0353553 -0.0353553
      vertex 0.44 -0.0433013 -0.025
      vertex -0.44 -0.0433013 -0.025
    endloop
  endfacet
  facet normal 0 -0.79335 -0.608766
    outer loop
      vertex 0.44 -0.0433013 -0.025
      vertex -0.44 -0.0353553 -0.0353553
      vertex 0.44 -0.0353553 -0.0353553
    endloop
  endfacet
  facet normal 0 -0.608766 -0.79335
    outer loop
      vertex -0.44 -0.0353553 -0.0353553
      vertex 0.44 -0.025 -0.0433013
      vertex 0.44 -0.0353553 -0.0353553
    endloop
  endfacet
  facet normal -0 -0.608766 -0.79335
    outer loop
      vertex 0.44 -0.025 -0.0433013
      vertex -0.44 -0.0353553 -0.0353553
      vertex -0.44 -0.025 -0.0433013
    endloop
  endfacet
  facet normal 0 -0.382683 -0.92388
    outer loop
      vertex -0.44 -0.025 -0.0433013
      vertex 0.44 -0.012941 -0.0482963
      vertex 0.44 -0.025 -0.0433013
    endloop
  endfacet
  facet normal -0 -0.382683 -0.92388
    outer loop
      vertex 0.44 -0.012941 -0.0482963
      vertex -0.44 -0.025 -0.0433013
      vertex -0.44 -0.012941 -0.0482963
    endloop
  endfacet
  facet normal 0 -0.130525 -0.991445
    outer loop
      vertex -0.44 -0.012941 -0.0482963
      vertex 0.44 0 -0.05
      vertex 0.44 -0.012941 -0.0482963
    endloop
  endfacet
  facet normal -0 -0.130525 -0.991445
    outer loop
      vertex 0.44 0 -0.05
      vertex -0.44 -0.012941 -0.0482963
      vertex -0.44 0 -0.05
    endloop
  endfacet
  facet normal -1 0 0
    outer loop
      vertex -0.44 0.0482963 -0.012941
      vertex -0.44 0.0482963 0.012941
      vertex -0.44 0.05 0
    endloop
  endfacet
  facet normal -1 0 0
    outer loop
      vertex -0.44 0.0433013 -0.025
      vertex -0.44 0.0482963 0.012941
      vertex -0.44 0.0482963 -0.012941
    endloop
  endfacet
  facet normal -1 0 0
    outer loop
      vertex -0.44 0.0433013 -0.025
      vertex -0.44 0.0433013 0.025
      vertex -0.44 0.0482963 0.012941
    endloop
  endfacet
  facet normal -1 0 0
    outer loop
      vertex -0.44 0.0353553 -0.0353553
      vertex -0.44 0.0433013 0.025
      vertex -0.44 0.0433013 -0.025
    endloop
  endfacet
  facet normal -1 0 0
    outer loop
      vertex -0.44 0.0353553 -0.0353553
      vertex -0.44 0.0353553 0.0353553
      vertex -0.44 0.0433013 0.025
    endloop
  endfacet
  facet normal -1 0 0
    outer loop
      vertex -0.44 0.025 -0.0433013
      vertex -0.44 0.0353553 0.0353553
      vertex -0.44 0.0353553 -0.0353553
    endloop
  endfacet
  facet normal -1 0 0
    outer loop
      vertex -0.44 0.025 -0.0433013
      vertex -0.44 0.025 0.0433013
      vertex -0.44 0.0353553 0.0353553
    endloop
  endfacet
  facet normal -1 0 0
    outer loop
      vertex -0.44 0.012941 -0.0482963
      vertex -0.44 0.025 0.0433013
      vertex -0.44 0.025 -0.0433013
    endloop
  endfacet
  facet normal -1 0 0
    outer loop
      vertex -0.44 0.012941 -0.0482963
      vertex -0.44 0.012941 0.0482963
      vertex -0.44 0.025 0.0433013
    endloop
  endfacet
  facet normal -1 0 0
    outer loop
      vertex -0.44 0 -0.05
      vertex -0.44 0.012941 0.0482963
      vertex -0.44 0.012941 -0.0482963
    endloop
  endfacet
  facet normal -1 0 0
    outer loop
      vertex -0.44 0 -0.05
      vertex -0.44 0 0.05
      vertex -0.44 0.012941 0.0482963
    endloop
  endfacet
  facet normal -1 0 0
    outer loop
      vertex -0.44 -0.012941 -0.0482963
      vertex -0.44 0 0.05
      vertex -0.44 0 -0.05
    endloop
  endfacet
  facet normal -1 0 0
    outer loop
      vertex -0.44 -0.012941 -0.0482963
      vertex -0.44 -0.012941 0.0482963
      vertex -0.44 0 0.05
    endloop
  endfacet
  facet normal -1 0 0
    outer loop
      vertex -0.44 -0.025 -0.0433013
      vertex -0.44 -0.012941 0.0482963
      vertex -0.44 -0.012941 -0.0482963
    endloop
  endfacet
  facet normal -1 0 0
    outer loop
      vertex -0.44 -0.025 -0.0433013
      vertex -0.44 -0.025 0.0433013
      vertex -0.44 -0.012941 0.0482963
    endloop
  endfacet
  facet normal -1 0 0
    outer loop
      vertex -0.44 -0.0353553 -0.0353553
      vertex -0.44 -0.025 0.0433013
      vertex -0.44 -0.025 -0.0433013
    endloop
  endfacet
  facet normal -1 0 0
    outer loop
      vertex -0.44 -0.0353553 -0.0353553
      vertex -0.44 -0.0353553 0.0353553
      vertex -0.44 -0.025 0.0433013
    endloop
  endfacet
  facet normal -1 0 0
    outer loop
      vertex -0.44 -0.0433013 -0.025
      vertex -0.44 -0.0353553 0.0353553
      vertex -0.44 -0.0353553 -0.0353553
    endloop
  endfacet
  facet normal -1 0 0
    outer loop
      vertex -0.44 -0.0433013 -0.025
      vertex -0.44 -0.0433013 0.025
      vertex -0.44 -0.0353553 0.0353553
    endloop
  endfacet
  facet normal -1 0 0
    outer loop
      vertex -0.44 -0.0482963 -0.012941
      vertex -0.44 -0.0433013 0.025
      vertex -0.44 -0.0433013 -0.025
    endloop
  endfacet
  facet normal -1 0 0
    outer loop
      vertex -0.44 -0.0482963 -0.012941
      vertex -0.44 -0.0482963 0.012941
      vertex -0.44 -0.0433013 0.025
    endloop
  endfacet
  facet normal -1 0 -0
    outer loop
      vertex -0.44 -0.0482963 0.012941
      vertex -0.44 -0.0482963 -0.012941
      vertex -0.44 -0.05 0
    endloop
  endfacet
  facet normal 1 0 0
    outer loop
      vertex 0.44 0.0482963 0.012941
      vertex 0.44 0.0482963 -0.012941
      vertex 0.44 0.05 0
    endloop
  endfacet
  facet normal 1 0 0
    outer loop
      vertex 0.44 0.0433013 0.025
      vertex 0.44 0.0482963 -0.012941
      vertex 0.44 0.0482963 0.012941
    endloop
  endfacet
  facet normal 1 0 0
    outer loop
      vertex 0.44 0.0433013 0.025
      vertex 0.44 0.0433013 -0.025
      vertex 0.44 0.0482963 -0.012941
    endloop
  endfacet
  facet normal 1 0 0
    outer loop
      vertex 0.44 0.0353553 0.0353553
      vertex 0.44 0.0433013 -0.025
      vertex 0.44 0.0433013 0.025
    endloop
  endfacet
  facet normal 1 0 0
    outer loop
      vertex 0.44 0.0353553 0.0353553
      vertex 0.44 0.0353553 -0.0353553
      vertex 0.44 0.0433013 -0.025
    endloop
  endfacet
  facet normal 1 0 0
    outer loop
      vertex 0.44 0.025 0.0433013
      vertex 0.44 0.0353553 -0.0353553
      vertex 0.44 0.0353553 0.0353553
    endloop
  endfacet
  facet normal 1 0 0
    outer loop
      vertex 0.44 0.025 0.0433013
      vertex 0.44 0.025 -0.0433013
      vertex 0.44 0.0353553 -0.0353553
    endloop
  endfacet
  facet normal 1 0 0
    outer loop
      vertex 0.44 0.012941 0.0482963
      vertex 0.44 0.025 -0.0433013
      vertex 0.44 0.025 0.0433013
    endloop
  endfacet
  facet normal 1 0 0
    outer loop
      vertex 0.44 0.012941 0.0482963
      vertex 0.44 0.012941 -0.0482963
      vertex 0.44 0.025 -0.0433013
    endloop
  endfacet
  facet normal 1 0 0
    outer loop
      vertex 0.44 0 0.05
      vertex 0.44 0.012941 -0.0482963
      vertex 0.44 0.012941 0.0482963
    endloop
  endfacet
  facet normal 1 0 0
    outer loop
      vertex 0.44 0 0.05
      vertex 0.44 0 -0.05
      vertex 0.44 0.012941 -0.0482963
    endloop
  endfacet
  facet normal 1 -0 0
    outer loop
      vertex 0.44 -0.012941 0.0482963
      vertex 0.44 0 -0.05
      vertex 0.44 0 0.05
    endloop
  endfacet
  facet normal 1 0 0
    outer loop
      vertex 0.44 -0.012941 0.0482963
      vertex 0.44 -0.012941 -0.0482963
      vertex 0.44 0 -0.05
    endloop
  endfacet
  facet normal 1 -0 0
    outer loop
      vertex 0.44 -0.025 0.0433013
      vertex 0.44 -0.012941 -0.0482963
      vertex 0.44 -0.012941 0.0482963
    endloop
  endfacet
  facet normal 1 0 0
    outer loop
      vertex 0.44 -0.025 0.0433013
      vertex 0.44 -0.025 -0.0433013
      vertex 0.44 -0.012941 -0.0482963
    endloop
  endfacet
  facet normal 1 -0 0
    outer loop
      vertex 0.44 -0.0353553 0.0353553
      vertex 0.44 -0.025 -0.0433013
      vertex 0.44 -0.025 0.0433013
    endloop
  endfacet
  facet normal 1 0 0
    outer loop
      vertex 0.44 -0.0353553 0.0353553
      vertex 0.44 -0.0353553 -0.0353553
      vertex 0.44 -0.025 -0.0433013
    endloop
  endfacet
  facet normal 1 -0 0
    outer loop
      vertex 0.44 -0.0433013 0.025
      vertex 0.44 -0.0353553 -0.0353553
      vertex 0.44 -0.0353553 0.0353553
    endloop
  endfacet
  facet normal 1 0 0
    outer loop
      vertex 0.44 -0.0433013 0.025
      vertex 0.44 -0.0433013 -0.025
      vertex 0.44 -0.0353553 -0.0353553
    endloop
  endfacet
  facet normal 1 -0 0
    outer loop
      vertex 0.44 -0.0482963 0.012941
      vertex 0.44 -0.0433013 -0.025
      vertex 0.44 -0.0433013 0.025
    endloop
  endfacet
  facet normal 1 0 0
    outer loop
      vertex 0.44 -0.0482963 0.012941
      vertex 0.44 -0.0482963 -0.012941
      vertex 0.44 -0.0433013 -0.025
    endloop
  endfacet
  facet normal 1 0 -0
    outer loop
      vertex 0.44 -0.0482963 -0.012941
      vertex 0.44 -0.0482963 0.012941
      vertex 0.44 -0.05 0
    endloop
  endfacet
endsolid OpenSCAD_Model
