solid OpenSCAD_Model
  facet normal -1 0 0
    outer loop
      vertex 1.105 0.82 0
      vertex 1.105 0.60104 0.60104
      vertex 1.105 0.849999 0
    endloop
  endfacet
  facet normal -1 0 0
    outer loop
      vertex 1.105 0.579827 0.579827
      vertex 1.105 0.60104 0.60104
      vertex 1.105 0.82 0
    endloop
  endfacet
  facet normal -1 0 0
    outer loop
      vertex 1.105 0 0.82
      vertex 1.105 0.60104 0.60104
      vertex 1.105 0.579827 0.579827
    endloop
  endfacet
  facet normal -1 0 0
    outer loop
      vertex 1.105 0 0.82
      vertex 1.105 0 0.849999
      vertex 1.105 0.60104 0.60104
    endloop
  endfacet
  facet normal -1 0 0
    outer loop
      vertex 1.105 -0.579827 0.579827
      vertex 1.105 0 0.849999
      vertex 1.105 0 0.82
    endloop
  endfacet
  facet normal -1 0 0
    outer loop
      vertex 1.105 -0.579827 0.579827
      vertex 1.105 -0.60104 0.60104
      vertex 1.105 0 0.849999
    endloop
  endfacet
  facet normal -1 0 0
    outer loop
      vertex 1.105 -0.82 0
      vertex 1.105 -0.60104 0.60104
      vertex 1.105 -0.579827 0.579827
    endloop
  endfacet
  facet normal -1 0 0
    outer loop
      vertex 1.105 -0.60104 0.60104
      vertex 1.105 -0.82 0
      vertex 1.105 -0.849999 0
    endloop
  endfacet
  facet normal 1 0 0
    outer loop
      vertex 1.095 0.60104 0.60104
      vertex 1.095 0.82 0
      vertex 1.095 0.849999 0
    endloop
  endfacet
  facet normal 1 0 0
    outer loop
      vertex 1.095 0.60104 0.60104
      vertex 1.095 0.579827 0.579827
      vertex 1.095 0.82 0
    endloop
  endfacet
  facet normal 1 0 0
    outer loop
      vertex 1.095 0 0.849999
      vertex 1.095 0.579827 0.579827
      vertex 1.095 0.60104 0.60104
    endloop
  endfacet
  facet normal 1 0 0
    outer loop
      vertex 1.095 0 0.849999
      vertex 1.095 0 0.82
      vertex 1.095 0.579827 0.579827
    endloop
  endfacet
  facet normal 1 0 0
    outer loop
      vertex 1.095 0 0.849999
      vertex 1.095 -0.579827 0.579827
      vertex 1.095 0 0.82
    endloop
  endfacet
  facet normal 1 -0 0
    outer loop
      vertex 1.095 -0.60104 0.60104
      vertex 1.095 -0.579827 0.579827
      vertex 1.095 0 0.849999
    endloop
  endfacet
  facet normal 1 0 0
    outer loop
      vertex 1.095 -0.60104 0.60104
      vertex 1.095 -0.82 0
      vertex 1.095 -0.579827 0.579827
    endloop
  endfacet
  facet normal 1 0 -0
    outer loop
      vertex 1.095 -0.82 0
      vertex 1.095 -0.60104 0.60104
      vertex 1.095 -0.849999 0
    endloop
  endfacet
  facet normal 0 -0.382685 0.923879
    outer loop
      vertex 1.095 0 0.82
      vertex 1.105 -0.579827 0.579827
      vertex 1.105 0 0.82
    endloop
  endfacet
  facet normal 0 -0.382685 0.923879
    outer loop
      vertex 1.105 -0.579827 0.579827
      vertex 1.095 0 0.82
      vertex 1.095 -0.579827 0.579827
    endloop
  endfacet
  facet normal 0 -0.923879 0.382685
    outer loop
      vertex 1.095 -0.82 0
      vertex 1.105 -0.579827 0.579827
      vertex 1.095 -0.579827 0.579827
    endloop
  endfacet
  facet normal 0 -0.923879 0.382685
    outer loop
      vertex 1.105 -0.579827 0.579827
      vertex 1.095 -0.82 0
      vertex 1.105 -0.82 0
    endloop
  endfacet
  facet normal -0 0.382685 0.923879
    outer loop
      vertex 1.095 0.579827 0.579827
      vertex 1.105 0 0.82
      vertex 1.105 0.579827 0.579827
    endloop
  endfacet
  facet normal 0 0.382685 0.923879
    outer loop
      vertex 1.105 0 0.82
      vertex 1.095 0.579827 0.579827
      vertex 1.095 0 0.82
    endloop
  endfacet
  facet normal 0 0.923879 0.382685
    outer loop
      vertex 1.105 0.82 0
      vertex 1.095 0.579827 0.579827
      vertex 1.105 0.579827 0.579827
    endloop
  endfacet
  facet normal 0 0.923879 0.382685
    outer loop
      vertex 1.095 0.579827 0.579827
      vertex 1.105 0.82 0
      vertex 1.095 0.82 0
    endloop
  endfacet
  facet normal 0 -0.382684 0.923879
    outer loop
      vertex 1.05 0 0.849999
      vertex 1.095 -0.60104 0.60104
      vertex 1.095 0 0.849999
    endloop
  endfacet
  facet normal 0 -0.382684 0.923879
    outer loop
      vertex 1.095 -0.60104 0.60104
      vertex 1.05 0 0.849999
      vertex 1.05 -0.60104 0.60104
    endloop
  endfacet
  facet normal 0 -0.382684 0.923879
    outer loop
      vertex 1.105 0 0.849999
      vertex 1.15 -0.60104 0.60104
      vertex 1.15 0 0.849999
    endloop
  endfacet
  facet normal 0 -0.382684 0.923879
    outer loop
      vertex 1.15 -0.60104 0.60104
      vertex 1.105 0 0.849999
      vertex 1.105 -0.60104 0.60104
    endloop
  endfacet
  facet normal 0 -0.923879 0.382684
    outer loop
      vertex 1.05 -0.849999 0
      vertex 1.095 -0.60104 0.60104
      vertex 1.05 -0.60104 0.60104
    endloop
  endfacet
  facet normal 0 -0.923879 0.382684
    outer loop
      vertex 1.095 -0.60104 0.60104
      vertex 1.05 -0.849999 0
      vertex 1.095 -0.849999 0
    endloop
  endfacet
  facet normal 0 -0.923879 0.382684
    outer loop
      vertex 1.105 -0.849999 0
      vertex 1.15 -0.60104 0.60104
      vertex 1.105 -0.60104 0.60104
    endloop
  endfacet
  facet normal 0 -0.923879 0.382684
    outer loop
      vertex 1.15 -0.60104 0.60104
      vertex 1.105 -0.849999 0
      vertex 1.15 -0.849999 0
    endloop
  endfacet
  facet normal -0 0.382684 0.923879
    outer loop
      vertex 1.105 0.60104 0.60104
      vertex 1.15 0 0.849999
      vertex 1.15 0.60104 0.60104
    endloop
  endfacet
  facet normal 0 0.382684 0.923879
    outer loop
      vertex 1.15 0 0.849999
      vertex 1.105 0.60104 0.60104
      vertex 1.105 0 0.849999
    endloop
  endfacet
  facet normal -0 0.382684 0.923879
    outer loop
      vertex 1.05 0.60104 0.60104
      vertex 1.095 0 0.849999
      vertex 1.095 0.60104 0.60104
    endloop
  endfacet
  facet normal 0 0.382684 0.923879
    outer loop
      vertex 1.095 0 0.849999
      vertex 1.05 0.60104 0.60104
      vertex 1.05 0 0.849999
    endloop
  endfacet
  facet normal 1 0 0
    outer loop
      vertex 1.15 0.849999 0
      vertex 1.15 0.627817 0.365686
      vertex 1.15 0.779289 0
    endloop
  endfacet
  facet normal 1 0 0
    outer loop
      vertex 1.15 0.60104 0.60104
      vertex 1.15 0.627817 0.365686
      vertex 1.15 0.849999 0
    endloop
  endfacet
  facet normal 1 0 0
    outer loop
      vertex 1.15 0.60104 0.60104
      vertex 1.15 0.55104 0.55104
      vertex 1.15 0.627817 0.365686
    endloop
  endfacet
  facet normal 1 0 0
    outer loop
      vertex 1.15 0.60104 0.60104
      vertex 1.15 0.365686 0.627817
      vertex 1.15 0.55104 0.55104
    endloop
  endfacet
  facet normal 1 0 0
    outer loop
      vertex 1.15 0 0.849999
      vertex 1.15 0.365686 0.627817
      vertex 1.15 0.60104 0.60104
    endloop
  endfacet
  facet normal 1 0 0
    outer loop
      vertex 1.15 0 0.849999
      vertex 1.15 0 0.779289
      vertex 1.15 0.365686 0.627817
    endloop
  endfacet
  facet normal 1 0 0
    outer loop
      vertex 1.15 0 0.849999
      vertex 1.15 -0.365686 0.627817
      vertex 1.15 0 0.779289
    endloop
  endfacet
  facet normal 1 0 0
    outer loop
      vertex 1.15 -0.60104 0.60104
      vertex 1.15 -0.365686 0.627817
      vertex 1.15 0 0.849999
    endloop
  endfacet
  facet normal 1 0 0
    outer loop
      vertex 1.15 -0.365686 0.627817
      vertex 1.15 -0.60104 0.60104
      vertex 1.15 -0.55104 0.55104
    endloop
  endfacet
  facet normal 1 0 0
    outer loop
      vertex 1.15 -0.60104 0.60104
      vertex 1.15 -0.627817 0.365686
      vertex 1.15 -0.55104 0.55104
    endloop
  endfacet
  facet normal 1 0 0
    outer loop
      vertex 1.15 -0.849999 0
      vertex 1.15 -0.627817 0.365686
      vertex 1.15 -0.60104 0.60104
    endloop
  endfacet
  facet normal 1 0 0
    outer loop
      vertex 1.15 -0.627817 0.365686
      vertex 1.15 -0.849999 0
      vertex 1.15 -0.779289 0
    endloop
  endfacet
  facet normal 0 0.923879 0.382684
    outer loop
      vertex 1.15 0.849999 0
      vertex 1.105 0.60104 0.60104
      vertex 1.15 0.60104 0.60104
    endloop
  endfacet
  facet normal 0 0.923879 0.382684
    outer loop
      vertex 1.105 0.60104 0.60104
      vertex 1.15 0.849999 0
      vertex 1.105 0.849999 0
    endloop
  endfacet
  facet normal 0 0.923879 0.382684
    outer loop
      vertex 1.095 0.849999 0
      vertex 1.05 0.60104 0.60104
      vertex 1.095 0.60104 0.60104
    endloop
  endfacet
  facet normal 0 0.923879 0.382684
    outer loop
      vertex 1.05 0.60104 0.60104
      vertex 1.095 0.849999 0
      vertex 1.05 0.849999 0
    endloop
  endfacet
  facet normal -1 0 0
    outer loop
      vertex 1.05 0.799999 0
      vertex 1.05 0.60104 0.60104
      vertex 1.05 0.849999 0
    endloop
  endfacet
  facet normal -1 0 0
    outer loop
      vertex 1.05 0.565685 0.565685
      vertex 1.05 0.60104 0.60104
      vertex 1.05 0.799999 0
    endloop
  endfacet
  facet normal -1 0 0
    outer loop
      vertex 1.05 0 0.799999
      vertex 1.05 0.60104 0.60104
      vertex 1.05 0.565685 0.565685
    endloop
  endfacet
  facet normal -1 0 0
    outer loop
      vertex 1.05 0 0.799999
      vertex 1.05 0 0.849999
      vertex 1.05 0.60104 0.60104
    endloop
  endfacet
  facet normal -1 0 0
    outer loop
      vertex 1.05 -0.565685 0.565685
      vertex 1.05 0 0.849999
      vertex 1.05 0 0.799999
    endloop
  endfacet
  facet normal -1 0 0
    outer loop
      vertex 1.05 -0.565685 0.565685
      vertex 1.05 -0.60104 0.60104
      vertex 1.05 0 0.849999
    endloop
  endfacet
  facet normal -1 0 0
    outer loop
      vertex 1.05 -0.799999 0
      vertex 1.05 -0.60104 0.60104
      vertex 1.05 -0.565685 0.565685
    endloop
  endfacet
  facet normal -1 0 0
    outer loop
      vertex 1.05 -0.60104 0.60104
      vertex 1.05 -0.799999 0
      vertex 1.05 -0.849999 0
    endloop
  endfacet
  facet normal -1 0 0
    outer loop
      vertex -1.095 0.82 0
      vertex -1.095 0.60104 0.60104
      vertex -1.095 0.849999 0
    endloop
  endfacet
  facet normal -1 0 0
    outer loop
      vertex -1.095 0.579827 0.579827
      vertex -1.095 0.60104 0.60104
      vertex -1.095 0.82 0
    endloop
  endfacet
  facet normal -1 0 0
    outer loop
      vertex -1.095 0 0.82
      vertex -1.095 0.60104 0.60104
      vertex -1.095 0.579827 0.579827
    endloop
  endfacet
  facet normal -1 0 0
    outer loop
      vertex -1.095 0 0.82
      vertex -1.095 0 0.849999
      vertex -1.095 0.60104 0.60104
    endloop
  endfacet
  facet normal -1 0 0
    outer loop
      vertex -1.095 -0.579827 0.579827
      vertex -1.095 0 0.849999
      vertex -1.095 0 0.82
    endloop
  endfacet
  facet normal -1 0 0
    outer loop
      vertex -1.095 -0.579827 0.579827
      vertex -1.095 -0.60104 0.60104
      vertex -1.095 0 0.849999
    endloop
  endfacet
  facet normal -1 0 0
    outer loop
      vertex -1.095 -0.82 0
      vertex -1.095 -0.60104 0.60104
      vertex -1.095 -0.579827 0.579827
    endloop
  endfacet
  facet normal -1 0 0
    outer loop
      vertex -1.095 -0.60104 0.60104
      vertex -1.095 -0.82 0
      vertex -1.095 -0.849999 0
    endloop
  endfacet
  facet normal 1 0 0
    outer loop
      vertex -1.105 0.60104 0.60104
      vertex -1.105 0.82 0
      vertex -1.105 0.849999 0
    endloop
  endfacet
  facet normal 1 0 0
    outer loop
      vertex -1.105 0.60104 0.60104
      vertex -1.105 0.579827 0.579827
      vertex -1.105 0.82 0
    endloop
  endfacet
  facet normal 1 0 0
    outer loop
      vertex -1.105 0 0.849999
      vertex -1.105 0.579827 0.579827
      vertex -1.105 0.60104 0.60104
    endloop
  endfacet
  facet normal 1 0 0
    outer loop
      vertex -1.105 0 0.849999
      vertex -1.105 0 0.82
      vertex -1.105 0.579827 0.579827
    endloop
  endfacet
  facet normal 1 0 0
    outer loop
      vertex -1.105 0 0.849999
      vertex -1.105 -0.579827 0.579827
      vertex -1.105 0 0.82
    endloop
  endfacet
  facet normal 1 -0 0
    outer loop
      vertex -1.105 -0.60104 0.60104
      vertex -1.105 -0.579827 0.579827
      vertex -1.105 0 0.849999
    endloop
  endfacet
  facet normal 1 0 0
    outer loop
      vertex -1.105 -0.60104 0.60104
      vertex -1.105 -0.82 0
      vertex -1.105 -0.579827 0.579827
    endloop
  endfacet
  facet normal 1 0 -0
    outer loop
      vertex -1.105 -0.82 0
      vertex -1.105 -0.60104 0.60104
      vertex -1.105 -0.849999 0
    endloop
  endfacet
  facet normal 0 -0.382685 0.923879
    outer loop
      vertex -1.105 0 0.82
      vertex -1.095 -0.579827 0.579827
      vertex -1.095 0 0.82
    endloop
  endfacet
  facet normal 0 -0.382685 0.923879
    outer loop
      vertex -1.095 -0.579827 0.579827
      vertex -1.105 0 0.82
      vertex -1.105 -0.579827 0.579827
    endloop
  endfacet
  facet normal 0 -0.923879 0.382685
    outer loop
      vertex -1.105 -0.82 0
      vertex -1.095 -0.579827 0.579827
      vertex -1.105 -0.579827 0.579827
    endloop
  endfacet
  facet normal 0 -0.923879 0.382685
    outer loop
      vertex -1.095 -0.579827 0.579827
      vertex -1.105 -0.82 0
      vertex -1.095 -0.82 0
    endloop
  endfacet
  facet normal -0 0.382685 0.923879
    outer loop
      vertex -1.105 0.579827 0.579827
      vertex -1.095 0 0.82
      vertex -1.095 0.579827 0.579827
    endloop
  endfacet
  facet normal 0 0.382685 0.923879
    outer loop
      vertex -1.095 0 0.82
      vertex -1.105 0.579827 0.579827
      vertex -1.105 0 0.82
    endloop
  endfacet
  facet normal 0 0.923879 0.382685
    outer loop
      vertex -1.095 0.82 0
      vertex -1.105 0.579827 0.579827
      vertex -1.095 0.579827 0.579827
    endloop
  endfacet
  facet normal 0 0.923879 0.382685
    outer loop
      vertex -1.105 0.579827 0.579827
      vertex -1.095 0.82 0
      vertex -1.105 0.82 0
    endloop
  endfacet
  facet normal 0 -0.382684 0.923879
    outer loop
      vertex -1.15 0 0.849999
      vertex -1.105 -0.60104 0.60104
      vertex -1.105 0 0.849999
    endloop
  endfacet
  facet normal 0 -0.382684 0.923879
    outer loop
      vertex -1.105 -0.60104 0.60104
      vertex -1.15 0 0.849999
      vertex -1.15 -0.60104 0.60104
    endloop
  endfacet
  facet normal 0 -0.382684 0.923879
    outer loop
      vertex -1.095 0 0.849999
      vertex -1.05 -0.60104 0.60104
      vertex -1.05 0 0.849999
    endloop
  endfacet
  facet normal 0 -0.382684 0.923879
    outer loop
      vertex -1.05 -0.60104 0.60104
      vertex -1.095 0 0.849999
      vertex -1.095 -0.60104 0.60104
    endloop
  endfacet
  facet normal 0 -0.923879 0.382684
    outer loop
      vertex -1.15 -0.849999 0
      vertex -1.105 -0.60104 0.60104
      vertex -1.15 -0.60104 0.60104
    endloop
  endfacet
  facet normal 0 -0.923879 0.382684
    outer loop
      vertex -1.105 -0.60104 0.60104
      vertex -1.15 -0.849999 0
      vertex -1.105 -0.849999 0
    endloop
  endfacet
  facet normal 0 -0.923879 0.382684
    outer loop
      vertex -1.095 -0.849999 0
      vertex -1.05 -0.60104 0.60104
      vertex -1.095 -0.60104 0.60104
    endloop
  endfacet
  facet normal 0 -0.923879 0.382684
    outer loop
      vertex -1.05 -0.60104 0.60104
      vertex -1.095 -0.849999 0
      vertex -1.05 -0.849999 0
    endloop
  endfacet
  facet normal -0 0.382684 0.923879
    outer loop
      vertex -1.095 0.60104 0.60104
      vertex -1.05 0 0.849999
      vertex -1.05 0.60104 0.60104
    endloop
  endfacet
  facet normal 0 0.382684 0.923879
    outer loop
      vertex -1.05 0 0.849999
      vertex -1.095 0.60104 0.60104
      vertex -1.095 0 0.849999
    endloop
  endfacet
  facet normal -0 0.382684 0.923879
    outer loop
      vertex -1.15 0.60104 0.60104
      vertex -1.105 0 0.849999
      vertex -1.105 0.60104 0.60104
    endloop
  endfacet
  facet normal 0 0.382684 0.923879
    outer loop
      vertex -1.105 0 0.849999
      vertex -1.15 0.60104 0.60104
      vertex -1.15 0 0.849999
    endloop
  endfacet
  facet normal 1 0 0
    outer loop
      vertex -1.05 0.60104 0.60104
      vertex -1.05 0.799999 0
      vertex -1.05 0.849999 0
    endloop
  endfacet
  facet normal 1 0 0
    outer loop
      vertex -1.05 0.60104 0.60104
      vertex -1.05 0.565685 0.565685
      vertex -1.05 0.799999 0
    endloop
  endfacet
  facet normal 1 0 0
    outer loop
      vertex -1.05 0 0.849999
      vertex -1.05 0.565685 0.565685
      vertex -1.05 0.60104 0.60104
    endloop
  endfacet
  facet normal 1 0 0
    outer loop
      vertex -1.05 0 0.849999
      vertex -1.05 0 0.799999
      vertex -1.05 0.565685 0.565685
    endloop
  endfacet
  facet normal 1 0 0
    outer loop
      vertex -1.05 0 0.849999
      vertex -1.05 -0.565685 0.565685
      vertex -1.05 0 0.799999
    endloop
  endfacet
  facet normal 1 -0 0
    outer loop
      vertex -1.05 -0.60104 0.60104
      vertex -1.05 -0.565685 0.565685
      vertex -1.05 0 0.849999
    endloop
  endfacet
  facet normal 1 0 0
    outer loop
      vertex -1.05 -0.60104 0.60104
      vertex -1.05 -0.799999 0
      vertex -1.05 -0.565685 0.565685
    endloop
  endfacet
  facet normal 1 0 -0
    outer loop
      vertex -1.05 -0.799999 0
      vertex -1.05 -0.60104 0.60104
      vertex -1.05 -0.849999 0
    endloop
  endfacet
  facet normal 0 0.923879 0.382684
    outer loop
      vertex -1.05 0.849999 0
      vertex -1.095 0.60104 0.60104
      vertex -1.05 0.60104 0.60104
    endloop
  endfacet
  facet normal 0 0.923879 0.382684
    outer loop
      vertex -1.095 0.60104 0.60104
      vertex -1.05 0.849999 0
      vertex -1.095 0.849999 0
    endloop
  endfacet
  facet normal 0 0.923879 0.382684
    outer loop
      vertex -1.105 0.849999 0
      vertex -1.15 0.60104 0.60104
      vertex -1.105 0.60104 0.60104
    endloop
  endfacet
  facet normal 0 0.923879 0.382684
    outer loop
      vertex -1.15 0.60104 0.60104
      vertex -1.105 0.849999 0
      vertex -1.15 0.849999 0
    endloop
  endfacet
  facet normal -1 0 0
    outer loop
      vertex -1.15 0.627817 0.365686
      vertex -1.15 0.849999 0
      vertex -1.15 0.779289 0
    endloop
  endfacet
  facet normal -1 0 0
    outer loop
      vertex -1.15 0.627817 0.365686
      vertex -1.15 0.60104 0.60104
      vertex -1.15 0.849999 0
    endloop
  endfacet
  facet normal -1 0 0
    outer loop
      vertex -1.15 0.55104 0.55104
      vertex -1.15 0.60104 0.60104
      vertex -1.15 0.627817 0.365686
    endloop
  endfacet
  facet normal -1 0 0
    outer loop
      vertex -1.15 0.365686 0.627817
      vertex -1.15 0.60104 0.60104
      vertex -1.15 0.55104 0.55104
    endloop
  endfacet
  facet normal -1 0 0
    outer loop
      vertex -1.15 0 0.849999
      vertex -1.15 0.365686 0.627817
      vertex -1.15 0 0.779289
    endloop
  endfacet
  facet normal -1 0 0
    outer loop
      vertex -1.15 0.365686 0.627817
      vertex -1.15 0 0.849999
      vertex -1.15 0.60104 0.60104
    endloop
  endfacet
  facet normal -1 0 0
    outer loop
      vertex -1.15 -0.365686 0.627817
      vertex -1.15 0 0.849999
      vertex -1.15 0 0.779289
    endloop
  endfacet
  facet normal -1 0 0
    outer loop
      vertex -1.15 -0.60104 0.60104
      vertex -1.15 -0.365686 0.627817
      vertex -1.15 -0.55104 0.55104
    endloop
  endfacet
  facet normal -1 -0 0
    outer loop
      vertex -1.15 -0.365686 0.627817
      vertex -1.15 -0.60104 0.60104
      vertex -1.15 0 0.849999
    endloop
  endfacet
  facet normal -1 0 0
    outer loop
      vertex -1.15 -0.627817 0.365686
      vertex -1.15 -0.60104 0.60104
      vertex -1.15 -0.55104 0.55104
    endloop
  endfacet
  facet normal -1 0 0
    outer loop
      vertex -1.15 -0.849999 0
      vertex -1.15 -0.627817 0.365686
      vertex -1.15 -0.779289 0
    endloop
  endfacet
  facet normal -1 -0 0
    outer loop
      vertex -1.15 -0.627817 0.365686
      vertex -1.15 -0.849999 0
      vertex -1.15 -0.60104 0.60104
    endloop
  endfacet
  facet normal 0.357419 -0.357407 0.862851
    outer loop
      vertex 1.15 -0.365686 0.627817
      vertex 1.24142 -0.524263 0.524263
      vertex 1.24142 0 0.741421
    endloop
  endfacet
  facet normal 0.357415 -0.357409 0.862852
    outer loop
      vertex 1.24142 -0.524263 0.524263
      vertex 1.15 -0.365686 0.627817
      vertex 1.15 -0.55104 0.55104
    endloop
  endfacet
  facet normal 0.912482 0.156563 0.377974
    outer loop
      vertex 1.24142 0.524263 0.524263
      vertex 1.24142 0 0.741421
      vertex 1.3 0.424264 0.424264
    endloop
  endfacet
  facet normal -0.912482 0.156563 0.377974
    outer loop
      vertex -1.24142 0.524263 0.524263
      vertex -1.3 0.424264 0.424264
      vertex -1.24142 0 0.741421
    endloop
  endfacet
  facet normal 0.357412 0.357406 0.862855
    outer loop
      vertex 1.15 0.365686 0.627817
      vertex 1.15 0 0.779289
      vertex 1.24142 0 0.741421
    endloop
  endfacet
  facet normal 0.357415 0.357409 0.862852
    outer loop
      vertex 1.15 0.365686 0.627817
      vertex 1.24142 0.524263 0.524263
      vertex 1.15 0.55104 0.55104
    endloop
  endfacet
  facet normal 0.357419 0.357407 0.862851
    outer loop
      vertex 1.24142 0.524263 0.524263
      vertex 1.15 0.365686 0.627817
      vertex 1.24142 0 0.741421
    endloop
  endfacet
  facet normal -0.357415 0.357409 0.862852
    outer loop
      vertex -1.24142 0.524263 0.524263
      vertex -1.15 0.365686 0.627817
      vertex -1.15 0.55104 0.55104
    endloop
  endfacet
  facet normal -0.357419 0.357407 0.862851
    outer loop
      vertex -1.15 0.365686 0.627817
      vertex -1.24142 0.524263 0.524263
      vertex -1.24142 0 0.741421
    endloop
  endfacet
  facet normal 0.357412 -0.862855 0.357406
    outer loop
      vertex 1.15 -0.627817 0.365686
      vertex 1.15 -0.779289 0
      vertex 1.24142 -0.741421 0
    endloop
  endfacet
  facet normal 0.357412 -0.357406 0.862855
    outer loop
      vertex 1.15 0 0.779289
      vertex 1.15 -0.365686 0.627817
      vertex 1.24142 0 0.741421
    endloop
  endfacet
  facet normal 0.357412 0.862855 0.357406
    outer loop
      vertex 1.15 0.779289 0
      vertex 1.15 0.627817 0.365686
      vertex 1.24142 0.741421 0
    endloop
  endfacet
  facet normal 0.912482 0.377974 0.156563
    outer loop
      vertex 1.24142 0.741421 0
      vertex 1.24142 0.524263 0.524263
      vertex 1.3 0.424264 0.424264
    endloop
  endfacet
  facet normal 0.912484 0.37797 0.15656
    outer loop
      vertex 1.3 0.599999 0
      vertex 1.24142 0.741421 0
      vertex 1.3 0.424264 0.424264
    endloop
  endfacet
  facet normal 0 -0.382683 0.92388
    outer loop
      vertex -1.05 0 0.799999
      vertex 1.05 -0.565685 0.565685
      vertex 1.05 0 0.799999
    endloop
  endfacet
  facet normal 0 -0.382683 0.92388
    outer loop
      vertex 1.05 -0.565685 0.565685
      vertex -1.05 0 0.799999
      vertex -1.05 -0.565685 0.565685
    endloop
  endfacet
  facet normal 0.912482 -0.156563 0.377974
    outer loop
      vertex 1.24142 0 0.741421
      vertex 1.24142 -0.524263 0.524263
      vertex 1.3 -0.424264 0.424264
    endloop
  endfacet
  facet normal 0.357415 -0.862852 0.357409
    outer loop
      vertex 1.15 -0.627817 0.365686
      vertex 1.24142 -0.524263 0.524263
      vertex 1.15 -0.55104 0.55104
    endloop
  endfacet
  facet normal 0.357419 -0.862851 0.357407
    outer loop
      vertex 1.24142 -0.524263 0.524263
      vertex 1.15 -0.627817 0.365686
      vertex 1.24142 -0.741421 0
    endloop
  endfacet
  facet normal -0.357412 -0.357406 0.862855
    outer loop
      vertex -1.15 0 0.779289
      vertex -1.24142 0 0.741421
      vertex -1.15 -0.365686 0.627817
    endloop
  endfacet
  facet normal 0 -0.92388 0.382683
    outer loop
      vertex -1.05 -0.799999 0
      vertex 1.05 -0.565685 0.565685
      vertex -1.05 -0.565685 0.565685
    endloop
  endfacet
  facet normal 0 -0.92388 0.382683
    outer loop
      vertex 1.05 -0.565685 0.565685
      vertex -1.05 -0.799999 0
      vertex 1.05 -0.799999 0
    endloop
  endfacet
  facet normal -0.357412 -0.862855 0.357406
    outer loop
      vertex -1.15 -0.627817 0.365686
      vertex -1.24142 -0.741421 0
      vertex -1.15 -0.779289 0
    endloop
  endfacet
  facet normal 0.912482 -0.377974 0.156563
    outer loop
      vertex 1.24142 -0.524263 0.524263
      vertex 1.24142 -0.741421 0
      vertex 1.3 -0.424264 0.424264
    endloop
  endfacet
  facet normal -0.357412 0.357406 0.862855
    outer loop
      vertex -1.15 0.365686 0.627817
      vertex -1.24142 0 0.741421
      vertex -1.15 0 0.779289
    endloop
  endfacet
  facet normal -0 0.382683 0.92388
    outer loop
      vertex -1.05 0.565685 0.565685
      vertex 1.05 0 0.799999
      vertex 1.05 0.565685 0.565685
    endloop
  endfacet
  facet normal 0 0.382683 0.92388
    outer loop
      vertex 1.05 0 0.799999
      vertex -1.05 0.565685 0.565685
      vertex -1.05 0 0.799999
    endloop
  endfacet
  facet normal -0.912484 -0.37797 0.15656
    outer loop
      vertex -1.3 -0.424264 0.424264
      vertex -1.3 -0.599999 0
      vertex -1.24142 -0.741421 0
    endloop
  endfacet
  facet normal 0.357415 0.862852 0.357409
    outer loop
      vertex 1.24142 0.524263 0.524263
      vertex 1.15 0.627817 0.365686
      vertex 1.15 0.55104 0.55104
    endloop
  endfacet
  facet normal 0.357419 0.862851 0.357407
    outer loop
      vertex 1.15 0.627817 0.365686
      vertex 1.24142 0.524263 0.524263
      vertex 1.24142 0.741421 0
    endloop
  endfacet
  facet normal 0.912484 -0.15656 0.37797
    outer loop
      vertex 1.3 0 0.599999
      vertex 1.24142 0 0.741421
      vertex 1.3 -0.424264 0.424264
    endloop
  endfacet
  facet normal -0.912484 0.37797 0.15656
    outer loop
      vertex -1.3 0.599999 0
      vertex -1.3 0.424264 0.424264
      vertex -1.24142 0.741421 0
    endloop
  endfacet
  facet normal -0.912482 0.377974 0.156563
    outer loop
      vertex -1.24142 0.741421 0
      vertex -1.3 0.424264 0.424264
      vertex -1.24142 0.524263 0.524263
    endloop
  endfacet
  facet normal -0.912482 -0.156563 0.377974
    outer loop
      vertex -1.24142 0 0.741421
      vertex -1.3 -0.424264 0.424264
      vertex -1.24142 -0.524263 0.524263
    endloop
  endfacet
  facet normal -0.912482 -0.377974 0.156563
    outer loop
      vertex -1.24142 -0.524263 0.524263
      vertex -1.3 -0.424264 0.424264
      vertex -1.24142 -0.741421 0
    endloop
  endfacet
  facet normal 0.912484 -0.37797 0.15656
    outer loop
      vertex 1.3 -0.424264 0.424264
      vertex 1.24142 -0.741421 0
      vertex 1.3 -0.599999 0
    endloop
  endfacet
  facet normal 0.912484 0.15656 0.37797
    outer loop
      vertex 1.3 0.424264 0.424264
      vertex 1.24142 0 0.741421
      vertex 1.3 0 0.599999
    endloop
  endfacet
  facet normal -0.357415 0.862852 0.357409
    outer loop
      vertex -1.15 0.627817 0.365686
      vertex -1.24142 0.524263 0.524263
      vertex -1.15 0.55104 0.55104
    endloop
  endfacet
  facet normal -0.357419 0.862851 0.357407
    outer loop
      vertex -1.24142 0.524263 0.524263
      vertex -1.15 0.627817 0.365686
      vertex -1.24142 0.741421 0
    endloop
  endfacet
  facet normal -0.357412 0.862855 0.357406
    outer loop
      vertex -1.15 0.779289 0
      vertex -1.24142 0.741421 0
      vertex -1.15 0.627817 0.365686
    endloop
  endfacet
  facet normal 0 0.92388 0.382683
    outer loop
      vertex 1.05 0.799999 0
      vertex -1.05 0.565685 0.565685
      vertex 1.05 0.565685 0.565685
    endloop
  endfacet
  facet normal 0 0.92388 0.382683
    outer loop
      vertex -1.05 0.565685 0.565685
      vertex 1.05 0.799999 0
      vertex -1.05 0.799999 0
    endloop
  endfacet
  facet normal 1 0 0
    outer loop
      vertex 1.3 0 0.599999
      vertex 1.3 0.599999 0
      vertex 1.3 0.424264 0.424264
    endloop
  endfacet
  facet normal 1 -0 0
    outer loop
      vertex 1.3 -0.424264 0.424264
      vertex 1.3 0.599999 0
      vertex 1.3 0 0.599999
    endloop
  endfacet
  facet normal 1 0 0
    outer loop
      vertex 1.3 0.599999 0
      vertex 1.3 -0.424264 0.424264
      vertex 1.3 -0.599999 0
    endloop
  endfacet
  facet normal -0.912484 0.15656 0.37797
    outer loop
      vertex -1.3 0.424264 0.424264
      vertex -1.3 0 0.599999
      vertex -1.24142 0 0.741421
    endloop
  endfacet
  facet normal -0.357415 -0.862852 0.357409
    outer loop
      vertex -1.24142 -0.524263 0.524263
      vertex -1.15 -0.627817 0.365686
      vertex -1.15 -0.55104 0.55104
    endloop
  endfacet
  facet normal -0.357419 -0.862851 0.357407
    outer loop
      vertex -1.15 -0.627817 0.365686
      vertex -1.24142 -0.524263 0.524263
      vertex -1.24142 -0.741421 0
    endloop
  endfacet
  facet normal -0.357419 -0.357407 0.862851
    outer loop
      vertex -1.24142 -0.524263 0.524263
      vertex -1.15 -0.365686 0.627817
      vertex -1.24142 0 0.741421
    endloop
  endfacet
  facet normal -0.357415 -0.357409 0.862852
    outer loop
      vertex -1.15 -0.365686 0.627817
      vertex -1.24142 -0.524263 0.524263
      vertex -1.15 -0.55104 0.55104
    endloop
  endfacet
  facet normal -1 0 0
    outer loop
      vertex -1.3 0.599999 0
      vertex -1.3 0 0.599999
      vertex -1.3 0.424264 0.424264
    endloop
  endfacet
  facet normal -1 0 0
    outer loop
      vertex -1.3 0.599999 0
      vertex -1.3 -0.424264 0.424264
      vertex -1.3 0 0.599999
    endloop
  endfacet
  facet normal -1 0 -0
    outer loop
      vertex -1.3 -0.424264 0.424264
      vertex -1.3 0.599999 0
      vertex -1.3 -0.599999 0
    endloop
  endfacet
  facet normal -0.912484 -0.15656 0.37797
    outer loop
      vertex -1.3 0 0.599999
      vertex -1.3 -0.424264 0.424264
      vertex -1.24142 0 0.741421
    endloop
  endfacet
  facet normal 0 0 -1
    outer loop
      vertex -1.3 -0.599999 0
      vertex -1.15 -0.779289 0
      vertex -1.24142 -0.741421 0
    endloop
  endfacet
  facet normal 0 0 -1
    outer loop
      vertex -1.15 -0.779289 0
      vertex -1.3 -0.599999 0
      vertex -1.15 0.779289 0
    endloop
  endfacet
  facet normal 0 0 -1
    outer loop
      vertex -1.3 0.599999 0
      vertex -1.15 0.779289 0
      vertex -1.3 -0.599999 0
    endloop
  endfacet
  facet normal 0 0 -1
    outer loop
      vertex -1.15 0.779289 0
      vertex -1.3 0.599999 0
      vertex -1.24142 0.741421 0
    endloop
  endfacet
  facet normal 0 0 -1
    outer loop
      vertex -1.15 -0.849999 0
      vertex -1.105 -0.82 0
      vertex -1.105 -0.849999 0
    endloop
  endfacet
  facet normal 0 0 -1
    outer loop
      vertex -1.105 -0.82 0
      vertex -1.15 -0.779289 0
      vertex -1.105 0.82 0
    endloop
  endfacet
  facet normal -0 0 -1
    outer loop
      vertex -1.105 -0.82 0
      vertex -1.15 -0.849999 0
      vertex -1.15 -0.779289 0
    endloop
  endfacet
  facet normal 0 0 -1
    outer loop
      vertex -1.15 0.779289 0
      vertex -1.105 0.82 0
      vertex -1.15 -0.779289 0
    endloop
  endfacet
  facet normal 0 0 -1
    outer loop
      vertex -1.15 0.849999 0
      vertex -1.105 0.82 0
      vertex -1.15 0.779289 0
    endloop
  endfacet
  facet normal 0 0 -1
    outer loop
      vertex -1.105 0.82 0
      vertex -1.15 0.849999 0
      vertex -1.105 0.849999 0
    endloop
  endfacet
  facet normal 0 0 -1
    outer loop
      vertex -1.105 0.82 0
      vertex -1.05 0.799999 0
      vertex -1.105 -0.82 0
    endloop
  endfacet
  facet normal 0 0 -1
    outer loop
      vertex -1.05 0.799999 0
      vertex -1.105 0.82 0
      vertex -1.095 0.82 0
    endloop
  endfacet
  facet normal 0 0 -1
    outer loop
      vertex -1.095 -0.82 0
      vertex -1.05 -0.799999 0
      vertex -1.05 -0.849999 0
    endloop
  endfacet
  facet normal 0 0 -1
    outer loop
      vertex -1.105 -0.82 0
      vertex -1.05 -0.799999 0
      vertex -1.095 -0.82 0
    endloop
  endfacet
  facet normal 0 0 -1
    outer loop
      vertex -1.095 -0.82 0
      vertex -1.05 -0.849999 0
      vertex -1.095 -0.849999 0
    endloop
  endfacet
  facet normal -0 0 -1
    outer loop
      vertex -1.05 -0.799999 0
      vertex -1.105 -0.82 0
      vertex -1.05 0.799999 0
    endloop
  endfacet
  facet normal 0 0 -1
    outer loop
      vertex -1.05 0.799999 0
      vertex -1.095 0.82 0
      vertex -1.05 0.849999 0
    endloop
  endfacet
  facet normal -0 0 -1
    outer loop
      vertex -1.05 0.849999 0
      vertex -1.095 0.82 0
      vertex -1.095 0.849999 0
    endloop
  endfacet
  facet normal 0 0 -1
    outer loop
      vertex -1.05 -0.799999 0
      vertex 1.05 0.799999 0
      vertex 1.05 -0.799999 0
    endloop
  endfacet
  facet normal -0 0 -1
    outer loop
      vertex 1.05 0.799999 0
      vertex -1.05 -0.799999 0
      vertex -1.05 0.799999 0
    endloop
  endfacet
  facet normal 0 0 -1
    outer loop
      vertex 1.05 -0.849999 0
      vertex 1.095 -0.82 0
      vertex 1.095 -0.849999 0
    endloop
  endfacet
  facet normal 0 0 -1
    outer loop
      vertex 1.095 -0.82 0
      vertex 1.05 -0.799999 0
      vertex 1.095 0.82 0
    endloop
  endfacet
  facet normal -0 0 -1
    outer loop
      vertex 1.095 -0.82 0
      vertex 1.05 -0.849999 0
      vertex 1.05 -0.799999 0
    endloop
  endfacet
  facet normal 0 0 -1
    outer loop
      vertex 1.05 0.799999 0
      vertex 1.095 0.82 0
      vertex 1.05 -0.799999 0
    endloop
  endfacet
  facet normal 0 0 -1
    outer loop
      vertex 1.05 0.849999 0
      vertex 1.095 0.82 0
      vertex 1.05 0.799999 0
    endloop
  endfacet
  facet normal 0 0 -1
    outer loop
      vertex 1.095 0.82 0
      vertex 1.05 0.849999 0
      vertex 1.095 0.849999 0
    endloop
  endfacet
  facet normal 0 0 -1
    outer loop
      vertex 1.3 0.599999 0
      vertex 1.095 0.82 0
      vertex 1.15 0.779289 0
    endloop
  endfacet
  facet normal 0 0 -1
    outer loop
      vertex 1.15 0.779289 0
      vertex 1.095 0.82 0
      vertex 1.105 0.82 0
    endloop
  endfacet
  facet normal 0 0 -1
    outer loop
      vertex 1.105 -0.82 0
      vertex 1.15 -0.779289 0
      vertex 1.15 -0.849999 0
    endloop
  endfacet
  facet normal 0 0 -1
    outer loop
      vertex 1.095 -0.82 0
      vertex 1.15 -0.779289 0
      vertex 1.105 -0.82 0
    endloop
  endfacet
  facet normal 0 0 -1
    outer loop
      vertex 1.105 -0.82 0
      vertex 1.15 -0.849999 0
      vertex 1.105 -0.849999 0
    endloop
  endfacet
  facet normal 0 0 -1
    outer loop
      vertex 1.095 0.82 0
      vertex 1.3 0.599999 0
      vertex 1.095 -0.82 0
    endloop
  endfacet
  facet normal 0 0 -1
    outer loop
      vertex 1.15 0.779289 0
      vertex 1.105 0.82 0
      vertex 1.15 0.849999 0
    endloop
  endfacet
  facet normal -0 0 -1
    outer loop
      vertex 1.15 0.849999 0
      vertex 1.105 0.82 0
      vertex 1.105 0.849999 0
    endloop
  endfacet
  facet normal 0 0 -1
    outer loop
      vertex 1.15 -0.779289 0
      vertex 1.3 -0.599999 0
      vertex 1.24142 -0.741421 0
    endloop
  endfacet
  facet normal 0 0 -1
    outer loop
      vertex 1.095 -0.82 0
      vertex 1.3 -0.599999 0
      vertex 1.15 -0.779289 0
    endloop
  endfacet
  facet normal -0 0 -1
    outer loop
      vertex 1.3 -0.599999 0
      vertex 1.095 -0.82 0
      vertex 1.3 0.599999 0
    endloop
  endfacet
  facet normal 0 0 -1
    outer loop
      vertex 1.3 0.599999 0
      vertex 1.15 0.779289 0
      vertex 1.24142 0.741421 0
    endloop
  endfacet
endsolid OpenSCAD_Model
