solid OpenSCAD_Model
  facet normal 0.999049 0.0436046 0
    outer loop
      vertex 0.85 0 0.95
      vertex 0.849049 0.0217889 0.85
      vertex 0.849049 0.0217889 0.95
    endloop
  endfacet
  facet normal 0.999049 0.0436046 0
    outer loop
      vertex 0.849049 0.0217889 0.85
      vertex 0.85 0 0.95
      vertex 0.85 0 0.85
    endloop
  endfacet
  facet normal 0.991443 0.130538 0
    outer loop
      vertex 0.849049 0.0217889 0.95
      vertex 0.846202 0.043412 0.85
      vertex 0.846202 0.043412 0.95
    endloop
  endfacet
  facet normal 0.991443 0.130538 0
    outer loop
      vertex 0.846202 0.043412 0.85
      vertex 0.849049 0.0217889 0.95
      vertex 0.849049 0.0217889 0.85
    endloop
  endfacet
  facet normal 0.976291 0.216461 0
    outer loop
      vertex 0.846202 0.043412 0.95
      vertex 0.841481 0.0647048 0.85
      vertex 0.841481 0.0647048 0.95
    endloop
  endfacet
  facet normal 0.976291 0.216461 0
    outer loop
      vertex 0.841481 0.0647048 0.85
      vertex 0.846202 0.043412 0.95
      vertex 0.846202 0.043412 0.85
    endloop
  endfacet
  facet normal 0.953721 0.300694 0
    outer loop
      vertex 0.841481 0.0647048 0.95
      vertex 0.834923 0.085505 0.85
      vertex 0.834923 0.085505 0.95
    endloop
  endfacet
  facet normal 0.953721 0.300694 0
    outer loop
      vertex 0.834923 0.085505 0.85
      vertex 0.841481 0.0647048 0.95
      vertex 0.841481 0.0647048 0.85
    endloop
  endfacet
  facet normal 0.923886 0.382668 0
    outer loop
      vertex 0.834923 0.085505 0.95
      vertex 0.826577 0.105655 0.85
      vertex 0.826577 0.105655 0.95
    endloop
  endfacet
  facet normal 0.923886 0.382668 0
    outer loop
      vertex 0.826577 0.105655 0.85
      vertex 0.834923 0.085505 0.95
      vertex 0.834923 0.085505 0.85
    endloop
  endfacet
  facet normal 0.886999 0.461771 0
    outer loop
      vertex 0.826577 0.105655 0.95
      vertex 0.816506 0.125 0.85
      vertex 0.816506 0.125 0.95
    endloop
  endfacet
  facet normal 0.886999 0.461771 0
    outer loop
      vertex 0.816506 0.125 0.85
      vertex 0.826577 0.105655 0.95
      vertex 0.826577 0.105655 0.85
    endloop
  endfacet
  facet normal 0.843397 0.537291 0
    outer loop
      vertex 0.816506 0.125 0.95
      vertex 0.804788 0.143394 0.85
      vertex 0.804788 0.143394 0.95
    endloop
  endfacet
  facet normal 0.843397 0.537291 0
    outer loop
      vertex 0.804788 0.143394 0.85
      vertex 0.816506 0.125 0.95
      vertex 0.816506 0.125 0.85
    endloop
  endfacet
  facet normal 0.793355 0.60876 0
    outer loop
      vertex 0.804788 0.143394 0.95
      vertex 0.791511 0.160697 0.85
      vertex 0.791511 0.160697 0.95
    endloop
  endfacet
  facet normal 0.793355 0.60876 0
    outer loop
      vertex 0.791511 0.160697 0.85
      vertex 0.804788 0.143394 0.95
      vertex 0.804788 0.143394 0.85
    endloop
  endfacet
  facet normal 0.737291 0.675575 0
    outer loop
      vertex 0.791511 0.160697 0.95
      vertex 0.776777 0.176777 0.85
      vertex 0.776777 0.176777 0.95
    endloop
  endfacet
  facet normal 0.737291 0.675575 0
    outer loop
      vertex 0.776777 0.176777 0.85
      vertex 0.791511 0.160697 0.95
      vertex 0.791511 0.160697 0.85
    endloop
  endfacet
  facet normal 0.675575 0.737291 -0
    outer loop
      vertex 0.776777 0.176777 0.85
      vertex 0.760697 0.191511 0.95
      vertex 0.776777 0.176777 0.95
    endloop
  endfacet
  facet normal 0.675575 0.737291 0
    outer loop
      vertex 0.760697 0.191511 0.95
      vertex 0.776777 0.176777 0.85
      vertex 0.760697 0.191511 0.85
    endloop
  endfacet
  facet normal 0.60876 0.793355 -0
    outer loop
      vertex 0.760697 0.191511 0.85
      vertex 0.743394 0.204788 0.95
      vertex 0.760697 0.191511 0.95
    endloop
  endfacet
  facet normal 0.60876 0.793355 0
    outer loop
      vertex 0.743394 0.204788 0.95
      vertex 0.760697 0.191511 0.85
      vertex 0.743394 0.204788 0.85
    endloop
  endfacet
  facet normal 0.537291 0.843397 -0
    outer loop
      vertex 0.743394 0.204788 0.85
      vertex 0.725 0.216506 0.95
      vertex 0.743394 0.204788 0.95
    endloop
  endfacet
  facet normal 0.537291 0.843397 0
    outer loop
      vertex 0.725 0.216506 0.95
      vertex 0.743394 0.204788 0.85
      vertex 0.725 0.216506 0.85
    endloop
  endfacet
  facet normal 0.461771 0.886999 -0
    outer loop
      vertex 0.725 0.216506 0.85
      vertex 0.705655 0.226577 0.95
      vertex 0.725 0.216506 0.95
    endloop
  endfacet
  facet normal 0.461771 0.886999 0
    outer loop
      vertex 0.705655 0.226577 0.95
      vertex 0.725 0.216506 0.85
      vertex 0.705655 0.226577 0.85
    endloop
  endfacet
  facet normal 0.382668 0.923886 -0
    outer loop
      vertex 0.705655 0.226577 0.85
      vertex 0.685505 0.234923 0.95
      vertex 0.705655 0.226577 0.95
    endloop
  endfacet
  facet normal 0.382668 0.923886 0
    outer loop
      vertex 0.685505 0.234923 0.95
      vertex 0.705655 0.226577 0.85
      vertex 0.685505 0.234923 0.85
    endloop
  endfacet
  facet normal 0.300697 0.95372 -0
    outer loop
      vertex 0.685505 0.234923 0.85
      vertex 0.664705 0.241481 0.95
      vertex 0.685505 0.234923 0.95
    endloop
  endfacet
  facet normal 0.300697 0.95372 0
    outer loop
      vertex 0.664705 0.241481 0.95
      vertex 0.685505 0.234923 0.85
      vertex 0.664705 0.241481 0.85
    endloop
  endfacet
  facet normal 0.21646 0.976292 -0
    outer loop
      vertex 0.664705 0.241481 0.85
      vertex 0.643412 0.246202 0.95
      vertex 0.664705 0.241481 0.95
    endloop
  endfacet
  facet normal 0.21646 0.976292 0
    outer loop
      vertex 0.643412 0.246202 0.95
      vertex 0.664705 0.241481 0.85
      vertex 0.643412 0.246202 0.85
    endloop
  endfacet
  facet normal 0.130539 0.991443 -0
    outer loop
      vertex 0.643412 0.246202 0.85
      vertex 0.621789 0.249049 0.95
      vertex 0.643412 0.246202 0.95
    endloop
  endfacet
  facet normal 0.130539 0.991443 0
    outer loop
      vertex 0.621789 0.249049 0.95
      vertex 0.643412 0.246202 0.85
      vertex 0.621789 0.249049 0.85
    endloop
  endfacet
  facet normal 0.0436044 0.999049 -0
    outer loop
      vertex 0.621789 0.249049 0.85
      vertex 0.6 0.25 0.95
      vertex 0.621789 0.249049 0.95
    endloop
  endfacet
  facet normal 0.0436044 0.999049 0
    outer loop
      vertex 0.6 0.25 0.95
      vertex 0.621789 0.249049 0.85
      vertex 0.6 0.25 0.85
    endloop
  endfacet
  facet normal -0.0436044 0.999049 0
    outer loop
      vertex 0.6 0.25 0.85
      vertex 0.578211 0.249049 0.95
      vertex 0.6 0.25 0.95
    endloop
  endfacet
  facet normal -0.0436044 0.999049 0
    outer loop
      vertex 0.578211 0.249049 0.95
      vertex 0.6 0.25 0.85
      vertex 0.578211 0.249049 0.85
    endloop
  endfacet
  facet normal -0.130539 0.991443 0
    outer loop
      vertex 0.578211 0.249049 0.85
      vertex 0.556588 0.246202 0.95
      vertex 0.578211 0.249049 0.95
    endloop
  endfacet
  facet normal -0.130539 0.991443 0
    outer loop
      vertex 0.556588 0.246202 0.95
      vertex 0.578211 0.249049 0.85
      vertex 0.556588 0.246202 0.85
    endloop
  endfacet
  facet normal -0.21646 0.976292 0
    outer loop
      vertex 0.556588 0.246202 0.85
      vertex 0.535295 0.241481 0.95
      vertex 0.556588 0.246202 0.95
    endloop
  endfacet
  facet normal -0.21646 0.976292 0
    outer loop
      vertex 0.535295 0.241481 0.95
      vertex 0.556588 0.246202 0.85
      vertex 0.535295 0.241481 0.85
    endloop
  endfacet
  facet normal -0.300697 0.95372 0
    outer loop
      vertex 0.535295 0.241481 0.85
      vertex 0.514495 0.234923 0.95
      vertex 0.535295 0.241481 0.95
    endloop
  endfacet
  facet normal -0.300697 0.95372 0
    outer loop
      vertex 0.514495 0.234923 0.95
      vertex 0.535295 0.241481 0.85
      vertex 0.514495 0.234923 0.85
    endloop
  endfacet
  facet normal -0.382668 0.923886 0
    outer loop
      vertex 0.514495 0.234923 0.85
      vertex 0.494345 0.226577 0.95
      vertex 0.514495 0.234923 0.95
    endloop
  endfacet
  facet normal -0.382668 0.923886 0
    outer loop
      vertex 0.494345 0.226577 0.95
      vertex 0.514495 0.234923 0.85
      vertex 0.494345 0.226577 0.85
    endloop
  endfacet
  facet normal -0.461771 0.886999 0
    outer loop
      vertex 0.494345 0.226577 0.85
      vertex 0.475 0.216506 0.95
      vertex 0.494345 0.226577 0.95
    endloop
  endfacet
  facet normal -0.461771 0.886999 0
    outer loop
      vertex 0.475 0.216506 0.95
      vertex 0.494345 0.226577 0.85
      vertex 0.475 0.216506 0.85
    endloop
  endfacet
  facet normal -0.537291 0.843397 0
    outer loop
      vertex 0.475 0.216506 0.85
      vertex 0.456606 0.204788 0.95
      vertex 0.475 0.216506 0.95
    endloop
  endfacet
  facet normal -0.537291 0.843397 0
    outer loop
      vertex 0.456606 0.204788 0.95
      vertex 0.475 0.216506 0.85
      vertex 0.456606 0.204788 0.85
    endloop
  endfacet
  facet normal -0.60876 0.793355 0
    outer loop
      vertex 0.456606 0.204788 0.85
      vertex 0.439303 0.191511 0.95
      vertex 0.456606 0.204788 0.95
    endloop
  endfacet
  facet normal -0.60876 0.793355 0
    outer loop
      vertex 0.439303 0.191511 0.95
      vertex 0.456606 0.204788 0.85
      vertex 0.439303 0.191511 0.85
    endloop
  endfacet
  facet normal -0.675575 0.737291 0
    outer loop
      vertex 0.439303 0.191511 0.85
      vertex 0.423223 0.176777 0.95
      vertex 0.439303 0.191511 0.95
    endloop
  endfacet
  facet normal -0.675575 0.737291 0
    outer loop
      vertex 0.423223 0.176777 0.95
      vertex 0.439303 0.191511 0.85
      vertex 0.423223 0.176777 0.85
    endloop
  endfacet
  facet normal -0.737291 0.675575 0
    outer loop
      vertex 0.408489 0.160697 0.85
      vertex 0.423223 0.176777 0.95
      vertex 0.423223 0.176777 0.85
    endloop
  endfacet
  facet normal -0.737291 0.675575 0
    outer loop
      vertex 0.423223 0.176777 0.95
      vertex 0.408489 0.160697 0.85
      vertex 0.408489 0.160697 0.95
    endloop
  endfacet
  facet normal -0.793355 0.60876 0
    outer loop
      vertex 0.395212 0.143394 0.85
      vertex 0.408489 0.160697 0.95
      vertex 0.408489 0.160697 0.85
    endloop
  endfacet
  facet normal -0.793355 0.60876 0
    outer loop
      vertex 0.408489 0.160697 0.95
      vertex 0.395212 0.143394 0.85
      vertex 0.395212 0.143394 0.95
    endloop
  endfacet
  facet normal -0.843397 0.537291 0
    outer loop
      vertex 0.383494 0.125 0.85
      vertex 0.395212 0.143394 0.95
      vertex 0.395212 0.143394 0.85
    endloop
  endfacet
  facet normal -0.843397 0.537291 0
    outer loop
      vertex 0.395212 0.143394 0.95
      vertex 0.383494 0.125 0.85
      vertex 0.383494 0.125 0.95
    endloop
  endfacet
  facet normal -0.886999 0.461771 0
    outer loop
      vertex 0.373423 0.105655 0.85
      vertex 0.383494 0.125 0.95
      vertex 0.383494 0.125 0.85
    endloop
  endfacet
  facet normal -0.886999 0.461771 0
    outer loop
      vertex 0.383494 0.125 0.95
      vertex 0.373423 0.105655 0.85
      vertex 0.373423 0.105655 0.95
    endloop
  endfacet
  facet normal -0.923886 0.382668 0
    outer loop
      vertex 0.365077 0.085505 0.85
      vertex 0.373423 0.105655 0.95
      vertex 0.373423 0.105655 0.85
    endloop
  endfacet
  facet normal -0.923886 0.382668 0
    outer loop
      vertex 0.373423 0.105655 0.95
      vertex 0.365077 0.085505 0.85
      vertex 0.365077 0.085505 0.95
    endloop
  endfacet
  facet normal -0.953721 0.300694 0
    outer loop
      vertex 0.358519 0.0647048 0.85
      vertex 0.365077 0.085505 0.95
      vertex 0.365077 0.085505 0.85
    endloop
  endfacet
  facet normal -0.953721 0.300694 0
    outer loop
      vertex 0.365077 0.085505 0.95
      vertex 0.358519 0.0647048 0.85
      vertex 0.358519 0.0647048 0.95
    endloop
  endfacet
  facet normal -0.976291 0.216461 0
    outer loop
      vertex 0.353798 0.043412 0.85
      vertex 0.358519 0.0647048 0.95
      vertex 0.358519 0.0647048 0.85
    endloop
  endfacet
  facet normal -0.976291 0.216461 0
    outer loop
      vertex 0.358519 0.0647048 0.95
      vertex 0.353798 0.043412 0.85
      vertex 0.353798 0.043412 0.95
    endloop
  endfacet
  facet normal -0.991443 0.130538 0
    outer loop
      vertex 0.350951 0.0217889 0.85
      vertex 0.353798 0.043412 0.95
      vertex 0.353798 0.043412 0.85
    endloop
  endfacet
  facet normal -0.991443 0.130538 0
    outer loop
      vertex 0.353798 0.043412 0.95
      vertex 0.350951 0.0217889 0.85
      vertex 0.350951 0.0217889 0.95
    endloop
  endfacet
  facet normal -0.999049 0.0436046 0
    outer loop
      vertex 0.35 0 0.85
      vertex 0.350951 0.0217889 0.95
      vertex 0.350951 0.0217889 0.85
    endloop
  endfacet
  facet normal -0.999049 0.0436046 0
    outer loop
      vertex 0.350951 0.0217889 0.95
      vertex 0.35 0 0.85
      vertex 0.35 0 0.95
    endloop
  endfacet
  facet normal -0.999049 -0.0436046 0
    outer loop
      vertex 0.350951 -0.0217889 0.85
      vertex 0.35 0 0.95
      vertex 0.35 0 0.85
    endloop
  endfacet
  facet normal -0.999049 -0.0436046 0
    outer loop
      vertex 0.35 0 0.95
      vertex 0.350951 -0.0217889 0.85
      vertex 0.350951 -0.0217889 0.95
    endloop
  endfacet
  facet normal -0.991443 -0.130538 0
    outer loop
      vertex 0.353798 -0.043412 0.85
      vertex 0.350951 -0.0217889 0.95
      vertex 0.350951 -0.0217889 0.85
    endloop
  endfacet
  facet normal -0.991443 -0.130538 0
    outer loop
      vertex 0.350951 -0.0217889 0.95
      vertex 0.353798 -0.043412 0.85
      vertex 0.353798 -0.043412 0.95
    endloop
  endfacet
  facet normal -0.976291 -0.216461 0
    outer loop
      vertex 0.358519 -0.0647048 0.85
      vertex 0.353798 -0.043412 0.95
      vertex 0.353798 -0.043412 0.85
    endloop
  endfacet
  facet normal -0.976291 -0.216461 0
    outer loop
      vertex 0.353798 -0.043412 0.95
      vertex 0.358519 -0.0647048 0.85
      vertex 0.358519 -0.0647048 0.95
    endloop
  endfacet
  facet normal -0.953721 -0.300694 0
    outer loop
      vertex 0.365077 -0.085505 0.85
      vertex 0.358519 -0.0647048 0.95
      vertex 0.358519 -0.0647048 0.85
    endloop
  endfacet
  facet normal -0.953721 -0.300694 0
    outer loop
      vertex 0.358519 -0.0647048 0.95
      vertex 0.365077 -0.085505 0.85
      vertex 0.365077 -0.085505 0.95
    endloop
  endfacet
  facet normal -0.923886 -0.382668 0
    outer loop
      vertex 0.373423 -0.105655 0.85
      vertex 0.365077 -0.085505 0.95
      vertex 0.365077 -0.085505 0.85
    endloop
  endfacet
  facet normal -0.923886 -0.382668 0
    outer loop
      vertex 0.365077 -0.085505 0.95
      vertex 0.373423 -0.105655 0.85
      vertex 0.373423 -0.105655 0.95
    endloop
  endfacet
  facet normal -0.886999 -0.461771 0
    outer loop
      vertex 0.383494 -0.125 0.85
      vertex 0.373423 -0.105655 0.95
      vertex 0.373423 -0.105655 0.85
    endloop
  endfacet
  facet normal -0.886999 -0.461771 0
    outer loop
      vertex 0.373423 -0.105655 0.95
      vertex 0.383494 -0.125 0.85
      vertex 0.383494 -0.125 0.95
    endloop
  endfacet
  facet normal -0.843397 -0.537291 0
    outer loop
      vertex 0.395212 -0.143394 0.85
      vertex 0.383494 -0.125 0.95
      vertex 0.383494 -0.125 0.85
    endloop
  endfacet
  facet normal -0.843397 -0.537291 0
    outer loop
      vertex 0.383494 -0.125 0.95
      vertex 0.395212 -0.143394 0.85
      vertex 0.395212 -0.143394 0.95
    endloop
  endfacet
  facet normal -0.793355 -0.60876 0
    outer loop
      vertex 0.408489 -0.160697 0.85
      vertex 0.395212 -0.143394 0.95
      vertex 0.395212 -0.143394 0.85
    endloop
  endfacet
  facet normal -0.793355 -0.60876 0
    outer loop
      vertex 0.395212 -0.143394 0.95
      vertex 0.408489 -0.160697 0.85
      vertex 0.408489 -0.160697 0.95
    endloop
  endfacet
  facet normal -0.737291 -0.675575 0
    outer loop
      vertex 0.423223 -0.176777 0.85
      vertex 0.408489 -0.160697 0.95
      vertex 0.408489 -0.160697 0.85
    endloop
  endfacet
  facet normal -0.737291 -0.675575 0
    outer loop
      vertex 0.408489 -0.160697 0.95
      vertex 0.423223 -0.176777 0.85
      vertex 0.423223 -0.176777 0.95
    endloop
  endfacet
  facet normal -0.675575 -0.737291 0
    outer loop
      vertex 0.423223 -0.176777 0.85
      vertex 0.439303 -0.191511 0.95
      vertex 0.423223 -0.176777 0.95
    endloop
  endfacet
  facet normal -0.675575 -0.737291 -0
    outer loop
      vertex 0.439303 -0.191511 0.95
      vertex 0.423223 -0.176777 0.85
      vertex 0.439303 -0.191511 0.85
    endloop
  endfacet
  facet normal -0.60876 -0.793355 0
    outer loop
      vertex 0.439303 -0.191511 0.85
      vertex 0.456606 -0.204788 0.95
      vertex 0.439303 -0.191511 0.95
    endloop
  endfacet
  facet normal -0.60876 -0.793355 -0
    outer loop
      vertex 0.456606 -0.204788 0.95
      vertex 0.439303 -0.191511 0.85
      vertex 0.456606 -0.204788 0.85
    endloop
  endfacet
  facet normal -0.537291 -0.843397 0
    outer loop
      vertex 0.456606 -0.204788 0.85
      vertex 0.475 -0.216506 0.95
      vertex 0.456606 -0.204788 0.95
    endloop
  endfacet
  facet normal -0.537291 -0.843397 -0
    outer loop
      vertex 0.475 -0.216506 0.95
      vertex 0.456606 -0.204788 0.85
      vertex 0.475 -0.216506 0.85
    endloop
  endfacet
  facet normal -0.461771 -0.886999 0
    outer loop
      vertex 0.475 -0.216506 0.85
      vertex 0.494345 -0.226577 0.95
      vertex 0.475 -0.216506 0.95
    endloop
  endfacet
  facet normal -0.461771 -0.886999 -0
    outer loop
      vertex 0.494345 -0.226577 0.95
      vertex 0.475 -0.216506 0.85
      vertex 0.494345 -0.226577 0.85
    endloop
  endfacet
  facet normal -0.382668 -0.923886 0
    outer loop
      vertex 0.494345 -0.226577 0.85
      vertex 0.514495 -0.234923 0.95
      vertex 0.494345 -0.226577 0.95
    endloop
  endfacet
  facet normal -0.382668 -0.923886 -0
    outer loop
      vertex 0.514495 -0.234923 0.95
      vertex 0.494345 -0.226577 0.85
      vertex 0.514495 -0.234923 0.85
    endloop
  endfacet
  facet normal -0.300697 -0.95372 0
    outer loop
      vertex 0.514495 -0.234923 0.85
      vertex 0.535295 -0.241481 0.95
      vertex 0.514495 -0.234923 0.95
    endloop
  endfacet
  facet normal -0.300697 -0.95372 -0
    outer loop
      vertex 0.535295 -0.241481 0.95
      vertex 0.514495 -0.234923 0.85
      vertex 0.535295 -0.241481 0.85
    endloop
  endfacet
  facet normal -0.21646 -0.976292 0
    outer loop
      vertex 0.535295 -0.241481 0.85
      vertex 0.556588 -0.246202 0.95
      vertex 0.535295 -0.241481 0.95
    endloop
  endfacet
  facet normal -0.21646 -0.976292 -0
    outer loop
      vertex 0.556588 -0.246202 0.95
      vertex 0.535295 -0.241481 0.85
      vertex 0.556588 -0.246202 0.85
    endloop
  endfacet
  facet normal -0.130539 -0.991443 0
    outer loop
      vertex 0.556588 -0.246202 0.85
      vertex 0.578211 -0.249049 0.95
      vertex 0.556588 -0.246202 0.95
    endloop
  endfacet
  facet normal -0.130539 -0.991443 -0
    outer loop
      vertex 0.578211 -0.249049 0.95
      vertex 0.556588 -0.246202 0.85
      vertex 0.578211 -0.249049 0.85
    endloop
  endfacet
  facet normal -0.0436044 -0.999049 0
    outer loop
      vertex 0.578211 -0.249049 0.85
      vertex 0.6 -0.25 0.95
      vertex 0.578211 -0.249049 0.95
    endloop
  endfacet
  facet normal -0.0436044 -0.999049 -0
    outer loop
      vertex 0.6 -0.25 0.95
      vertex 0.578211 -0.249049 0.85
      vertex 0.6 -0.25 0.85
    endloop
  endfacet
  facet normal 0.0436044 -0.999049 0
    outer loop
      vertex 0.6 -0.25 0.85
      vertex 0.621789 -0.249049 0.95
      vertex 0.6 -0.25 0.95
    endloop
  endfacet
  facet normal 0.0436044 -0.999049 0
    outer loop
      vertex 0.621789 -0.249049 0.95
      vertex 0.6 -0.25 0.85
      vertex 0.621789 -0.249049 0.85
    endloop
  endfacet
  facet normal 0.130539 -0.991443 0
    outer loop
      vertex 0.621789 -0.249049 0.85
      vertex 0.643412 -0.246202 0.95
      vertex 0.621789 -0.249049 0.95
    endloop
  endfacet
  facet normal 0.130539 -0.991443 0
    outer loop
      vertex 0.643412 -0.246202 0.95
      vertex 0.621789 -0.249049 0.85
      vertex 0.643412 -0.246202 0.85
    endloop
  endfacet
  facet normal 0.21646 -0.976292 0
    outer loop
      vertex 0.643412 -0.246202 0.85
      vertex 0.664705 -0.241481 0.95
      vertex 0.643412 -0.246202 0.95
    endloop
  endfacet
  facet normal 0.21646 -0.976292 0
    outer loop
      vertex 0.664705 -0.241481 0.95
      vertex 0.643412 -0.246202 0.85
      vertex 0.664705 -0.241481 0.85
    endloop
  endfacet
  facet normal 0.300697 -0.95372 0
    outer loop
      vertex 0.664705 -0.241481 0.85
      vertex 0.685505 -0.234923 0.95
      vertex 0.664705 -0.241481 0.95
    endloop
  endfacet
  facet normal 0.300697 -0.95372 0
    outer loop
      vertex 0.685505 -0.234923 0.95
      vertex 0.664705 -0.241481 0.85
      vertex 0.685505 -0.234923 0.85
    endloop
  endfacet
  facet normal 0.382668 -0.923886 0
    outer loop
      vertex 0.685505 -0.234923 0.85
      vertex 0.705655 -0.226577 0.95
      vertex 0.685505 -0.234923 0.95
    endloop
  endfacet
  facet normal 0.382668 -0.923886 0
    outer loop
      vertex 0.705655 -0.226577 0.95
      vertex 0.685505 -0.234923 0.85
      vertex 0.705655 -0.226577 0.85
    endloop
  endfacet
  facet normal 0.461771 -0.886999 0
    outer loop
      vertex 0.705655 -0.226577 0.85
      vertex 0.725 -0.216506 0.95
      vertex 0.705655 -0.226577 0.95
    endloop
  endfacet
  facet normal 0.461771 -0.886999 0
    outer loop
      vertex 0.725 -0.216506 0.95
      vertex 0.705655 -0.226577 0.85
      vertex 0.725 -0.216506 0.85
    endloop
  endfacet
  facet normal 0.537291 -0.843397 0
    outer loop
      vertex 0.725 -0.216506 0.85
      vertex 0.743394 -0.204788 0.95
      vertex 0.725 -0.216506 0.95
    endloop
  endfacet
  facet normal 0.537291 -0.843397 0
    outer loop
      vertex 0.743394 -0.204788 0.95
      vertex 0.725 -0.216506 0.85
      vertex 0.743394 -0.204788 0.85
    endloop
  endfacet
  facet normal 0.60876 -0.793355 0
    outer loop
      vertex 0.743394 -0.204788 0.85
      vertex 0.760697 -0.191511 0.95
      vertex 0.743394 -0.204788 0.95
    endloop
  endfacet
  facet normal 0.60876 -0.793355 0
    outer loop
      vertex 0.760697 -0.191511 0.95
      vertex 0.743394 -0.204788 0.85
      vertex 0.760697 -0.191511 0.85
    endloop
  endfacet
  facet normal 0.675575 -0.737291 0
    outer loop
      vertex 0.760697 -0.191511 0.85
      vertex 0.776777 -0.176777 0.95
      vertex 0.760697 -0.191511 0.95
    endloop
  endfacet
  facet normal 0.675575 -0.737291 0
    outer loop
      vertex 0.776777 -0.176777 0.95
      vertex 0.760697 -0.191511 0.85
      vertex 0.776777 -0.176777 0.85
    endloop
  endfacet
  facet normal 0.737291 -0.675575 0
    outer loop
      vertex 0.776777 -0.176777 0.95
      vertex 0.791511 -0.160697 0.85
      vertex 0.791511 -0.160697 0.95
    endloop
  endfacet
  facet normal 0.737291 -0.675575 0
    outer loop
      vertex 0.791511 -0.160697 0.85
      vertex 0.776777 -0.176777 0.95
      vertex 0.776777 -0.176777 0.85
    endloop
  endfacet
  facet normal 0.793355 -0.60876 0
    outer loop
      vertex 0.791511 -0.160697 0.95
      vertex 0.804788 -0.143394 0.85
      vertex 0.804788 -0.143394 0.95
    endloop
  endfacet
  facet normal 0.793355 -0.60876 0
    outer loop
      vertex 0.804788 -0.143394 0.85
      vertex 0.791511 -0.160697 0.95
      vertex 0.791511 -0.160697 0.85
    endloop
  endfacet
  facet normal 0.843397 -0.537291 0
    outer loop
      vertex 0.804788 -0.143394 0.95
      vertex 0.816506 -0.125 0.85
      vertex 0.816506 -0.125 0.95
    endloop
  endfacet
  facet normal 0.843397 -0.537291 0
    outer loop
      vertex 0.816506 -0.125 0.85
      vertex 0.804788 -0.143394 0.95
      vertex 0.804788 -0.143394 0.85
    endloop
  endfacet
  facet normal 0.886999 -0.461771 0
    outer loop
      vertex 0.816506 -0.125 0.95
      vertex 0.826577 -0.105655 0.85
      vertex 0.826577 -0.105655 0.95
    endloop
  endfacet
  facet normal 0.886999 -0.461771 0
    outer loop
      vertex 0.826577 -0.105655 0.85
      vertex 0.816506 -0.125 0.95
      vertex 0.816506 -0.125 0.85
    endloop
  endfacet
  facet normal 0.923886 -0.382668 0
    outer loop
      vertex 0.826577 -0.105655 0.95
      vertex 0.834923 -0.085505 0.85
      vertex 0.834923 -0.085505 0.95
    endloop
  endfacet
  facet normal 0.923886 -0.382668 0
    outer loop
      vertex 0.834923 -0.085505 0.85
      vertex 0.826577 -0.105655 0.95
      vertex 0.826577 -0.105655 0.85
    endloop
  endfacet
  facet normal 0.953721 -0.300694 0
    outer loop
      vertex 0.834923 -0.085505 0.95
      vertex 0.841481 -0.0647048 0.85
      vertex 0.841481 -0.0647048 0.95
    endloop
  endfacet
  facet normal 0.953721 -0.300694 0
    outer loop
      vertex 0.841481 -0.0647048 0.85
      vertex 0.834923 -0.085505 0.95
      vertex 0.834923 -0.085505 0.85
    endloop
  endfacet
  facet normal 0.976291 -0.216461 0
    outer loop
      vertex 0.841481 -0.0647048 0.95
      vertex 0.846202 -0.043412 0.85
      vertex 0.846202 -0.043412 0.95
    endloop
  endfacet
  facet normal 0.976291 -0.216461 0
    outer loop
      vertex 0.846202 -0.043412 0.85
      vertex 0.841481 -0.0647048 0.95
      vertex 0.841481 -0.0647048 0.85
    endloop
  endfacet
  facet normal 0.991443 -0.130538 0
    outer loop
      vertex 0.846202 -0.043412 0.95
      vertex 0.849049 -0.0217889 0.85
      vertex 0.849049 -0.0217889 0.95
    endloop
  endfacet
  facet normal 0.991443 -0.130538 0
    outer loop
      vertex 0.849049 -0.0217889 0.85
      vertex 0.846202 -0.043412 0.95
      vertex 0.846202 -0.043412 0.85
    endloop
  endfacet
  facet normal 0.999049 -0.0436046 0
    outer loop
      vertex 0.849049 -0.0217889 0.95
      vertex 0.85 0 0.85
      vertex 0.85 0 0.95
    endloop
  endfacet
  facet normal 0.999049 -0.0436046 0
    outer loop
      vertex 0.85 0 0.85
      vertex 0.849049 -0.0217889 0.95
      vertex 0.849049 -0.0217889 0.85
    endloop
  endfacet
  facet normal 0 0 -1
    outer loop
      vertex 0.849049 -0.0217889 0.85
      vertex 0.849049 0.0217889 0.85
      vertex 0.85 0 0.85
    endloop
  endfacet
  facet normal 0 0 -1
    outer loop
      vertex 0.846202 -0.043412 0.85
      vertex 0.849049 0.0217889 0.85
      vertex 0.849049 -0.0217889 0.85
    endloop
  endfacet
  facet normal 0 0 -1
    outer loop
      vertex 0.846202 -0.043412 0.85
      vertex 0.846202 0.043412 0.85
      vertex 0.849049 0.0217889 0.85
    endloop
  endfacet
  facet normal 0 0 -1
    outer loop
      vertex 0.841481 -0.0647048 0.85
      vertex 0.846202 0.043412 0.85
      vertex 0.846202 -0.043412 0.85
    endloop
  endfacet
  facet normal 0 0 -1
    outer loop
      vertex 0.841481 -0.0647048 0.85
      vertex 0.841481 0.0647048 0.85
      vertex 0.846202 0.043412 0.85
    endloop
  endfacet
  facet normal 0 0 -1
    outer loop
      vertex 0.834923 -0.085505 0.85
      vertex 0.841481 0.0647048 0.85
      vertex 0.841481 -0.0647048 0.85
    endloop
  endfacet
  facet normal 0 0 -1
    outer loop
      vertex 0.834923 -0.085505 0.85
      vertex 0.834923 0.085505 0.85
      vertex 0.841481 0.0647048 0.85
    endloop
  endfacet
  facet normal 0 0 -1
    outer loop
      vertex 0.826577 -0.105655 0.85
      vertex 0.834923 0.085505 0.85
      vertex 0.834923 -0.085505 0.85
    endloop
  endfacet
  facet normal 0 0 -1
    outer loop
      vertex 0.826577 -0.105655 0.85
      vertex 0.826577 0.105655 0.85
      vertex 0.834923 0.085505 0.85
    endloop
  endfacet
  facet normal 0 0 -1
    outer loop
      vertex 0.816506 -0.125 0.85
      vertex 0.826577 0.105655 0.85
      vertex 0.826577 -0.105655 0.85
    endloop
  endfacet
  facet normal 0 0 -1
    outer loop
      vertex 0.816506 -0.125 0.85
      vertex 0.816506 0.125 0.85
      vertex 0.826577 0.105655 0.85
    endloop
  endfacet
  facet normal 0 0 -1
    outer loop
      vertex 0.804788 -0.143394 0.85
      vertex 0.816506 0.125 0.85
      vertex 0.816506 -0.125 0.85
    endloop
  endfacet
  facet normal 0 0 -1
    outer loop
      vertex 0.804788 -0.143394 0.85
      vertex 0.804788 0.143394 0.85
      vertex 0.816506 0.125 0.85
    endloop
  endfacet
  facet normal 0 0 -1
    outer loop
      vertex 0.791511 -0.160697 0.85
      vertex 0.804788 0.143394 0.85
      vertex 0.804788 -0.143394 0.85
    endloop
  endfacet
  facet normal 0 0 -1
    outer loop
      vertex 0.791511 -0.160697 0.85
      vertex 0.791511 0.160697 0.85
      vertex 0.804788 0.143394 0.85
    endloop
  endfacet
  facet normal 0 0 -1
    outer loop
      vertex 0.776777 -0.176777 0.85
      vertex 0.791511 0.160697 0.85
      vertex 0.791511 -0.160697 0.85
    endloop
  endfacet
  facet normal 0 0 -1
    outer loop
      vertex 0.776777 -0.176777 0.85
      vertex 0.776777 0.176777 0.85
      vertex 0.791511 0.160697 0.85
    endloop
  endfacet
  facet normal 0 0 -1
    outer loop
      vertex 0.760697 -0.191511 0.85
      vertex 0.776777 0.176777 0.85
      vertex 0.776777 -0.176777 0.85
    endloop
  endfacet
  facet normal 0 0 -1
    outer loop
      vertex 0.760697 -0.191511 0.85
      vertex 0.760697 0.191511 0.85
      vertex 0.776777 0.176777 0.85
    endloop
  endfacet
  facet normal 0 0 -1
    outer loop
      vertex 0.743394 -0.204788 0.85
      vertex 0.760697 0.191511 0.85
      vertex 0.760697 -0.191511 0.85
    endloop
  endfacet
  facet normal 0 0 -1
    outer loop
      vertex 0.743394 -0.204788 0.85
      vertex 0.743394 0.204788 0.85
      vertex 0.760697 0.191511 0.85
    endloop
  endfacet
  facet normal 0 0 -1
    outer loop
      vertex 0.725 -0.216506 0.85
      vertex 0.743394 0.204788 0.85
      vertex 0.743394 -0.204788 0.85
    endloop
  endfacet
  facet normal 0 0 -1
    outer loop
      vertex 0.725 -0.216506 0.85
      vertex 0.725 0.216506 0.85
      vertex 0.743394 0.204788 0.85
    endloop
  endfacet
  facet normal 0 0 -1
    outer loop
      vertex 0.705655 -0.226577 0.85
      vertex 0.725 0.216506 0.85
      vertex 0.725 -0.216506 0.85
    endloop
  endfacet
  facet normal 0 0 -1
    outer loop
      vertex 0.705655 -0.226577 0.85
      vertex 0.705655 0.226577 0.85
      vertex 0.725 0.216506 0.85
    endloop
  endfacet
  facet normal 0 0 -1
    outer loop
      vertex 0.685505 -0.234923 0.85
      vertex 0.705655 0.226577 0.85
      vertex 0.705655 -0.226577 0.85
    endloop
  endfacet
  facet normal 0 0 -1
    outer loop
      vertex 0.685505 -0.234923 0.85
      vertex 0.685505 0.234923 0.85
      vertex 0.705655 0.226577 0.85
    endloop
  endfacet
  facet normal 0 0 -1
    outer loop
      vertex 0.664705 -0.241481 0.85
      vertex 0.685505 0.234923 0.85
      vertex 0.685505 -0.234923 0.85
    endloop
  endfacet
  facet normal 0 0 -1
    outer loop
      vertex 0.664705 -0.241481 0.85
      vertex 0.664705 0.241481 0.85
      vertex 0.685505 0.234923 0.85
    endloop
  endfacet
  facet normal 0 0 -1
    outer loop
      vertex 0.643412 -0.246202 0.85
      vertex 0.664705 0.241481 0.85
      vertex 0.664705 -0.241481 0.85
    endloop
  endfacet
  facet normal 0 0 -1
    outer loop
      vertex 0.643412 -0.246202 0.85
      vertex 0.643412 0.246202 0.85
      vertex 0.664705 0.241481 0.85
    endloop
  endfacet
  facet normal 0 0 -1
    outer loop
      vertex 0.621789 -0.249049 0.85
      vertex 0.643412 0.246202 0.85
      vertex 0.643412 -0.246202 0.85
    endloop
  endfacet
  facet normal 0 0 -1
    outer loop
      vertex 0.621789 -0.249049 0.85
      vertex 0.621789 0.249049 0.85
      vertex 0.643412 0.246202 0.85
    endloop
  endfacet
  facet normal 0 0 -1
    outer loop
      vertex 0.6 -0.25 0.85
      vertex 0.621789 0.249049 0.85
      vertex 0.621789 -0.249049 0.85
    endloop
  endfacet
  facet normal 0 0 -1
    outer loop
      vertex 0.6 -0.25 0.85
      vertex 0.6 0.25 0.85
      vertex 0.621789 0.249049 0.85
    endloop
  endfacet
  facet normal 0 0 -1
    outer loop
      vertex 0.578211 -0.249049 0.85
      vertex 0.6 0.25 0.85
      vertex 0.6 -0.25 0.85
    endloop
  endfacet
  facet normal 0 0 -1
    outer loop
      vertex 0.578211 -0.249049 0.85
      vertex 0.578211 0.249049 0.85
      vertex 0.6 0.25 0.85
    endloop
  endfacet
  facet normal 0 0 -1
    outer loop
      vertex 0.556588 -0.246202 0.85
      vertex 0.578211 0.249049 0.85
      vertex 0.578211 -0.249049 0.85
    endloop
  endfacet
  facet normal 0 0 -1
    outer loop
      vertex 0.556588 -0.246202 0.85
      vertex 0.556588 0.246202 0.85
      vertex 0.578211 0.249049 0.85
    endloop
  endfacet
  facet normal 0 0 -1
    outer loop
      vertex 0.535295 -0.241481 0.85
      vertex 0.556588 0.246202 0.85
      vertex 0.556588 -0.246202 0.85
    endloop
  endfacet
  facet normal 0 0 -1
    outer loop
      vertex 0.535295 -0.241481 0.85
      vertex 0.535295 0.241481 0.85
      vertex 0.556588 0.246202 0.85
    endloop
  endfacet
  facet normal 0 0 -1
    outer loop
      vertex 0.514495 -0.234923 0.85
      vertex 0.535295 0.241481 0.85
      vertex 0.535295 -0.241481 0.85
    endloop
  endfacet
  facet normal 0 0 -1
    outer loop
      vertex 0.514495 -0.234923 0.85
      vertex 0.514495 0.234923 0.85
      vertex 0.535295 0.241481 0.85
    endloop
  endfacet
  facet normal 0 0 -1
    outer loop
      vertex 0.494345 -0.226577 0.85
      vertex 0.514495 0.234923 0.85
      vertex 0.514495 -0.234923 0.85
    endloop
  endfacet
  facet normal 0 0 -1
    outer loop
      vertex 0.494345 -0.226577 0.85
      vertex 0.494345 0.226577 0.85
      vertex 0.514495 0.234923 0.85
    endloop
  endfacet
  facet normal 0 0 -1
    outer loop
      vertex 0.475 -0.216506 0.85
      vertex 0.494345 0.226577 0.85
      vertex 0.494345 -0.226577 0.85
    endloop
  endfacet
  facet normal 0 0 -1
    outer loop
      vertex 0.475 -0.216506 0.85
      vertex 0.475 0.216506 0.85
      vertex 0.494345 0.226577 0.85
    endloop
  endfacet
  facet normal 0 0 -1
    outer loop
      vertex 0.456606 -0.204788 0.85
      vertex 0.475 0.216506 0.85
      vertex 0.475 -0.216506 0.85
    endloop
  endfacet
  facet normal 0 0 -1
    outer loop
      vertex 0.456606 -0.204788 0.85
      vertex 0.456606 0.204788 0.85
      vertex 0.475 0.216506 0.85
    endloop
  endfacet
  facet normal 0 0 -1
    outer loop
      vertex 0.439303 -0.191511 0.85
      vertex 0.456606 0.204788 0.85
      vertex 0.456606 -0.204788 0.85
    endloop
  endfacet
  facet normal 0 0 -1
    outer loop
      vertex 0.439303 -0.191511 0.85
      vertex 0.439303 0.191511 0.85
      vertex 0.456606 0.204788 0.85
    endloop
  endfacet
  facet normal 0 0 -1
    outer loop
      vertex 0.423223 -0.176777 0.85
      vertex 0.439303 0.191511 0.85
      vertex 0.439303 -0.191511 0.85
    endloop
  endfacet
  facet normal 0 0 -1
    outer loop
      vertex 0.423223 -0.176777 0.85
      vertex 0.423223 0.176777 0.85
      vertex 0.439303 0.191511 0.85
    endloop
  endfacet
  facet normal 0 0 -1
    outer loop
      vertex 0.408489 -0.160697 0.85
      vertex 0.423223 0.176777 0.85
      vertex 0.423223 -0.176777 0.85
    endloop
  endfacet
  facet normal 0 0 -1
    outer loop
      vertex 0.408489 -0.160697 0.85
      vertex 0.408489 0.160697 0.85
      vertex 0.423223 0.176777 0.85
    endloop
  endfacet
  facet normal 0 0 -1
    outer loop
      vertex 0.395212 -0.143394 0.85
      vertex 0.408489 0.160697 0.85
      vertex 0.408489 -0.160697 0.85
    endloop
  endfacet
  facet normal 0 0 -1
    outer loop
      vertex 0.395212 -0.143394 0.85
      vertex 0.395212 0.143394 0.85
      vertex 0.408489 0.160697 0.85
    endloop
  endfacet
  facet normal 0 0 -1
    outer loop
      vertex 0.383494 -0.125 0.85
      vertex 0.395212 0.143394 0.85
      vertex 0.395212 -0.143394 0.85
    endloop
  endfacet
  facet normal 0 0 -1
    outer loop
      vertex 0.383494 -0.125 0.85
      vertex 0.383494 0.125 0.85
      vertex 0.395212 0.143394 0.85
    endloop
  endfacet
  facet normal 0 0 -1
    outer loop
      vertex 0.373423 -0.105655 0.85
      vertex 0.383494 0.125 0.85
      vertex 0.383494 -0.125 0.85
    endloop
  endfacet
  facet normal 0 0 -1
    outer loop
      vertex 0.373423 -0.105655 0.85
      vertex 0.373423 0.105655 0.85
      vertex 0.383494 0.125 0.85
    endloop
  endfacet
  facet normal 0 0 -1
    outer loop
      vertex 0.365077 -0.085505 0.85
      vertex 0.373423 0.105655 0.85
      vertex 0.373423 -0.105655 0.85
    endloop
  endfacet
  facet normal 0 0 -1
    outer loop
      vertex 0.365077 -0.085505 0.85
      vertex 0.365077 0.085505 0.85
      vertex 0.373423 0.105655 0.85
    endloop
  endfacet
  facet normal 0 0 -1
    outer loop
      vertex 0.358519 -0.0647048 0.85
      vertex 0.365077 0.085505 0.85
      vertex 0.365077 -0.085505 0.85
    endloop
  endfacet
  facet normal 0 0 -1
    outer loop
      vertex 0.358519 -0.0647048 0.85
      vertex 0.358519 0.0647048 0.85
      vertex 0.365077 0.085505 0.85
    endloop
  endfacet
  facet normal 0 0 -1
    outer loop
      vertex 0.353798 -0.043412 0.85
      vertex 0.358519 0.0647048 0.85
      vertex 0.358519 -0.0647048 0.85
    endloop
  endfacet
  facet normal 0 0 -1
    outer loop
      vertex 0.353798 -0.043412 0.85
      vertex 0.353798 0.043412 0.85
      vertex 0.358519 0.0647048 0.85
    endloop
  endfacet
  facet normal 0 0 -1
    outer loop
      vertex 0.350951 -0.0217889 0.85
      vertex 0.353798 0.043412 0.85
      vertex 0.353798 -0.043412 0.85
    endloop
  endfacet
  facet normal 0 0 -1
    outer loop
      vertex 0.350951 -0.0217889 0.85
      vertex 0.350951 0.0217889 0.85
      vertex 0.353798 0.043412 0.85
    endloop
  endfacet
  facet normal 0 -0 -1
    outer loop
      vertex 0.350951 0.0217889 0.85
      vertex 0.350951 -0.0217889 0.85
      vertex 0.35 0 0.85
    endloop
  endfacet
  facet normal 0 0 1
    outer loop
      vertex 0.849049 0.0217889 0.95
      vertex 0.849049 -0.0217889 0.95
      vertex 0.85 0 0.95
    endloop
  endfacet
  facet normal 0 0 1
    outer loop
      vertex 0.846202 0.043412 0.95
      vertex 0.849049 -0.0217889 0.95
      vertex 0.849049 0.0217889 0.95
    endloop
  endfacet
  facet normal 0 0 1
    outer loop
      vertex 0.846202 0.043412 0.95
      vertex 0.846202 -0.043412 0.95
      vertex 0.849049 -0.0217889 0.95
    endloop
  endfacet
  facet normal 0 0 1
    outer loop
      vertex 0.841481 0.0647048 0.95
      vertex 0.846202 -0.043412 0.95
      vertex 0.846202 0.043412 0.95
    endloop
  endfacet
  facet normal 0 0 1
    outer loop
      vertex 0.841481 0.0647048 0.95
      vertex 0.841481 -0.0647048 0.95
      vertex 0.846202 -0.043412 0.95
    endloop
  endfacet
  facet normal 0 0 1
    outer loop
      vertex 0.834923 0.085505 0.95
      vertex 0.841481 -0.0647048 0.95
      vertex 0.841481 0.0647048 0.95
    endloop
  endfacet
  facet normal 0 0 1
    outer loop
      vertex 0.834923 0.085505 0.95
      vertex 0.834923 -0.085505 0.95
      vertex 0.841481 -0.0647048 0.95
    endloop
  endfacet
  facet normal 0 0 1
    outer loop
      vertex 0.826577 0.105655 0.95
      vertex 0.834923 -0.085505 0.95
      vertex 0.834923 0.085505 0.95
    endloop
  endfacet
  facet normal 0 0 1
    outer loop
      vertex 0.826577 0.105655 0.95
      vertex 0.826577 -0.105655 0.95
      vertex 0.834923 -0.085505 0.95
    endloop
  endfacet
  facet normal 0 0 1
    outer loop
      vertex 0.816506 0.125 0.95
      vertex 0.826577 -0.105655 0.95
      vertex 0.826577 0.105655 0.95
    endloop
  endfacet
  facet normal 0 0 1
    outer loop
      vertex 0.816506 0.125 0.95
      vertex 0.816506 -0.125 0.95
      vertex 0.826577 -0.105655 0.95
    endloop
  endfacet
  facet normal 0 0 1
    outer loop
      vertex 0.804788 0.143394 0.95
      vertex 0.816506 -0.125 0.95
      vertex 0.816506 0.125 0.95
    endloop
  endfacet
  facet normal 0 0 1
    outer loop
      vertex 0.804788 0.143394 0.95
      vertex 0.804788 -0.143394 0.95
      vertex 0.816506 -0.125 0.95
    endloop
  endfacet
  facet normal 0 0 1
    outer loop
      vertex 0.791511 0.160697 0.95
      vertex 0.804788 -0.143394 0.95
      vertex 0.804788 0.143394 0.95
    endloop
  endfacet
  facet normal 0 0 1
    outer loop
      vertex 0.791511 0.160697 0.95
      vertex 0.791511 -0.160697 0.95
      vertex 0.804788 -0.143394 0.95
    endloop
  endfacet
  facet normal 0 0 1
    outer loop
      vertex 0.776777 0.176777 0.95
      vertex 0.791511 -0.160697 0.95
      vertex 0.791511 0.160697 0.95
    endloop
  endfacet
  facet normal 0 0 1
    outer loop
      vertex 0.776777 0.176777 0.95
      vertex 0.776777 -0.176777 0.95
      vertex 0.791511 -0.160697 0.95
    endloop
  endfacet
  facet normal 0 0 1
    outer loop
      vertex 0.760697 0.191511 0.95
      vertex 0.776777 -0.176777 0.95
      vertex 0.776777 0.176777 0.95
    endloop
  endfacet
  facet normal 0 0 1
    outer loop
      vertex 0.760697 0.191511 0.95
      vertex 0.760697 -0.191511 0.95
      vertex 0.776777 -0.176777 0.95
    endloop
  endfacet
  facet normal 0 0 1
    outer loop
      vertex 0.743394 0.204788 0.95
      vertex 0.760697 -0.191511 0.95
      vertex 0.760697 0.191511 0.95
    endloop
  endfacet
  facet normal 0 0 1
    outer loop
      vertex 0.743394 0.204788 0.95
      vertex 0.743394 -0.204788 0.95
      vertex 0.760697 -0.191511 0.95
    endloop
  endfacet
  facet normal 0 0 1
    outer loop
      vertex 0.725 0.216506 0.95
      vertex 0.743394 -0.204788 0.95
      vertex 0.743394 0.204788 0.95
    endloop
  endfacet
  facet normal 0 0 1
    outer loop
      vertex 0.725 0.216506 0.95
      vertex 0.725 -0.216506 0.95
      vertex 0.743394 -0.204788 0.95
    endloop
  endfacet
  facet normal 0 0 1
    outer loop
      vertex 0.705655 0.226577 0.95
      vertex 0.725 -0.216506 0.95
      vertex 0.725 0.216506 0.95
    endloop
  endfacet
  facet normal 0 0 1
    outer loop
      vertex 0.705655 0.226577 0.95
      vertex 0.705655 -0.226577 0.95
      vertex 0.725 -0.216506 0.95
    endloop
  endfacet
  facet normal 0 0 1
    outer loop
      vertex 0.685505 0.234923 0.95
      vertex 0.705655 -0.226577 0.95
      vertex 0.705655 0.226577 0.95
    endloop
  endfacet
  facet normal 0 0 1
    outer loop
      vertex 0.685505 0.234923 0.95
      vertex 0.685505 -0.234923 0.95
      vertex 0.705655 -0.226577 0.95
    endloop
  endfacet
  facet normal 0 0 1
    outer loop
      vertex 0.664705 0.241481 0.95
      vertex 0.685505 -0.234923 0.95
      vertex 0.685505 0.234923 0.95
    endloop
  endfacet
  facet normal 0 0 1
    outer loop
      vertex 0.664705 0.241481 0.95
      vertex 0.664705 -0.241481 0.95
      vertex 0.685505 -0.234923 0.95
    endloop
  endfacet
  facet normal 0 0 1
    outer loop
      vertex 0.643412 0.246202 0.95
      vertex 0.664705 -0.241481 0.95
      vertex 0.664705 0.241481 0.95
    endloop
  endfacet
  facet normal 0 0 1
    outer loop
      vertex 0.643412 0.246202 0.95
      vertex 0.643412 -0.246202 0.95
      vertex 0.664705 -0.241481 0.95
    endloop
  endfacet
  facet normal 0 0 1
    outer loop
      vertex 0.621789 0.249049 0.95
      vertex 0.643412 -0.246202 0.95
      vertex 0.643412 0.246202 0.95
    endloop
  endfacet
  facet normal 0 0 1
    outer loop
      vertex 0.621789 0.249049 0.95
      vertex 0.621789 -0.249049 0.95
      vertex 0.643412 -0.246202 0.95
    endloop
  endfacet
  facet normal 0 0 1
    outer loop
      vertex 0.6 0.25 0.95
      vertex 0.621789 -0.249049 0.95
      vertex 0.621789 0.249049 0.95
    endloop
  endfacet
  facet normal 0 0 1
    outer loop
      vertex 0.6 0.25 0.95
      vertex 0.6 -0.25 0.95
      vertex 0.621789 -0.249049 0.95
    endloop
  endfacet
  facet normal -0 0 1
    outer loop
      vertex 0.578211 0.249049 0.95
      vertex 0.6 -0.25 0.95
      vertex 0.6 0.25 0.95
    endloop
  endfacet
  facet normal 0 0 1
    outer loop
      vertex 0.578211 0.249049 0.95
      vertex 0.578211 -0.249049 0.95
      vertex 0.6 -0.25 0.95
    endloop
  endfacet
  facet normal -0 0 1
    outer loop
      vertex 0.556588 0.246202 0.95
      vertex 0.578211 -0.249049 0.95
      vertex 0.578211 0.249049 0.95
    endloop
  endfacet
  facet normal 0 0 1
    outer loop
      vertex 0.556588 0.246202 0.95
      vertex 0.556588 -0.246202 0.95
      vertex 0.578211 -0.249049 0.95
    endloop
  endfacet
  facet normal -0 0 1
    outer loop
      vertex 0.535295 0.241481 0.95
      vertex 0.556588 -0.246202 0.95
      vertex 0.556588 0.246202 0.95
    endloop
  endfacet
  facet normal 0 0 1
    outer loop
      vertex 0.535295 0.241481 0.95
      vertex 0.535295 -0.241481 0.95
      vertex 0.556588 -0.246202 0.95
    endloop
  endfacet
  facet normal -0 0 1
    outer loop
      vertex 0.514495 0.234923 0.95
      vertex 0.535295 -0.241481 0.95
      vertex 0.535295 0.241481 0.95
    endloop
  endfacet
  facet normal 0 0 1
    outer loop
      vertex 0.514495 0.234923 0.95
      vertex 0.514495 -0.234923 0.95
      vertex 0.535295 -0.241481 0.95
    endloop
  endfacet
  facet normal -0 0 1
    outer loop
      vertex 0.494345 0.226577 0.95
      vertex 0.514495 -0.234923 0.95
      vertex 0.514495 0.234923 0.95
    endloop
  endfacet
  facet normal 0 0 1
    outer loop
      vertex 0.494345 0.226577 0.95
      vertex 0.494345 -0.226577 0.95
      vertex 0.514495 -0.234923 0.95
    endloop
  endfacet
  facet normal -0 0 1
    outer loop
      vertex 0.475 0.216506 0.95
      vertex 0.494345 -0.226577 0.95
      vertex 0.494345 0.226577 0.95
    endloop
  endfacet
  facet normal 0 0 1
    outer loop
      vertex 0.475 0.216506 0.95
      vertex 0.475 -0.216506 0.95
      vertex 0.494345 -0.226577 0.95
    endloop
  endfacet
  facet normal -0 0 1
    outer loop
      vertex 0.456606 0.204788 0.95
      vertex 0.475 -0.216506 0.95
      vertex 0.475 0.216506 0.95
    endloop
  endfacet
  facet normal 0 0 1
    outer loop
      vertex 0.456606 0.204788 0.95
      vertex 0.456606 -0.204788 0.95
      vertex 0.475 -0.216506 0.95
    endloop
  endfacet
  facet normal -0 0 1
    outer loop
      vertex 0.439303 0.191511 0.95
      vertex 0.456606 -0.204788 0.95
      vertex 0.456606 0.204788 0.95
    endloop
  endfacet
  facet normal 0 0 1
    outer loop
      vertex 0.439303 0.191511 0.95
      vertex 0.439303 -0.191511 0.95
      vertex 0.456606 -0.204788 0.95
    endloop
  endfacet
  facet normal -0 0 1
    outer loop
      vertex 0.423223 0.176777 0.95
      vertex 0.439303 -0.191511 0.95
      vertex 0.439303 0.191511 0.95
    endloop
  endfacet
  facet normal 0 0 1
    outer loop
      vertex 0.423223 0.176777 0.95
      vertex 0.423223 -0.176777 0.95
      vertex 0.439303 -0.191511 0.95
    endloop
  endfacet
  facet normal -0 0 1
    outer loop
      vertex 0.408489 0.160697 0.95
      vertex 0.423223 -0.176777 0.95
      vertex 0.423223 0.176777 0.95
    endloop
  endfacet
  facet normal 0 0 1
    outer loop
      vertex 0.408489 0.160697 0.95
      vertex 0.408489 -0.160697 0.95
      vertex 0.423223 -0.176777 0.95
    endloop
  endfacet
  facet normal -0 0 1
    outer loop
      vertex 0.395212 0.143394 0.95
      vertex 0.408489 -0.160697 0.95
      vertex 0.408489 0.160697 0.95
    endloop
  endfacet
  facet normal 0 0 1
    outer loop
      vertex 0.395212 0.143394 0.95
      vertex 0.395212 -0.143394 0.95
      vertex 0.408489 -0.160697 0.95
    endloop
  endfacet
  facet normal -0 0 1
    outer loop
      vertex 0.383494 0.125 0.95
      vertex 0.395212 -0.143394 0.95
      vertex 0.395212 0.143394 0.95
    endloop
  endfacet
  facet normal 0 0 1
    outer loop
      vertex 0.383494 0.125 0.95
      vertex 0.383494 -0.125 0.95
      vertex 0.395212 -0.143394 0.95
    endloop
  endfacet
  facet normal -0 0 1
    outer loop
      vertex 0.373423 0.105655 0.95
      vertex 0.383494 -0.125 0.95
      vertex 0.383494 0.125 0.95
    endloop
  endfacet
  facet normal 0 0 1
    outer loop
      vertex 0.373423 0.105655 0.95
      vertex 0.373423 -0.105655 0.95
      vertex 0.383494 -0.125 0.95
    endloop
  endfacet
  facet normal -0 0 1
    outer loop
      vertex 0.365077 0.085505 0.95
      vertex 0.373423 -0.105655 0.95
      vertex 0.373423 0.105655 0.95
    endloop
  endfacet
  facet normal 0 0 1
    outer loop
      vertex 0.365077 0.085505 0.95
      vertex 0.365077 -0.085505 0.95
      vertex 0.373423 -0.105655 0.95
    endloop
  endfacet
  facet normal -0 0 1
    outer loop
      vertex 0.358519 0.0647048 0.95
      vertex 0.365077 -0.085505 0.95
      vertex 0.365077 0.085505 0.95
    endloop
  endfacet
  facet normal 0 0 1
    outer loop
      vertex 0.358519 0.0647048 0.95
      vertex 0.358519 -0.0647048 0.95
      vertex 0.365077 -0.085505 0.95
    endloop
  endfacet
  facet normal -0 0 1
    outer loop
      vertex 0.353798 0.043412 0.95
      vertex 0.358519 -0.0647048 0.95
      vertex 0.358519 0.0647048 0.95
    endloop
  endfacet
  facet normal 0 0 1
    outer loop
      vertex 0.353798 0.043412 0.95
      vertex 0.353798 -0.043412 0.95
      vertex 0.358519 -0.0647048 0.95
    endloop
  endfacet
  facet normal -0 0 1
    outer loop
      vertex 0.350951 0.0217889 0.95
      vertex 0.353798 -0.043412 0.95
      vertex 0.353798 0.043412 0.95
    endloop
  endfacet
  facet normal 0 0 1
    outer loop
      vertex 0.350951 0.0217889 0.95
      vertex 0.350951 -0.0217889 0.95
      vertex 0.353798 -0.043412 0.95
    endloop
  endfacet
  facet normal 0 -0 1
    outer loop
      vertex 0.350951 -0.0217889 0.95
      vertex 0.350951 0.0217889 0.95
      vertex 0.35 0 0.95
    endloop
  endfacet
endsolid OpenSCAD_Model
