solid OpenSCAD_Model
  facet normal -1 0 0
    outer loop
      vertex -0.509659 -0.5 0.897412
      vertex -0.509659 0.5 1.60259
      vertex -0.509659 0.5 0.897412
    endloop
  endfacet
  facet normal -1 -0 0
    outer loop
      vertex -0.509659 0.5 1.60259
      vertex -0.509659 -0.5 0.897412
      vertex -0.509659 -0.5 1.60259
    endloop
  endfacet
  facet normal 0.495769 -0.132813 0.858239
    outer loop
      vertex 0.507071 -0.5 1.60707
      vertex 0.502241 -0.501293 1.60966
      vertex 0.506124 -0.503535 1.60707
    endloop
  endfacet
  facet normal 0.132659 0.495748 0.858275
    outer loop
      vertex 0.5 0.507071 1.60707
      vertex 0.5 0.502587 1.60966
      vertex 0.501293 0.502241 1.60966
    endloop
  endfacet
  facet normal 0.258833 0.965922 -0
    outer loop
      vertex 0.504829 0.508365 0.897412
      vertex 0.5 0.509659 1.60259
      vertex 0.504829 0.508365 1.60259
    endloop
  endfacet
  facet normal 0.258833 0.965922 0
    outer loop
      vertex 0.5 0.509659 1.60259
      vertex 0.504829 0.508365 0.897412
      vertex 0.5 0.509659 0.897412
    endloop
  endfacet
  facet normal -0.132659 -0.495748 0.858275
    outer loop
      vertex -0.5 -0.502587 1.60966
      vertex -0.501293 -0.502241 1.60966
      vertex -0.5 -0.507071 1.60707
    endloop
  endfacet
  facet normal -0.843505 -0.225969 0.487275
    outer loop
      vertex -0.507071 -0.5 1.60707
      vertex -0.509659 -0.5 1.60259
      vertex -0.506124 -0.503535 1.60707
    endloop
  endfacet
  facet normal 0 -0.865902 0.500213
    outer loop
      vertex -0.5 -0.509659 1.60259
      vertex 0.5 -0.507071 1.60707
      vertex -0.5 -0.507071 1.60707
    endloop
  endfacet
  facet normal 0 -0.865902 0.500213
    outer loop
      vertex 0.5 -0.507071 1.60707
      vertex -0.5 -0.509659 1.60259
      vertex 0.5 -0.509659 1.60259
    endloop
  endfacet
  facet normal 0.843513 -0.226032 0.487232
    outer loop
      vertex 0.509659 -0.5 1.60259
      vertex 0.506124 -0.503535 1.60707
      vertex 0.508365 -0.504829 1.60259
    endloop
  endfacet
  facet normal -0.617493 0.617493 0.487241
    outer loop
      vertex -0.508365 0.504829 1.60259
      vertex -0.503535 0.506124 1.60707
      vertex -0.504829 0.508365 1.60259
    endloop
  endfacet
  facet normal -0.617493 0.617493 0.487241
    outer loop
      vertex -0.503535 0.506124 1.60707
      vertex -0.508365 0.504829 1.60259
      vertex -0.506124 0.503535 1.60707
    endloop
  endfacet
  facet normal -0.843513 0.226032 0.487232
    outer loop
      vertex -0.508365 0.504829 1.60259
      vertex -0.509659 0.5 1.60259
      vertex -0.506124 0.503535 1.60707
    endloop
  endfacet
  facet normal -0.865902 0 0.500213
    outer loop
      vertex -0.509659 -0.5 1.60259
      vertex -0.507071 0.5 1.60707
      vertex -0.509659 0.5 1.60259
    endloop
  endfacet
  facet normal -0.865902 0 0.500213
    outer loop
      vertex -0.507071 0.5 1.60707
      vertex -0.509659 -0.5 1.60259
      vertex -0.507071 -0.5 1.60707
    endloop
  endfacet
  facet normal -0.495748 -0.132659 0.858275
    outer loop
      vertex -0.502587 -0.5 1.60966
      vertex -0.507071 -0.5 1.60707
      vertex -0.502241 -0.501293 1.60966
    endloop
  endfacet
  facet normal 0 -0.498718 -0.866764
    outer loop
      vertex 0.441635 -0.504829 1.54163
      vertex -0.441034 -0.502587 1.54034
      vertex 0.441034 -0.502587 1.54034
    endloop
  endfacet
  facet normal 0 -0.501614 -0.865091
    outer loop
      vertex -0.441635 -0.504829 1.54163
      vertex 0.441635 -0.504829 1.54163
      vertex 0.443876 -0.507071 1.54293
    endloop
  endfacet
  facet normal -0 -0.498718 -0.866764
    outer loop
      vertex 0.441635 -0.504829 1.54163
      vertex -0.441635 -0.504829 1.54163
      vertex -0.441034 -0.502587 1.54034
    endloop
  endfacet
  facet normal 0 -0.501614 -0.865091
    outer loop
      vertex -0.441635 -0.504829 1.54163
      vertex 0.443876 -0.507071 1.54293
      vertex -0.443876 -0.507071 1.54293
    endloop
  endfacet
  facet normal -0.495769 -0.132813 0.858239
    outer loop
      vertex -0.502241 -0.501293 1.60966
      vertex -0.507071 -0.5 1.60707
      vertex -0.506124 -0.503535 1.60707
    endloop
  endfacet
  facet normal 0 0.865902 0.500213
    outer loop
      vertex 0.5 0.509659 1.60259
      vertex -0.5 0.507071 1.60707
      vertex 0.5 0.507071 1.60707
    endloop
  endfacet
  facet normal 0 0.865902 0.500213
    outer loop
      vertex -0.5 0.507071 1.60707
      vertex 0.5 0.509659 1.60259
      vertex -0.5 0.509659 1.60259
    endloop
  endfacet
  facet normal 0.226032 0.843513 0.487232
    outer loop
      vertex 0.504829 0.508365 1.60259
      vertex 0.5 0.509659 1.60259
      vertex 0.503535 0.506124 1.60707
    endloop
  endfacet
  facet normal 0.843505 -0.225969 0.487275
    outer loop
      vertex 0.507071 -0.5 1.60707
      vertex 0.506124 -0.503535 1.60707
      vertex 0.509659 -0.5 1.60259
    endloop
  endfacet
  facet normal 0 0.865902 -0.500213
    outer loop
      vertex 0.44517 0.508365 1.54517
      vertex -0.45 0.509659 1.54741
      vertex 0.45 0.509659 1.54741
    endloop
  endfacet
  facet normal 0 0.865902 -0.500213
    outer loop
      vertex 0.44517 0.508365 1.54517
      vertex -0.44517 0.508365 1.54517
      vertex -0.45 0.509659 1.54741
    endloop
  endfacet
  facet normal 0 0.865902 -0.500213
    outer loop
      vertex 0.443876 0.507071 1.54293
      vertex -0.44517 0.508365 1.54517
      vertex 0.44517 0.508365 1.54517
    endloop
  endfacet
  facet normal 0 0.865902 -0.500213
    outer loop
      vertex -0.44517 0.508365 1.54517
      vertex 0.443876 0.507071 1.54293
      vertex -0.443876 0.507071 1.54293
    endloop
  endfacet
  facet normal 0 1 0
    outer loop
      vertex 0.5 0.509659 1.60259
      vertex 0.45 0.509659 1.54741
      vertex -0.5 0.509659 1.60259
    endloop
  endfacet
  facet normal 0 1 0
    outer loop
      vertex 0.5 0.509659 1.60259
      vertex 0.45 0.509659 0.952587
      vertex 0.45 0.509659 1.54741
    endloop
  endfacet
  facet normal 0 1 0
    outer loop
      vertex 0.45 0.509659 0.952587
      vertex 0.5 0.509659 0.897412
      vertex -0.45 0.509659 0.952587
    endloop
  endfacet
  facet normal 0 1 -0
    outer loop
      vertex 0.5 0.509659 0.897412
      vertex 0.45 0.509659 0.952587
      vertex 0.5 0.509659 1.60259
    endloop
  endfacet
  facet normal 0 1 -0
    outer loop
      vertex -0.45 0.509659 1.54741
      vertex -0.5 0.509659 1.60259
      vertex 0.45 0.509659 1.54741
    endloop
  endfacet
  facet normal 0 1 -0
    outer loop
      vertex -0.45 0.509659 0.952587
      vertex -0.5 0.509659 1.60259
      vertex -0.45 0.509659 1.54741
    endloop
  endfacet
  facet normal 0 1 0
    outer loop
      vertex -0.45 0.509659 0.952587
      vertex -0.5 0.509659 0.897412
      vertex -0.5 0.509659 1.60259
    endloop
  endfacet
  facet normal 0 1 0
    outer loop
      vertex -0.5 0.509659 0.897412
      vertex -0.45 0.509659 0.952587
      vertex 0.5 0.509659 0.897412
    endloop
  endfacet
  facet normal 0 0 -1
    outer loop
      vertex 0.440341 -0.5 1.54034
      vertex -0.440341 -0.5 1.54034
      vertex 0.440341 0.5 1.54034
    endloop
  endfacet
  facet normal 0 0 -1
    outer loop
      vertex 0.441034 -0.502587 1.54034
      vertex -0.440341 -0.5 1.54034
      vertex 0.440341 -0.5 1.54034
    endloop
  endfacet
  facet normal 0 -0 -1
    outer loop
      vertex -0.440341 -0.5 1.54034
      vertex 0.441034 -0.502587 1.54034
      vertex -0.441034 -0.502587 1.54034
    endloop
  endfacet
  facet normal 0 0 -1
    outer loop
      vertex -0.440341 0.5 1.54034
      vertex 0.440341 0.5 1.54034
      vertex -0.440341 -0.5 1.54034
    endloop
  endfacet
  facet normal 0 0 -1
    outer loop
      vertex 0.440341 0.5 1.54034
      vertex -0.440341 0.5 1.54034
      vertex 0.441034 0.502587 1.54034
    endloop
  endfacet
  facet normal -0 0 -1
    outer loop
      vertex 0.441034 0.502587 1.54034
      vertex -0.440341 0.5 1.54034
      vertex -0.441034 0.502587 1.54034
    endloop
  endfacet
  facet normal 0 -1 0
    outer loop
      vertex -0.5 -0.509659 1.60259
      vertex -0.45 -0.509659 1.54741
      vertex 0.5 -0.509659 1.60259
    endloop
  endfacet
  facet normal 0 -1 0
    outer loop
      vertex -0.5 -0.509659 1.60259
      vertex -0.45 -0.509659 0.952587
      vertex -0.45 -0.509659 1.54741
    endloop
  endfacet
  facet normal 0 -1 -0
    outer loop
      vertex -0.45 -0.509659 0.952587
      vertex -0.5 -0.509659 0.897412
      vertex 0.45 -0.509659 0.952587
    endloop
  endfacet
  facet normal 0 -1 0
    outer loop
      vertex -0.5 -0.509659 0.897412
      vertex -0.45 -0.509659 0.952587
      vertex -0.5 -0.509659 1.60259
    endloop
  endfacet
  facet normal 0 -1 0
    outer loop
      vertex 0.45 -0.509659 1.54741
      vertex 0.5 -0.509659 1.60259
      vertex -0.45 -0.509659 1.54741
    endloop
  endfacet
  facet normal 0 -1 0
    outer loop
      vertex 0.45 -0.509659 0.952587
      vertex 0.5 -0.509659 1.60259
      vertex 0.45 -0.509659 1.54741
    endloop
  endfacet
  facet normal 0 -1 0
    outer loop
      vertex 0.45 -0.509659 0.952587
      vertex 0.5 -0.509659 0.897412
      vertex 0.5 -0.509659 1.60259
    endloop
  endfacet
  facet normal 0 -1 0
    outer loop
      vertex 0.5 -0.509659 0.897412
      vertex 0.45 -0.509659 0.952587
      vertex -0.5 -0.509659 0.897412
    endloop
  endfacet
  facet normal -0.225969 -0.843505 0.487275
    outer loop
      vertex -0.5 -0.507071 1.60707
      vertex -0.503535 -0.506124 1.60707
      vertex -0.5 -0.509659 1.60259
    endloop
  endfacet
  facet normal -0.500168 0 0.865928
    outer loop
      vertex -0.507071 0.5 1.60707
      vertex -0.502587 -0.5 1.60966
      vertex -0.502587 0.5 1.60966
    endloop
  endfacet
  facet normal -0.500168 0 0.865928
    outer loop
      vertex -0.502587 -0.5 1.60966
      vertex -0.507071 0.5 1.60707
      vertex -0.507071 -0.5 1.60707
    endloop
  endfacet
  facet normal 0.225969 0.843505 0.487275
    outer loop
      vertex 0.5 0.509659 1.60259
      vertex 0.5 0.507071 1.60707
      vertex 0.503535 0.506124 1.60707
    endloop
  endfacet
  facet normal -0.226032 0.843513 0.487232
    outer loop
      vertex -0.5 0.509659 1.60259
      vertex -0.504829 0.508365 1.60259
      vertex -0.503535 0.506124 1.60707
    endloop
  endfacet
  facet normal -0.965922 0.258833 0
    outer loop
      vertex -0.509659 0.5 0.897412
      vertex -0.508365 0.504829 1.60259
      vertex -0.508365 0.504829 0.897412
    endloop
  endfacet
  facet normal -0.965922 0.258833 0
    outer loop
      vertex -0.508365 0.504829 1.60259
      vertex -0.509659 0.5 0.897412
      vertex -0.509659 0.5 1.60259
    endloop
  endfacet
  facet normal -0.707107 0.707107 0
    outer loop
      vertex -0.508365 0.504829 0.897412
      vertex -0.504829 0.508365 1.60259
      vertex -0.504829 0.508365 0.897412
    endloop
  endfacet
  facet normal -0.707107 0.707107 0
    outer loop
      vertex -0.504829 0.508365 1.60259
      vertex -0.508365 0.504829 0.897412
      vertex -0.508365 0.504829 1.60259
    endloop
  endfacet
  facet normal 0.965922 0.258833 0
    outer loop
      vertex 0.509659 0.5 1.60259
      vertex 0.508365 0.504829 0.897412
      vertex 0.508365 0.504829 1.60259
    endloop
  endfacet
  facet normal 0.965922 0.258833 0
    outer loop
      vertex 0.508365 0.504829 0.897412
      vertex 0.509659 0.5 1.60259
      vertex 0.509659 0.5 0.897412
    endloop
  endfacet
  facet normal -0.258833 0.965922 0
    outer loop
      vertex -0.5 0.509659 0.897412
      vertex -0.504829 0.508365 1.60259
      vertex -0.5 0.509659 1.60259
    endloop
  endfacet
  facet normal -0.258833 0.965922 0
    outer loop
      vertex -0.504829 0.508365 1.60259
      vertex -0.5 0.509659 0.897412
      vertex -0.504829 0.508365 0.897412
    endloop
  endfacet
  facet normal -0.965922 -0.258833 0
    outer loop
      vertex -0.508365 -0.504829 0.897412
      vertex -0.509659 -0.5 1.60259
      vertex -0.509659 -0.5 0.897412
    endloop
  endfacet
  facet normal -0.965922 -0.258833 0
    outer loop
      vertex -0.509659 -0.5 1.60259
      vertex -0.508365 -0.504829 0.897412
      vertex -0.508365 -0.504829 1.60259
    endloop
  endfacet
  facet normal 0.258833 -0.965922 0
    outer loop
      vertex 0.5 -0.509659 0.897412
      vertex 0.504829 -0.508365 1.60259
      vertex 0.5 -0.509659 1.60259
    endloop
  endfacet
  facet normal 0.258833 -0.965922 0
    outer loop
      vertex 0.504829 -0.508365 1.60259
      vertex 0.5 -0.509659 0.897412
      vertex 0.504829 -0.508365 0.897412
    endloop
  endfacet
  facet normal 0.132813 0.495769 0.858239
    outer loop
      vertex 0.503535 0.506124 1.60707
      vertex 0.5 0.507071 1.60707
      vertex 0.501293 0.502241 1.60966
    endloop
  endfacet
  facet normal -0.132813 -0.495769 0.858239
    outer loop
      vertex -0.501293 -0.502241 1.60966
      vertex -0.503535 -0.506124 1.60707
      vertex -0.5 -0.507071 1.60707
    endloop
  endfacet
  facet normal 0.132813 -0.495769 0.858239
    outer loop
      vertex 0.501293 -0.502241 1.60966
      vertex 0.5 -0.507071 1.60707
      vertex 0.503535 -0.506124 1.60707
    endloop
  endfacet
  facet normal 0 -0.500168 0.865928
    outer loop
      vertex -0.5 -0.502587 1.60966
      vertex 0.5 -0.507071 1.60707
      vertex 0.5 -0.502587 1.60966
    endloop
  endfacet
  facet normal 0 -0.500168 0.865928
    outer loop
      vertex 0.5 -0.507071 1.60707
      vertex -0.5 -0.502587 1.60966
      vertex -0.5 -0.507071 1.60707
    endloop
  endfacet
  facet normal -0.843505 0.225969 0.487275
    outer loop
      vertex -0.506124 0.503535 1.60707
      vertex -0.509659 0.5 1.60259
      vertex -0.507071 0.5 1.60707
    endloop
  endfacet
  facet normal 0.495748 0.132659 0.858275
    outer loop
      vertex 0.507071 0.5 1.60707
      vertex 0.502241 0.501293 1.60966
      vertex 0.502587 0.5 1.60966
    endloop
  endfacet
  facet normal 0.495748 -0.132659 0.858275
    outer loop
      vertex 0.502587 -0.5 1.60966
      vertex 0.502241 -0.501293 1.60966
      vertex 0.507071 -0.5 1.60707
    endloop
  endfacet
  facet normal 0.500168 0 0.865928
    outer loop
      vertex 0.502587 0.5 1.60966
      vertex 0.507071 -0.5 1.60707
      vertex 0.507071 0.5 1.60707
    endloop
  endfacet
  facet normal 0.500168 0 0.865928
    outer loop
      vertex 0.507071 -0.5 1.60707
      vertex 0.502587 0.5 1.60966
      vertex 0.502587 -0.5 1.60966
    endloop
  endfacet
  facet normal 1 -0 0
    outer loop
      vertex 0.509659 -0.5 1.60259
      vertex 0.509659 0.5 0.897412
      vertex 0.509659 0.5 1.60259
    endloop
  endfacet
  facet normal 1 0 0
    outer loop
      vertex 0.509659 0.5 0.897412
      vertex 0.509659 -0.5 1.60259
      vertex 0.509659 -0.5 0.897412
    endloop
  endfacet
  facet normal 0.865902 -0 0.500213
    outer loop
      vertex 0.507071 -0.5 1.60707
      vertex 0.509659 0.5 1.60259
      vertex 0.507071 0.5 1.60707
    endloop
  endfacet
  facet normal 0.865902 0 0.500213
    outer loop
      vertex 0.509659 0.5 1.60259
      vertex 0.507071 -0.5 1.60707
      vertex 0.509659 -0.5 1.60259
    endloop
  endfacet
  facet normal 0.225969 -0.843505 0.487275
    outer loop
      vertex 0.5 -0.507071 1.60707
      vertex 0.5 -0.509659 1.60259
      vertex 0.503535 -0.506124 1.60707
    endloop
  endfacet
  facet normal 0.226032 -0.843513 0.487232
    outer loop
      vertex 0.503535 -0.506124 1.60707
      vertex 0.5 -0.509659 1.60259
      vertex 0.504829 -0.508365 1.60259
    endloop
  endfacet
  facet normal 0 0.498718 -0.866764
    outer loop
      vertex -0.441034 0.502587 1.54034
      vertex 0.441635 0.504829 1.54163
      vertex 0.441034 0.502587 1.54034
    endloop
  endfacet
  facet normal 0 0.498718 -0.866764
    outer loop
      vertex -0.441635 0.504829 1.54163
      vertex 0.441635 0.504829 1.54163
      vertex -0.441034 0.502587 1.54034
    endloop
  endfacet
  facet normal 0 0.501614 -0.865091
    outer loop
      vertex 0.441635 0.504829 1.54163
      vertex -0.441635 0.504829 1.54163
      vertex 0.443876 0.507071 1.54293
    endloop
  endfacet
  facet normal 0 0.501614 -0.865091
    outer loop
      vertex 0.443876 0.507071 1.54293
      vertex -0.441635 0.504829 1.54163
      vertex -0.443876 0.507071 1.54293
    endloop
  endfacet
  facet normal 0.617493 0.617493 0.487241
    outer loop
      vertex 0.503535 0.506124 1.60707
      vertex 0.508365 0.504829 1.60259
      vertex 0.504829 0.508365 1.60259
    endloop
  endfacet
  facet normal 0.617493 0.617493 0.487241
    outer loop
      vertex 0.508365 0.504829 1.60259
      vertex 0.503535 0.506124 1.60707
      vertex 0.506124 0.503535 1.60707
    endloop
  endfacet
  facet normal 0.707107 -0.707107 0
    outer loop
      vertex 0.504829 -0.508365 1.60259
      vertex 0.508365 -0.504829 0.897412
      vertex 0.508365 -0.504829 1.60259
    endloop
  endfacet
  facet normal 0.707107 -0.707107 0
    outer loop
      vertex 0.508365 -0.504829 0.897412
      vertex 0.504829 -0.508365 1.60259
      vertex 0.504829 -0.508365 0.897412
    endloop
  endfacet
  facet normal -0.617493 -0.617493 0.487241
    outer loop
      vertex -0.508365 -0.504829 1.60259
      vertex -0.503535 -0.506124 1.60707
      vertex -0.506124 -0.503535 1.60707
    endloop
  endfacet
  facet normal -0.617493 -0.617493 0.487241
    outer loop
      vertex -0.503535 -0.506124 1.60707
      vertex -0.508365 -0.504829 1.60259
      vertex -0.504829 -0.508365 1.60259
    endloop
  endfacet
  facet normal 0 -0.865902 -0.500213
    outer loop
      vertex -0.44517 -0.508365 1.54517
      vertex 0.45 -0.509659 1.54741
      vertex -0.45 -0.509659 1.54741
    endloop
  endfacet
  facet normal 0 -0.865902 -0.500213
    outer loop
      vertex -0.44517 -0.508365 1.54517
      vertex 0.44517 -0.508365 1.54517
      vertex 0.45 -0.509659 1.54741
    endloop
  endfacet
  facet normal 0 -0.865902 -0.500213
    outer loop
      vertex -0.443876 -0.507071 1.54293
      vertex 0.44517 -0.508365 1.54517
      vertex -0.44517 -0.508365 1.54517
    endloop
  endfacet
  facet normal 0 -0.865902 -0.500213
    outer loop
      vertex 0.44517 -0.508365 1.54517
      vertex -0.443876 -0.507071 1.54293
      vertex 0.443876 -0.507071 1.54293
    endloop
  endfacet
  facet normal -0.843513 -0.226032 0.487232
    outer loop
      vertex -0.506124 -0.503535 1.60707
      vertex -0.509659 -0.5 1.60259
      vertex -0.508365 -0.504829 1.60259
    endloop
  endfacet
  facet normal -0.226032 -0.843513 0.487232
    outer loop
      vertex -0.503535 -0.506124 1.60707
      vertex -0.504829 -0.508365 1.60259
      vertex -0.5 -0.509659 1.60259
    endloop
  endfacet
  facet normal -0.258833 -0.965922 0
    outer loop
      vertex -0.504829 -0.508365 0.897412
      vertex -0.5 -0.509659 1.60259
      vertex -0.504829 -0.508365 1.60259
    endloop
  endfacet
  facet normal -0.258833 -0.965922 -0
    outer loop
      vertex -0.5 -0.509659 1.60259
      vertex -0.504829 -0.508365 0.897412
      vertex -0.5 -0.509659 0.897412
    endloop
  endfacet
  facet normal 0.132659 -0.495748 0.858275
    outer loop
      vertex 0.5 -0.502587 1.60966
      vertex 0.5 -0.507071 1.60707
      vertex 0.501293 -0.502241 1.60966
    endloop
  endfacet
  facet normal 0.362915 0.362915 0.858245
    outer loop
      vertex 0.503535 0.506124 1.60707
      vertex 0.502241 0.501293 1.60966
      vertex 0.506124 0.503535 1.60707
    endloop
  endfacet
  facet normal 0.362915 0.362915 0.858245
    outer loop
      vertex 0.502241 0.501293 1.60966
      vertex 0.503535 0.506124 1.60707
      vertex 0.501293 0.502241 1.60966
    endloop
  endfacet
  facet normal 0.495769 0.132813 0.858239
    outer loop
      vertex 0.506124 0.503535 1.60707
      vertex 0.502241 0.501293 1.60966
      vertex 0.507071 0.5 1.60707
    endloop
  endfacet
  facet normal -0 0.500168 0.865928
    outer loop
      vertex -0.5 0.507071 1.60707
      vertex 0.5 0.502587 1.60966
      vertex 0.5 0.507071 1.60707
    endloop
  endfacet
  facet normal 0 0.500168 0.865928
    outer loop
      vertex 0.5 0.502587 1.60966
      vertex -0.5 0.507071 1.60707
      vertex -0.5 0.502587 1.60966
    endloop
  endfacet
  facet normal 0.362915 -0.362915 0.858245
    outer loop
      vertex 0.502241 -0.501293 1.60966
      vertex 0.503535 -0.506124 1.60707
      vertex 0.506124 -0.503535 1.60707
    endloop
  endfacet
  facet normal 0.362915 -0.362915 0.858245
    outer loop
      vertex 0.503535 -0.506124 1.60707
      vertex 0.502241 -0.501293 1.60966
      vertex 0.501293 -0.502241 1.60966
    endloop
  endfacet
  facet normal -0.495769 0.132813 0.858239
    outer loop
      vertex -0.506124 0.503535 1.60707
      vertex -0.507071 0.5 1.60707
      vertex -0.502241 0.501293 1.60966
    endloop
  endfacet
  facet normal -0.495748 0.132659 0.858275
    outer loop
      vertex -0.502241 0.501293 1.60966
      vertex -0.507071 0.5 1.60707
      vertex -0.502587 0.5 1.60966
    endloop
  endfacet
  facet normal 0 0 1
    outer loop
      vertex 0.5 0.502587 1.60966
      vertex 0.502587 0.5 1.60966
      vertex 0.502241 0.501293 1.60966
    endloop
  endfacet
  facet normal 0 0 1
    outer loop
      vertex 0.502587 0.5 1.60966
      vertex 0.5 0.502587 1.60966
      vertex 0.502587 -0.5 1.60966
    endloop
  endfacet
  facet normal 0 0 1
    outer loop
      vertex 0.5 0.502587 1.60966
      vertex 0.502241 0.501293 1.60966
      vertex 0.501293 0.502241 1.60966
    endloop
  endfacet
  facet normal 0 0 1
    outer loop
      vertex 0.5 -0.502587 1.60966
      vertex 0.502587 -0.5 1.60966
      vertex 0.5 0.502587 1.60966
    endloop
  endfacet
  facet normal 0 0 1
    outer loop
      vertex 0.502587 -0.5 1.60966
      vertex 0.5 -0.502587 1.60966
      vertex 0.502241 -0.501293 1.60966
    endloop
  endfacet
  facet normal 0 0 1
    outer loop
      vertex 0.502241 -0.501293 1.60966
      vertex 0.5 -0.502587 1.60966
      vertex 0.501293 -0.502241 1.60966
    endloop
  endfacet
  facet normal -0 0 1
    outer loop
      vertex -0.5 0.502587 1.60966
      vertex 0.5 -0.502587 1.60966
      vertex 0.5 0.502587 1.60966
    endloop
  endfacet
  facet normal 0 0 1
    outer loop
      vertex -0.5 0.502587 1.60966
      vertex -0.5 -0.502587 1.60966
      vertex 0.5 -0.502587 1.60966
    endloop
  endfacet
  facet normal 0 0 1
    outer loop
      vertex -0.502587 0.5 1.60966
      vertex -0.5 0.502587 1.60966
      vertex -0.501293 0.502241 1.60966
    endloop
  endfacet
  facet normal 0 0 1
    outer loop
      vertex -0.5 0.502587 1.60966
      vertex -0.502587 0.5 1.60966
      vertex -0.5 -0.502587 1.60966
    endloop
  endfacet
  facet normal 0 0 1
    outer loop
      vertex -0.502587 0.5 1.60966
      vertex -0.501293 0.502241 1.60966
      vertex -0.502241 0.501293 1.60966
    endloop
  endfacet
  facet normal -0 0 1
    outer loop
      vertex -0.502587 -0.5 1.60966
      vertex -0.5 -0.502587 1.60966
      vertex -0.502587 0.5 1.60966
    endloop
  endfacet
  facet normal 0 0 1
    outer loop
      vertex -0.5 -0.502587 1.60966
      vertex -0.502587 -0.5 1.60966
      vertex -0.501293 -0.502241 1.60966
    endloop
  endfacet
  facet normal 0 0 1
    outer loop
      vertex -0.501293 -0.502241 1.60966
      vertex -0.502587 -0.5 1.60966
      vertex -0.502241 -0.501293 1.60966
    endloop
  endfacet
  facet normal -0.225969 0.843505 0.487275
    outer loop
      vertex -0.5 0.509659 1.60259
      vertex -0.503535 0.506124 1.60707
      vertex -0.5 0.507071 1.60707
    endloop
  endfacet
  facet normal 0.707107 0.707107 0
    outer loop
      vertex 0.508365 0.504829 1.60259
      vertex 0.504829 0.508365 0.897412
      vertex 0.504829 0.508365 1.60259
    endloop
  endfacet
  facet normal 0.707107 0.707107 0
    outer loop
      vertex 0.504829 0.508365 0.897412
      vertex 0.508365 0.504829 1.60259
      vertex 0.508365 0.504829 0.897412
    endloop
  endfacet
  facet normal 0.843505 0.225969 0.487275
    outer loop
      vertex 0.509659 0.5 1.60259
      vertex 0.506124 0.503535 1.60707
      vertex 0.507071 0.5 1.60707
    endloop
  endfacet
  facet normal -0.362915 -0.362915 0.858245
    outer loop
      vertex -0.502241 -0.501293 1.60966
      vertex -0.503535 -0.506124 1.60707
      vertex -0.501293 -0.502241 1.60966
    endloop
  endfacet
  facet normal -0.362915 -0.362915 0.858245
    outer loop
      vertex -0.503535 -0.506124 1.60707
      vertex -0.502241 -0.501293 1.60966
      vertex -0.506124 -0.503535 1.60707
    endloop
  endfacet
  facet normal 0.617493 -0.617493 0.487241
    outer loop
      vertex 0.503535 -0.506124 1.60707
      vertex 0.508365 -0.504829 1.60259
      vertex 0.506124 -0.503535 1.60707
    endloop
  endfacet
  facet normal 0.617493 -0.617493 0.487241
    outer loop
      vertex 0.508365 -0.504829 1.60259
      vertex 0.503535 -0.506124 1.60707
      vertex 0.504829 -0.508365 1.60259
    endloop
  endfacet
  facet normal -0.132659 0.495748 0.858275
    outer loop
      vertex -0.5 0.507071 1.60707
      vertex -0.501293 0.502241 1.60966
      vertex -0.5 0.502587 1.60966
    endloop
  endfacet
  facet normal -0.132813 0.495769 0.858239
    outer loop
      vertex -0.5 0.507071 1.60707
      vertex -0.503535 0.506124 1.60707
      vertex -0.501293 0.502241 1.60966
    endloop
  endfacet
  facet normal 0.965922 -0.258833 0
    outer loop
      vertex 0.508365 -0.504829 1.60259
      vertex 0.509659 -0.5 0.897412
      vertex 0.509659 -0.5 1.60259
    endloop
  endfacet
  facet normal 0.965922 -0.258833 0
    outer loop
      vertex 0.509659 -0.5 0.897412
      vertex 0.508365 -0.504829 1.60259
      vertex 0.508365 -0.504829 0.897412
    endloop
  endfacet
  facet normal -0.707107 -0.707107 0
    outer loop
      vertex -0.504829 -0.508365 0.897412
      vertex -0.508365 -0.504829 1.60259
      vertex -0.508365 -0.504829 0.897412
    endloop
  endfacet
  facet normal -0.707107 -0.707107 0
    outer loop
      vertex -0.508365 -0.504829 1.60259
      vertex -0.504829 -0.508365 0.897412
      vertex -0.504829 -0.508365 1.60259
    endloop
  endfacet
  facet normal -0.362915 0.362915 0.858245
    outer loop
      vertex -0.503535 0.506124 1.60707
      vertex -0.502241 0.501293 1.60966
      vertex -0.501293 0.502241 1.60966
    endloop
  endfacet
  facet normal -0.362915 0.362915 0.858245
    outer loop
      vertex -0.502241 0.501293 1.60966
      vertex -0.503535 0.506124 1.60707
      vertex -0.506124 0.503535 1.60707
    endloop
  endfacet
  facet normal 0.843513 0.226032 0.487232
    outer loop
      vertex 0.508365 0.504829 1.60259
      vertex 0.506124 0.503535 1.60707
      vertex 0.509659 0.5 1.60259
    endloop
  endfacet
  facet normal -0.495465 0.132584 -0.858449
    outer loop
      vertex -0.502587 0.5 0.890341
      vertex -0.507071 0.5 0.892929
      vertex -0.502241 0.501293 0.890341
    endloop
  endfacet
  facet normal -0.617592 -0.617592 -0.486992
    outer loop
      vertex -0.503535 -0.506124 0.892929
      vertex -0.508365 -0.504829 0.897412
      vertex -0.506124 -0.503535 0.892929
    endloop
  endfacet
  facet normal -0.617592 -0.617592 -0.486992
    outer loop
      vertex -0.508365 -0.504829 0.897412
      vertex -0.503535 -0.506124 0.892929
      vertex -0.504829 -0.508365 0.897412
    endloop
  endfacet
  facet normal -0.495487 0.132737 -0.858413
    outer loop
      vertex -0.502241 0.501293 0.890341
      vertex -0.507071 0.5 0.892929
      vertex -0.506124 0.503535 0.892929
    endloop
  endfacet
  facet normal 0.843639 0.226005 -0.487026
    outer loop
      vertex 0.507071 0.5 0.892929
      vertex 0.506124 0.503535 0.892929
      vertex 0.509659 0.5 0.897412
    endloop
  endfacet
  facet normal 0 -0.866047 -0.499962
    outer loop
      vertex -0.5 -0.507071 0.892929
      vertex 0.5 -0.509659 0.897412
      vertex -0.5 -0.509659 0.897412
    endloop
  endfacet
  facet normal 0 -0.866047 -0.499962
    outer loop
      vertex 0.5 -0.509659 0.897412
      vertex -0.5 -0.507071 0.892929
      vertex 0.5 -0.507071 0.892929
    endloop
  endfacet
  facet normal 0.495487 -0.132737 -0.858413
    outer loop
      vertex 0.506124 -0.503535 0.892929
      vertex 0.502241 -0.501293 0.890341
      vertex 0.507071 -0.5 0.892929
    endloop
  endfacet
  facet normal 0 -0.499879 -0.866096
    outer loop
      vertex -0.5 -0.507071 0.892929
      vertex 0.5 -0.502587 0.890341
      vertex 0.5 -0.507071 0.892929
    endloop
  endfacet
  facet normal -0 -0.499879 -0.866096
    outer loop
      vertex 0.5 -0.502587 0.890341
      vertex -0.5 -0.507071 0.892929
      vertex -0.5 -0.502587 0.890341
    endloop
  endfacet
  facet normal 0.362709 -0.362709 -0.85842
    outer loop
      vertex 0.503535 -0.506124 0.892929
      vertex 0.502241 -0.501293 0.890341
      vertex 0.506124 -0.503535 0.892929
    endloop
  endfacet
  facet normal 0.362709 -0.362709 -0.85842
    outer loop
      vertex 0.502241 -0.501293 0.890341
      vertex 0.503535 -0.506124 0.892929
      vertex 0.501293 -0.502241 0.890341
    endloop
  endfacet
  facet normal 0.617592 -0.617592 -0.486992
    outer loop
      vertex 0.508365 -0.504829 0.897412
      vertex 0.503535 -0.506124 0.892929
      vertex 0.506124 -0.503535 0.892929
    endloop
  endfacet
  facet normal 0.617592 -0.617592 -0.486992
    outer loop
      vertex 0.503535 -0.506124 0.892929
      vertex 0.508365 -0.504829 0.897412
      vertex 0.504829 -0.508365 0.897412
    endloop
  endfacet
  facet normal 0 0.500168 0.865928
    outer loop
      vertex 0.441635 0.504829 0.958364
      vertex -0.441034 0.502587 0.959659
      vertex 0.441034 0.502587 0.959659
    endloop
  endfacet
  facet normal -0 0.499879 0.866096
    outer loop
      vertex -0.441635 0.504829 0.958364
      vertex 0.441635 0.504829 0.958364
      vertex 0.443876 0.507071 0.95707
    endloop
  endfacet
  facet normal 0 0.500168 0.865928
    outer loop
      vertex 0.441635 0.504829 0.958364
      vertex -0.441635 0.504829 0.958364
      vertex -0.441034 0.502587 0.959659
    endloop
  endfacet
  facet normal 0 0.499879 0.866096
    outer loop
      vertex -0.441635 0.504829 0.958364
      vertex 0.443876 0.507071 0.95707
      vertex -0.443876 0.507071 0.95707
    endloop
  endfacet
  facet normal -0.617592 0.617592 -0.486992
    outer loop
      vertex -0.503535 0.506124 0.892929
      vertex -0.508365 0.504829 0.897412
      vertex -0.504829 0.508365 0.897412
    endloop
  endfacet
  facet normal -0.617592 0.617592 -0.486992
    outer loop
      vertex -0.508365 0.504829 0.897412
      vertex -0.503535 0.506124 0.892929
      vertex -0.506124 0.503535 0.892929
    endloop
  endfacet
  facet normal 0.843647 -0.226067 -0.486983
    outer loop
      vertex 0.508365 -0.504829 0.897412
      vertex 0.506124 -0.503535 0.892929
      vertex 0.509659 -0.5 0.897412
    endloop
  endfacet
  facet normal -0.132584 0.495465 -0.858449
    outer loop
      vertex -0.5 0.502587 0.890341
      vertex -0.501293 0.502241 0.890341
      vertex -0.5 0.507071 0.892929
    endloop
  endfacet
  facet normal -0.132737 0.495487 -0.858413
    outer loop
      vertex -0.501293 0.502241 0.890341
      vertex -0.503535 0.506124 0.892929
      vertex -0.5 0.507071 0.892929
    endloop
  endfacet
  facet normal -0.226005 0.843639 -0.487026
    outer loop
      vertex -0.5 0.507071 0.892929
      vertex -0.503535 0.506124 0.892929
      vertex -0.5 0.509659 0.897412
    endloop
  endfacet
  facet normal 0 0.865999 0.500046
    outer loop
      vertex 0.44517 0.508365 0.954829
      vertex -0.443876 0.507071 0.95707
      vertex 0.443876 0.507071 0.95707
    endloop
  endfacet
  facet normal 0 0.865999 0.500046
    outer loop
      vertex 0.44517 0.508365 0.954829
      vertex -0.44517 0.508365 0.954829
      vertex -0.443876 0.507071 0.95707
    endloop
  endfacet
  facet normal 0 0.866096 0.499879
    outer loop
      vertex 0.45 0.509659 0.952587
      vertex -0.44517 0.508365 0.954829
      vertex 0.44517 0.508365 0.954829
    endloop
  endfacet
  facet normal 0 0.866096 0.499879
    outer loop
      vertex -0.44517 0.508365 0.954829
      vertex 0.45 0.509659 0.952587
      vertex -0.45 0.509659 0.952587
    endloop
  endfacet
  facet normal -0.866047 0 -0.499962
    outer loop
      vertex -0.507071 -0.5 0.892929
      vertex -0.509659 0.5 0.897412
      vertex -0.507071 0.5 0.892929
    endloop
  endfacet
  facet normal -0.866047 -0 -0.499962
    outer loop
      vertex -0.509659 0.5 0.897412
      vertex -0.507071 -0.5 0.892929
      vertex -0.509659 -0.5 0.897412
    endloop
  endfacet
  facet normal 0.132584 0.495465 -0.858449
    outer loop
      vertex 0.501293 0.502241 0.890341
      vertex 0.5 0.502587 0.890341
      vertex 0.5 0.507071 0.892929
    endloop
  endfacet
  facet normal -0.132584 -0.495465 -0.858449
    outer loop
      vertex -0.5 -0.507071 0.892929
      vertex -0.501293 -0.502241 0.890341
      vertex -0.5 -0.502587 0.890341
    endloop
  endfacet
  facet normal -0.843639 0.226005 -0.487026
    outer loop
      vertex -0.507071 0.5 0.892929
      vertex -0.509659 0.5 0.897412
      vertex -0.506124 0.503535 0.892929
    endloop
  endfacet
  facet normal -0.843647 -0.226067 -0.486983
    outer loop
      vertex -0.508365 -0.504829 0.897412
      vertex -0.509659 -0.5 0.897412
      vertex -0.506124 -0.503535 0.892929
    endloop
  endfacet
  facet normal 0.226067 -0.843647 -0.486983
    outer loop
      vertex 0.504829 -0.508365 0.897412
      vertex 0.5 -0.509659 0.897412
      vertex 0.503535 -0.506124 0.892929
    endloop
  endfacet
  facet normal -0.843639 -0.226005 -0.487026
    outer loop
      vertex -0.506124 -0.503535 0.892929
      vertex -0.509659 -0.5 0.897412
      vertex -0.507071 -0.5 0.892929
    endloop
  endfacet
  facet normal -0.499879 0 -0.866096
    outer loop
      vertex -0.507071 -0.5 0.892929
      vertex -0.502587 0.5 0.890341
      vertex -0.502587 -0.5 0.890341
    endloop
  endfacet
  facet normal -0.499879 0 -0.866096
    outer loop
      vertex -0.502587 0.5 0.890341
      vertex -0.507071 -0.5 0.892929
      vertex -0.507071 0.5 0.892929
    endloop
  endfacet
  facet normal -0.843647 0.226067 -0.486983
    outer loop
      vertex -0.506124 0.503535 0.892929
      vertex -0.509659 0.5 0.897412
      vertex -0.508365 0.504829 0.897412
    endloop
  endfacet
  facet normal -0.495465 -0.132584 -0.858449
    outer loop
      vertex -0.502241 -0.501293 0.890341
      vertex -0.507071 -0.5 0.892929
      vertex -0.502587 -0.5 0.890341
    endloop
  endfacet
  facet normal -0.226067 0.843647 -0.486983
    outer loop
      vertex -0.503535 0.506124 0.892929
      vertex -0.504829 0.508365 0.897412
      vertex -0.5 0.509659 0.897412
    endloop
  endfacet
  facet normal 0.843639 -0.226005 -0.487026
    outer loop
      vertex 0.509659 -0.5 0.897412
      vertex 0.506124 -0.503535 0.892929
      vertex 0.507071 -0.5 0.892929
    endloop
  endfacet
  facet normal 0.226005 -0.843639 -0.487026
    outer loop
      vertex 0.503535 -0.506124 0.892929
      vertex 0.5 -0.509659 0.897412
      vertex 0.5 -0.507071 0.892929
    endloop
  endfacet
  facet normal -0.362709 0.362709 -0.85842
    outer loop
      vertex -0.502241 0.501293 0.890341
      vertex -0.503535 0.506124 0.892929
      vertex -0.501293 0.502241 0.890341
    endloop
  endfacet
  facet normal -0.362709 0.362709 -0.85842
    outer loop
      vertex -0.503535 0.506124 0.892929
      vertex -0.502241 0.501293 0.890341
      vertex -0.506124 0.503535 0.892929
    endloop
  endfacet
  facet normal -0.362709 -0.362709 -0.85842
    outer loop
      vertex -0.503535 -0.506124 0.892929
      vertex -0.502241 -0.501293 0.890341
      vertex -0.501293 -0.502241 0.890341
    endloop
  endfacet
  facet normal -0.362709 -0.362709 -0.85842
    outer loop
      vertex -0.502241 -0.501293 0.890341
      vertex -0.503535 -0.506124 0.892929
      vertex -0.506124 -0.503535 0.892929
    endloop
  endfacet
  facet normal -0.495487 -0.132737 -0.858413
    outer loop
      vertex -0.506124 -0.503535 0.892929
      vertex -0.507071 -0.5 0.892929
      vertex -0.502241 -0.501293 0.890341
    endloop
  endfacet
  facet normal 0.226005 0.843639 -0.487026
    outer loop
      vertex 0.503535 0.506124 0.892929
      vertex 0.5 0.507071 0.892929
      vertex 0.5 0.509659 0.897412
    endloop
  endfacet
  facet normal 0.495465 -0.132584 -0.858449
    outer loop
      vertex 0.507071 -0.5 0.892929
      vertex 0.502241 -0.501293 0.890341
      vertex 0.502587 -0.5 0.890341
    endloop
  endfacet
  facet normal 0 0.866047 -0.499962
    outer loop
      vertex 0.5 0.507071 0.892929
      vertex -0.5 0.509659 0.897412
      vertex 0.5 0.509659 0.897412
    endloop
  endfacet
  facet normal 0 0.866047 -0.499962
    outer loop
      vertex -0.5 0.509659 0.897412
      vertex 0.5 0.507071 0.892929
      vertex -0.5 0.507071 0.892929
    endloop
  endfacet
  facet normal -0.226067 -0.843647 -0.486983
    outer loop
      vertex -0.5 -0.509659 0.897412
      vertex -0.504829 -0.508365 0.897412
      vertex -0.503535 -0.506124 0.892929
    endloop
  endfacet
  facet normal 0.499879 0 -0.866096
    outer loop
      vertex 0.502587 -0.5 0.890341
      vertex 0.507071 0.5 0.892929
      vertex 0.507071 -0.5 0.892929
    endloop
  endfacet
  facet normal 0.499879 0 -0.866096
    outer loop
      vertex 0.507071 0.5 0.892929
      vertex 0.502587 -0.5 0.890341
      vertex 0.502587 0.5 0.890341
    endloop
  endfacet
  facet normal 0.132584 -0.495465 -0.858449
    outer loop
      vertex 0.501293 -0.502241 0.890341
      vertex 0.5 -0.507071 0.892929
      vertex 0.5 -0.502587 0.890341
    endloop
  endfacet
  facet normal 0.132737 -0.495487 -0.858413
    outer loop
      vertex 0.503535 -0.506124 0.892929
      vertex 0.5 -0.507071 0.892929
      vertex 0.501293 -0.502241 0.890341
    endloop
  endfacet
  facet normal 0.132737 0.495487 -0.858413
    outer loop
      vertex 0.501293 0.502241 0.890341
      vertex 0.5 0.507071 0.892929
      vertex 0.503535 0.506124 0.892929
    endloop
  endfacet
  facet normal 0.495465 0.132584 -0.858449
    outer loop
      vertex 0.502587 0.5 0.890341
      vertex 0.502241 0.501293 0.890341
      vertex 0.507071 0.5 0.892929
    endloop
  endfacet
  facet normal 0.495487 0.132737 -0.858413
    outer loop
      vertex 0.507071 0.5 0.892929
      vertex 0.502241 0.501293 0.890341
      vertex 0.506124 0.503535 0.892929
    endloop
  endfacet
  facet normal 0 0.499879 -0.866096
    outer loop
      vertex -0.5 0.502587 0.890341
      vertex 0.5 0.507071 0.892929
      vertex 0.5 0.502587 0.890341
    endloop
  endfacet
  facet normal 0 0.499879 -0.866096
    outer loop
      vertex 0.5 0.507071 0.892929
      vertex -0.5 0.502587 0.890341
      vertex -0.5 0.507071 0.892929
    endloop
  endfacet
  facet normal 0 -0.865999 0.500046
    outer loop
      vertex -0.44517 -0.508365 0.954829
      vertex 0.443876 -0.507071 0.95707
      vertex -0.443876 -0.507071 0.95707
    endloop
  endfacet
  facet normal 0 -0.865999 0.500046
    outer loop
      vertex -0.44517 -0.508365 0.954829
      vertex 0.44517 -0.508365 0.954829
      vertex 0.443876 -0.507071 0.95707
    endloop
  endfacet
  facet normal 0 -0.866096 0.499879
    outer loop
      vertex -0.45 -0.509659 0.952587
      vertex 0.44517 -0.508365 0.954829
      vertex -0.44517 -0.508365 0.954829
    endloop
  endfacet
  facet normal 0 -0.866096 0.499879
    outer loop
      vertex 0.44517 -0.508365 0.954829
      vertex -0.45 -0.509659 0.952587
      vertex 0.45 -0.509659 0.952587
    endloop
  endfacet
  facet normal -0.226005 -0.843639 -0.487026
    outer loop
      vertex -0.5 -0.509659 0.897412
      vertex -0.503535 -0.506124 0.892929
      vertex -0.5 -0.507071 0.892929
    endloop
  endfacet
  facet normal -0.132737 -0.495487 -0.858413
    outer loop
      vertex -0.5 -0.507071 0.892929
      vertex -0.503535 -0.506124 0.892929
      vertex -0.501293 -0.502241 0.890341
    endloop
  endfacet
  facet normal 0.362709 0.362709 -0.85842
    outer loop
      vertex 0.502241 0.501293 0.890341
      vertex 0.503535 0.506124 0.892929
      vertex 0.506124 0.503535 0.892929
    endloop
  endfacet
  facet normal 0.362709 0.362709 -0.85842
    outer loop
      vertex 0.503535 0.506124 0.892929
      vertex 0.502241 0.501293 0.890341
      vertex 0.501293 0.502241 0.890341
    endloop
  endfacet
  facet normal 0.226067 0.843647 -0.486983
    outer loop
      vertex 0.503535 0.506124 0.892929
      vertex 0.5 0.509659 0.897412
      vertex 0.504829 0.508365 0.897412
    endloop
  endfacet
  facet normal 0 -0.500168 0.865928
    outer loop
      vertex -0.441034 -0.502587 0.959659
      vertex 0.441635 -0.504829 0.958364
      vertex 0.441034 -0.502587 0.959659
    endloop
  endfacet
  facet normal 0 -0.500168 0.865928
    outer loop
      vertex -0.441635 -0.504829 0.958364
      vertex 0.441635 -0.504829 0.958364
      vertex -0.441034 -0.502587 0.959659
    endloop
  endfacet
  facet normal 0 -0.499879 0.866096
    outer loop
      vertex 0.441635 -0.504829 0.958364
      vertex -0.441635 -0.504829 0.958364
      vertex 0.443876 -0.507071 0.95707
    endloop
  endfacet
  facet normal 0 -0.499879 0.866096
    outer loop
      vertex 0.443876 -0.507071 0.95707
      vertex -0.441635 -0.504829 0.958364
      vertex -0.443876 -0.507071 0.95707
    endloop
  endfacet
  facet normal 0.866047 0 -0.499962
    outer loop
      vertex 0.509659 -0.5 0.897412
      vertex 0.507071 0.5 0.892929
      vertex 0.509659 0.5 0.897412
    endloop
  endfacet
  facet normal 0.866047 0 -0.499962
    outer loop
      vertex 0.507071 0.5 0.892929
      vertex 0.509659 -0.5 0.897412
      vertex 0.507071 -0.5 0.892929
    endloop
  endfacet
  facet normal 0 0 1
    outer loop
      vertex 0.440341 0.5 0.959659
      vertex -0.440341 0.5 0.959659
      vertex 0.440341 -0.5 0.959659
    endloop
  endfacet
  facet normal 0 0 1
    outer loop
      vertex 0.441034 0.502587 0.959659
      vertex -0.440341 0.5 0.959659
      vertex 0.440341 0.5 0.959659
    endloop
  endfacet
  facet normal 0 -0 1
    outer loop
      vertex -0.440341 0.5 0.959659
      vertex 0.441034 0.502587 0.959659
      vertex -0.441034 0.502587 0.959659
    endloop
  endfacet
  facet normal 0 0 1
    outer loop
      vertex -0.440341 -0.5 0.959659
      vertex 0.440341 -0.5 0.959659
      vertex -0.440341 0.5 0.959659
    endloop
  endfacet
  facet normal 0 0 1
    outer loop
      vertex 0.440341 -0.5 0.959659
      vertex -0.440341 -0.5 0.959659
      vertex 0.441034 -0.502587 0.959659
    endloop
  endfacet
  facet normal 0 0 1
    outer loop
      vertex 0.441034 -0.502587 0.959659
      vertex -0.440341 -0.5 0.959659
      vertex -0.441034 -0.502587 0.959659
    endloop
  endfacet
  facet normal 0.617592 0.617592 -0.486992
    outer loop
      vertex 0.508365 0.504829 0.897412
      vertex 0.503535 0.506124 0.892929
      vertex 0.504829 0.508365 0.897412
    endloop
  endfacet
  facet normal 0.617592 0.617592 -0.486992
    outer loop
      vertex 0.503535 0.506124 0.892929
      vertex 0.508365 0.504829 0.897412
      vertex 0.506124 0.503535 0.892929
    endloop
  endfacet
  facet normal 0.843647 0.226067 -0.486983
    outer loop
      vertex 0.509659 0.5 0.897412
      vertex 0.506124 0.503535 0.892929
      vertex 0.508365 0.504829 0.897412
    endloop
  endfacet
  facet normal 0 0 -1
    outer loop
      vertex 0.5 -0.502587 0.890341
      vertex 0.502587 -0.5 0.890341
      vertex 0.502241 -0.501293 0.890341
    endloop
  endfacet
  facet normal -0 0 -1
    outer loop
      vertex 0.502587 -0.5 0.890341
      vertex 0.5 -0.502587 0.890341
      vertex 0.502587 0.5 0.890341
    endloop
  endfacet
  facet normal 0 0 -1
    outer loop
      vertex 0.5 -0.502587 0.890341
      vertex 0.502241 -0.501293 0.890341
      vertex 0.501293 -0.502241 0.890341
    endloop
  endfacet
  facet normal 0 0 -1
    outer loop
      vertex 0.5 0.502587 0.890341
      vertex 0.502587 0.5 0.890341
      vertex 0.5 -0.502587 0.890341
    endloop
  endfacet
  facet normal 0 0 -1
    outer loop
      vertex 0.502587 0.5 0.890341
      vertex 0.5 0.502587 0.890341
      vertex 0.502241 0.501293 0.890341
    endloop
  endfacet
  facet normal 0 0 -1
    outer loop
      vertex 0.502241 0.501293 0.890341
      vertex 0.5 0.502587 0.890341
      vertex 0.501293 0.502241 0.890341
    endloop
  endfacet
  facet normal 0 0 -1
    outer loop
      vertex -0.5 -0.502587 0.890341
      vertex 0.5 0.502587 0.890341
      vertex 0.5 -0.502587 0.890341
    endloop
  endfacet
  facet normal 0 0 -1
    outer loop
      vertex -0.5 -0.502587 0.890341
      vertex -0.5 0.502587 0.890341
      vertex 0.5 0.502587 0.890341
    endloop
  endfacet
  facet normal 0 0 -1
    outer loop
      vertex -0.502587 -0.5 0.890341
      vertex -0.5 -0.502587 0.890341
      vertex -0.501293 -0.502241 0.890341
    endloop
  endfacet
  facet normal 0 0 -1
    outer loop
      vertex -0.5 -0.502587 0.890341
      vertex -0.502587 -0.5 0.890341
      vertex -0.5 0.502587 0.890341
    endloop
  endfacet
  facet normal 0 0 -1
    outer loop
      vertex -0.502587 -0.5 0.890341
      vertex -0.501293 -0.502241 0.890341
      vertex -0.502241 -0.501293 0.890341
    endloop
  endfacet
  facet normal 0 0 -1
    outer loop
      vertex -0.502587 0.5 0.890341
      vertex -0.5 0.502587 0.890341
      vertex -0.502587 -0.5 0.890341
    endloop
  endfacet
  facet normal 0 0 -1
    outer loop
      vertex -0.5 0.502587 0.890341
      vertex -0.502587 0.5 0.890341
      vertex -0.501293 0.502241 0.890341
    endloop
  endfacet
  facet normal 0 0 -1
    outer loop
      vertex -0.501293 0.502241 0.890341
      vertex -0.502587 0.5 0.890341
      vertex -0.502241 0.501293 0.890341
    endloop
  endfacet
  facet normal 0.965898 0.258923 0
    outer loop
      vertex -0.441034 0.502587 1.54034
      vertex -0.441635 0.504829 0.958364
      vertex -0.441635 0.504829 1.54163
    endloop
  endfacet
  facet normal 0.965898 0.258923 0
    outer loop
      vertex -0.441034 0.502587 1.54034
      vertex -0.441034 0.502587 0.959659
      vertex -0.441635 0.504829 0.958364
    endloop
  endfacet
  facet normal 0.965943 0.258755 0
    outer loop
      vertex -0.440341 0.5 1.54034
      vertex -0.441034 0.502587 0.959659
      vertex -0.441034 0.502587 1.54034
    endloop
  endfacet
  facet normal 0.965943 0.258755 0
    outer loop
      vertex -0.441034 0.502587 0.959659
      vertex -0.440341 0.5 1.54034
      vertex -0.440341 0.5 0.959659
    endloop
  endfacet
  facet normal 0.707107 0.707107 0
    outer loop
      vertex -0.443876 0.507071 1.54293
      vertex -0.44517 0.508365 0.954829
      vertex -0.44517 0.508365 1.54517
    endloop
  endfacet
  facet normal 0.707107 0.707107 0
    outer loop
      vertex -0.443876 0.507071 1.54293
      vertex -0.443876 0.507071 0.95707
      vertex -0.44517 0.508365 0.954829
    endloop
  endfacet
  facet normal 0.707264 0.706949 0
    outer loop
      vertex -0.441635 0.504829 1.54163
      vertex -0.443876 0.507071 0.95707
      vertex -0.443876 0.507071 1.54293
    endloop
  endfacet
  facet normal 0.707264 0.706949 0
    outer loop
      vertex -0.443876 0.507071 0.95707
      vertex -0.441635 0.504829 1.54163
      vertex -0.441635 0.504829 0.958364
    endloop
  endfacet
  facet normal 1 -0 0
    outer loop
      vertex -0.440341 -0.5 1.54034
      vertex -0.440341 0.5 0.959659
      vertex -0.440341 0.5 1.54034
    endloop
  endfacet
  facet normal 1 0 0
    outer loop
      vertex -0.440341 0.5 0.959659
      vertex -0.440341 -0.5 1.54034
      vertex -0.440341 -0.5 0.959659
    endloop
  endfacet
  facet normal 0.707264 -0.706949 0
    outer loop
      vertex -0.443876 -0.507071 1.54293
      vertex -0.441635 -0.504829 0.958364
      vertex -0.441635 -0.504829 1.54163
    endloop
  endfacet
  facet normal 0.707264 -0.706949 0
    outer loop
      vertex -0.443876 -0.507071 1.54293
      vertex -0.443876 -0.507071 0.95707
      vertex -0.441635 -0.504829 0.958364
    endloop
  endfacet
  facet normal 0.707107 -0.707107 0
    outer loop
      vertex -0.44517 -0.508365 1.54517
      vertex -0.443876 -0.507071 0.95707
      vertex -0.443876 -0.507071 1.54293
    endloop
  endfacet
  facet normal 0.707107 -0.707107 0
    outer loop
      vertex -0.443876 -0.507071 0.95707
      vertex -0.44517 -0.508365 1.54517
      vertex -0.44517 -0.508365 0.954829
    endloop
  endfacet
  facet normal 0.965943 -0.258755 0
    outer loop
      vertex -0.441034 -0.502587 1.54034
      vertex -0.440341 -0.5 0.959659
      vertex -0.440341 -0.5 1.54034
    endloop
  endfacet
  facet normal 0.965943 -0.258755 0
    outer loop
      vertex -0.441034 -0.502587 1.54034
      vertex -0.441034 -0.502587 0.959659
      vertex -0.440341 -0.5 0.959659
    endloop
  endfacet
  facet normal 0.965898 -0.258923 0
    outer loop
      vertex -0.441635 -0.504829 1.54163
      vertex -0.441034 -0.502587 0.959659
      vertex -0.441034 -0.502587 1.54034
    endloop
  endfacet
  facet normal 0.965898 -0.258923 0
    outer loop
      vertex -0.441034 -0.502587 0.959659
      vertex -0.441635 -0.504829 1.54163
      vertex -0.441635 -0.504829 0.958364
    endloop
  endfacet
  facet normal 0.258783 0.965936 -0
    outer loop
      vertex -0.44517 0.508365 0.954829
      vertex -0.45 0.509659 1.54741
      vertex -0.44517 0.508365 1.54517
    endloop
  endfacet
  facet normal 0.258783 0.965936 0
    outer loop
      vertex -0.45 0.509659 1.54741
      vertex -0.44517 0.508365 0.954829
      vertex -0.45 0.509659 0.952587
    endloop
  endfacet
  facet normal 0.258783 -0.965936 0
    outer loop
      vertex -0.45 -0.509659 1.54741
      vertex -0.44517 -0.508365 0.954829
      vertex -0.44517 -0.508365 1.54517
    endloop
  endfacet
  facet normal 0.258783 -0.965936 0
    outer loop
      vertex -0.44517 -0.508365 0.954829
      vertex -0.45 -0.509659 1.54741
      vertex -0.45 -0.509659 0.952587
    endloop
  endfacet
  facet normal -0.258783 0.965936 0
    outer loop
      vertex 0.45 0.509659 1.54741
      vertex 0.44517 0.508365 0.954829
      vertex 0.44517 0.508365 1.54517
    endloop
  endfacet
  facet normal -0.258783 0.965936 0
    outer loop
      vertex 0.44517 0.508365 0.954829
      vertex 0.45 0.509659 1.54741
      vertex 0.45 0.509659 0.952587
    endloop
  endfacet
  facet normal -1 0 0
    outer loop
      vertex 0.440341 -0.5 0.959659
      vertex 0.440341 0.5 1.54034
      vertex 0.440341 0.5 0.959659
    endloop
  endfacet
  facet normal -1 -0 0
    outer loop
      vertex 0.440341 0.5 1.54034
      vertex 0.440341 -0.5 0.959659
      vertex 0.440341 -0.5 1.54034
    endloop
  endfacet
  facet normal -0.965943 -0.258755 0
    outer loop
      vertex 0.441034 -0.502587 0.959659
      vertex 0.440341 -0.5 1.54034
      vertex 0.440341 -0.5 0.959659
    endloop
  endfacet
  facet normal -0.965943 -0.258755 0
    outer loop
      vertex 0.441034 -0.502587 0.959659
      vertex 0.441034 -0.502587 1.54034
      vertex 0.440341 -0.5 1.54034
    endloop
  endfacet
  facet normal -0.965898 -0.258923 0
    outer loop
      vertex 0.441635 -0.504829 0.958364
      vertex 0.441034 -0.502587 1.54034
      vertex 0.441034 -0.502587 0.959659
    endloop
  endfacet
  facet normal -0.965898 -0.258923 0
    outer loop
      vertex 0.441034 -0.502587 1.54034
      vertex 0.441635 -0.504829 0.958364
      vertex 0.441635 -0.504829 1.54163
    endloop
  endfacet
  facet normal -0.965898 0.258923 0
    outer loop
      vertex 0.441034 0.502587 0.959659
      vertex 0.441635 0.504829 1.54163
      vertex 0.441635 0.504829 0.958364
    endloop
  endfacet
  facet normal -0.965898 0.258923 0
    outer loop
      vertex 0.441034 0.502587 0.959659
      vertex 0.441034 0.502587 1.54034
      vertex 0.441635 0.504829 1.54163
    endloop
  endfacet
  facet normal -0.965943 0.258755 0
    outer loop
      vertex 0.440341 0.5 0.959659
      vertex 0.441034 0.502587 1.54034
      vertex 0.441034 0.502587 0.959659
    endloop
  endfacet
  facet normal -0.965943 0.258755 0
    outer loop
      vertex 0.441034 0.502587 1.54034
      vertex 0.440341 0.5 0.959659
      vertex 0.440341 0.5 1.54034
    endloop
  endfacet
  facet normal -0.707107 0.707107 0
    outer loop
      vertex 0.443876 0.507071 0.95707
      vertex 0.44517 0.508365 1.54517
      vertex 0.44517 0.508365 0.954829
    endloop
  endfacet
  facet normal -0.707107 0.707107 0
    outer loop
      vertex 0.443876 0.507071 0.95707
      vertex 0.443876 0.507071 1.54293
      vertex 0.44517 0.508365 1.54517
    endloop
  endfacet
  facet normal -0.707264 0.706949 0
    outer loop
      vertex 0.441635 0.504829 0.958364
      vertex 0.443876 0.507071 1.54293
      vertex 0.443876 0.507071 0.95707
    endloop
  endfacet
  facet normal -0.707264 0.706949 0
    outer loop
      vertex 0.443876 0.507071 1.54293
      vertex 0.441635 0.504829 0.958364
      vertex 0.441635 0.504829 1.54163
    endloop
  endfacet
  facet normal -0.707264 -0.706949 0
    outer loop
      vertex 0.443876 -0.507071 0.95707
      vertex 0.441635 -0.504829 1.54163
      vertex 0.441635 -0.504829 0.958364
    endloop
  endfacet
  facet normal -0.707264 -0.706949 0
    outer loop
      vertex 0.443876 -0.507071 0.95707
      vertex 0.443876 -0.507071 1.54293
      vertex 0.441635 -0.504829 1.54163
    endloop
  endfacet
  facet normal -0.707107 -0.707107 0
    outer loop
      vertex 0.44517 -0.508365 0.954829
      vertex 0.443876 -0.507071 1.54293
      vertex 0.443876 -0.507071 0.95707
    endloop
  endfacet
  facet normal -0.707107 -0.707107 0
    outer loop
      vertex 0.443876 -0.507071 1.54293
      vertex 0.44517 -0.508365 0.954829
      vertex 0.44517 -0.508365 1.54517
    endloop
  endfacet
  facet normal -0.258783 -0.965936 0
    outer loop
      vertex 0.44517 -0.508365 0.954829
      vertex 0.45 -0.509659 1.54741
      vertex 0.44517 -0.508365 1.54517
    endloop
  endfacet
  facet normal -0.258783 -0.965936 -0
    outer loop
      vertex 0.45 -0.509659 1.54741
      vertex 0.44517 -0.508365 0.954829
      vertex 0.45 -0.509659 0.952587
    endloop
  endfacet
endsolid OpenSCAD_Model
